<?xml version="1.0" encoding="UTF-8"?>
<svg xmlns="http://www.w3.org/2000/svg" xmlns:xlink="http://www.w3.org/1999/xlink" width="48pt" height="48pt" viewBox="0 0 48 48" version="1.1">
<defs>
<filter id="alpha" filterUnits="objectBoundingBox" x="0%" y="0%" width="100%" height="100%">
  <feColorMatrix type="matrix" in="SourceGraphic" values="0 0 0 0 1 0 0 0 0 1 0 0 0 0 1 0 0 0 1 0"/>
</filter>
<mask id="mask0">
  <g filter="url(#alpha)">
<rect x="0" y="0" width="48" height="48" style="fill:rgb(0%,0%,0%);fill-opacity:0.2;stroke:none;"/>
  </g>
</mask>
<clipPath id="clip1">
  <rect width="48" height="48"/>
</clipPath>
<g id="surface6" clip-path="url(#clip1)">
<path style=" stroke:none;fill-rule:nonzero;fill:rgb(0%,0%,0%);fill-opacity:1;" d="M 3.507812 18.429688 L 44.492188 18.429688 C 45.601562 18.429688 46.5 19.328125 46.5 20.4375 L 46.5 43.742188 C 46.5 44.851562 45.601562 45.75 44.492188 45.75 L 3.507812 45.75 C 2.398438 45.75 1.5 44.851562 1.5 43.742188 L 1.5 20.4375 C 1.5 19.328125 2.398438 18.429688 3.507812 18.429688 Z M 3.507812 18.429688 "/>
</g>
<mask id="mask1">
  <g filter="url(#alpha)">
<rect x="0" y="0" width="48" height="48" style="fill:rgb(0%,0%,0%);fill-opacity:0.501961;stroke:none;"/>
  </g>
</mask>
<clipPath id="clip2">
  <rect width="48" height="48"/>
</clipPath>
<g id="surface9" clip-path="url(#clip2)">
<path style=" stroke:none;fill-rule:nonzero;fill:rgb(0%,0%,0%);fill-opacity:1;" d="M 11.144531 9.589844 L 19.179688 9.589844 L 19.179688 14.410156 L 11.144531 14.410156 Z M 11.144531 9.589844 "/>
</g>
<mask id="mask2">
  <g filter="url(#alpha)">
<rect x="0" y="0" width="48" height="48" style="fill:rgb(0%,0%,0%);fill-opacity:0.501961;stroke:none;"/>
  </g>
</mask>
<clipPath id="clip3">
  <rect width="48" height="48"/>
</clipPath>
<g id="surface12" clip-path="url(#clip3)">
<path style=" stroke:none;fill-rule:nonzero;fill:rgb(0%,0%,0%);fill-opacity:1;" d="M 28.820312 9.589844 L 36.855469 9.589844 L 36.855469 14.410156 L 28.820312 14.410156 Z M 28.820312 9.589844 "/>
</g>
<mask id="mask3">
  <g filter="url(#alpha)">
<rect x="0" y="0" width="48" height="48" style="fill:rgb(0%,0%,0%);fill-opacity:0.2;stroke:none;"/>
  </g>
</mask>
<clipPath id="clip4">
  <rect width="48" height="48"/>
</clipPath>
<g id="surface15" clip-path="url(#clip4)">
<path style=" stroke:none;fill-rule:nonzero;fill:rgb(100%,100%,100%);fill-opacity:1;" d="M 7.929688 3.160156 L 7.929688 3.964844 L 40.070312 3.964844 L 40.070312 3.160156 Z M 7.929688 3.160156 "/>
</g>
</defs>
<g id="surface1">
<use xlink:href="#surface6" mask="url(#mask0)"/>
<path style=" stroke:none;fill-rule:nonzero;fill:rgb(71.764706%,71.764706%,71.764706%);fill-opacity:1;" d="M 7.929688 3.160156 L 40.070312 3.160156 L 40.070312 19.230469 L 7.929688 19.230469 Z M 7.929688 3.160156 "/>
<path style=" stroke:none;fill-rule:nonzero;fill:rgb(35.686275%,35.686275%,35.686275%);fill-opacity:1;" d="M 3.507812 17.625 L 44.492188 17.625 C 45.601562 17.625 46.5 18.523438 46.5 19.632812 L 46.5 42.9375 C 46.5 44.046875 45.601562 44.945312 44.492188 44.945312 L 3.507812 44.945312 C 2.398438 44.945312 1.5 44.046875 1.5 42.9375 L 1.5 19.632812 C 1.5 18.523438 2.398438 17.625 3.507812 17.625 Z M 3.507812 17.625 "/>
<use xlink:href="#surface9" mask="url(#mask1)"/>
<use xlink:href="#surface12" mask="url(#mask2)"/>
<use xlink:href="#surface15" mask="url(#mask3)"/>
<path style=" stroke:none;fill-rule:nonzero;fill:rgb(100%,79.607843%,3.137255%);fill-opacity:1;" d="M 18.597656 32.402344 C 18.597656 33.347656 18.273438 34.128906 17.625 34.777344 C 16.949219 35.453125 16.167969 35.777344 15.222656 35.777344 C 15.222656 35.777344 14.546875 35.777344 14.546875 35.777344 C 14.089844 35.777344 13.875 35.992188 13.875 36.453125 C 13.875 36.453125 13.875 39.152344 13.875 39.152344 C 13.875 39.527344 13.738281 39.851562 13.496094 40.09375 C 13.226562 40.363281 12.902344 40.5 12.523438 40.5 C 12.523438 40.5 11.847656 40.5 11.847656 40.5 C 11.472656 40.5 11.148438 40.363281 10.90625 40.09375 C 10.636719 39.851562 10.5 39.527344 10.5 39.152344 C 10.5 39.152344 10.5 23.632812 10.5 23.632812 C 10.5 22.6875 10.824219 21.902344 11.5 21.230469 C 12.144531 20.582031 12.929688 20.257812 13.875 20.257812 C 13.875 20.257812 15.222656 20.257812 15.222656 20.257812 C 16.167969 20.257812 16.949219 20.582031 17.625 21.230469 C 18.273438 21.902344 18.597656 22.6875 18.597656 23.632812 C 18.597656 23.632812 18.597656 32.402344 18.597656 32.402344 Z M 15.222656 31.726562 C 15.222656 31.726562 15.222656 24.304688 15.222656 24.304688 C 15.222656 23.847656 15.007812 23.632812 14.546875 23.632812 C 14.089844 23.632812 13.875 23.847656 13.875 24.304688 C 13.875 24.304688 13.875 31.726562 13.875 31.726562 C 13.875 32.1875 14.089844 32.402344 14.546875 32.402344 C 15.007812 32.402344 15.222656 32.1875 15.222656 31.726562 Z M 15.222656 31.726562 "/>
<path style=" stroke:none;fill-rule:nonzero;fill:rgb(100%,79.607843%,3.137255%);fill-opacity:1;" d="M 23.308594 39.152344 C 23.308594 39.527344 23.175781 39.851562 22.929688 40.09375 C 22.660156 40.363281 22.335938 40.5 21.960938 40.5 C 21.960938 40.5 21.285156 40.5 21.285156 40.5 C 20.90625 40.5 20.582031 40.363281 20.339844 40.09375 C 20.070312 39.851562 19.9375 39.527344 19.9375 39.152344 C 19.9375 39.152344 19.9375 21.605469 19.9375 21.605469 C 19.9375 21.230469 20.070312 20.90625 20.339844 20.636719 C 20.582031 20.394531 20.90625 20.257812 21.285156 20.257812 C 21.285156 20.257812 21.960938 20.257812 21.960938 20.257812 C 22.335938 20.257812 22.660156 20.394531 22.929688 20.636719 C 23.175781 20.90625 23.308594 21.230469 23.308594 21.605469 C 23.308594 21.605469 23.308594 39.152344 23.308594 39.152344 Z M 23.308594 39.152344 "/>
<path style=" stroke:none;fill-rule:nonzero;fill:rgb(100%,79.607843%,3.137255%);fill-opacity:1;" d="M 37.5 37.125 C 37.5 38.070312 37.175781 38.855469 36.527344 39.5 C 35.855469 40.175781 35.070312 40.5 34.125 40.5 C 34.125 40.5 32.777344 40.5 32.777344 40.5 C 32.15625 40.5 31.617188 40.339844 31.101562 40.042969 C 30.589844 40.339844 30.023438 40.5 29.402344 40.5 C 29.402344 40.5 28.054688 40.5 28.054688 40.5 C 27.109375 40.5 26.328125 40.175781 25.679688 39.5 C 25.003906 38.855469 24.679688 38.070312 24.679688 37.125 C 24.679688 37.125 24.679688 21.605469 24.679688 21.605469 C 24.679688 21.230469 24.816406 20.90625 25.085938 20.636719 C 25.328125 20.394531 25.652344 20.257812 26.03125 20.257812 C 26.03125 20.257812 26.703125 20.257812 26.703125 20.257812 C 27.082031 20.257812 27.40625 20.394531 27.675781 20.636719 C 27.917969 20.90625 28.054688 21.230469 28.054688 21.605469 C 28.054688 21.605469 28.054688 36.453125 28.054688 36.453125 C 28.054688 36.910156 28.269531 37.125 28.726562 37.125 C 29.1875 37.125 29.402344 36.910156 29.402344 36.453125 C 29.402344 36.453125 29.402344 21.605469 29.402344 21.605469 C 29.402344 21.230469 29.539062 20.90625 29.808594 20.636719 C 30.050781 20.394531 30.375 20.257812 30.753906 20.257812 C 30.753906 20.257812 31.425781 20.257812 31.425781 20.257812 C 31.804688 20.257812 32.128906 20.394531 32.398438 20.636719 C 32.640625 20.90625 32.777344 21.230469 32.777344 21.605469 C 32.777344 21.605469 32.777344 36.453125 32.777344 36.453125 C 32.777344 36.910156 32.992188 37.125 33.453125 37.125 C 33.910156 37.125 34.125 36.910156 34.125 36.453125 C 34.125 36.453125 34.125 21.605469 34.125 21.605469 C 34.125 21.230469 34.261719 20.90625 34.53125 20.636719 C 34.773438 20.394531 35.097656 20.257812 35.476562 20.257812 C 35.476562 20.257812 36.152344 20.257812 36.152344 20.257812 C 36.527344 20.257812 36.851562 20.394531 37.121094 20.636719 C 37.363281 20.90625 37.5 21.230469 37.5 21.605469 C 37.5 21.605469 37.5 37.125 37.5 37.125 Z M 37.5 37.125 "/>
</g>
</svg>
