<?xml version="1.0" encoding="UTF-8"?>
<svg xmlns="http://www.w3.org/2000/svg" xmlns:xlink="http://www.w3.org/1999/xlink" width="48pt" height="48pt" viewBox="0 0 48 48" version="1.1">
<defs>
<filter id="alpha" filterUnits="objectBoundingBox" x="0%" y="0%" width="100%" height="100%">
  <feColorMatrix type="matrix" in="SourceGraphic" values="0 0 0 0 1 0 0 0 0 1 0 0 0 0 1 0 0 0 1 0"/>
</filter>
<mask id="mask0">
  <g filter="url(#alpha)">
<rect x="0" y="0" width="48" height="48" style="fill:rgb(0%,0%,0%);fill-opacity:0.2;stroke:none;"/>
  </g>
</mask>
<clipPath id="clip1">
  <rect width="48" height="48"/>
</clipPath>
<g id="surface6" clip-path="url(#clip1)">
<path style=" stroke:none;fill-rule:nonzero;fill:rgb(0%,0%,0%);fill-opacity:1;" d="M 16.929688 3.875 L 16.929688 5.507812 L 29.996094 5.507812 L 29.996094 3.875 Z M 0.601562 38.988281 L 0.601562 40.621094 C 0.601562 41.976562 1.691406 43.070312 3.050781 43.070312 L 43.875 43.070312 C 45.234375 43.070312 46.324219 41.976562 46.324219 40.621094 L 46.324219 38.988281 C 46.324219 40.34375 45.234375 41.4375 43.875 41.4375 L 3.050781 41.4375 C 1.691406 41.4375 0.601562 40.34375 0.601562 38.988281 Z M 0.601562 38.988281 "/>
</g>
<mask id="mask1">
  <g filter="url(#alpha)">
<rect x="0" y="0" width="48" height="48" style="fill:rgb(0%,0%,0%);fill-opacity:0.2;stroke:none;"/>
  </g>
</mask>
<linearGradient id="linear0" gradientUnits="userSpaceOnUse" x1="-114.20316" y1="4.069152" x2="-113.81965" y2="-44.637321" gradientTransform="matrix(0.190378,0,0,0.190383,60.013733,45.772377)">
<stop offset="0" style="stop-color:rgb(0%,0%,0%);stop-opacity:1;"/>
<stop offset="1" style="stop-color:rgb(0%,0%,0%);stop-opacity:0;"/>
</linearGradient>
<linearGradient id="linear1" gradientUnits="userSpaceOnUse" x1="-114.20316" y1="4.069152" x2="-113.81965" y2="-44.637321" gradientTransform="matrix(0.190378,0,0,0.190383,60.013733,45.772377)">
<stop offset="0" style="stop-color:rgb(0%,0%,0%);stop-opacity:1;"/>
<stop offset="1" style="stop-color:rgb(0%,0%,0%);stop-opacity:0;"/>
</linearGradient>
<linearGradient id="linear2" gradientUnits="userSpaceOnUse" x1="-114.20316" y1="4.069152" x2="-113.81965" y2="-44.637321" gradientTransform="matrix(0.190378,0,0,0.190383,60.013733,45.772377)">
<stop offset="0" style="stop-color:rgb(0%,0%,0%);stop-opacity:1;"/>
<stop offset="1" style="stop-color:rgb(0%,0%,0%);stop-opacity:0;"/>
</linearGradient>
<linearGradient id="linear3" gradientUnits="userSpaceOnUse" x1="-114.20316" y1="4.069152" x2="-113.81965" y2="-44.637321" gradientTransform="matrix(0.0966637,0,0,0.0966661,9.510937,11.198442)">
<stop offset="0" style="stop-color:rgb(0%,0%,0%);stop-opacity:1;"/>
<stop offset="1" style="stop-color:rgb(0%,0%,0%);stop-opacity:0;"/>
</linearGradient>
<linearGradient id="linear4" gradientUnits="userSpaceOnUse" x1="-114.20316" y1="4.069152" x2="-113.81965" y2="-44.637321" gradientTransform="matrix(0.0966637,0,0,0.0966661,9.510937,11.198442)">
<stop offset="0" style="stop-color:rgb(0%,0%,0%);stop-opacity:1;"/>
<stop offset="1" style="stop-color:rgb(0%,0%,0%);stop-opacity:0;"/>
</linearGradient>
<linearGradient id="linear5" gradientUnits="userSpaceOnUse" x1="-114.20316" y1="4.069152" x2="-113.81965" y2="-44.637321" gradientTransform="matrix(0.0966637,0,0,0.0966661,9.510937,11.198442)">
<stop offset="0" style="stop-color:rgb(0%,0%,0%);stop-opacity:1;"/>
<stop offset="1" style="stop-color:rgb(0%,0%,0%);stop-opacity:0;"/>
</linearGradient>
<linearGradient id="linear6" gradientUnits="userSpaceOnUse" x1="-114.20316" y1="4.069152" x2="-113.81965" y2="-44.637321" gradientTransform="matrix(0.0966637,0,0,0.0966661,9.510937,11.198442)">
<stop offset="0" style="stop-color:rgb(0%,0%,0%);stop-opacity:1;"/>
<stop offset="1" style="stop-color:rgb(0%,0%,0%);stop-opacity:0;"/>
</linearGradient>
<linearGradient id="linear7" gradientUnits="userSpaceOnUse" x1="-114.20316" y1="4.069152" x2="-113.81965" y2="-44.637321" gradientTransform="matrix(0.0966637,0,0,0.0966661,9.510937,11.198442)">
<stop offset="0" style="stop-color:rgb(0%,0%,0%);stop-opacity:1;"/>
<stop offset="1" style="stop-color:rgb(0%,0%,0%);stop-opacity:0;"/>
</linearGradient>
<linearGradient id="linear8" gradientUnits="userSpaceOnUse" x1="-114.20316" y1="4.069152" x2="-113.81965" y2="-44.637321" gradientTransform="matrix(0.0966637,0,0,0.0966661,9.510937,11.198442)">
<stop offset="0" style="stop-color:rgb(0%,0%,0%);stop-opacity:1;"/>
<stop offset="1" style="stop-color:rgb(0%,0%,0%);stop-opacity:0;"/>
</linearGradient>
<linearGradient id="linear9" gradientUnits="userSpaceOnUse" x1="-114.20316" y1="4.069152" x2="-113.81965" y2="-44.637321" gradientTransform="matrix(0.0966637,0,0,0.0966661,9.510937,11.198442)">
<stop offset="0" style="stop-color:rgb(0%,0%,0%);stop-opacity:1;"/>
<stop offset="1" style="stop-color:rgb(0%,0%,0%);stop-opacity:0;"/>
</linearGradient>
<linearGradient id="linear10" gradientUnits="userSpaceOnUse" x1="-114.20316" y1="4.069152" x2="-113.81965" y2="-44.637321" gradientTransform="matrix(0.0966637,0,0,0.0966661,9.510937,11.198442)">
<stop offset="0" style="stop-color:rgb(0%,0%,0%);stop-opacity:1;"/>
<stop offset="1" style="stop-color:rgb(0%,0%,0%);stop-opacity:0;"/>
</linearGradient>
<linearGradient id="linear11" gradientUnits="userSpaceOnUse" x1="-114.20316" y1="4.069152" x2="-113.81965" y2="-44.637321" gradientTransform="matrix(0.0966637,0,0,0.0966661,9.510937,11.198442)">
<stop offset="0" style="stop-color:rgb(0%,0%,0%);stop-opacity:1;"/>
<stop offset="1" style="stop-color:rgb(0%,0%,0%);stop-opacity:0;"/>
</linearGradient>
<linearGradient id="linear12" gradientUnits="userSpaceOnUse" x1="-114.20316" y1="4.069152" x2="-113.81965" y2="-44.637321" gradientTransform="matrix(0.0966637,0,0,0.0966661,9.510937,11.198442)">
<stop offset="0" style="stop-color:rgb(0%,0%,0%);stop-opacity:1;"/>
<stop offset="1" style="stop-color:rgb(0%,0%,0%);stop-opacity:0;"/>
</linearGradient>
<linearGradient id="linear13" gradientUnits="userSpaceOnUse" x1="-114.20316" y1="4.069152" x2="-113.81965" y2="-44.637321" gradientTransform="matrix(0.0966637,0,0,0.0966661,9.510937,11.198442)">
<stop offset="0" style="stop-color:rgb(0%,0%,0%);stop-opacity:1;"/>
<stop offset="1" style="stop-color:rgb(0%,0%,0%);stop-opacity:0;"/>
</linearGradient>
<linearGradient id="linear14" gradientUnits="userSpaceOnUse" x1="-114.20316" y1="4.069152" x2="-113.81965" y2="-44.637321" gradientTransform="matrix(0.0966637,0,0,0.0966661,9.510937,11.198442)">
<stop offset="0" style="stop-color:rgb(0%,0%,0%);stop-opacity:1;"/>
<stop offset="1" style="stop-color:rgb(0%,0%,0%);stop-opacity:0;"/>
</linearGradient>
<clipPath id="clip2">
  <rect width="48" height="48"/>
</clipPath>
<g id="surface10" clip-path="url(#clip2)">
<path style=" stroke:none;fill-rule:nonzero;fill:url(#linear0);" d="M 47.824219 30.070312 C 47.734375 29.796875 47.449219 29.3125 47.191406 28.992188 C 46.9375 28.667969 46.519531 28.285156 46.265625 28.140625 C 46.011719 27.996094 44.851562 28.3125 44.261719 28.582031 L 43.835938 28.777344 C 43.25 29.042969 42.761719 29.269531 42.75 29.273438 C 42.742188 29.277344 42.671875 29.273438 42.617188 29.25 C 42.5625 29.226562 41.910156 29.066406 41.28125 28.921875 L 40.15625 28.65625 C 39.527344 28.511719 38.800781 28.371094 38.546875 28.347656 C 38.289062 28.320312 37.1875 28.503906 36.558594 28.648438 L 35.355469 28.925781 C 34.726562 29.070312 34.167969 29.203125 34.113281 29.21875 C 34.0625 29.234375 33.914062 29.289062 33.902344 29.28125 C 33.890625 29.277344 33.386719 29.042969 32.796875 28.777344 L 32.371094 28.582031 C 31.78125 28.3125 31.058594 28.074219 30.761719 28.054688 C 30.460938 28.03125 29.699219 28.667969 29.441406 28.992188 C 29.183594 29.3125 28.898438 29.800781 28.808594 30.070312 C 28.71875 30.339844 29.210938 31.40625 29.574219 31.941406 L 30.3125 33.035156 C 30.671875 33.570312 30.871094 34.1875 30.753906 34.410156 C 30.632812 34.628906 30.472656 35.023438 30.394531 35.285156 C 30.3125 35.542969 30.40625 36.683594 30.511719 37.320312 L 30.742188 38.679688 C 30.851562 39.316406 31.054688 40.046875 31.195312 40.308594 C 31.332031 40.570312 32.441406 41.03125 33.066406 41.183594 L 33.347656 41.253906 C 33.972656 41.410156 34.796875 41.964844 35.171875 42.488281 L 35.679688 43.1875 C 36.058594 43.710938 36.550781 44.289062 36.773438 44.464844 C 36.996094 44.644531 37.945312 44.792969 38.316406 44.792969 C 38.691406 44.792969 39.222656 44.730469 39.496094 44.652344 C 39.773438 44.574219 40.574219 43.714844 40.953125 43.1875 L 41.453125 42.5 C 41.828125 41.976562 42.648438 41.417969 43.277344 41.261719 L 43.566406 41.1875 C 44.195312 41.03125 44.910156 40.773438 45.160156 40.613281 C 45.40625 40.453125 45.78125 39.316406 45.890625 38.679688 L 46.121094 37.320312 C 46.226562 36.683594 46.308594 35.941406 46.304688 35.667969 C 46.296875 35.398438 46 34.628906 45.878906 34.410156 C 45.761719 34.1875 45.960938 33.570312 46.320312 33.035156 L 47.058594 31.941406 C 47.421875 31.40625 47.914062 30.339844 47.824219 30.070312 Z M 30.269531 31.3125 C 29.949219 30.835938 29.675781 30.410156 29.65625 30.371094 C 29.65625 30.371094 29.65625 30.371094 29.65625 30.320312 C 29.65625 30.257812 29.65625 30.257812 29.65625 30.257812 C 29.683594 30.203125 29.914062 29.890625 30.167969 29.570312 C 30.425781 29.246094 30.675781 28.960938 30.726562 28.9375 C 30.777344 28.914062 31.394531 29.15625 31.984375 29.425781 L 32.074219 29.46875 C 32.664062 29.738281 33.132812 29.96875 33.125 29.984375 C 33.113281 30.003906 32.839844 30.511719 32.535156 31.082031 L 32.019531 32.046875 C 31.714844 32.617188 30.59375 31.789062 30.269531 31.3125 Z M 45.386719 35.722656 C 45.394531 35.878906 45.3125 36.527344 45.203125 37.164062 L 44.972656 38.523438 C 44.863281 39.160156 44.738281 39.746094 44.691406 39.824219 C 44.640625 39.90625 44.097656 40.097656 43.632812 40.214844 C 43.164062 40.332031 42.800781 40.351562 42.816406 40.257812 C 42.835938 40.164062 42.566406 39.507812 42.214844 39 C 41.867188 38.492188 41.582031 38.09375 41.582031 38.109375 C 41.582031 38.128906 41.660156 38.546875 41.75 38.996094 C 41.839844 39.449219 41.90625 39.933594 41.894531 40.070312 C 41.886719 40.207031 41.726562 40.527344 41.675781 40.597656 C 41.625 40.671875 41.394531 40.992188 41.160156 41.316406 C 40.925781 41.636719 40.460938 42.28125 40.125 42.75 C 39.789062 43.214844 39.433594 43.65625 39.335938 43.730469 C 39.238281 43.800781 38.691406 43.863281 38.316406 43.863281 C 37.945312 43.863281 37.542969 43.832031 37.425781 43.796875 C 37.308594 43.757812 36.839844 43.210938 36.5 42.742188 C 36.160156 42.269531 35.695312 41.621094 35.460938 41.300781 C 35.230469 40.980469 35 40.660156 34.953125 40.59375 C 34.902344 40.523438 34.824219 40.363281 34.773438 40.234375 C 34.726562 40.105469 34.792969 39.449219 34.882812 38.996094 C 34.972656 38.546875 35.046875 38.160156 35.046875 38.140625 C 35.050781 38.125 34.765625 38.492188 34.417969 39 C 34.070312 39.507812 33.789062 40 33.792969 40.089844 C 33.800781 40.183594 33.464844 40.324219 33 40.210938 C 32.535156 40.09375 32.089844 39.957031 32.015625 39.902344 C 31.941406 39.847656 31.769531 39.160156 31.660156 38.523438 L 31.429688 37.164062 C 31.320312 36.527344 31.238281 35.878906 31.246094 35.722656 C 31.253906 35.5625 31.425781 35.121094 31.511719 34.960938 C 31.597656 34.800781 31.917969 34.207031 32.222656 33.636719 L 33.355469 31.519531 C 33.660156 30.953125 33.984375 30.40625 34.078125 30.308594 C 34.171875 30.214844 34.429688 30.09375 34.441406 30.089844 C 34.453125 30.085938 34.976562 29.96875 35.605469 29.824219 L 36.769531 29.554688 C 37.398438 29.410156 38.058594 29.28125 38.242188 29.265625 C 38.421875 29.253906 39.316406 29.414062 39.945312 29.5625 L 41.027344 29.816406 C 41.65625 29.960938 42.179688 30.085938 42.191406 30.089844 C 42.203125 30.089844 42.308594 30.144531 42.429688 30.210938 C 42.546875 30.277344 42.976562 30.953125 43.28125 31.519531 L 44.414062 33.636719 C 44.714844 34.207031 45.035156 34.800781 45.121094 34.960938 C 45.207031 35.121094 45.378906 35.5625 45.386719 35.722656 Z M 46.976562 30.371094 C 46.960938 30.410156 46.683594 30.835938 46.363281 31.3125 C 46.042969 31.789062 44.921875 32.617188 44.617188 32.046875 L 44.097656 31.082031 C 43.792969 30.511719 43.539062 30.035156 43.527344 30.015625 C 43.519531 30 43.972656 29.738281 44.558594 29.46875 L 44.648438 29.425781 C 45.238281 29.15625 45.773438 28.9375 45.839844 28.933594 C 45.90625 28.933594 46.207031 29.246094 46.464844 29.570312 C 46.71875 29.890625 46.953125 30.203125 46.976562 30.257812 C 46.976562 30.257812 46.976562 30.257812 46.976562 30.320312 C 46.976562 30.371094 46.976562 30.371094 46.976562 30.371094 Z M 46.976562 30.371094 "/>
<path style=" stroke:none;fill-rule:nonzero;fill:url(#linear1);" d="M 36.675781 39.03125 C 36.539062 38.753906 36.679688 38.527344 36.988281 38.527344 L 39.644531 38.527344 C 39.953125 38.527344 40.09375 38.753906 39.957031 39.03125 L 38.570312 40.609375 C 38.429688 40.886719 38.203125 40.886719 38.0625 40.609375 Z M 36.675781 39.03125 "/>
<path style=" stroke:none;fill-rule:nonzero;fill:url(#linear2);" d="M 38.316406 42.417969 C 38.316406 42.417969 38.503906 42.589844 38.734375 42.796875 L 39.636719 43.621094 C 39.867188 43.832031 40.117188 43.851562 40.191406 43.667969 C 40.269531 43.484375 40.121094 43.191406 39.867188 43.015625 L 39.011719 42.433594 C 38.753906 42.257812 38.546875 42.109375 38.546875 42.101562 C 38.546875 42.09375 38.550781 41.820312 38.550781 41.511719 L 38.550781 39.917969 C 38.550781 39.609375 38.503906 39.25 38.445312 39.121094 C 38.445312 39.121094 38.445312 39.121094 38.316406 39.121094 C 38.1875 39.121094 38.1875 39.121094 38.1875 39.121094 C 38.132812 39.25 38.085938 39.609375 38.085938 39.917969 L 38.085938 41.511719 C 38.085938 41.820312 38.085938 42.082031 38.085938 42.089844 C 38.085938 42.09375 37.878906 42.257812 37.621094 42.433594 L 36.765625 43.015625 C 36.511719 43.191406 36.363281 43.484375 36.441406 43.667969 C 36.519531 43.851562 36.769531 43.832031 36.996094 43.621094 L 37.898438 42.796875 C 38.128906 42.589844 38.316406 42.417969 38.316406 42.417969 Z M 38.316406 42.417969 "/>
<path style=" stroke:none;fill-rule:nonzero;fill:url(#linear3);" d="M 36.8125 40.144531 C 34.617188 40.722656 32.789062 41.773438 31.003906 43.167969 "/>
<path style=" stroke:none;fill-rule:nonzero;fill:url(#linear4);" d="M 36.789062 40.011719 C 34.675781 40.523438 32.550781 41.628906 30.929688 43.082031 C 30.816406 43.183594 30.957031 43.335938 31.074219 43.257812 C 31.960938 42.664062 32.8125 42.039062 33.75 41.523438 C 34.730469 40.988281 35.765625 40.597656 36.835938 40.277344 C 37 40.226562 36.960938 39.96875 36.789062 40.011719 Z M 36.789062 40.011719 "/>
<path style=" stroke:none;fill-rule:nonzero;fill:url(#linear5);" d="M 36.863281 40.875 C 35.25 41.03125 33.621094 42.878906 32.617188 44.089844 "/>
<path style=" stroke:none;fill-rule:nonzero;fill:url(#linear6);" d="M 36.84375 40.765625 C 35.933594 40.835938 35.160156 41.355469 34.472656 41.925781 C 33.75 42.527344 33.0625 43.25 32.539062 44.03125 C 32.476562 44.121094 32.601562 44.242188 32.683594 44.164062 C 33.921875 42.949219 35.050781 41.300781 36.882812 40.980469 C 37.023438 40.957031 36.984375 40.753906 36.84375 40.765625 Z M 36.84375 40.765625 "/>
<path style=" stroke:none;fill-rule:nonzero;fill:url(#linear7);" d="M 37.019531 41.609375 C 35.453125 42.042969 34.167969 44.144531 33.390625 45.507812 "/>
<path style=" stroke:none;fill-rule:nonzero;fill:url(#linear8);" d="M 37 41.5 C 36.140625 41.71875 35.496094 42.3125 34.925781 42.964844 C 34.273438 43.703125 33.703125 44.574219 33.296875 45.472656 C 33.25 45.578125 33.410156 45.652344 33.472656 45.5625 C 34.472656 44.148438 35.316406 42.332031 37.066406 41.707031 C 37.183594 41.667969 37.117188 41.46875 37 41.5 Z M 37 41.5 "/>
<path style=" stroke:none;fill-rule:nonzero;fill:url(#linear9);" d="M 39.820312 40.144531 C 42.015625 40.722656 43.84375 41.773438 45.628906 43.167969 "/>
<path style=" stroke:none;fill-rule:nonzero;fill:url(#linear10);" d="M 39.773438 40.269531 C 40.84375 40.589844 41.875 40.984375 42.863281 41.511719 C 43.8125 42.023438 44.671875 42.664062 45.566406 43.261719 C 45.691406 43.347656 45.804688 43.171875 45.695312 43.074219 C 44.085938 41.632812 41.96875 40.523438 39.867188 40.015625 C 39.703125 39.976562 39.605469 40.21875 39.773438 40.269531 Z M 39.773438 40.269531 "/>
<path style=" stroke:none;fill-rule:nonzero;fill:url(#linear11);" d="M 39.769531 40.875 C 41.382812 41.03125 43.015625 42.878906 44.015625 44.089844 "/>
<path style=" stroke:none;fill-rule:nonzero;fill:url(#linear12);" d="M 39.757812 40.984375 C 41.582031 41.296875 42.707031 42.945312 43.941406 44.152344 C 44.03125 44.242188 44.160156 44.128906 44.089844 44.023438 C 43.558594 43.234375 42.871094 42.535156 42.148438 41.917969 C 41.476562 41.339844 40.683594 40.832031 39.78125 40.765625 C 39.636719 40.753906 39.621094 40.960938 39.757812 40.984375 Z M 39.757812 40.984375 "/>
<path style=" stroke:none;fill-rule:nonzero;fill:url(#linear13);" d="M 39.617188 41.609375 C 41.179688 42.042969 42.464844 44.144531 43.242188 45.507812 "/>
<path style=" stroke:none;fill-rule:nonzero;fill:url(#linear14);" d="M 39.578125 41.710938 C 41.320312 42.335938 42.167969 44.160156 43.167969 45.570312 C 43.234375 45.664062 43.375 45.5625 43.332031 45.464844 C 42.941406 44.601562 42.390625 43.789062 41.789062 43.058594 C 41.226562 42.375 40.53125 41.726562 39.652344 41.503906 C 39.519531 41.472656 39.441406 41.664062 39.578125 41.710938 Z M 39.578125 41.710938 "/>
</g>
<mask id="mask2">
  <g filter="url(#alpha)">
<rect x="0" y="0" width="48" height="48" style="fill:rgb(0%,0%,0%);fill-opacity:0.2;stroke:none;"/>
  </g>
</mask>
<clipPath id="clip3">
  <rect width="48" height="48"/>
</clipPath>
<g id="surface14" clip-path="url(#clip3)">
<path style=" stroke:none;fill-rule:evenodd;fill:rgb(23.529412%,23.529412%,23.529412%);fill-opacity:1;" d="M 30.476562 21.964844 C 30.253906 25.675781 27.179688 28.574219 23.464844 28.578125 C 19.78125 28.578125 16.722656 25.738281 16.449219 22.0625 C 16.4375 22.203125 16.433594 22.34375 16.429688 22.484375 C 16.429688 26.367188 19.578125 29.515625 23.464844 29.515625 C 27.347656 29.515625 30.496094 26.367188 30.496094 22.484375 C 30.496094 22.308594 30.488281 22.136719 30.476562 21.964844 Z M 30.476562 21.964844 "/>
</g>
<clipPath id="clip4">
  <rect width="48" height="48"/>
</clipPath>
<g id="surface17" clip-path="url(#clip4)">
<path style=" stroke:none;fill-rule:evenodd;fill:rgb(29.019608%,70.196078%,89.411765%);fill-opacity:1;" d="M 30.496094 22.015625 C 30.496094 25.898438 27.347656 29.046875 23.464844 29.046875 C 19.578125 29.046875 16.429688 25.898438 16.429688 22.015625 C 16.429688 18.128906 19.578125 14.980469 23.464844 14.980469 C 27.347656 14.980469 30.496094 18.128906 30.496094 22.015625 Z M 30.496094 22.015625 "/>
</g>
</defs>
<g id="surface1">
<use xlink:href="#surface6" mask="url(#mask0)"/>
<path style=" stroke:none;fill-rule:nonzero;fill:rgb(80%,80%,80%);fill-opacity:1;" d="M 16.929688 1.425781 L 13.664062 4.691406 L 13.664062 9.59375 L 0.601562 9.59375 L 0.601562 39.804688 C 0.601562 41.160156 1.691406 42.253906 3.050781 42.253906 L 43.875 42.253906 C 45.234375 42.253906 46.324219 41.160156 46.324219 39.804688 L 46.324219 9.59375 L 33.261719 9.59375 L 33.261719 4.691406 L 29.996094 1.425781 Z M 16.929688 4.691406 L 29.996094 4.691406 L 29.996094 9.59375 L 16.929688 9.59375 Z M 16.929688 4.691406 "/>
<use xlink:href="#surface10" mask="url(#mask1)"/>
<path style=" stroke:none;fill-rule:nonzero;fill:rgb(100%,79.607843%,3.137255%);fill-opacity:1;" d="M 30.640625 27.722656 L 29.140625 29.679688 L 31.355469 33.132812 L 33.574219 28.894531 Z M 30.640625 27.722656 "/>
<path style=" stroke:none;fill-rule:nonzero;fill:rgb(100%,79.607843%,3.137255%);fill-opacity:1;" d="M 46.023438 27.722656 L 47.523438 29.679688 L 45.304688 33.132812 L 43.089844 28.894531 Z M 46.023438 27.722656 "/>
<path style=" stroke:none;fill-rule:nonzero;fill:rgb(100%,79.607843%,3.137255%);fill-opacity:1;" d="M 45.097656 34.15625 L 42.820312 29.816406 C 42.734375 29.65625 42.472656 29.453125 42.296875 29.410156 L 42.253906 29.398438 L 38.824219 28.582031 C 38.589844 28.527344 38.15625 28.527344 37.917969 28.582031 L 34.40625 29.402344 L 34.363281 29.414062 C 34.191406 29.453125 33.929688 29.65625 33.84375 29.816406 L 31.5625 34.15625 L 31.246094 34.757812 C 31.148438 34.949219 31.085938 35.328125 31.121094 35.542969 L 31.757812 39.351562 C 31.777344 39.480469 31.933594 39.648438 32.058594 39.679688 L 33.78125 40.117188 C 33.738281 39.949219 34.132812 39.769531 34.128906 39.601562 L 35.007812 37.6875 C 35.007812 37.722656 35.007812 37.757812 35 37.789062 L 34.671875 39.492188 C 34.636719 39.679688 34.707031 40.015625 34.816406 40.167969 L 35 40.425781 L 35.855469 41.632812 L 37.113281 43.410156 C 37.210938 43.546875 37.476562 43.6875 37.640625 43.6875 L 39.023438 43.6875 C 39.1875 43.6875 39.453125 43.546875 39.546875 43.410156 L 40.796875 41.652344 L 41.65625 40.4375 L 41.847656 40.167969 C 41.957031 40.015625 42.027344 39.679688 41.992188 39.492188 L 41.664062 37.789062 C 41.65625 37.757812 41.652344 37.722656 41.652344 37.6875 L 42.53125 39.605469 C 42.53125 39.773438 42.921875 39.953125 42.878906 40.125 L 44.605469 39.683594 C 44.730469 39.652344 44.886719 39.480469 44.90625 39.351562 L 45.539062 35.542969 C 45.574219 35.328125 45.515625 34.949219 45.414062 34.757812 Z M 45.097656 34.15625 "/>
<path style=" stroke:none;fill-rule:nonzero;fill:rgb(17.254902%,17.254902%,17.254902%);fill-opacity:1;" d="M 47.839844 29.355469 C 47.75 29.085938 47.464844 28.601562 47.207031 28.277344 C 46.949219 27.953125 46.53125 27.570312 46.28125 27.425781 C 46.027344 27.28125 44.863281 27.597656 44.277344 27.867188 L 43.851562 28.0625 C 43.261719 28.332031 42.773438 28.554688 42.765625 28.558594 C 42.753906 28.566406 42.6875 28.558594 42.632812 28.539062 C 42.578125 28.515625 41.925781 28.355469 41.296875 28.207031 L 40.171875 27.945312 C 39.542969 27.796875 38.816406 27.65625 38.558594 27.632812 C 38.300781 27.609375 37.203125 27.792969 36.574219 27.9375 L 35.367188 28.214844 C 34.738281 28.359375 34.179688 28.488281 34.128906 28.503906 C 34.074219 28.519531 33.925781 28.574219 33.917969 28.570312 C 33.90625 28.5625 33.398438 28.332031 32.8125 28.0625 L 32.382812 27.867188 C 31.796875 27.597656 31.074219 27.363281 30.773438 27.339844 C 30.476562 27.316406 29.710938 27.953125 29.457031 28.277344 C 29.199219 28.601562 28.914062 29.085938 28.824219 29.355469 C 28.730469 29.625 29.226562 30.691406 29.585938 31.226562 L 30.328125 32.320312 C 30.6875 32.855469 30.886719 33.476562 30.765625 33.695312 C 30.648438 33.917969 30.488281 34.3125 30.40625 34.570312 C 30.328125 34.832031 30.421875 35.96875 30.527344 36.605469 L 30.757812 37.964844 C 30.867188 38.601562 31.070312 39.335938 31.207031 39.597656 C 31.347656 39.855469 32.457031 40.316406 33.082031 40.472656 L 33.363281 40.539062 C 33.988281 40.695312 34.8125 41.25 35.1875 41.777344 L 35.695312 42.476562 C 36.070312 43 36.5625 43.574219 36.789062 43.753906 C 37.011719 43.933594 37.957031 44.078125 38.332031 44.078125 C 38.703125 44.078125 39.234375 44.015625 39.511719 43.9375 C 39.789062 43.863281 40.589844 43 40.96875 42.476562 L 41.464844 41.785156 C 41.84375 41.261719 42.664062 40.707031 43.289062 40.550781 L 43.582031 40.476562 C 44.207031 40.316406 44.925781 40.058594 45.171875 39.898438 C 45.421875 39.742188 45.796875 38.601562 45.90625 37.964844 L 46.132812 36.605469 C 46.242188 35.96875 46.324219 35.226562 46.316406 34.957031 C 46.3125 34.683594 46.011719 33.917969 45.894531 33.695312 C 45.777344 33.476562 45.976562 32.855469 46.335938 32.320312 L 47.074219 31.226562 C 47.4375 30.691406 47.929688 29.625 47.839844 29.355469 Z M 30.285156 30.601562 C 29.964844 30.125 29.6875 29.699219 29.671875 29.65625 C 29.671875 29.65625 29.671875 29.65625 29.671875 29.605469 C 29.671875 29.542969 29.671875 29.542969 29.671875 29.542969 C 29.695312 29.488281 29.925781 29.179688 30.183594 28.855469 C 30.441406 28.53125 30.691406 28.25 30.742188 28.222656 C 30.792969 28.199219 31.410156 28.445312 32 28.710938 L 32.089844 28.753906 C 32.675781 29.023438 33.148438 29.257812 33.136719 29.273438 C 33.128906 29.289062 32.851562 29.800781 32.546875 30.367188 L 32.03125 31.332031 C 31.726562 31.902344 30.605469 31.074219 30.285156 30.601562 Z M 45.402344 35.007812 C 45.410156 35.164062 45.324219 35.816406 45.21875 36.453125 L 44.988281 37.808594 C 44.878906 38.445312 44.753906 39.03125 44.703125 39.113281 C 44.65625 39.191406 44.113281 39.382812 43.648438 39.5 C 43.179688 39.617188 42.8125 39.636719 42.832031 39.546875 C 42.851562 39.453125 42.578125 38.796875 42.230469 38.289062 C 41.882812 37.78125 41.597656 37.378906 41.597656 37.398438 C 41.597656 37.414062 41.675781 37.832031 41.765625 38.285156 C 41.855469 38.734375 41.917969 39.21875 41.910156 39.355469 C 41.898438 39.496094 41.742188 39.816406 41.691406 39.886719 C 41.640625 39.957031 41.40625 40.28125 41.175781 40.601562 C 40.941406 40.921875 40.476562 41.570312 40.140625 42.035156 C 39.804688 42.503906 39.449219 42.945312 39.347656 43.015625 C 39.25 43.089844 38.703125 43.148438 38.332031 43.148438 C 37.957031 43.148438 37.558594 43.117188 37.441406 43.082031 C 37.324219 43.046875 36.855469 42.5 36.515625 42.027344 C 36.175781 41.554688 35.707031 40.90625 35.476562 40.585938 C 35.246094 40.265625 35.015625 39.949219 34.964844 39.878906 C 34.917969 39.8125 34.835938 39.648438 34.789062 39.519531 C 34.738281 39.390625 34.808594 38.734375 34.898438 38.285156 C 34.984375 37.832031 35.0625 37.449219 35.0625 37.429688 C 35.066406 37.410156 34.78125 37.78125 34.433594 38.289062 C 34.082031 38.796875 33.804688 39.285156 33.808594 39.378906 C 33.816406 39.46875 33.480469 39.613281 33.015625 39.496094 C 32.546875 39.382812 32.105469 39.242188 32.03125 39.191406 C 31.953125 39.136719 31.78125 38.445312 31.675781 37.8125 L 31.445312 36.453125 C 31.335938 35.816406 31.253906 35.164062 31.261719 35.007812 C 31.269531 34.851562 31.441406 34.40625 31.527344 34.246094 C 31.613281 34.089844 31.929688 33.492188 32.234375 32.921875 L 33.367188 30.808594 C 33.671875 30.238281 34 29.695312 34.09375 29.597656 C 34.1875 29.5 34.441406 29.378906 34.453125 29.378906 C 34.46875 29.375 34.992188 29.253906 35.621094 29.109375 L 36.78125 28.84375 C 37.410156 28.699219 38.074219 28.570312 38.253906 28.554688 C 38.4375 28.539062 39.332031 28.703125 39.960938 28.847656 L 41.042969 29.101562 C 41.671875 29.25 42.195312 29.371094 42.207031 29.375 C 42.21875 29.378906 42.324219 29.433594 42.441406 29.5 C 42.5625 29.5625 42.988281 30.238281 43.292969 30.808594 L 44.425781 32.921875 C 44.730469 33.492188 45.050781 34.089844 45.136719 34.246094 C 45.222656 34.40625 45.394531 34.851562 45.402344 35.007812 Z M 46.992188 29.65625 C 46.972656 29.699219 46.699219 30.125 46.375 30.601562 C 46.054688 31.074219 44.933594 31.902344 44.628906 31.332031 L 44.113281 30.367188 C 43.808594 29.800781 43.550781 29.320312 43.542969 29.304688 C 43.53125 29.285156 43.984375 29.023438 44.574219 28.753906 L 44.664062 28.710938 C 45.25 28.445312 45.785156 28.222656 45.851562 28.222656 C 45.917969 28.21875 46.222656 28.53125 46.480469 28.855469 C 46.734375 29.179688 46.964844 29.488281 46.992188 29.542969 C 46.992188 29.542969 46.992188 29.542969 46.992188 29.605469 C 46.992188 29.65625 46.992188 29.65625 46.992188 29.65625 Z M 46.992188 29.65625 "/>
<path style=" stroke:none;fill-rule:nonzero;fill:rgb(17.254902%,17.254902%,17.254902%);fill-opacity:1;" d="M 36.691406 38.320312 C 36.550781 38.042969 36.691406 37.8125 37.003906 37.8125 L 39.660156 37.8125 C 39.96875 37.8125 40.109375 38.042969 39.972656 38.320312 L 38.582031 39.898438 C 38.445312 40.175781 38.21875 40.175781 38.078125 39.898438 Z M 36.691406 38.320312 "/>
<path style=" stroke:none;fill-rule:nonzero;fill:rgb(17.254902%,17.254902%,17.254902%);fill-opacity:1;" d="M 38.332031 41.703125 C 38.332031 41.703125 38.519531 41.875 38.75 42.085938 L 39.648438 42.910156 C 39.878906 43.117188 40.128906 43.140625 40.207031 42.953125 C 40.285156 42.769531 40.136719 42.476562 39.882812 42.300781 L 39.027344 41.71875 C 38.769531 41.542969 38.5625 41.394531 38.5625 41.386719 C 38.5625 41.382812 38.5625 41.109375 38.5625 40.796875 L 38.5625 39.207031 C 38.5625 38.894531 38.515625 38.535156 38.460938 38.410156 C 38.460938 38.410156 38.460938 38.410156 38.332031 38.410156 C 38.203125 38.410156 38.203125 38.410156 38.203125 38.410156 C 38.144531 38.535156 38.097656 38.894531 38.097656 39.207031 L 38.097656 40.796875 C 38.097656 41.109375 38.097656 41.367188 38.101562 41.375 C 38.101562 41.382812 37.894531 41.542969 37.636719 41.71875 L 36.78125 42.300781 C 36.523438 42.476562 36.378906 42.769531 36.457031 42.953125 C 36.53125 43.140625 36.78125 43.117188 37.011719 42.910156 L 37.914062 42.085938 C 38.144531 41.875 38.332031 41.703125 38.332031 41.703125 Z M 38.332031 41.703125 "/>
<path style=" stroke:none;fill-rule:nonzero;fill:rgb(17.254902%,17.254902%,17.254902%);fill-opacity:1;" d="M 33.390625 34.144531 C 33.054688 34.152344 33.054688 34.199219 33.382812 34.246094 L 36.15625 34.644531 C 36.484375 34.691406 36.730469 35 36.699219 35.332031 L 36.34375 36.566406 C 36.316406 36.898438 36.417969 37.179688 36.578125 37.191406 C 36.734375 37.203125 36.863281 37.203125 36.867188 37.1875 C 36.867188 37.175781 36.878906 36.890625 36.894531 36.558594 L 37.183594 35.398438 C 37.195312 35.066406 37.214844 34.625 37.222656 34.414062 C 37.234375 34.207031 37.144531 34.039062 37.027344 34.042969 C 36.914062 34.046875 36.542969 34.054688 36.210938 34.066406 Z M 33.390625 34.144531 "/>
<path style=" stroke:none;fill-rule:nonzero;fill:rgb(17.254902%,17.254902%,17.254902%);fill-opacity:1;" d="M 40.453125 34.066406 C 40.117188 34.054688 39.75 34.046875 39.632812 34.042969 C 39.515625 34.039062 39.429688 34.207031 39.4375 34.414062 C 39.445312 34.625 39.464844 35.066406 39.480469 35.398438 L 39.769531 36.558594 C 39.785156 36.890625 39.796875 37.175781 39.796875 37.1875 C 39.796875 37.203125 39.929688 37.203125 40.085938 37.191406 C 40.246094 37.179688 40.347656 36.898438 40.316406 36.570312 L 39.964844 35.332031 C 39.933594 35 40.179688 34.691406 40.507812 34.644531 L 43.277344 34.246094 C 43.609375 34.199219 43.605469 34.152344 43.273438 34.144531 Z M 40.453125 34.066406 "/>
<path style=" stroke:none;fill-rule:nonzero;fill:rgb(17.254902%,17.254902%,17.254902%);fill-opacity:1;" d="M 35.878906 34.5625 C 35.878906 34.773438 35.707031 34.945312 35.496094 34.945312 C 35.285156 34.945312 35.113281 34.773438 35.113281 34.5625 C 35.113281 34.351562 35.285156 34.179688 35.496094 34.179688 C 35.707031 34.179688 35.878906 34.351562 35.878906 34.5625 Z M 35.878906 34.5625 "/>
<path style=" stroke:none;fill-rule:nonzero;fill:rgb(17.254902%,17.254902%,17.254902%);fill-opacity:1;" d="M 41.550781 34.5625 C 41.550781 34.777344 41.378906 34.949219 41.167969 34.949219 C 40.953125 34.949219 40.78125 34.777344 40.78125 34.5625 C 40.78125 34.351562 40.953125 34.179688 41.167969 34.179688 C 41.378906 34.179688 41.550781 34.351562 41.550781 34.5625 Z M 41.550781 34.5625 "/>
<path style=" stroke:none;fill-rule:nonzero;fill:rgb(17.254902%,17.254902%,17.254902%);fill-opacity:1;" d="M 36.828125 39.429688 C 34.632812 40.011719 32.804688 41.0625 31.015625 42.457031 "/>
<path style=" stroke:none;fill-rule:nonzero;fill:rgb(17.254902%,17.254902%,17.254902%);fill-opacity:1;" d="M 36.804688 39.296875 C 34.6875 39.808594 32.566406 40.914062 30.941406 42.367188 C 30.832031 42.46875 30.96875 42.625 31.089844 42.542969 C 31.976562 41.953125 32.828125 41.324219 33.761719 40.8125 C 34.742188 40.273438 35.78125 39.882812 36.851562 39.5625 C 37.015625 39.515625 36.976562 39.253906 36.804688 39.296875 Z M 36.804688 39.296875 "/>
<path style=" stroke:none;fill-rule:nonzero;fill:rgb(17.254902%,17.254902%,17.254902%);fill-opacity:1;" d="M 36.878906 40.160156 C 35.261719 40.320312 33.632812 42.167969 32.632812 43.375 "/>
<path style=" stroke:none;fill-rule:nonzero;fill:rgb(17.254902%,17.254902%,17.254902%);fill-opacity:1;" d="M 36.859375 40.050781 C 35.945312 40.121094 35.175781 40.644531 34.488281 41.214844 C 33.765625 41.8125 33.074219 42.539062 32.554688 43.320312 C 32.492188 43.410156 32.613281 43.53125 32.695312 43.449219 C 33.933594 42.238281 35.0625 40.585938 36.898438 40.269531 C 37.039062 40.246094 36.996094 40.042969 36.859375 40.050781 Z M 36.859375 40.050781 "/>
<path style=" stroke:none;fill-rule:nonzero;fill:rgb(17.254902%,17.254902%,17.254902%);fill-opacity:1;" d="M 37.03125 40.894531 C 35.46875 41.328125 34.183594 43.429688 33.40625 44.792969 "/>
<path style=" stroke:none;fill-rule:nonzero;fill:rgb(17.254902%,17.254902%,17.254902%);fill-opacity:1;" d="M 37.011719 40.785156 C 36.15625 41.003906 35.511719 41.601562 34.941406 42.25 C 34.289062 42.992188 33.71875 43.859375 33.3125 44.757812 C 33.265625 44.863281 33.421875 44.9375 33.484375 44.851562 C 34.488281 43.4375 35.332031 41.621094 37.078125 40.996094 C 37.195312 40.953125 37.132812 40.757812 37.011719 40.785156 Z M 37.011719 40.785156 "/>
<path style=" stroke:none;fill-rule:nonzero;fill:rgb(17.254902%,17.254902%,17.254902%);fill-opacity:1;" d="M 39.835938 39.429688 C 42.03125 40.011719 43.859375 41.0625 45.644531 42.457031 "/>
<path style=" stroke:none;fill-rule:nonzero;fill:rgb(17.254902%,17.254902%,17.254902%);fill-opacity:1;" d="M 39.789062 39.558594 C 40.859375 39.878906 41.890625 40.269531 42.875 40.800781 C 43.828125 41.308594 44.683594 41.953125 45.578125 42.550781 C 45.707031 42.632812 45.816406 42.457031 45.710938 42.363281 C 44.101562 40.917969 41.984375 39.8125 39.882812 39.304688 C 39.714844 39.261719 39.617188 39.507812 39.789062 39.558594 Z M 39.789062 39.558594 "/>
<path style=" stroke:none;fill-rule:nonzero;fill:rgb(17.254902%,17.254902%,17.254902%);fill-opacity:1;" d="M 39.785156 40.160156 C 41.398438 40.320312 43.027344 42.167969 44.027344 43.375 "/>
<path style=" stroke:none;fill-rule:nonzero;fill:rgb(17.254902%,17.254902%,17.254902%);fill-opacity:1;" d="M 39.773438 40.269531 C 41.597656 40.585938 42.722656 42.230469 43.953125 43.4375 C 44.046875 43.527344 44.175781 43.417969 44.105469 43.3125 C 43.574219 42.519531 42.886719 41.824219 42.164062 41.207031 C 41.492188 40.628906 40.699219 40.121094 39.792969 40.050781 C 39.652344 40.039062 39.636719 40.246094 39.773438 40.269531 Z M 39.773438 40.269531 "/>
<path style=" stroke:none;fill-rule:nonzero;fill:rgb(17.254902%,17.254902%,17.254902%);fill-opacity:1;" d="M 39.628906 40.894531 C 41.191406 41.328125 42.480469 43.429688 43.257812 44.792969 "/>
<path style=" stroke:none;fill-rule:nonzero;fill:rgb(17.254902%,17.254902%,17.254902%);fill-opacity:1;" d="M 39.59375 41 C 41.335938 41.621094 42.183594 43.445312 43.183594 44.855469 C 43.25 44.949219 43.390625 44.851562 43.347656 44.75 C 42.957031 43.886719 42.40625 43.078125 41.804688 42.347656 C 41.242188 41.664062 40.546875 41.015625 39.667969 40.792969 C 39.535156 40.757812 39.457031 40.949219 39.59375 41 Z M 39.59375 41 "/>
<path style=" stroke:none;fill-rule:nonzero;fill:rgb(17.254902%,17.254902%,17.254902%);fill-opacity:1;" d="M 35.316406 30.394531 C 35.316406 29.964844 35.035156 29.617188 34.695312 29.617188 C 34.351562 29.617188 34.074219 29.964844 34.074219 30.394531 C 34.074219 30.824219 34.351562 31.171875 34.695312 31.171875 C 35.035156 31.171875 35.316406 30.824219 35.316406 30.394531 Z M 35.316406 30.394531 "/>
<path style=" stroke:none;fill-rule:nonzero;fill:rgb(17.254902%,17.254902%,17.254902%);fill-opacity:1;" d="M 34.476562 31.886719 C 34.476562 32.171875 34.246094 32.402344 33.960938 32.402344 C 33.675781 32.402344 33.441406 32.171875 33.441406 31.886719 C 33.441406 31.601562 33.675781 31.367188 33.960938 31.367188 C 34.246094 31.367188 34.476562 31.601562 34.476562 31.886719 Z M 34.476562 31.886719 "/>
<path style=" stroke:none;fill-rule:nonzero;fill:rgb(17.254902%,17.254902%,17.254902%);fill-opacity:1;" d="M 36.835938 30.199219 C 36.730469 30.527344 36.515625 30.75 36.351562 30.699219 C 36.1875 30.644531 36.140625 30.339844 36.242188 30.011719 C 36.347656 29.683594 36.5625 29.460938 36.726562 29.515625 C 36.890625 29.566406 36.9375 29.875 36.835938 30.199219 Z M 36.835938 30.199219 "/>
<path style=" stroke:none;fill-rule:nonzero;fill:rgb(17.254902%,17.254902%,17.254902%);fill-opacity:1;" d="M 36.054688 32.046875 C 36.054688 32.21875 35.890625 32.355469 35.691406 32.355469 C 35.492188 32.355469 35.328125 32.21875 35.328125 32.046875 C 35.328125 31.875 35.492188 31.734375 35.691406 31.734375 C 35.890625 31.734375 36.054688 31.875 36.054688 32.046875 Z M 36.054688 32.046875 "/>
<path style=" stroke:none;fill-rule:nonzero;fill:rgb(17.254902%,17.254902%,17.254902%);fill-opacity:1;" d="M 43.6875 37.972656 C 43.5625 38.226562 43.664062 38.539062 43.921875 38.664062 C 44.175781 38.792969 44.488281 38.6875 44.613281 38.433594 C 44.742188 38.175781 44.636719 37.867188 44.382812 37.738281 C 44.125 37.613281 43.816406 37.714844 43.6875 37.972656 Z M 43.6875 37.972656 "/>
<path style=" stroke:none;fill-rule:nonzero;fill:rgb(17.254902%,17.254902%,17.254902%);fill-opacity:1;" d="M 43.808594 36.648438 C 43.757812 36.988281 43.851562 37.285156 44.019531 37.3125 C 44.191406 37.335938 44.371094 37.085938 44.421875 36.746094 C 44.476562 36.40625 44.382812 36.109375 44.210938 36.085938 C 44.042969 36.058594 43.863281 36.3125 43.808594 36.648438 Z M 43.808594 36.648438 "/>
<path style=" stroke:none;fill-rule:nonzero;fill:rgb(17.254902%,17.254902%,17.254902%);fill-opacity:1;" d="M 42.855469 37.4375 C 42.78125 37.589844 42.863281 37.785156 43.042969 37.875 C 43.222656 37.964844 43.429688 37.914062 43.503906 37.761719 C 43.582031 37.605469 43.5 37.410156 43.320312 37.320312 C 43.140625 37.230469 42.933594 37.285156 42.855469 37.4375 Z M 42.855469 37.4375 "/>
<path style=" stroke:none;fill-rule:nonzero;fill:rgb(17.254902%,17.254902%,17.254902%);fill-opacity:1;" d="M 10.375 28.851562 C 10.285156 28.960938 10.46875 28.921875 10.632812 28.882812 L 10.652344 28.660156 Z M 10.375 28.851562 "/>
<path style=" stroke:none;fill-rule:nonzero;fill:rgb(17.254902%,17.254902%,17.254902%);fill-opacity:1;" d="M 11.054688 28.488281 L 11.285156 28.128906 L 11.101562 28.351562 C 10.792969 28.433594 11.03125 28.171875 11.117188 28.074219 C 10.699219 28.390625 11.070312 28.359375 11.054688 28.488281 Z M 11.054688 28.488281 "/>
<path style=" stroke:none;fill-rule:nonzero;fill:rgb(17.254902%,17.254902%,17.254902%);fill-opacity:1;" d="M 11.625 27.964844 C 11.839844 27.84375 11.71875 27.789062 11.617188 27.804688 C 11.625 27.859375 11.523438 27.996094 11.625 27.964844 Z M 11.625 27.964844 "/>
<path style=" stroke:none;fill-rule:nonzero;fill:rgb(17.254902%,17.254902%,17.254902%);fill-opacity:1;" d="M 25.5 21.402344 C 25.421875 21.402344 25.34375 21.417969 25.34375 21.386719 C 25.28125 21.449219 25.273438 21.488281 25.5 21.402344 Z M 25.5 21.402344 "/>
<path style=" stroke:none;fill-rule:nonzero;fill:rgb(17.254902%,17.254902%,17.254902%);fill-opacity:1;" d="M 25.34375 21.386719 L 25.375 21.355469 C 25.367188 21.363281 25.359375 21.371094 25.328125 21.378906 C 25.335938 21.378906 25.34375 21.386719 25.34375 21.386719 Z M 25.34375 21.386719 "/>
<path style=" stroke:none;fill-rule:nonzero;fill:rgb(17.254902%,17.254902%,17.254902%);fill-opacity:1;" d="M 20.191406 22.15625 C 19.976562 22.363281 19.804688 22.378906 19.582031 22.527344 L 19.382812 22.457031 C 19.144531 22.628906 19.320312 22.621094 19.167969 22.78125 C 18.890625 22.8125 18.433594 23.152344 18.320312 23.195312 C 18.210938 23.183594 18.371094 23.066406 18.394531 23.011719 C 18.109375 23.210938 18.195312 23.320312 17.832031 23.519531 L 17.808594 23.488281 C 17.015625 24.144531 15.878906 24.691406 14.96875 25.347656 C 15.039062 25.316406 15.039062 25.355469 15.074219 25.363281 C 14.082031 25.976562 12.910156 26.671875 12.300781 27.441406 C 12.828125 27.078125 13.859375 26.742188 14.289062 26.203125 C 14.542969 26.179688 14.796875 25.863281 14.953125 25.941406 C 15.785156 25.554688 15.976562 25.128906 16.761719 24.714844 C 16.894531 24.683594 16.863281 24.769531 16.933594 24.808594 L 16.347656 25.199219 L 16.746094 25.046875 C 16.609375 25.191406 16.199219 25.363281 16.214844 25.507812 C 16.671875 25.070312 17.59375 24.730469 17.980469 24.304688 C 17.742188 24.390625 17.488281 24.582031 17.21875 24.707031 C 17.078125 24.722656 16.886719 24.792969 16.863281 24.722656 C 17.519531 24.136719 18.1875 23.898438 18.933594 23.445312 C 19.121094 23.335938 19.390625 23.203125 19.457031 23.242188 C 19.335938 23.328125 19.464844 23.328125 19.375 23.414062 C 19.621094 23.226562 19.289062 23.175781 19.707031 23.003906 L 19.757812 23.242188 C 19.8125 22.933594 20.277344 23.042969 20.5 22.773438 C 20.644531 22.804688 20.484375 22.949219 20.261719 23.066406 C 20.523438 22.980469 20.492188 22.84375 20.691406 22.75 L 20.589844 23.027344 C 20.722656 22.742188 20.984375 22.875 21.136719 22.875 C 21.128906 22.820312 20.953125 22.734375 21.222656 22.621094 C 21.355469 22.589844 21.308594 22.664062 21.355469 22.679688 C 21.347656 22.628906 21.40625 22.503906 21.578125 22.417969 C 21.640625 22.464844 21.5 22.566406 21.523438 22.636719 C 21.65625 22.566406 21.753906 22.503906 21.886719 22.511719 C 22.101562 22.351562 21.824219 22.425781 21.945312 22.296875 C 22.332031 22.164062 22.085938 22.496094 22.277344 22.558594 C 22.046875 22.773438 21.714844 22.957031 21.585938 23.082031 L 22.078125 22.789062 C 22.078125 22.875 22.484375 22.742188 22.246094 22.949219 C 22.792969 22.773438 23.386719 22.402344 23.863281 22.125 C 23.78125 22.132812 23.6875 22.15625 23.679688 22.101562 C 23.917969 21.949219 23.933594 22.050781 24.003906 22.082031 C 24.171875 21.941406 24.097656 21.824219 24.171875 21.679688 C 24.621094 21.609375 24.644531 21.519531 25.058594 21.535156 L 24.980469 21.433594 C 25.265625 21.433594 25.222656 21.226562 25.511719 21.195312 C 25.535156 21.21875 25.453125 21.285156 25.382812 21.355469 C 25.597656 21.21875 25.636719 21.371094 25.84375 21.234375 L 25.722656 21.449219 C 25.898438 21.371094 26.136719 21.21875 26.097656 21.378906 C 26.34375 21.09375 26.929688 20.941406 27.292969 20.707031 L 27.308594 20.832031 C 27.460938 20.617188 28.0625 20.539062 28.179688 20.316406 L 28.226562 20.347656 L 28.578125 20.046875 C 28.765625 19.992188 28.765625 20.183594 28.765625 20.132812 C 29.15625 19.953125 29.472656 19.832031 29.757812 19.800781 C 29.773438 19.628906 30.195312 19.4375 30.527344 19.308594 C 32.222656 18.84375 33.972656 18.175781 35.519531 17.613281 C 35.757812 17.542969 36.042969 17.296875 36.3125 17.140625 C 35.9375 17.195312 35.929688 17.28125 35.566406 17.367188 C 35.28125 17.390625 35.148438 17.257812 34.886719 17.210938 L 35.035156 17.3125 C 34.703125 17.511719 34.773438 17.304688 34.511719 17.511719 L 34.464844 17.296875 C 34.386719 17.433594 34.109375 17.417969 33.996094 17.390625 L 33.933594 17.558594 C 33.6875 17.542969 33.523438 17.550781 33.417969 17.433594 L 33.480469 17.566406 C 33.371094 17.503906 32.59375 17.820312 32.808594 17.519531 C 32.746094 17.574219 32.707031 17.660156 32.5625 17.679688 L 32.5 17.550781 C 32.300781 17.644531 32.085938 17.75 31.992188 17.6875 C 32.09375 17.621094 32.113281 17.550781 32.136719 17.480469 C 31.246094 17.726562 32.078125 17.964844 31.304688 18.222656 L 31.289062 18.136719 L 31.121094 18.289062 L 30.882812 18.242188 C 30.707031 18.628906 29.789062 18.574219 29.371094 18.882812 C 29.203125 18.96875 28.902344 18.882812 28.554688 19.03125 L 28.625 19.152344 C 28.300781 19.121094 27.230469 19.40625 26.863281 19.222656 C 26.636719 19.421875 26.890625 19.238281 26.929688 19.34375 C 26.476562 19.675781 26.359375 19.492188 26.066406 19.515625 C 25.777344 19.699219 26.324219 19.46875 26.199219 19.636719 C 25.675781 19.722656 25.875 19.945312 25.257812 20.109375 C 25.175781 20.054688 25.390625 20 25.429688 19.921875 C 25.066406 20.230469 24.265625 20.453125 23.671875 20.753906 C 22.933594 20.964844 21.902344 21.394531 21.046875 21.664062 L 21.054688 21.71875 C 20.660156 21.75 20.359375 22.042969 19.9375 22.179688 Z M 20.191406 22.15625 "/>
<path style=" stroke:none;fill-rule:nonzero;fill:rgb(17.254902%,17.254902%,17.254902%);fill-opacity:1;" d="M 16.125 25.738281 L 16.246094 25.808594 L 16.554688 25.546875 C 16.363281 25.546875 16.324219 25.65625 16.125 25.738281 Z M 16.125 25.738281 "/>
<path style=" stroke:none;fill-rule:nonzero;fill:rgb(17.254902%,17.254902%,17.254902%);fill-opacity:1;" d="M 16.152344 25.363281 L 16.03125 25.390625 L 15.863281 25.53125 Z M 16.152344 25.363281 "/>
<path style=" stroke:none;fill-rule:nonzero;fill:rgb(17.254902%,17.254902%,17.254902%);fill-opacity:1;" d="M 19.945312 23.636719 L 20.644531 23.195312 L 20.582031 23.203125 Z M 19.945312 23.636719 "/>
<path style=" stroke:none;fill-rule:nonzero;fill:rgb(17.254902%,17.254902%,17.254902%);fill-opacity:1;" d="M 25.511719 21.527344 C 25.453125 21.617188 25.335938 21.632812 25.265625 21.710938 L 25.574219 21.527344 Z M 25.511719 21.527344 "/>
<path style=" stroke:none;fill-rule:nonzero;fill:rgb(17.254902%,17.254902%,17.254902%);fill-opacity:1;" d="M 28.878906 20.730469 C 28.933594 20.484375 29.125 20.648438 28.894531 20.523438 C 28.71875 20.625 28.917969 20.648438 28.878906 20.730469 Z M 28.878906 20.730469 "/>
<path style=" stroke:none;fill-rule:nonzero;fill:rgb(17.254902%,17.254902%,17.254902%);fill-opacity:1;" d="M 29.535156 20.160156 C 29.410156 20.191406 29.363281 20.246094 29.3125 20.300781 C 29.488281 20.347656 29.457031 20.230469 29.535156 20.160156 Z M 29.535156 20.160156 "/>
<use xlink:href="#surface14" mask="url(#mask2)"/>
<use xlink:href="#surface17"/>
<path style=" stroke:none;fill-rule:nonzero;fill:rgb(100%,100%,100%);fill-opacity:1;" d="M 24.871094 17.792969 L 24.871094 21.546875 L 26.277344 21.546875 L 23.464844 25.296875 L 20.648438 21.546875 L 22.054688 21.546875 L 22.054688 17.792969 Z M 20.179688 25.296875 L 26.746094 25.296875 L 26.746094 26.234375 L 20.179688 26.234375 Z M 20.179688 25.296875 "/>
<path style=" stroke:none;fill-rule:nonzero;fill:rgb(17.254902%,17.254902%,17.254902%);fill-opacity:1;" d="M 7.757812 24.652344 C 7.671875 24.761719 7.847656 24.722656 8.003906 24.683594 L 8.027344 24.46875 Z M 7.757812 24.652344 "/>
<path style=" stroke:none;fill-rule:nonzero;fill:rgb(17.254902%,17.254902%,17.254902%);fill-opacity:1;" d="M 8.402344 24.308594 L 8.628906 23.96875 L 8.449219 24.183594 C 8.148438 24.261719 8.378906 24.007812 8.457031 23.921875 C 8.066406 24.207031 8.410156 24.183594 8.402344 24.308594 Z M 8.402344 24.308594 "/>
<path style=" stroke:none;fill-rule:nonzero;fill:rgb(17.254902%,17.254902%,17.254902%);fill-opacity:1;" d="M 8.941406 23.808594 C 9.152344 23.699219 9.035156 23.628906 8.933594 23.652344 C 8.941406 23.707031 8.84375 23.835938 8.941406 23.808594 Z M 8.941406 23.808594 "/>
<path style=" stroke:none;fill-rule:nonzero;fill:rgb(17.254902%,17.254902%,17.254902%);fill-opacity:1;" d="M 22.292969 17.714844 C 22.222656 17.722656 22.144531 17.738281 22.136719 17.707031 C 22.085938 17.75 22.078125 17.789062 22.292969 17.714844 Z M 22.292969 17.714844 "/>
<path style=" stroke:none;fill-rule:nonzero;fill:rgb(17.254902%,17.254902%,17.254902%);fill-opacity:1;" d="M 22.136719 17.699219 L 22.167969 17.667969 C 22.160156 17.675781 22.152344 17.683594 22.136719 17.691406 C 22.136719 17.683594 22.136719 17.699219 22.136719 17.699219 Z M 22.136719 17.699219 "/>
<path style=" stroke:none;fill-rule:nonzero;fill:rgb(17.254902%,17.254902%,17.254902%);fill-opacity:1;" d="M 17.191406 18.390625 C 16.984375 18.589844 16.832031 18.597656 16.625 18.746094 L 16.4375 18.675781 C 16.214844 18.839844 16.375 18.839844 16.230469 18.992188 C 15.96875 19.015625 15.527344 19.324219 15.414062 19.371094 C 15.3125 19.347656 15.46875 19.238281 15.484375 19.191406 C 15.222656 19.378906 15.296875 19.492188 14.9375 19.671875 L 14.914062 19.640625 C 14.152344 20.246094 13.050781 20.742188 12.164062 21.355469 C 12.230469 21.332031 12.230469 21.363281 12.261719 21.371094 C 11.292969 21.933594 10.167969 22.582031 9.582031 23.328125 C 10.089844 22.988281 11.085938 22.691406 11.5 22.171875 C 11.746094 22.15625 11.984375 21.859375 12.140625 21.941406 C 12.949219 21.582031 13.140625 21.195312 13.886719 20.800781 C 14.011719 20.773438 13.988281 20.863281 14.050781 20.902344 L 13.488281 21.273438 L 13.875 21.132812 C 13.742188 21.273438 13.339844 21.425781 13.355469 21.566406 C 13.804688 21.164062 14.691406 20.847656 15.058594 20.464844 C 14.828125 20.539062 14.582031 20.703125 14.320312 20.824219 C 14.1875 20.839844 14.003906 20.894531 13.980469 20.824219 C 14.613281 20.277344 15.265625 20.070312 15.984375 19.65625 C 16.160156 19.554688 16.421875 19.429688 16.492188 19.484375 C 16.382812 19.570312 16.5 19.570312 16.40625 19.648438 C 16.644531 19.46875 16.324219 19.40625 16.722656 19.253906 L 16.777344 19.492188 C 16.824219 19.191406 17.261719 19.308594 17.476562 19.046875 C 17.617188 19.09375 17.460938 19.222656 17.253906 19.332031 C 17.507812 19.253906 17.476562 19.117188 17.664062 19.03125 L 17.570312 19.308594 C 17.695312 19.03125 17.949219 19.167969 18.09375 19.167969 C 18.085938 19.117188 17.917969 19.023438 18.171875 18.921875 C 18.292969 18.898438 18.257812 18.96875 18.300781 18.984375 C 18.292969 18.929688 18.347656 18.808594 18.519531 18.722656 C 18.578125 18.777344 18.449219 18.867188 18.464844 18.9375 C 18.59375 18.875 18.6875 18.808594 18.804688 18.816406 C 19.011719 18.660156 18.75 18.730469 18.855469 18.597656 C 19.226562 18.492188 18.988281 18.808594 19.171875 18.875 C 18.941406 19.085938 18.640625 19.261719 18.527344 19.386719 L 18.988281 19.101562 C 18.988281 19.183594 19.378906 19.078125 19.148438 19.261719 C 19.6875 19.109375 20.25 18.746094 20.707031 18.476562 C 20.628906 18.484375 20.535156 18.5 20.527344 18.453125 C 20.757812 18.296875 20.765625 18.398438 20.84375 18.429688 C 21.007812 18.292969 20.929688 18.183594 21 18.035156 C 21.429688 17.96875 21.453125 17.882812 21.847656 17.890625 L 21.769531 17.765625 C 22.046875 17.765625 21.992188 17.558594 22.277344 17.519531 C 22.300781 17.535156 22.222656 17.613281 22.152344 17.683594 C 22.355469 17.542969 22.402344 17.699219 22.59375 17.550781 L 22.492188 17.765625 C 22.664062 17.683594 22.886719 17.527344 22.855469 17.691406 C 23.085938 17.40625 23.632812 17.234375 23.972656 16.988281 L 23.996094 17.113281 C 24.125 16.890625 24.703125 16.8125 24.804688 16.574219 L 24.859375 16.605469 L 25.171875 16.289062 C 25.351562 16.226562 25.359375 16.417969 25.359375 16.367188 C 25.726562 16.164062 26.019531 16.042969 26.289062 15.996094 C 26.289062 15.824219 26.675781 15.617188 26.992188 15.472656 C 28.578125 14.941406 30.210938 14.214844 31.667969 13.628906 C 31.890625 13.570312 32.152344 13.316406 32.421875 13.167969 C 32.058594 13.222656 32.050781 13.308594 31.714844 13.390625 C 31.453125 13.414062 31.3125 13.292969 31.058594 13.246094 L 31.207031 13.34375 C 30.890625 13.554688 30.949219 13.34375 30.710938 13.554688 L 30.660156 13.335938 C 30.589844 13.476562 30.328125 13.460938 30.210938 13.4375 L 30.164062 13.609375 C 29.925781 13.601562 29.773438 13.609375 29.65625 13.5 L 29.71875 13.628906 C 29.609375 13.570312 28.894531 13.921875 29.078125 13.613281 C 29.023438 13.667969 28.996094 13.753906 28.847656 13.785156 L 28.777344 13.660156 C 28.59375 13.761719 28.386719 13.871094 28.300781 13.816406 C 28.394531 13.746094 28.410156 13.675781 28.433594 13.601562 C 27.59375 13.886719 28.410156 14.085938 27.683594 14.371094 L 27.660156 14.285156 L 27.507812 14.445312 L 27.277344 14.417969 C 27.121094 14.800781 26.253906 14.792969 25.882812 15.117188 C 25.71875 15.210938 25.429688 15.132812 25.113281 15.285156 L 25.1875 15.410156 C 24.875 15.394531 23.878906 15.726562 23.503906 15.539062 C 23.300781 15.75 23.53125 15.554688 23.578125 15.664062 C 23.171875 16.003906 23.046875 15.816406 22.761719 15.863281 C 22.5 16.066406 23 15.8125 22.894531 15.972656 C 22.40625 16.074219 22.601562 16.289062 22.023438 16.449219 C 21.9375 16.402344 22.144531 16.34375 22.175781 16.265625 C 21.855469 16.566406 21.097656 16.8125 20.542969 17.097656 C 19.78125 17.351562 18.957031 17.628906 18.03125 17.945312 L 18.039062 18 C 17.671875 18.027344 17.378906 18.296875 16.984375 18.429688 Z M 17.191406 18.390625 "/>
<path style=" stroke:none;fill-rule:nonzero;fill:rgb(17.254902%,17.254902%,17.254902%);fill-opacity:1;" d="M 13.28125 21.78125 L 13.386719 21.859375 L 13.6875 21.609375 C 13.519531 21.589844 13.488281 21.703125 13.28125 21.78125 Z M 13.28125 21.78125 "/>
<path style=" stroke:none;fill-rule:nonzero;fill:rgb(17.254902%,17.254902%,17.254902%);fill-opacity:1;" d="M 13.324219 21.402344 L 13.1875 21.417969 L 13.035156 21.566406 Z M 13.324219 21.402344 "/>
<path style=" stroke:none;fill-rule:nonzero;fill:rgb(17.254902%,17.254902%,17.254902%);fill-opacity:1;" d="M 16.96875 19.847656 L 17.640625 19.429688 L 17.585938 19.429688 Z M 16.96875 19.847656 "/>
<path style=" stroke:none;fill-rule:nonzero;fill:rgb(17.254902%,17.254902%,17.254902%);fill-opacity:1;" d="M 22.316406 17.828125 C 22.261719 17.921875 22.144531 17.953125 22.085938 18.015625 L 22.371094 17.8125 Z M 22.316406 17.828125 "/>
<path style=" stroke:none;fill-rule:nonzero;fill:rgb(17.254902%,17.254902%,17.254902%);fill-opacity:1;" d="M 25.511719 16.933594 C 25.542969 16.6875 25.75 16.84375 25.511719 16.726562 C 25.351562 16.835938 25.535156 16.84375 25.511719 16.933594 Z M 25.511719 16.933594 "/>
<path style=" stroke:none;fill-rule:nonzero;fill:rgb(17.254902%,17.254902%,17.254902%);fill-opacity:1;" d="M 26.089844 16.351562 C 25.984375 16.394531 25.9375 16.441406 25.882812 16.496094 C 26.066406 16.519531 26.019531 16.417969 26.089844 16.351562 Z M 26.089844 16.351562 "/>
<path style=" stroke:none;fill-rule:nonzero;fill:rgb(17.254902%,17.254902%,17.254902%);fill-opacity:1;" d="M 12.828125 32.894531 C 12.757812 33.003906 12.925781 32.957031 13.066406 32.910156 L 13.058594 32.695312 Z M 12.828125 32.894531 "/>
<path style=" stroke:none;fill-rule:nonzero;fill:rgb(17.254902%,17.254902%,17.254902%);fill-opacity:1;" d="M 13.390625 32.511719 L 13.558594 32.15625 L 13.40625 32.371094 C 13.128906 32.464844 13.320312 32.203125 13.390625 32.109375 C 13.042969 32.417969 13.390625 32.378906 13.390625 32.511719 Z M 13.390625 32.511719 "/>
<path style=" stroke:none;fill-rule:nonzero;fill:rgb(17.254902%,17.254902%,17.254902%);fill-opacity:1;" d="M 13.851562 31.996094 C 14.035156 31.871094 13.921875 31.816406 13.828125 31.839844 C 13.84375 31.886719 13.757812 32.015625 13.851562 31.996094 Z M 13.851562 31.996094 "/>
<path style=" stroke:none;fill-rule:nonzero;fill:rgb(17.254902%,17.254902%,17.254902%);fill-opacity:1;" d="M 26.347656 26.425781 C 26.277344 26.425781 26.207031 26.441406 26.199219 26.410156 C 26.152344 26.472656 26.152344 26.5 26.347656 26.425781 Z M 26.347656 26.425781 "/>
<path style=" stroke:none;fill-rule:nonzero;fill:rgb(17.254902%,17.254902%,17.254902%);fill-opacity:1;" d="M 26.199219 26.410156 L 26.230469 26.378906 C 26.222656 26.386719 26.214844 26.386719 26.199219 26.402344 C 26.191406 26.402344 26.199219 26.410156 26.199219 26.410156 Z M 26.199219 26.410156 "/>
<path style=" stroke:none;fill-rule:nonzero;fill:rgb(17.254902%,17.254902%,17.254902%);fill-opacity:1;" d="M 21.601562 27.027344 C 21.414062 27.203125 21.269531 27.210938 21.070312 27.339844 L 20.890625 27.265625 C 20.675781 27.410156 20.839844 27.417969 20.707031 27.566406 C 20.460938 27.574219 20.042969 27.851562 19.945312 27.886719 C 19.851562 27.859375 20 27.765625 20.015625 27.71875 C 19.765625 27.878906 19.835938 28.003906 19.496094 28.15625 L 19.476562 28.128906 C 18.742188 28.675781 17.695312 29.089844 16.847656 29.644531 C 16.910156 29.621094 16.910156 29.652344 16.941406 29.667969 C 16.015625 30.175781 14.945312 30.785156 14.429688 31.515625 C 14.890625 31.179688 15.824219 30.902344 16.214844 30.414062 C 16.449219 30.40625 16.679688 30.121094 16.824219 30.214844 C 17.585938 29.90625 17.773438 29.535156 18.496094 29.207031 C 18.605469 29.183594 18.589844 29.273438 18.652344 29.3125 L 18.109375 29.636719 L 18.480469 29.535156 C 18.359375 29.667969 17.972656 29.785156 17.996094 29.921875 C 18.425781 29.550781 19.265625 29.304688 19.621094 28.945312 C 19.40625 29.003906 19.167969 29.152344 18.921875 29.253906 C 18.789062 29.257812 18.621094 29.304688 18.597656 29.238281 C 19.207031 28.742188 19.820312 28.574219 20.507812 28.210938 C 20.675781 28.121094 20.921875 28.027344 20.976562 28.074219 C 20.875 28.152344 20.976562 28.15625 20.898438 28.234375 C 21.132812 28.074219 20.824219 27.996094 21.199219 27.859375 L 21.253906 28.097656 C 21.300781 27.804688 21.714844 27.941406 21.917969 27.6875 C 22.046875 27.734375 21.902344 27.859375 21.699219 27.949219 C 21.941406 27.886719 21.910156 27.75 22.085938 27.671875 L 22 27.933594 C 22.109375 27.671875 22.363281 27.8125 22.496094 27.828125 C 22.488281 27.773438 22.324219 27.679688 22.5625 27.582031 C 22.671875 27.558594 22.648438 27.625 22.6875 27.640625 C 22.679688 27.589844 22.71875 27.472656 22.871094 27.386719 C 22.933594 27.441406 22.808594 27.535156 22.824219 27.597656 C 22.949219 27.535156 23.035156 27.472656 23.140625 27.488281 C 23.320312 27.332031 23.078125 27.402344 23.171875 27.273438 C 23.511719 27.164062 23.3125 27.472656 23.488281 27.550781 C 23.289062 27.757812 22.996094 27.933594 22.878906 28.042969 L 23.328125 27.765625 C 23.335938 27.851562 23.703125 27.742188 23.488281 27.925781 C 23.980469 27.773438 24.496094 27.410156 24.914062 27.148438 C 24.835938 27.15625 24.75 27.171875 24.742188 27.125 C 24.953125 26.972656 24.96875 27.070312 25.042969 27.109375 C 25.191406 26.980469 25.113281 26.863281 25.175781 26.726562 C 25.574219 26.664062 25.589844 26.578125 25.960938 26.59375 L 25.882812 26.472656 C 26.136719 26.472656 26.089844 26.269531 26.347656 26.238281 C 26.367188 26.253906 26.292969 26.332031 26.246094 26.394531 C 26.429688 26.253906 26.476562 26.417969 26.652344 26.269531 L 26.5625 26.488281 C 26.714844 26.410156 26.929688 26.261719 26.902344 26.417969 C 27.117188 26.15625 27.617188 25.984375 27.925781 25.753906 L 27.949219 25.878906 C 28.070312 25.664062 28.609375 25.59375 28.695312 25.371094 L 28.742188 25.398438 L 29.035156 25.101562 C 29.203125 25.039062 29.21875 25.230469 29.210938 25.175781 C 29.550781 25 29.828125 24.867188 30.082031 24.824219 C 30.074219 24.652344 30.4375 24.445312 30.722656 24.296875 C 32.191406 23.765625 33.679688 22.941406 34.910156 22.140625 C 35.097656 22.042969 35.296875 21.75 35.503906 21.554688 C 35.1875 21.664062 35.195312 21.757812 34.902344 21.894531 C 34.664062 21.964844 34.511719 21.847656 34.28125 21.847656 L 34.433594 21.925781 C 34.1875 22.164062 34.195312 21.957031 34.027344 22.1875 L 33.941406 21.980469 C 33.910156 22.117188 33.65625 22.132812 33.546875 22.125 L 33.53125 22.296875 C 33.308594 22.304688 33.171875 22.328125 33.054688 22.234375 L 33.132812 22.359375 C 33.023438 22.3125 32.417969 22.695312 32.53125 22.378906 C 32.484375 22.433594 32.46875 22.527344 32.347656 22.558594 L 32.269531 22.433594 C 32.109375 22.542969 31.929688 22.65625 31.839844 22.605469 C 31.914062 22.535156 31.921875 22.457031 31.929688 22.386719 C 31.183594 22.695312 31.953125 22.867188 31.308594 23.167969 L 31.285156 23.082031 L 31.152344 23.242188 L 30.929688 23.21875 C 30.820312 23.605469 29.996094 23.597656 29.660156 23.914062 C 29.511719 24.007812 29.226562 23.929688 28.949219 24.074219 L 29.027344 24.199219 C 28.726562 24.175781 27.800781 24.484375 27.449219 24.285156 C 27.269531 24.484375 27.476562 24.296875 27.523438 24.40625 C 27.140625 24.730469 27.015625 24.546875 26.761719 24.574219 C 26.523438 24.753906 26.992188 24.53125 26.894531 24.699219 C 26.429688 24.792969 26.632812 25 26.070312 25.152344 C 25.984375 25.101562 26.175781 25.046875 26.214844 24.976562 C 25.914062 25.269531 25.207031 25.5 24.683594 25.769531 C 24.019531 25.96875 23.117188 26.386719 22.371094 26.601562 L 22.378906 26.65625 C 22.046875 26.671875 21.777344 26.933594 21.410156 27.027344 Z M 21.601562 27.027344 "/>
<path style=" stroke:none;fill-rule:nonzero;fill:rgb(17.254902%,17.254902%,17.254902%);fill-opacity:1;" d="M 17.886719 30.113281 L 17.988281 30.191406 L 18.28125 29.96875 C 18.109375 29.953125 18.074219 30.0625 17.886719 30.113281 Z M 17.886719 30.113281 "/>
<path style=" stroke:none;fill-rule:nonzero;fill:rgb(17.254902%,17.254902%,17.254902%);fill-opacity:1;" d="M 17.804688 29.769531 L 17.65625 29.890625 L 17.925781 29.761719 Z M 17.804688 29.769531 "/>
<path style=" stroke:none;fill-rule:nonzero;fill:rgb(17.254902%,17.254902%,17.254902%);fill-opacity:1;" d="M 22.023438 28.074219 L 21.976562 28.082031 L 21.394531 28.441406 Z M 22.023438 28.074219 "/>
<path style=" stroke:none;fill-rule:nonzero;fill:rgb(17.254902%,17.254902%,17.254902%);fill-opacity:1;" d="M 26.367188 26.546875 C 26.324219 26.632812 26.214844 26.65625 26.152344 26.726562 L 26.414062 26.539062 Z M 26.367188 26.546875 "/>
<path style=" stroke:none;fill-rule:nonzero;fill:rgb(17.254902%,17.254902%,17.254902%);fill-opacity:1;" d="M 29.375 25.738281 C 29.394531 25.5 29.597656 25.648438 29.375 25.53125 C 29.210938 25.648438 29.394531 25.65625 29.375 25.738281 Z M 29.375 25.738281 "/>
<path style=" stroke:none;fill-rule:nonzero;fill:rgb(17.254902%,17.254902%,17.254902%);fill-opacity:1;" d="M 29.90625 25.175781 C 29.804688 25.207031 29.757812 25.269531 29.71875 25.324219 C 29.882812 25.347656 29.851562 25.246094 29.90625 25.175781 Z M 29.90625 25.175781 "/>
</g>
</svg>
