<?xml version="1.0" encoding="UTF-8"?>
<svg xmlns="http://www.w3.org/2000/svg" xmlns:xlink="http://www.w3.org/1999/xlink" width="32pt" height="32pt" viewBox="0 0 32 32" version="1.1">
<defs>
<filter id="alpha" filterUnits="objectBoundingBox" x="0%" y="0%" width="100%" height="100%">
  <feColorMatrix type="matrix" in="SourceGraphic" values="0 0 0 0 1 0 0 0 0 1 0 0 0 0 1 0 0 0 1 0"/>
</filter>
<mask id="mask0">
  <g filter="url(#alpha)">
<rect x="0" y="0" width="32" height="32" style="fill:rgb(0%,0%,0%);fill-opacity:0.2;stroke:none;"/>
  </g>
</mask>
<clipPath id="clip1">
  <rect width="32" height="32"/>
</clipPath>
<g id="surface6" clip-path="url(#clip1)">
<path style=" stroke:none;fill-rule:nonzero;fill:rgb(100%,100%,100%);fill-opacity:1;" d="M 16.019531 0.332031 C 7.578125 0.332031 0.734375 7.175781 0.734375 15.617188 C 0.738281 15.765625 0.742188 15.914062 0.75 16.0625 C 0.921875 7.753906 7.707031 1.105469 16.015625 1.097656 C 24.28125 1.101562 31.046875 7.675781 31.285156 15.9375 C 31.292969 15.832031 31.296875 15.722656 31.300781 15.617188 C 31.300781 7.175781 24.457031 0.332031 16.015625 0.332031 Z M 16.019531 0.332031 "/>
</g>
<mask id="mask1">
  <g filter="url(#alpha)">
<rect x="0" y="0" width="32" height="32" style="fill:rgb(0%,0%,0%);fill-opacity:0.2;stroke:none;"/>
  </g>
</mask>
<clipPath id="clip2">
  <rect width="32" height="32"/>
</clipPath>
<g id="surface9" clip-path="url(#clip2)">
<path style=" stroke:none;fill-rule:nonzero;fill:rgb(0%,0%,0%);fill-opacity:1;" d="M 31.285156 15.9375 C 31.113281 24.246094 24.328125 30.894531 16.019531 30.902344 C 7.753906 30.898438 0.992188 24.324219 0.75 16.0625 C 0.742188 16.167969 0.738281 16.277344 0.734375 16.382812 C 0.734375 24.824219 7.578125 31.667969 16.019531 31.667969 C 24.460938 31.667969 31.300781 24.824219 31.300781 16.382812 C 31.300781 16.234375 31.292969 16.085938 31.285156 15.9375 Z M 31.285156 15.9375 "/>
</g>
<mask id="mask2">
  <g filter="url(#alpha)">
<rect x="0" y="0" width="32" height="32" style="fill:rgb(0%,0%,0%);fill-opacity:0.2;stroke:none;"/>
  </g>
</mask>
<clipPath id="clip3">
  <rect width="32" height="32"/>
</clipPath>
<g id="surface12" clip-path="url(#clip3)">
<path style=" stroke:none;fill-rule:nonzero;fill:rgb(0%,0%,0%);fill-opacity:1;" d="M 16.019531 6.445312 C 13.90625 6.445312 12.195312 8.160156 12.195312 10.269531 C 12.195312 12.378906 13.90625 14.089844 16.019531 14.089844 C 18.128906 14.089844 19.839844 12.378906 19.839844 10.269531 C 19.839844 8.160156 18.128906 6.445312 16.019531 6.445312 Z M 16.019531 16.382812 C 8.375 16.386719 8.375 21.273438 8.375 21.273438 L 8.375 23.261719 C 8.375 23.261719 9.785156 26.316406 16.019531 26.316406 C 22.25 26.316406 23.660156 23.261719 23.660156 23.261719 L 23.660156 21.273438 C 23.660156 21.273438 23.660156 16.378906 16.019531 16.382812 Z M 16.019531 16.382812 "/>
</g>
</defs>
<g id="surface1">
<path style=" stroke:none;fill-rule:nonzero;fill:rgb(100%,79.607843%,3.137255%);fill-opacity:1;" d="M 31.300781 15.617188 C 31.300781 24.058594 24.460938 30.902344 16.019531 30.902344 C 7.578125 30.902344 0.734375 24.058594 0.734375 15.617188 C 0.734375 7.175781 7.578125 0.332031 16.019531 0.332031 C 24.460938 0.332031 31.300781 7.175781 31.300781 15.617188 Z M 31.300781 15.617188 "/>
<use xlink:href="#surface6" mask="url(#mask0)"/>
<use xlink:href="#surface9" mask="url(#mask1)"/>
<use xlink:href="#surface12" mask="url(#mask2)"/>
<path style=" stroke:none;fill-rule:nonzero;fill:rgb(17.254902%,17.254902%,17.254902%);fill-opacity:1;" d="M 16.019531 5.683594 C 13.90625 5.683594 12.195312 7.394531 12.195312 9.503906 C 12.195312 11.613281 13.90625 13.324219 16.019531 13.324219 C 18.128906 13.324219 19.839844 11.613281 19.839844 9.503906 C 19.839844 7.394531 18.128906 5.683594 16.019531 5.683594 Z M 16.019531 15.617188 C 8.375 15.621094 8.375 20.507812 8.375 20.507812 L 8.375 22.496094 C 8.375 22.496094 9.785156 25.554688 16.019531 25.554688 C 22.25 25.554688 23.660156 22.496094 23.660156 22.496094 L 23.660156 20.507812 C 23.660156 20.507812 23.660156 15.613281 16.019531 15.617188 Z M 16.019531 15.617188 "/>
</g>
</svg>
