<?xml version="1.0" encoding="UTF-8"?>
<svg xmlns="http://www.w3.org/2000/svg" xmlns:xlink="http://www.w3.org/1999/xlink" width="16pt" height="16pt" viewBox="0 0 16 16" version="1.1">
<defs>
<filter id="alpha" filterUnits="objectBoundingBox" x="0%" y="0%" width="100%" height="100%">
  <feColorMatrix type="matrix" in="SourceGraphic" values="0 0 0 0 1 0 0 0 0 1 0 0 0 0 1 0 0 0 1 0"/>
</filter>
<mask id="mask0">
  <g filter="url(#alpha)">
<rect x="0" y="0" width="16" height="16" style="fill:rgb(0%,0%,0%);fill-opacity:0.2;stroke:none;"/>
  </g>
</mask>
<clipPath id="clip1">
  <rect width="16" height="16"/>
</clipPath>
<g id="surface6" clip-path="url(#clip1)">
<path style=" stroke:none;fill-rule:nonzero;fill:rgb(0%,0%,0%);fill-opacity:1;" d="M 5.644531 1.292969 L 5.644531 1.835938 L 10 1.835938 L 10 1.292969 Z M 0.199219 12.996094 L 0.199219 13.539062 C 0.199219 13.992188 0.5625 14.355469 1.015625 14.355469 L 14.625 14.355469 C 15.078125 14.355469 15.441406 13.992188 15.441406 13.539062 L 15.441406 12.996094 C 15.441406 13.449219 15.078125 13.8125 14.625 13.8125 L 1.015625 13.8125 C 0.5625 13.8125 0.199219 13.449219 0.199219 12.996094 Z M 0.199219 12.996094 "/>
</g>
<mask id="mask1">
  <g filter="url(#alpha)">
<rect x="0" y="0" width="16" height="16" style="fill:rgb(0%,0%,0%);fill-opacity:0.2;stroke:none;"/>
  </g>
</mask>
<linearGradient id="linear0" gradientUnits="userSpaceOnUse" x1="-114.20316" y1="4.069152" x2="-113.81965" y2="-44.637321" gradientTransform="matrix(0.0634594,0,0,0.063461,20.004578,15.257459)">
<stop offset="0" style="stop-color:rgb(0%,0%,0%);stop-opacity:1;"/>
<stop offset="1" style="stop-color:rgb(0%,0%,0%);stop-opacity:0;"/>
</linearGradient>
<linearGradient id="linear1" gradientUnits="userSpaceOnUse" x1="-114.20316" y1="4.069152" x2="-113.81965" y2="-44.637321" gradientTransform="matrix(0.0634594,0,0,0.063461,20.004578,15.257459)">
<stop offset="0" style="stop-color:rgb(0%,0%,0%);stop-opacity:1;"/>
<stop offset="1" style="stop-color:rgb(0%,0%,0%);stop-opacity:0;"/>
</linearGradient>
<linearGradient id="linear2" gradientUnits="userSpaceOnUse" x1="-114.20316" y1="4.069152" x2="-113.81965" y2="-44.637321" gradientTransform="matrix(0.0634594,0,0,0.063461,20.004578,15.257459)">
<stop offset="0" style="stop-color:rgb(0%,0%,0%);stop-opacity:1;"/>
<stop offset="1" style="stop-color:rgb(0%,0%,0%);stop-opacity:0;"/>
</linearGradient>
<linearGradient id="linear3" gradientUnits="userSpaceOnUse" x1="-114.20316" y1="4.069152" x2="-113.81965" y2="-44.637321" gradientTransform="matrix(0.0322212,0,0,0.032222,3.170312,3.732814)">
<stop offset="0" style="stop-color:rgb(0%,0%,0%);stop-opacity:1;"/>
<stop offset="1" style="stop-color:rgb(0%,0%,0%);stop-opacity:0;"/>
</linearGradient>
<linearGradient id="linear4" gradientUnits="userSpaceOnUse" x1="-114.20316" y1="4.069152" x2="-113.81965" y2="-44.637321" gradientTransform="matrix(0.0322212,0,0,0.032222,3.170312,3.732814)">
<stop offset="0" style="stop-color:rgb(0%,0%,0%);stop-opacity:1;"/>
<stop offset="1" style="stop-color:rgb(0%,0%,0%);stop-opacity:0;"/>
</linearGradient>
<linearGradient id="linear5" gradientUnits="userSpaceOnUse" x1="-114.20316" y1="4.069152" x2="-113.81965" y2="-44.637321" gradientTransform="matrix(0.0322212,0,0,0.032222,3.170312,3.732814)">
<stop offset="0" style="stop-color:rgb(0%,0%,0%);stop-opacity:1;"/>
<stop offset="1" style="stop-color:rgb(0%,0%,0%);stop-opacity:0;"/>
</linearGradient>
<linearGradient id="linear6" gradientUnits="userSpaceOnUse" x1="-114.20316" y1="4.069152" x2="-113.81965" y2="-44.637321" gradientTransform="matrix(0.0322212,0,0,0.032222,3.170312,3.732814)">
<stop offset="0" style="stop-color:rgb(0%,0%,0%);stop-opacity:1;"/>
<stop offset="1" style="stop-color:rgb(0%,0%,0%);stop-opacity:0;"/>
</linearGradient>
<linearGradient id="linear7" gradientUnits="userSpaceOnUse" x1="-114.20316" y1="4.069152" x2="-113.81965" y2="-44.637321" gradientTransform="matrix(0.0322212,0,0,0.032222,3.170312,3.732814)">
<stop offset="0" style="stop-color:rgb(0%,0%,0%);stop-opacity:1;"/>
<stop offset="1" style="stop-color:rgb(0%,0%,0%);stop-opacity:0;"/>
</linearGradient>
<linearGradient id="linear8" gradientUnits="userSpaceOnUse" x1="-114.20316" y1="4.069152" x2="-113.81965" y2="-44.637321" gradientTransform="matrix(0.0322212,0,0,0.032222,3.170312,3.732814)">
<stop offset="0" style="stop-color:rgb(0%,0%,0%);stop-opacity:1;"/>
<stop offset="1" style="stop-color:rgb(0%,0%,0%);stop-opacity:0;"/>
</linearGradient>
<linearGradient id="linear9" gradientUnits="userSpaceOnUse" x1="-114.20316" y1="4.069152" x2="-113.81965" y2="-44.637321" gradientTransform="matrix(0.0322212,0,0,0.032222,3.170312,3.732814)">
<stop offset="0" style="stop-color:rgb(0%,0%,0%);stop-opacity:1;"/>
<stop offset="1" style="stop-color:rgb(0%,0%,0%);stop-opacity:0;"/>
</linearGradient>
<linearGradient id="linear10" gradientUnits="userSpaceOnUse" x1="-114.20316" y1="4.069152" x2="-113.81965" y2="-44.637321" gradientTransform="matrix(0.0322212,0,0,0.032222,3.170312,3.732814)">
<stop offset="0" style="stop-color:rgb(0%,0%,0%);stop-opacity:1;"/>
<stop offset="1" style="stop-color:rgb(0%,0%,0%);stop-opacity:0;"/>
</linearGradient>
<linearGradient id="linear11" gradientUnits="userSpaceOnUse" x1="-114.20316" y1="4.069152" x2="-113.81965" y2="-44.637321" gradientTransform="matrix(0.0322212,0,0,0.032222,3.170312,3.732814)">
<stop offset="0" style="stop-color:rgb(0%,0%,0%);stop-opacity:1;"/>
<stop offset="1" style="stop-color:rgb(0%,0%,0%);stop-opacity:0;"/>
</linearGradient>
<linearGradient id="linear12" gradientUnits="userSpaceOnUse" x1="-114.20316" y1="4.069152" x2="-113.81965" y2="-44.637321" gradientTransform="matrix(0.0322212,0,0,0.032222,3.170312,3.732814)">
<stop offset="0" style="stop-color:rgb(0%,0%,0%);stop-opacity:1;"/>
<stop offset="1" style="stop-color:rgb(0%,0%,0%);stop-opacity:0;"/>
</linearGradient>
<linearGradient id="linear13" gradientUnits="userSpaceOnUse" x1="-114.20316" y1="4.069152" x2="-113.81965" y2="-44.637321" gradientTransform="matrix(0.0322212,0,0,0.032222,3.170312,3.732814)">
<stop offset="0" style="stop-color:rgb(0%,0%,0%);stop-opacity:1;"/>
<stop offset="1" style="stop-color:rgb(0%,0%,0%);stop-opacity:0;"/>
</linearGradient>
<linearGradient id="linear14" gradientUnits="userSpaceOnUse" x1="-114.20316" y1="4.069152" x2="-113.81965" y2="-44.637321" gradientTransform="matrix(0.0322212,0,0,0.032222,3.170312,3.732814)">
<stop offset="0" style="stop-color:rgb(0%,0%,0%);stop-opacity:1;"/>
<stop offset="1" style="stop-color:rgb(0%,0%,0%);stop-opacity:0;"/>
</linearGradient>
<clipPath id="clip2">
  <rect width="16" height="16"/>
</clipPath>
<g id="surface10" clip-path="url(#clip2)">
<path style=" stroke:none;fill-rule:nonzero;fill:url(#linear0);" d="M 15.941406 10.023438 C 15.910156 9.933594 15.816406 9.769531 15.730469 9.664062 C 15.644531 9.554688 15.507812 9.429688 15.421875 9.378906 C 15.335938 9.332031 14.949219 9.4375 14.753906 9.527344 L 14.613281 9.59375 C 14.417969 9.679688 14.253906 9.757812 14.25 9.757812 C 14.246094 9.757812 14.222656 9.757812 14.207031 9.75 C 14.1875 9.742188 13.96875 9.6875 13.761719 9.640625 L 13.386719 9.550781 C 13.175781 9.503906 12.933594 9.457031 12.847656 9.449219 C 12.761719 9.441406 12.394531 9.5 12.1875 9.550781 L 11.785156 9.640625 C 11.574219 9.691406 11.390625 9.734375 11.371094 9.738281 C 11.355469 9.746094 11.304688 9.761719 11.300781 9.761719 C 11.296875 9.757812 11.128906 9.679688 10.933594 9.59375 L 10.789062 9.527344 C 10.59375 9.4375 10.351562 9.359375 10.253906 9.351562 C 10.152344 9.34375 9.898438 9.554688 9.8125 9.664062 C 9.726562 9.769531 9.632812 9.933594 9.601562 10.023438 C 9.574219 10.113281 9.738281 10.46875 9.859375 10.648438 L 10.105469 11.011719 C 10.222656 11.191406 10.289062 11.394531 10.25 11.46875 C 10.210938 11.542969 10.15625 11.675781 10.132812 11.761719 C 10.105469 11.847656 10.136719 12.226562 10.171875 12.441406 L 10.246094 12.894531 C 10.285156 13.105469 10.351562 13.347656 10.398438 13.4375 C 10.445312 13.523438 10.8125 13.675781 11.023438 13.726562 L 11.117188 13.75 C 11.324219 13.804688 11.597656 13.988281 11.722656 14.164062 L 11.894531 14.394531 C 12.019531 14.570312 12.183594 14.761719 12.257812 14.820312 C 12.332031 14.882812 12.648438 14.929688 12.773438 14.929688 C 12.898438 14.929688 13.074219 14.910156 13.164062 14.882812 C 13.257812 14.859375 13.523438 14.570312 13.652344 14.394531 L 13.816406 14.167969 C 13.941406 13.992188 14.214844 13.804688 14.425781 13.753906 L 14.523438 13.730469 C 14.730469 13.675781 14.96875 13.589844 15.054688 13.539062 C 15.136719 13.484375 15.261719 13.105469 15.296875 12.894531 L 15.375 12.441406 C 15.410156 12.226562 15.4375 11.980469 15.433594 11.890625 C 15.433594 11.800781 15.332031 11.542969 15.292969 11.46875 C 15.253906 11.394531 15.320312 11.191406 15.441406 11.011719 L 15.6875 10.648438 C 15.808594 10.46875 15.972656 10.113281 15.941406 10.023438 Z M 10.089844 10.4375 C 9.984375 10.277344 9.890625 10.136719 9.886719 10.125 C 9.886719 10.125 9.886719 10.125 9.886719 10.105469 C 9.886719 10.085938 9.886719 10.085938 9.886719 10.085938 C 9.894531 10.066406 9.972656 9.964844 10.054688 9.855469 C 10.140625 9.75 10.226562 9.652344 10.242188 9.644531 C 10.257812 9.636719 10.464844 9.71875 10.660156 9.808594 L 10.691406 9.824219 C 10.886719 9.914062 11.042969 9.988281 11.042969 9.996094 C 11.039062 10 10.945312 10.171875 10.84375 10.359375 L 10.671875 10.683594 C 10.570312 10.871094 10.199219 10.597656 10.089844 10.4375 Z M 15.128906 11.90625 C 15.132812 11.960938 15.105469 12.175781 15.066406 12.386719 L 14.992188 12.839844 C 14.953125 13.054688 14.914062 13.25 14.898438 13.273438 C 14.878906 13.300781 14.699219 13.367188 14.542969 13.40625 C 14.386719 13.445312 14.265625 13.449219 14.273438 13.417969 C 14.277344 13.386719 14.1875 13.167969 14.070312 13 C 13.957031 12.832031 13.859375 12.699219 13.859375 12.703125 C 13.859375 12.710938 13.886719 12.847656 13.917969 13 C 13.945312 13.148438 13.96875 13.3125 13.964844 13.355469 C 13.960938 13.402344 13.910156 13.507812 13.890625 13.53125 C 13.875 13.558594 13.796875 13.664062 13.71875 13.773438 C 13.640625 13.878906 13.488281 14.09375 13.375 14.25 C 13.261719 14.40625 13.144531 14.550781 13.113281 14.578125 C 13.078125 14.601562 12.898438 14.621094 12.773438 14.621094 C 12.648438 14.621094 12.515625 14.609375 12.476562 14.597656 C 12.4375 14.585938 12.28125 14.402344 12.167969 14.246094 C 12.054688 14.089844 11.898438 13.875 11.820312 13.765625 C 11.742188 13.660156 11.667969 13.554688 11.652344 13.53125 C 11.632812 13.507812 11.609375 13.453125 11.589844 13.410156 C 11.574219 13.367188 11.597656 13.148438 11.628906 13 C 11.65625 12.847656 11.683594 12.71875 11.683594 12.714844 C 11.683594 12.707031 11.589844 12.832031 11.472656 13 C 11.355469 13.167969 11.261719 13.332031 11.265625 13.363281 C 11.265625 13.394531 11.15625 13.441406 11 13.402344 C 10.84375 13.363281 10.695312 13.320312 10.671875 13.300781 C 10.648438 13.28125 10.589844 13.054688 10.554688 12.839844 L 10.476562 12.386719 C 10.441406 12.175781 10.414062 11.960938 10.414062 11.90625 C 10.417969 11.855469 10.476562 11.707031 10.503906 11.652344 C 10.53125 11.601562 10.640625 11.402344 10.742188 11.210938 L 11.117188 10.507812 C 11.21875 10.316406 11.328125 10.136719 11.359375 10.101562 C 11.390625 10.070312 11.476562 10.03125 11.480469 10.03125 C 11.484375 10.027344 11.660156 9.988281 11.867188 9.941406 L 12.257812 9.851562 C 12.464844 9.804688 12.6875 9.761719 12.746094 9.753906 C 12.808594 9.75 13.105469 9.804688 13.316406 9.855469 L 13.675781 9.9375 C 13.886719 9.988281 14.058594 10.027344 14.0625 10.03125 C 14.066406 10.03125 14.101562 10.046875 14.144531 10.070312 C 14.183594 10.09375 14.324219 10.316406 14.425781 10.507812 L 14.804688 11.210938 C 14.90625 11.402344 15.011719 11.601562 15.039062 11.652344 C 15.070312 11.707031 15.125 11.855469 15.128906 11.90625 Z M 15.660156 10.125 C 15.652344 10.136719 15.5625 10.277344 15.453125 10.4375 C 15.347656 10.597656 14.972656 10.871094 14.871094 10.683594 L 14.699219 10.359375 C 14.597656 10.171875 14.511719 10.011719 14.507812 10.003906 C 14.507812 10 14.65625 9.914062 14.851562 9.824219 L 14.882812 9.808594 C 15.078125 9.71875 15.257812 9.644531 15.28125 9.644531 C 15.300781 9.644531 15.402344 9.75 15.488281 9.855469 C 15.574219 9.964844 15.652344 10.066406 15.660156 10.085938 C 15.660156 10.085938 15.660156 10.085938 15.660156 10.105469 C 15.660156 10.125 15.660156 10.125 15.660156 10.125 Z M 15.660156 10.125 "/>
<path style=" stroke:none;fill-rule:nonzero;fill:url(#linear1);" d="M 12.226562 13.011719 C 12.179688 12.917969 12.226562 12.84375 12.328125 12.84375 L 13.214844 12.84375 C 13.316406 12.84375 13.363281 12.917969 13.320312 13.011719 L 12.855469 13.535156 C 12.808594 13.628906 12.734375 13.628906 12.6875 13.535156 Z M 12.226562 13.011719 "/>
<path style=" stroke:none;fill-rule:nonzero;fill:url(#linear2);" d="M 12.773438 14.140625 C 12.773438 14.140625 12.835938 14.195312 12.910156 14.265625 L 13.210938 14.539062 C 13.289062 14.609375 13.371094 14.617188 13.398438 14.554688 C 13.421875 14.496094 13.375 14.398438 13.289062 14.339844 L 13.003906 14.144531 C 12.917969 14.085938 12.847656 14.035156 12.847656 14.035156 C 12.847656 14.03125 12.851562 13.941406 12.851562 13.835938 L 12.851562 13.304688 C 12.851562 13.203125 12.835938 13.082031 12.816406 13.039062 C 12.816406 13.039062 12.816406 13.039062 12.773438 13.039062 C 12.730469 13.039062 12.730469 13.039062 12.730469 13.039062 C 12.710938 13.082031 12.695312 13.203125 12.695312 13.304688 L 12.695312 13.835938 C 12.695312 13.941406 12.695312 14.027344 12.695312 14.03125 C 12.695312 14.03125 12.625 14.085938 12.539062 14.144531 L 12.253906 14.339844 C 12.171875 14.398438 12.121094 14.496094 12.148438 14.554688 C 12.171875 14.617188 12.257812 14.609375 12.332031 14.539062 L 12.632812 14.265625 C 12.710938 14.195312 12.773438 14.140625 12.773438 14.140625 Z M 12.773438 14.140625 "/>
<path style=" stroke:none;fill-rule:nonzero;fill:url(#linear3);" d="M 12.269531 13.382812 C 11.539062 13.574219 10.929688 13.925781 10.335938 14.390625 "/>
<path style=" stroke:none;fill-rule:nonzero;fill:url(#linear4);" d="M 12.261719 13.335938 C 11.558594 13.507812 10.851562 13.875 10.308594 14.359375 C 10.273438 14.394531 10.320312 14.445312 10.359375 14.417969 C 10.652344 14.222656 10.9375 14.011719 11.25 13.839844 C 11.578125 13.664062 11.921875 13.53125 12.277344 13.425781 C 12.332031 13.410156 12.320312 13.324219 12.261719 13.335938 Z M 12.261719 13.335938 "/>
<path style=" stroke:none;fill-rule:nonzero;fill:url(#linear5);" d="M 12.289062 13.625 C 11.75 13.675781 11.207031 14.292969 10.871094 14.695312 "/>
<path style=" stroke:none;fill-rule:nonzero;fill:url(#linear6);" d="M 12.28125 13.589844 C 11.976562 13.613281 11.71875 13.785156 11.492188 13.976562 C 11.25 14.175781 11.019531 14.417969 10.847656 14.675781 C 10.824219 14.707031 10.867188 14.746094 10.894531 14.722656 C 11.308594 14.316406 11.683594 13.765625 12.292969 13.660156 C 12.339844 13.652344 12.328125 13.585938 12.28125 13.589844 Z M 12.28125 13.589844 "/>
<path style=" stroke:none;fill-rule:nonzero;fill:url(#linear7);" d="M 12.339844 13.871094 C 11.816406 14.015625 11.390625 14.714844 11.128906 15.167969 "/>
<path style=" stroke:none;fill-rule:nonzero;fill:url(#linear8);" d="M 12.332031 13.832031 C 12.046875 13.90625 11.832031 14.105469 11.640625 14.320312 C 11.425781 14.566406 11.234375 14.859375 11.097656 15.15625 C 11.082031 15.191406 11.136719 15.21875 11.15625 15.1875 C 11.492188 14.714844 11.773438 14.109375 12.355469 13.902344 C 12.394531 13.890625 12.371094 13.824219 12.332031 13.832031 Z M 12.332031 13.832031 "/>
<path style=" stroke:none;fill-rule:nonzero;fill:url(#linear9);" d="M 13.273438 13.382812 C 14.003906 13.574219 14.613281 13.925781 15.210938 14.390625 "/>
<path style=" stroke:none;fill-rule:nonzero;fill:url(#linear10);" d="M 13.257812 13.421875 C 13.613281 13.53125 13.957031 13.660156 14.289062 13.835938 C 14.605469 14.007812 14.890625 14.222656 15.1875 14.421875 C 15.230469 14.449219 15.269531 14.390625 15.230469 14.359375 C 14.695312 13.878906 13.988281 13.507812 13.289062 13.339844 C 13.234375 13.324219 13.203125 13.40625 13.257812 13.421875 Z M 13.257812 13.421875 "/>
<path style=" stroke:none;fill-rule:nonzero;fill:url(#linear11);" d="M 13.257812 13.625 C 13.792969 13.675781 14.339844 14.292969 14.671875 14.695312 "/>
<path style=" stroke:none;fill-rule:nonzero;fill:url(#linear12);" d="M 13.253906 13.660156 C 13.859375 13.765625 14.234375 14.316406 14.648438 14.71875 C 14.675781 14.746094 14.71875 14.710938 14.695312 14.675781 C 14.519531 14.410156 14.289062 14.179688 14.050781 13.972656 C 13.824219 13.78125 13.5625 13.609375 13.261719 13.589844 C 13.210938 13.585938 13.207031 13.652344 13.253906 13.660156 Z M 13.253906 13.660156 "/>
<path style=" stroke:none;fill-rule:nonzero;fill:url(#linear13);" d="M 13.207031 13.871094 C 13.726562 14.015625 14.15625 14.714844 14.414062 15.167969 "/>
<path style=" stroke:none;fill-rule:nonzero;fill:url(#linear14);" d="M 13.191406 13.902344 C 13.773438 14.113281 14.054688 14.71875 14.390625 15.191406 C 14.410156 15.222656 14.457031 15.1875 14.445312 15.15625 C 14.3125 14.867188 14.128906 14.597656 13.929688 14.351562 C 13.742188 14.125 13.511719 13.910156 13.21875 13.835938 C 13.171875 13.824219 13.148438 13.886719 13.191406 13.902344 Z M 13.191406 13.902344 "/>
</g>
<mask id="mask2">
  <g filter="url(#alpha)">
<rect x="0" y="0" width="16" height="16" style="fill:rgb(0%,0%,0%);fill-opacity:0.2;stroke:none;"/>
  </g>
</mask>
<clipPath id="clip3">
  <rect width="16" height="16"/>
</clipPath>
<g id="surface14" clip-path="url(#clip3)">
<path style=" stroke:none;fill-rule:evenodd;fill:rgb(23.529412%,23.529412%,23.529412%);fill-opacity:1;" d="M 10.160156 7.320312 C 10.085938 8.558594 9.058594 9.523438 7.820312 9.527344 C 6.59375 9.527344 5.574219 8.578125 5.484375 7.355469 C 5.480469 7.402344 5.476562 7.449219 5.476562 7.496094 C 5.476562 8.789062 6.527344 9.839844 7.820312 9.839844 C 9.117188 9.839844 10.164062 8.789062 10.164062 7.496094 C 10.164062 7.4375 10.164062 7.378906 10.160156 7.320312 Z M 10.160156 7.320312 "/>
</g>
<clipPath id="clip4">
  <rect width="16" height="16"/>
</clipPath>
<g id="surface17" clip-path="url(#clip4)">
<path style=" stroke:none;fill-rule:evenodd;fill:rgb(29.019608%,70.196078%,89.411765%);fill-opacity:1;" d="M 10.164062 7.339844 C 10.164062 8.632812 9.117188 9.683594 7.820312 9.683594 C 6.527344 9.683594 5.476562 8.632812 5.476562 7.339844 C 5.476562 6.042969 6.527344 4.992188 7.820312 4.992188 C 9.117188 4.992188 10.164062 6.042969 10.164062 7.339844 Z M 10.164062 7.339844 "/>
</g>
</defs>
<g id="surface1">
<use xlink:href="#surface6" mask="url(#mask0)"/>
<path style=" stroke:none;fill-rule:nonzero;fill:rgb(80%,80%,80%);fill-opacity:1;" d="M 5.644531 0.476562 L 4.554688 1.5625 L 4.554688 3.199219 L 0.199219 3.199219 L 0.199219 13.269531 C 0.199219 13.71875 0.5625 14.085938 1.015625 14.085938 L 14.625 14.085938 C 15.078125 14.085938 15.441406 13.71875 15.441406 13.269531 L 15.441406 3.199219 L 11.085938 3.199219 L 11.085938 1.5625 L 10 0.476562 Z M 5.644531 1.5625 L 10 1.5625 L 10 3.199219 L 5.644531 3.199219 Z M 5.644531 1.5625 "/>
<use xlink:href="#surface10" mask="url(#mask1)"/>
<path style=" stroke:none;fill-rule:nonzero;fill:rgb(100%,79.607843%,3.137255%);fill-opacity:1;" d="M 10.214844 9.242188 L 9.714844 9.894531 L 10.453125 11.042969 L 11.191406 9.632812 Z M 10.214844 9.242188 "/>
<path style=" stroke:none;fill-rule:nonzero;fill:rgb(100%,79.607843%,3.137255%);fill-opacity:1;" d="M 15.339844 9.242188 L 15.839844 9.894531 L 15.101562 11.042969 L 14.363281 9.632812 Z M 15.339844 9.242188 "/>
<path style=" stroke:none;fill-rule:nonzero;fill:rgb(100%,79.607843%,3.137255%);fill-opacity:1;" d="M 15.03125 11.386719 L 14.273438 9.9375 C 14.246094 9.886719 14.15625 9.816406 14.097656 9.804688 L 14.085938 9.800781 L 12.941406 9.527344 C 12.863281 9.507812 12.71875 9.507812 12.640625 9.527344 L 11.46875 9.800781 L 11.453125 9.804688 C 11.398438 9.816406 11.308594 9.886719 11.28125 9.9375 L 10.519531 11.386719 L 10.414062 11.585938 C 10.382812 11.648438 10.363281 11.777344 10.375 11.847656 L 10.585938 13.117188 C 10.59375 13.160156 10.644531 13.214844 10.6875 13.226562 L 11.261719 13.371094 C 11.246094 13.316406 11.378906 13.257812 11.375 13.199219 L 11.667969 12.5625 C 11.667969 12.574219 11.667969 12.585938 11.667969 12.597656 L 11.558594 13.164062 C 11.546875 13.226562 11.570312 13.339844 11.605469 13.390625 L 11.667969 13.476562 L 11.953125 13.878906 L 12.371094 14.46875 C 12.402344 14.515625 12.492188 14.5625 12.546875 14.5625 L 13.007812 14.5625 C 13.0625 14.5625 13.152344 14.515625 13.183594 14.46875 L 13.597656 13.882812 L 13.886719 13.480469 L 13.949219 13.390625 C 13.984375 13.339844 14.007812 13.226562 13.996094 13.164062 L 13.886719 12.597656 C 13.886719 12.585938 13.882812 12.574219 13.882812 12.5625 L 14.175781 13.203125 C 14.175781 13.257812 14.308594 13.316406 14.292969 13.375 L 14.867188 13.226562 C 14.910156 13.21875 14.960938 13.160156 14.96875 13.117188 L 15.179688 11.847656 C 15.191406 11.777344 15.171875 11.648438 15.136719 11.585938 Z M 15.03125 11.386719 "/>
<path style=" stroke:none;fill-rule:nonzero;fill:rgb(17.254902%,17.254902%,17.254902%);fill-opacity:1;" d="M 15.945312 9.785156 C 15.917969 9.695312 15.820312 9.535156 15.734375 9.425781 C 15.648438 9.316406 15.511719 9.191406 15.425781 9.140625 C 15.34375 9.09375 14.953125 9.199219 14.757812 9.289062 L 14.617188 9.355469 C 14.421875 9.445312 14.257812 9.519531 14.253906 9.519531 C 14.25 9.523438 14.230469 9.519531 14.210938 9.511719 C 14.191406 9.503906 13.976562 9.453125 13.765625 9.402344 L 13.390625 9.316406 C 13.179688 9.265625 12.9375 9.21875 12.851562 9.210938 C 12.765625 9.203125 12.402344 9.265625 12.191406 9.3125 L 11.789062 9.40625 C 11.578125 9.453125 11.394531 9.496094 11.375 9.5 C 11.359375 9.507812 11.308594 9.523438 11.304688 9.523438 C 11.300781 9.519531 11.132812 9.445312 10.9375 9.355469 L 10.792969 9.289062 C 10.597656 9.199219 10.359375 9.121094 10.257812 9.113281 C 10.160156 9.105469 9.902344 9.316406 9.820312 9.425781 C 9.734375 9.535156 9.636719 9.695312 9.609375 9.785156 C 9.578125 9.875 9.742188 10.230469 9.863281 10.410156 L 10.109375 10.773438 C 10.230469 10.953125 10.296875 11.160156 10.253906 11.230469 C 10.214844 11.304688 10.164062 11.4375 10.136719 11.523438 C 10.109375 11.609375 10.140625 11.988281 10.175781 12.203125 L 10.253906 12.65625 C 10.289062 12.867188 10.355469 13.113281 10.402344 13.199219 C 10.449219 13.285156 10.820312 13.4375 11.027344 13.492188 L 11.121094 13.511719 C 11.328125 13.566406 11.605469 13.75 11.730469 13.925781 L 11.898438 14.160156 C 12.023438 14.332031 12.1875 14.523438 12.261719 14.585938 C 12.335938 14.644531 12.652344 14.691406 12.777344 14.691406 C 12.902344 14.691406 13.078125 14.671875 13.171875 14.644531 C 13.261719 14.621094 13.53125 14.332031 13.65625 14.160156 L 13.820312 13.929688 C 13.949219 13.753906 14.222656 13.570312 14.429688 13.515625 L 14.527344 13.492188 C 14.734375 13.4375 14.976562 13.351562 15.058594 13.300781 C 15.140625 13.246094 15.265625 12.867188 15.300781 12.65625 L 15.378906 12.203125 C 15.414062 11.988281 15.441406 11.742188 15.4375 11.652344 C 15.4375 11.5625 15.335938 11.304688 15.296875 11.230469 C 15.257812 11.160156 15.324219 10.953125 15.445312 10.773438 L 15.691406 10.410156 C 15.8125 10.230469 15.976562 9.875 15.945312 9.785156 Z M 10.09375 10.199219 C 9.988281 10.042969 9.894531 9.898438 9.890625 9.886719 C 9.890625 9.886719 9.890625 9.886719 9.890625 9.867188 C 9.890625 9.847656 9.890625 9.847656 9.890625 9.847656 C 9.898438 9.828125 9.976562 9.726562 10.0625 9.617188 C 10.148438 9.511719 10.230469 9.417969 10.246094 9.40625 C 10.265625 9.398438 10.46875 9.480469 10.667969 9.570312 L 10.695312 9.585938 C 10.890625 9.675781 11.050781 9.753906 11.046875 9.757812 C 11.042969 9.761719 10.949219 9.933594 10.847656 10.121094 L 10.675781 10.445312 C 10.574219 10.632812 10.203125 10.359375 10.09375 10.199219 Z M 15.132812 11.667969 C 15.136719 11.722656 15.109375 11.9375 15.074219 12.152344 L 14.996094 12.601562 C 14.960938 12.816406 14.917969 13.011719 14.902344 13.039062 C 14.886719 13.0625 14.703125 13.128906 14.550781 13.167969 C 14.394531 13.207031 14.269531 13.210938 14.277344 13.183594 C 14.285156 13.152344 14.191406 12.933594 14.078125 12.761719 C 13.960938 12.59375 13.867188 12.460938 13.867188 12.464844 C 13.867188 12.472656 13.890625 12.609375 13.921875 12.761719 C 13.953125 12.910156 13.972656 13.074219 13.96875 13.117188 C 13.964844 13.164062 13.914062 13.273438 13.898438 13.296875 C 13.878906 13.320312 13.800781 13.425781 13.726562 13.535156 C 13.648438 13.640625 13.492188 13.855469 13.378906 14.011719 C 13.269531 14.167969 13.148438 14.316406 13.117188 14.339844 C 13.082031 14.363281 12.902344 14.382812 12.777344 14.382812 C 12.652344 14.382812 12.519531 14.371094 12.480469 14.359375 C 12.441406 14.347656 12.285156 14.167969 12.171875 14.007812 C 12.058594 13.851562 11.902344 13.636719 11.824219 13.527344 C 11.75 13.421875 11.671875 13.316406 11.65625 13.292969 C 11.640625 13.269531 11.613281 13.214844 11.597656 13.171875 C 11.578125 13.128906 11.601562 12.910156 11.632812 12.761719 C 11.660156 12.609375 11.6875 12.484375 11.6875 12.476562 C 11.6875 12.46875 11.59375 12.59375 11.476562 12.761719 C 11.359375 12.933594 11.269531 13.09375 11.269531 13.125 C 11.273438 13.15625 11.160156 13.203125 11.003906 13.164062 C 10.847656 13.128906 10.703125 13.082031 10.675781 13.0625 C 10.652344 13.046875 10.59375 12.816406 10.558594 12.605469 L 10.480469 12.152344 C 10.445312 11.9375 10.417969 11.722656 10.421875 11.667969 C 10.421875 11.617188 10.480469 11.46875 10.507812 11.414062 C 10.539062 11.363281 10.644531 11.164062 10.746094 10.972656 L 11.121094 10.269531 C 11.222656 10.078125 11.332031 9.898438 11.363281 9.867188 C 11.394531 9.832031 11.480469 9.792969 11.484375 9.792969 C 11.488281 9.792969 11.664062 9.75 11.875 9.703125 L 12.261719 9.613281 C 12.46875 9.566406 12.691406 9.523438 12.75 9.519531 C 12.8125 9.511719 13.109375 9.566406 13.320312 9.617188 L 13.679688 9.699219 C 13.890625 9.75 14.066406 9.789062 14.070312 9.792969 C 14.074219 9.792969 14.109375 9.8125 14.148438 9.832031 C 14.1875 9.855469 14.328125 10.078125 14.429688 10.269531 L 14.808594 10.972656 C 14.910156 11.164062 15.015625 11.363281 15.046875 11.414062 C 15.074219 11.46875 15.132812 11.617188 15.132812 11.667969 Z M 15.664062 9.886719 C 15.65625 9.898438 15.566406 10.042969 15.457031 10.199219 C 15.351562 10.359375 14.976562 10.632812 14.875 10.445312 L 14.703125 10.121094 C 14.601562 9.933594 14.515625 9.773438 14.515625 9.769531 C 14.511719 9.761719 14.660156 9.675781 14.859375 9.585938 L 14.886719 9.570312 C 15.082031 9.480469 15.261719 9.40625 15.285156 9.40625 C 15.304688 9.40625 15.40625 9.511719 15.492188 9.617188 C 15.578125 9.726562 15.65625 9.828125 15.664062 9.847656 C 15.664062 9.847656 15.664062 9.847656 15.664062 9.867188 C 15.664062 9.886719 15.664062 9.886719 15.664062 9.886719 Z M 15.664062 9.886719 "/>
<path style=" stroke:none;fill-rule:nonzero;fill:rgb(17.254902%,17.254902%,17.254902%);fill-opacity:1;" d="M 12.230469 12.773438 C 12.183594 12.679688 12.230469 12.605469 12.335938 12.605469 L 13.21875 12.605469 C 13.324219 12.605469 13.371094 12.679688 13.324219 12.773438 L 12.859375 13.300781 C 12.816406 13.390625 12.738281 13.390625 12.691406 13.300781 Z M 12.230469 12.773438 "/>
<path style=" stroke:none;fill-rule:nonzero;fill:rgb(17.254902%,17.254902%,17.254902%);fill-opacity:1;" d="M 12.777344 13.902344 C 12.777344 13.902344 12.839844 13.957031 12.917969 14.027344 L 13.214844 14.304688 C 13.292969 14.371094 13.375 14.378906 13.402344 14.316406 C 13.429688 14.257812 13.378906 14.160156 13.292969 14.101562 L 13.007812 13.90625 C 12.921875 13.847656 12.855469 13.796875 12.855469 13.796875 C 12.855469 13.792969 12.855469 13.703125 12.855469 13.597656 L 12.855469 13.070312 C 12.855469 12.964844 12.839844 12.84375 12.820312 12.804688 C 12.820312 12.804688 12.820312 12.804688 12.777344 12.804688 C 12.734375 12.804688 12.734375 12.804688 12.734375 12.804688 C 12.714844 12.84375 12.699219 12.964844 12.699219 13.070312 L 12.699219 13.597656 C 12.699219 13.703125 12.699219 13.789062 12.699219 13.792969 C 12.699219 13.792969 12.632812 13.847656 12.546875 13.90625 L 12.261719 14.101562 C 12.175781 14.160156 12.125 14.257812 12.152344 14.316406 C 12.175781 14.378906 12.261719 14.371094 12.335938 14.304688 L 12.636719 14.027344 C 12.714844 13.957031 12.777344 13.902344 12.777344 13.902344 Z M 12.777344 13.902344 "/>
<path style=" stroke:none;fill-rule:nonzero;fill:rgb(17.254902%,17.254902%,17.254902%);fill-opacity:1;" d="M 11.128906 11.382812 C 11.019531 11.382812 11.019531 11.398438 11.128906 11.414062 L 12.050781 11.546875 C 12.160156 11.5625 12.242188 11.667969 12.234375 11.777344 L 12.113281 12.1875 C 12.105469 12.300781 12.140625 12.394531 12.191406 12.398438 C 12.246094 12.402344 12.289062 12.402344 12.289062 12.394531 C 12.289062 12.390625 12.292969 12.296875 12.296875 12.1875 L 12.394531 11.800781 C 12.398438 11.6875 12.40625 11.542969 12.40625 11.472656 C 12.410156 11.402344 12.382812 11.347656 12.34375 11.347656 C 12.304688 11.347656 12.179688 11.351562 12.070312 11.355469 Z M 11.128906 11.382812 "/>
<path style=" stroke:none;fill-rule:nonzero;fill:rgb(17.254902%,17.254902%,17.254902%);fill-opacity:1;" d="M 13.484375 11.355469 C 13.371094 11.351562 13.25 11.347656 13.210938 11.347656 C 13.171875 11.347656 13.144531 11.402344 13.144531 11.472656 C 13.148438 11.542969 13.15625 11.6875 13.160156 11.800781 L 13.257812 12.1875 C 13.261719 12.296875 13.265625 12.390625 13.265625 12.394531 C 13.265625 12.402344 13.308594 12.402344 13.363281 12.398438 C 13.414062 12.394531 13.449219 12.300781 13.4375 12.191406 L 13.320312 11.777344 C 13.3125 11.667969 13.394531 11.5625 13.503906 11.546875 L 14.425781 11.414062 C 14.535156 11.398438 14.535156 11.382812 14.425781 11.382812 Z M 13.484375 11.355469 "/>
<path style=" stroke:none;fill-rule:nonzero;fill:rgb(17.254902%,17.254902%,17.254902%);fill-opacity:1;" d="M 11.960938 11.519531 C 11.960938 11.589844 11.902344 11.648438 11.832031 11.648438 C 11.761719 11.648438 11.703125 11.589844 11.703125 11.519531 C 11.703125 11.449219 11.761719 11.394531 11.832031 11.394531 C 11.902344 11.394531 11.960938 11.449219 11.960938 11.519531 Z M 11.960938 11.519531 "/>
<path style=" stroke:none;fill-rule:nonzero;fill:rgb(17.254902%,17.254902%,17.254902%);fill-opacity:1;" d="M 13.851562 11.519531 C 13.851562 11.59375 13.792969 11.648438 13.722656 11.648438 C 13.652344 11.648438 13.59375 11.59375 13.59375 11.519531 C 13.59375 11.449219 13.652344 11.394531 13.722656 11.394531 C 13.792969 11.394531 13.851562 11.449219 13.851562 11.519531 Z M 13.851562 11.519531 "/>
<path style=" stroke:none;fill-rule:nonzero;fill:rgb(17.254902%,17.254902%,17.254902%);fill-opacity:1;" d="M 12.277344 13.144531 C 11.542969 13.335938 10.933594 13.6875 10.339844 14.152344 "/>
<path style=" stroke:none;fill-rule:nonzero;fill:rgb(17.254902%,17.254902%,17.254902%);fill-opacity:1;" d="M 12.269531 13.097656 C 11.5625 13.269531 10.855469 13.636719 10.3125 14.121094 C 10.277344 14.15625 10.324219 14.207031 10.363281 14.179688 C 10.660156 13.984375 10.941406 13.773438 11.253906 13.605469 C 11.582031 13.425781 11.925781 13.292969 12.285156 13.1875 C 12.339844 13.171875 12.324219 13.085938 12.269531 13.097656 Z M 12.269531 13.097656 "/>
<path style=" stroke:none;fill-rule:nonzero;fill:rgb(17.254902%,17.254902%,17.254902%);fill-opacity:1;" d="M 12.292969 13.386719 C 11.753906 13.441406 11.210938 14.054688 10.878906 14.457031 "/>
<path style=" stroke:none;fill-rule:nonzero;fill:rgb(17.254902%,17.254902%,17.254902%);fill-opacity:1;" d="M 12.285156 13.351562 C 11.980469 13.375 11.726562 13.546875 11.496094 13.738281 C 11.253906 13.9375 11.023438 14.179688 10.851562 14.441406 C 10.832031 14.46875 10.871094 14.511719 10.898438 14.484375 C 11.3125 14.078125 11.6875 13.527344 12.300781 13.421875 C 12.347656 13.414062 12.332031 13.347656 12.285156 13.351562 Z M 12.285156 13.351562 "/>
<path style=" stroke:none;fill-rule:nonzero;fill:rgb(17.254902%,17.254902%,17.254902%);fill-opacity:1;" d="M 12.34375 13.632812 C 11.824219 13.777344 11.394531 14.476562 11.136719 14.929688 "/>
<path style=" stroke:none;fill-rule:nonzero;fill:rgb(17.254902%,17.254902%,17.254902%);fill-opacity:1;" d="M 12.335938 13.59375 C 12.050781 13.667969 11.835938 13.867188 11.648438 14.082031 C 11.429688 14.332031 11.238281 14.621094 11.105469 14.917969 C 11.089844 14.953125 11.140625 14.980469 11.160156 14.949219 C 11.496094 14.480469 11.777344 13.875 12.359375 13.664062 C 12.398438 13.652344 12.378906 13.585938 12.335938 13.59375 Z M 12.335938 13.59375 "/>
<path style=" stroke:none;fill-rule:nonzero;fill:rgb(17.254902%,17.254902%,17.254902%);fill-opacity:1;" d="M 13.277344 13.144531 C 14.011719 13.335938 14.621094 13.6875 15.214844 14.152344 "/>
<path style=" stroke:none;fill-rule:nonzero;fill:rgb(17.254902%,17.254902%,17.254902%);fill-opacity:1;" d="M 13.261719 13.1875 C 13.621094 13.292969 13.964844 13.421875 14.292969 13.601562 C 14.609375 13.769531 14.894531 13.984375 15.191406 14.183594 C 15.234375 14.210938 15.273438 14.152344 15.238281 14.121094 C 14.699219 13.640625 13.996094 13.269531 13.292969 13.101562 C 13.238281 13.085938 13.207031 13.167969 13.261719 13.1875 Z M 13.261719 13.1875 "/>
<path style=" stroke:none;fill-rule:nonzero;fill:rgb(17.254902%,17.254902%,17.254902%);fill-opacity:1;" d="M 13.261719 13.386719 C 13.800781 13.441406 14.34375 14.054688 14.675781 14.457031 "/>
<path style=" stroke:none;fill-rule:nonzero;fill:rgb(17.254902%,17.254902%,17.254902%);fill-opacity:1;" d="M 13.257812 13.421875 C 13.867188 13.527344 14.242188 14.078125 14.652344 14.480469 C 14.683594 14.507812 14.726562 14.472656 14.703125 14.4375 C 14.523438 14.171875 14.296875 13.941406 14.054688 13.734375 C 13.832031 13.542969 13.566406 13.375 13.265625 13.351562 C 13.21875 13.347656 13.210938 13.414062 13.257812 13.421875 Z M 13.257812 13.421875 "/>
<path style=" stroke:none;fill-rule:nonzero;fill:rgb(17.254902%,17.254902%,17.254902%);fill-opacity:1;" d="M 13.210938 13.632812 C 13.730469 13.777344 14.160156 14.476562 14.417969 14.929688 "/>
<path style=" stroke:none;fill-rule:nonzero;fill:rgb(17.254902%,17.254902%,17.254902%);fill-opacity:1;" d="M 13.199219 13.667969 C 13.777344 13.875 14.0625 14.480469 14.394531 14.953125 C 14.417969 14.984375 14.464844 14.949219 14.449219 14.917969 C 14.320312 14.628906 14.136719 14.359375 13.933594 14.117188 C 13.746094 13.886719 13.515625 13.671875 13.222656 13.597656 C 13.179688 13.585938 13.152344 13.648438 13.199219 13.667969 Z M 13.199219 13.667969 "/>
<path style=" stroke:none;fill-rule:nonzero;fill:rgb(17.254902%,17.254902%,17.254902%);fill-opacity:1;" d="M 11.773438 10.132812 C 11.773438 9.988281 11.679688 9.871094 11.566406 9.871094 C 11.449219 9.871094 11.359375 9.988281 11.359375 10.132812 C 11.359375 10.273438 11.449219 10.390625 11.566406 10.390625 C 11.679688 10.390625 11.773438 10.273438 11.773438 10.132812 Z M 11.773438 10.132812 "/>
<path style=" stroke:none;fill-rule:nonzero;fill:rgb(17.254902%,17.254902%,17.254902%);fill-opacity:1;" d="M 11.492188 10.628906 C 11.492188 10.722656 11.414062 10.800781 11.320312 10.800781 C 11.226562 10.800781 11.148438 10.722656 11.148438 10.628906 C 11.148438 10.535156 11.226562 10.457031 11.320312 10.457031 C 11.414062 10.457031 11.492188 10.535156 11.492188 10.628906 Z M 11.492188 10.628906 "/>
<path style=" stroke:none;fill-rule:nonzero;fill:rgb(17.254902%,17.254902%,17.254902%);fill-opacity:1;" d="M 12.277344 10.066406 C 12.242188 10.175781 12.171875 10.25 12.117188 10.234375 C 12.0625 10.214844 12.046875 10.113281 12.082031 10.003906 C 12.117188 9.894531 12.1875 9.820312 12.242188 9.839844 C 12.296875 9.855469 12.3125 9.957031 12.277344 10.066406 Z M 12.277344 10.066406 "/>
<path style=" stroke:none;fill-rule:nonzero;fill:rgb(17.254902%,17.254902%,17.254902%);fill-opacity:1;" d="M 12.019531 10.683594 C 12.019531 10.738281 11.964844 10.785156 11.898438 10.785156 C 11.832031 10.785156 11.777344 10.738281 11.777344 10.683594 C 11.777344 10.625 11.832031 10.578125 11.898438 10.578125 C 11.964844 10.578125 12.019531 10.625 12.019531 10.683594 Z M 12.019531 10.683594 "/>
<path style=" stroke:none;fill-rule:nonzero;fill:rgb(17.254902%,17.254902%,17.254902%);fill-opacity:1;" d="M 14.5625 12.65625 C 14.519531 12.742188 14.554688 12.847656 14.640625 12.886719 C 14.726562 12.929688 14.828125 12.894531 14.871094 12.8125 C 14.914062 12.726562 14.878906 12.621094 14.792969 12.578125 C 14.707031 12.539062 14.605469 12.570312 14.5625 12.65625 Z M 14.5625 12.65625 "/>
<path style=" stroke:none;fill-rule:nonzero;fill:rgb(17.254902%,17.254902%,17.254902%);fill-opacity:1;" d="M 14.601562 12.214844 C 14.585938 12.328125 14.617188 12.429688 14.671875 12.4375 C 14.730469 12.445312 14.789062 12.363281 14.808594 12.25 C 14.824219 12.136719 14.792969 12.035156 14.738281 12.027344 C 14.679688 12.019531 14.621094 12.105469 14.601562 12.214844 Z M 14.601562 12.214844 "/>
<path style=" stroke:none;fill-rule:nonzero;fill:rgb(17.254902%,17.254902%,17.254902%);fill-opacity:1;" d="M 14.285156 12.480469 C 14.261719 12.53125 14.289062 12.59375 14.347656 12.625 C 14.40625 12.65625 14.476562 12.636719 14.5 12.585938 C 14.527344 12.535156 14.5 12.46875 14.441406 12.441406 C 14.378906 12.410156 14.3125 12.429688 14.285156 12.480469 Z M 14.285156 12.480469 "/>
<path style=" stroke:none;fill-rule:nonzero;fill:rgb(17.254902%,17.254902%,17.254902%);fill-opacity:1;" d="M 3.457031 9.617188 C 3.429688 9.652344 3.488281 9.640625 3.542969 9.628906 L 3.550781 9.554688 Z M 3.457031 9.617188 "/>
<path style=" stroke:none;fill-rule:nonzero;fill:rgb(17.254902%,17.254902%,17.254902%);fill-opacity:1;" d="M 3.683594 9.496094 L 3.761719 9.375 L 3.699219 9.449219 C 3.597656 9.476562 3.675781 9.390625 3.707031 9.359375 C 3.566406 9.464844 3.691406 9.453125 3.683594 9.496094 Z M 3.683594 9.496094 "/>
<path style=" stroke:none;fill-rule:nonzero;fill:rgb(17.254902%,17.254902%,17.254902%);fill-opacity:1;" d="M 3.875 9.320312 C 3.945312 9.28125 3.90625 9.261719 3.871094 9.269531 C 3.875 9.285156 3.839844 9.332031 3.875 9.320312 Z M 3.875 9.320312 "/>
<path style=" stroke:none;fill-rule:nonzero;fill:rgb(17.254902%,17.254902%,17.254902%);fill-opacity:1;" d="M 8.5 7.132812 C 8.472656 7.132812 8.449219 7.140625 8.449219 7.128906 C 8.425781 7.148438 8.425781 7.164062 8.5 7.132812 Z M 8.5 7.132812 "/>
<path style=" stroke:none;fill-rule:nonzero;fill:rgb(17.254902%,17.254902%,17.254902%);fill-opacity:1;" d="M 8.449219 7.128906 L 8.457031 7.117188 C 8.457031 7.121094 8.453125 7.125 8.441406 7.125 C 8.445312 7.125 8.449219 7.128906 8.449219 7.128906 Z M 8.449219 7.128906 "/>
<path style=" stroke:none;fill-rule:nonzero;fill:rgb(17.254902%,17.254902%,17.254902%);fill-opacity:1;" d="M 6.730469 7.386719 C 6.660156 7.453125 6.601562 7.460938 6.527344 7.507812 L 6.460938 7.484375 C 6.382812 7.542969 6.441406 7.539062 6.390625 7.59375 C 6.296875 7.605469 6.144531 7.71875 6.105469 7.730469 C 6.070312 7.726562 6.125 7.6875 6.132812 7.671875 C 6.035156 7.738281 6.066406 7.773438 5.945312 7.839844 L 5.9375 7.828125 C 5.671875 8.046875 5.292969 8.230469 4.988281 8.449219 C 5.011719 8.4375 5.011719 8.453125 5.023438 8.453125 C 4.695312 8.660156 4.304688 8.890625 4.101562 9.148438 C 4.277344 9.027344 4.621094 8.914062 4.761719 8.734375 C 4.847656 8.726562 4.933594 8.621094 4.984375 8.648438 C 5.261719 8.519531 5.324219 8.375 5.585938 8.238281 C 5.632812 8.226562 5.621094 8.257812 5.644531 8.269531 L 5.449219 8.398438 L 5.582031 8.347656 C 5.535156 8.398438 5.398438 8.453125 5.40625 8.503906 C 5.558594 8.355469 5.863281 8.242188 5.992188 8.101562 C 5.914062 8.128906 5.828125 8.195312 5.738281 8.234375 C 5.691406 8.242188 5.628906 8.265625 5.621094 8.242188 C 5.839844 8.046875 6.0625 7.964844 6.3125 7.816406 C 6.375 7.777344 6.464844 7.734375 6.484375 7.746094 C 6.445312 7.777344 6.488281 7.777344 6.457031 7.804688 C 6.539062 7.742188 6.429688 7.726562 6.570312 7.667969 L 6.585938 7.746094 C 6.605469 7.644531 6.757812 7.679688 6.832031 7.589844 C 6.882812 7.601562 6.828125 7.648438 6.753906 7.6875 C 6.839844 7.660156 6.832031 7.613281 6.898438 7.582031 L 6.863281 7.675781 C 6.90625 7.582031 6.996094 7.625 7.046875 7.625 C 7.042969 7.605469 6.984375 7.578125 7.074219 7.539062 C 7.117188 7.53125 7.101562 7.554688 7.117188 7.558594 C 7.117188 7.542969 7.136719 7.5 7.191406 7.472656 C 7.214844 7.488281 7.167969 7.523438 7.175781 7.546875 C 7.21875 7.523438 7.25 7.5 7.296875 7.503906 C 7.367188 7.449219 7.273438 7.476562 7.316406 7.433594 C 7.445312 7.386719 7.363281 7.5 7.425781 7.519531 C 7.347656 7.589844 7.238281 7.652344 7.195312 7.695312 L 7.359375 7.597656 C 7.359375 7.625 7.496094 7.582031 7.414062 7.648438 C 7.597656 7.589844 7.796875 7.46875 7.953125 7.375 C 7.925781 7.378906 7.894531 7.386719 7.894531 7.367188 C 7.972656 7.316406 7.976562 7.351562 8 7.359375 C 8.058594 7.3125 8.03125 7.273438 8.058594 7.226562 C 8.207031 7.203125 8.214844 7.171875 8.351562 7.179688 L 8.328125 7.144531 C 8.421875 7.144531 8.40625 7.074219 8.503906 7.066406 C 8.511719 7.074219 8.484375 7.09375 8.460938 7.117188 C 8.53125 7.074219 8.546875 7.125 8.613281 7.078125 L 8.574219 7.148438 C 8.632812 7.125 8.710938 7.074219 8.699219 7.125 C 8.78125 7.03125 8.976562 6.980469 9.097656 6.902344 L 9.101562 6.945312 C 9.152344 6.871094 9.355469 6.847656 9.394531 6.773438 L 9.410156 6.78125 L 9.527344 6.683594 C 9.589844 6.664062 9.589844 6.726562 9.589844 6.710938 C 9.71875 6.652344 9.824219 6.609375 9.917969 6.601562 C 9.925781 6.542969 10.066406 6.480469 10.175781 6.4375 C 10.742188 6.28125 11.324219 6.058594 11.839844 5.871094 C 11.917969 5.847656 12.015625 5.765625 12.105469 5.714844 C 11.980469 5.730469 11.976562 5.761719 11.855469 5.789062 C 11.761719 5.796875 11.714844 5.753906 11.628906 5.738281 L 11.679688 5.769531 C 11.566406 5.835938 11.589844 5.769531 11.503906 5.835938 L 11.488281 5.765625 C 11.460938 5.8125 11.371094 5.804688 11.332031 5.796875 L 11.3125 5.851562 C 11.230469 5.847656 11.175781 5.851562 11.140625 5.8125 L 11.160156 5.855469 C 11.125 5.835938 10.863281 5.941406 10.9375 5.839844 C 10.914062 5.859375 10.902344 5.886719 10.855469 5.894531 L 10.832031 5.851562 C 10.765625 5.882812 10.695312 5.917969 10.664062 5.894531 C 10.699219 5.875 10.703125 5.851562 10.710938 5.828125 C 10.414062 5.910156 10.691406 5.988281 10.433594 6.074219 L 10.429688 6.046875 L 10.375 6.097656 L 10.292969 6.082031 C 10.234375 6.210938 9.929688 6.191406 9.789062 6.292969 C 9.734375 6.324219 9.632812 6.292969 9.519531 6.34375 L 9.542969 6.382812 C 9.433594 6.375 9.078125 6.46875 8.953125 6.40625 C 8.878906 6.472656 8.964844 6.414062 8.976562 6.449219 C 8.824219 6.558594 8.785156 6.496094 8.6875 6.503906 C 8.59375 6.566406 8.773438 6.488281 8.734375 6.546875 C 8.558594 6.574219 8.625 6.648438 8.417969 6.703125 C 8.390625 6.683594 8.464844 6.667969 8.476562 6.640625 C 8.355469 6.742188 8.089844 6.816406 7.890625 6.917969 C 7.644531 6.988281 7.300781 7.132812 7.015625 7.222656 L 7.019531 7.238281 C 6.886719 7.25 6.785156 7.347656 6.644531 7.394531 Z M 6.730469 7.386719 "/>
<path style=" stroke:none;fill-rule:nonzero;fill:rgb(17.254902%,17.254902%,17.254902%);fill-opacity:1;" d="M 5.375 8.578125 L 5.414062 8.601562 L 5.519531 8.515625 C 5.453125 8.515625 5.441406 8.550781 5.375 8.578125 Z M 5.375 8.578125 "/>
<path style=" stroke:none;fill-rule:nonzero;fill:rgb(17.254902%,17.254902%,17.254902%);fill-opacity:1;" d="M 5.382812 8.453125 L 5.34375 8.464844 L 5.289062 8.511719 Z M 5.382812 8.453125 "/>
<path style=" stroke:none;fill-rule:nonzero;fill:rgb(17.254902%,17.254902%,17.254902%);fill-opacity:1;" d="M 6.648438 7.878906 L 6.882812 7.730469 L 6.859375 7.734375 Z M 6.648438 7.878906 "/>
<path style=" stroke:none;fill-rule:nonzero;fill:rgb(17.254902%,17.254902%,17.254902%);fill-opacity:1;" d="M 8.503906 7.175781 C 8.484375 7.207031 8.445312 7.210938 8.421875 7.238281 L 8.523438 7.175781 Z M 8.503906 7.175781 "/>
<path style=" stroke:none;fill-rule:nonzero;fill:rgb(17.254902%,17.254902%,17.254902%);fill-opacity:1;" d="M 9.625 6.910156 C 9.644531 6.828125 9.707031 6.882812 9.632812 6.839844 C 9.574219 6.875 9.640625 6.882812 9.625 6.910156 Z M 9.625 6.910156 "/>
<path style=" stroke:none;fill-rule:nonzero;fill:rgb(17.254902%,17.254902%,17.254902%);fill-opacity:1;" d="M 9.84375 6.71875 C 9.804688 6.730469 9.789062 6.75 9.769531 6.765625 C 9.828125 6.78125 9.820312 6.742188 9.84375 6.71875 Z M 9.84375 6.71875 "/>
<use xlink:href="#surface14" mask="url(#mask2)"/>
<use xlink:href="#surface17"/>
<path style=" stroke:none;fill-rule:nonzero;fill:rgb(100%,100%,100%);fill-opacity:1;" d="M 8.289062 5.929688 L 8.289062 7.183594 L 8.757812 7.183594 L 7.820312 8.433594 L 6.882812 7.183594 L 7.351562 7.183594 L 7.351562 5.929688 Z M 6.726562 8.433594 L 8.914062 8.433594 L 8.914062 8.746094 L 6.726562 8.746094 Z M 6.726562 8.433594 "/>
<path style=" stroke:none;fill-rule:nonzero;fill:rgb(17.254902%,17.254902%,17.254902%);fill-opacity:1;" d="M 2.585938 8.21875 C 2.558594 8.253906 2.617188 8.242188 2.667969 8.226562 L 2.675781 8.15625 Z M 2.585938 8.21875 "/>
<path style=" stroke:none;fill-rule:nonzero;fill:rgb(17.254902%,17.254902%,17.254902%);fill-opacity:1;" d="M 2.800781 8.101562 L 2.875 7.988281 L 2.816406 8.0625 C 2.714844 8.085938 2.792969 8.003906 2.820312 7.972656 C 2.6875 8.070312 2.804688 8.0625 2.800781 8.101562 Z M 2.800781 8.101562 "/>
<path style=" stroke:none;fill-rule:nonzero;fill:rgb(17.254902%,17.254902%,17.254902%);fill-opacity:1;" d="M 2.980469 7.9375 C 3.050781 7.898438 3.011719 7.875 2.976562 7.882812 C 2.980469 7.902344 2.949219 7.945312 2.980469 7.9375 Z M 2.980469 7.9375 "/>
<path style=" stroke:none;fill-rule:nonzero;fill:rgb(17.254902%,17.254902%,17.254902%);fill-opacity:1;" d="M 7.429688 5.90625 C 7.40625 5.90625 7.382812 5.914062 7.378906 5.902344 C 7.363281 5.917969 7.359375 5.929688 7.429688 5.90625 Z M 7.429688 5.90625 "/>
<path style=" stroke:none;fill-rule:nonzero;fill:rgb(17.254902%,17.254902%,17.254902%);fill-opacity:1;" d="M 7.378906 5.898438 L 7.390625 5.890625 C 7.386719 5.890625 7.382812 5.894531 7.378906 5.898438 C 7.378906 5.894531 7.378906 5.898438 7.378906 5.898438 Z M 7.378906 5.898438 "/>
<path style=" stroke:none;fill-rule:nonzero;fill:rgb(17.254902%,17.254902%,17.254902%);fill-opacity:1;" d="M 5.730469 6.128906 C 5.660156 6.195312 5.609375 6.199219 5.542969 6.25 L 5.480469 6.226562 C 5.40625 6.28125 5.457031 6.28125 5.410156 6.332031 C 5.324219 6.339844 5.175781 6.441406 5.136719 6.457031 C 5.105469 6.449219 5.15625 6.414062 5.160156 6.398438 C 5.074219 6.460938 5.097656 6.496094 4.980469 6.558594 L 4.972656 6.546875 C 4.71875 6.75 4.351562 6.914062 4.054688 7.117188 C 4.078125 7.109375 4.078125 7.121094 4.085938 7.125 C 3.765625 7.3125 3.390625 7.527344 3.195312 7.777344 C 3.363281 7.664062 3.695312 7.5625 3.832031 7.390625 C 3.914062 7.386719 3.996094 7.285156 4.046875 7.3125 C 4.316406 7.195312 4.378906 7.066406 4.628906 6.933594 C 4.671875 6.925781 4.664062 6.953125 4.683594 6.96875 L 4.496094 7.089844 L 4.625 7.042969 C 4.582031 7.089844 4.445312 7.140625 4.453125 7.1875 C 4.601562 7.054688 4.898438 6.949219 5.019531 6.820312 C 4.941406 6.847656 4.859375 6.902344 4.773438 6.941406 C 4.730469 6.945312 4.667969 6.964844 4.660156 6.941406 C 4.871094 6.757812 5.089844 6.691406 5.328125 6.550781 C 5.386719 6.519531 5.472656 6.476562 5.496094 6.496094 C 5.460938 6.523438 5.5 6.523438 5.46875 6.550781 C 5.546875 6.488281 5.441406 6.46875 5.574219 6.417969 L 5.59375 6.496094 C 5.609375 6.398438 5.753906 6.4375 5.824219 6.347656 C 5.871094 6.363281 5.820312 6.40625 5.75 6.445312 C 5.835938 6.417969 5.824219 6.371094 5.886719 6.34375 L 5.855469 6.4375 C 5.898438 6.34375 5.984375 6.390625 6.03125 6.390625 C 6.027344 6.371094 5.972656 6.339844 6.058594 6.308594 C 6.097656 6.300781 6.085938 6.324219 6.101562 6.328125 C 6.097656 6.308594 6.117188 6.269531 6.171875 6.242188 C 6.191406 6.257812 6.148438 6.289062 6.15625 6.3125 C 6.199219 6.292969 6.230469 6.269531 6.269531 6.273438 C 6.335938 6.21875 6.25 6.242188 6.285156 6.199219 C 6.410156 6.164062 6.328125 6.269531 6.390625 6.292969 C 6.3125 6.363281 6.214844 6.421875 6.175781 6.460938 L 6.328125 6.367188 C 6.328125 6.394531 6.460938 6.359375 6.382812 6.421875 C 6.5625 6.371094 6.75 6.25 6.902344 6.160156 C 6.875 6.160156 6.84375 6.167969 6.84375 6.152344 C 6.917969 6.097656 6.921875 6.132812 6.949219 6.144531 C 7.003906 6.097656 6.976562 6.0625 7 6.011719 C 7.144531 5.988281 7.152344 5.960938 7.28125 5.964844 L 7.257812 5.921875 C 7.347656 5.921875 7.332031 5.851562 7.425781 5.839844 C 7.433594 5.84375 7.40625 5.871094 7.382812 5.894531 C 7.453125 5.847656 7.46875 5.898438 7.53125 5.851562 L 7.496094 5.921875 C 7.554688 5.894531 7.628906 5.84375 7.617188 5.898438 C 7.695312 5.800781 7.878906 5.746094 7.992188 5.664062 L 8 5.703125 C 8.042969 5.628906 8.234375 5.605469 8.269531 5.523438 L 8.285156 5.535156 L 8.390625 5.429688 C 8.449219 5.410156 8.453125 5.472656 8.453125 5.457031 C 8.574219 5.386719 8.671875 5.347656 8.761719 5.332031 C 8.761719 5.273438 8.890625 5.207031 8.996094 5.15625 C 9.527344 4.980469 10.070312 4.738281 10.554688 4.542969 C 10.628906 4.523438 10.71875 4.4375 10.808594 4.390625 C 10.6875 4.40625 10.683594 4.4375 10.570312 4.464844 C 10.484375 4.472656 10.4375 4.429688 10.351562 4.414062 L 10.402344 4.449219 C 10.296875 4.519531 10.316406 4.449219 10.238281 4.519531 L 10.21875 4.445312 C 10.195312 4.492188 10.109375 4.488281 10.070312 4.480469 L 10.054688 4.535156 C 9.976562 4.535156 9.925781 4.535156 9.886719 4.5 L 9.90625 4.542969 C 9.871094 4.523438 9.632812 4.640625 9.691406 4.539062 C 9.675781 4.554688 9.664062 4.585938 9.617188 4.59375 L 9.59375 4.554688 C 9.53125 4.585938 9.460938 4.625 9.433594 4.605469 C 9.464844 4.582031 9.46875 4.558594 9.476562 4.535156 C 9.199219 4.628906 9.46875 4.695312 9.226562 4.789062 L 9.21875 4.761719 L 9.167969 4.816406 L 9.09375 4.804688 C 9.039062 4.933594 8.75 4.929688 8.628906 5.039062 C 8.574219 5.070312 8.476562 5.042969 8.371094 5.09375 L 8.394531 5.136719 C 8.292969 5.132812 7.960938 5.242188 7.835938 5.179688 C 7.765625 5.25 7.84375 5.183594 7.859375 5.222656 C 7.722656 5.335938 7.683594 5.273438 7.585938 5.289062 C 7.5 5.355469 7.667969 5.269531 7.632812 5.324219 C 7.46875 5.359375 7.535156 5.429688 7.339844 5.484375 C 7.3125 5.46875 7.382812 5.449219 7.390625 5.421875 C 7.285156 5.523438 7.03125 5.605469 6.847656 5.699219 C 6.59375 5.785156 6.320312 5.875 6.011719 5.980469 L 6.011719 6 C 5.890625 6.007812 5.792969 6.097656 5.660156 6.144531 Z M 5.730469 6.128906 "/>
<path style=" stroke:none;fill-rule:nonzero;fill:rgb(17.254902%,17.254902%,17.254902%);fill-opacity:1;" d="M 4.425781 7.261719 L 4.460938 7.285156 L 4.5625 7.203125 C 4.507812 7.195312 4.496094 7.234375 4.425781 7.261719 Z M 4.425781 7.261719 "/>
<path style=" stroke:none;fill-rule:nonzero;fill:rgb(17.254902%,17.254902%,17.254902%);fill-opacity:1;" d="M 4.441406 7.132812 L 4.394531 7.140625 L 4.34375 7.1875 Z M 4.441406 7.132812 "/>
<path style=" stroke:none;fill-rule:nonzero;fill:rgb(17.254902%,17.254902%,17.254902%);fill-opacity:1;" d="M 5.65625 6.617188 L 5.878906 6.476562 L 5.863281 6.476562 Z M 5.65625 6.617188 "/>
<path style=" stroke:none;fill-rule:nonzero;fill:rgb(17.254902%,17.254902%,17.254902%);fill-opacity:1;" d="M 7.4375 5.941406 C 7.421875 5.972656 7.382812 5.984375 7.363281 6.003906 L 7.457031 5.9375 Z M 7.4375 5.941406 "/>
<path style=" stroke:none;fill-rule:nonzero;fill:rgb(17.254902%,17.254902%,17.254902%);fill-opacity:1;" d="M 8.503906 5.644531 C 8.515625 5.5625 8.582031 5.613281 8.503906 5.574219 C 8.449219 5.613281 8.511719 5.613281 8.503906 5.644531 Z M 8.503906 5.644531 "/>
<path style=" stroke:none;fill-rule:nonzero;fill:rgb(17.254902%,17.254902%,17.254902%);fill-opacity:1;" d="M 8.695312 5.449219 C 8.660156 5.464844 8.644531 5.480469 8.628906 5.5 C 8.6875 5.507812 8.671875 5.472656 8.695312 5.449219 Z M 8.695312 5.449219 "/>
<path style=" stroke:none;fill-rule:nonzero;fill:rgb(17.254902%,17.254902%,17.254902%);fill-opacity:1;" d="M 4.277344 10.964844 C 4.253906 11 4.308594 10.984375 4.355469 10.96875 L 4.351562 10.898438 Z M 4.277344 10.964844 "/>
<path style=" stroke:none;fill-rule:nonzero;fill:rgb(17.254902%,17.254902%,17.254902%);fill-opacity:1;" d="M 4.464844 10.835938 L 4.519531 10.71875 L 4.46875 10.789062 C 4.375 10.820312 4.441406 10.734375 4.464844 10.703125 C 4.347656 10.804688 4.464844 10.792969 4.464844 10.835938 Z M 4.464844 10.835938 "/>
<path style=" stroke:none;fill-rule:nonzero;fill:rgb(17.254902%,17.254902%,17.254902%);fill-opacity:1;" d="M 4.617188 10.664062 C 4.679688 10.625 4.640625 10.605469 4.609375 10.613281 C 4.613281 10.628906 4.585938 10.671875 4.617188 10.664062 Z M 4.617188 10.664062 "/>
<path style=" stroke:none;fill-rule:nonzero;fill:rgb(17.254902%,17.254902%,17.254902%);fill-opacity:1;" d="M 8.78125 8.808594 C 8.757812 8.808594 8.734375 8.8125 8.734375 8.804688 C 8.71875 8.824219 8.71875 8.832031 8.78125 8.808594 Z M 8.78125 8.808594 "/>
<path style=" stroke:none;fill-rule:nonzero;fill:rgb(17.254902%,17.254902%,17.254902%);fill-opacity:1;" d="M 8.734375 8.804688 L 8.742188 8.792969 C 8.742188 8.796875 8.738281 8.796875 8.734375 8.800781 C 8.730469 8.800781 8.734375 8.804688 8.734375 8.804688 Z M 8.734375 8.804688 "/>
<path style=" stroke:none;fill-rule:nonzero;fill:rgb(17.254902%,17.254902%,17.254902%);fill-opacity:1;" d="M 7.199219 9.007812 C 7.136719 9.066406 7.089844 9.070312 7.023438 9.113281 L 6.964844 9.089844 C 6.890625 9.136719 6.945312 9.140625 6.902344 9.1875 C 6.820312 9.191406 6.679688 9.285156 6.648438 9.296875 C 6.617188 9.285156 6.667969 9.253906 6.671875 9.238281 C 6.589844 9.292969 6.613281 9.335938 6.5 9.386719 L 6.492188 9.375 C 6.246094 9.558594 5.898438 9.695312 5.617188 9.882812 C 5.636719 9.875 5.636719 9.882812 5.648438 9.890625 C 5.339844 10.058594 4.980469 10.261719 4.808594 10.503906 C 4.964844 10.394531 5.273438 10.300781 5.40625 10.136719 C 5.484375 10.136719 5.558594 10.039062 5.609375 10.070312 C 5.863281 9.96875 5.925781 9.84375 6.164062 9.734375 C 6.203125 9.726562 6.195312 9.757812 6.21875 9.769531 L 6.035156 9.878906 L 6.160156 9.84375 C 6.121094 9.890625 5.992188 9.929688 6 9.972656 C 6.140625 9.851562 6.421875 9.769531 6.539062 9.648438 C 6.46875 9.667969 6.390625 9.71875 6.308594 9.75 C 6.261719 9.753906 6.207031 9.769531 6.199219 9.746094 C 6.402344 9.582031 6.605469 9.523438 6.835938 9.402344 C 6.890625 9.375 6.972656 9.34375 6.992188 9.359375 C 6.957031 9.382812 6.992188 9.386719 6.964844 9.410156 C 7.042969 9.359375 6.941406 9.332031 7.066406 9.285156 L 7.085938 9.367188 C 7.101562 9.269531 7.238281 9.3125 7.304688 9.230469 C 7.347656 9.246094 7.300781 9.285156 7.234375 9.316406 C 7.3125 9.296875 7.304688 9.25 7.363281 9.222656 L 7.332031 9.3125 C 7.371094 9.222656 7.453125 9.269531 7.5 9.277344 C 7.496094 9.257812 7.441406 9.226562 7.519531 9.195312 C 7.558594 9.1875 7.550781 9.207031 7.5625 9.214844 C 7.558594 9.195312 7.574219 9.15625 7.625 9.128906 C 7.644531 9.148438 7.601562 9.179688 7.609375 9.199219 C 7.648438 9.179688 7.679688 9.15625 7.714844 9.164062 C 7.773438 9.109375 7.691406 9.132812 7.722656 9.089844 C 7.835938 9.054688 7.769531 9.15625 7.828125 9.183594 C 7.761719 9.253906 7.664062 9.3125 7.625 9.347656 L 7.777344 9.253906 C 7.777344 9.285156 7.902344 9.246094 7.828125 9.308594 C 7.992188 9.257812 8.164062 9.136719 8.304688 9.050781 C 8.277344 9.050781 8.25 9.058594 8.246094 9.042969 C 8.316406 8.992188 8.324219 9.023438 8.347656 9.035156 C 8.398438 8.992188 8.371094 8.953125 8.390625 8.910156 C 8.523438 8.886719 8.53125 8.859375 8.652344 8.863281 L 8.628906 8.824219 C 8.710938 8.824219 8.695312 8.757812 8.78125 8.746094 C 8.789062 8.75 8.765625 8.777344 8.75 8.796875 C 8.808594 8.75 8.824219 8.804688 8.882812 8.757812 L 8.855469 8.828125 C 8.90625 8.804688 8.976562 8.753906 8.96875 8.804688 C 9.039062 8.71875 9.207031 8.660156 9.308594 8.585938 L 9.316406 8.625 C 9.355469 8.554688 9.535156 8.53125 9.566406 8.457031 L 9.582031 8.464844 L 9.679688 8.367188 C 9.734375 8.347656 9.738281 8.410156 9.738281 8.390625 C 9.851562 8.332031 9.941406 8.289062 10.027344 8.273438 C 10.023438 8.21875 10.144531 8.148438 10.242188 8.097656 C 10.730469 7.921875 11.226562 7.648438 11.636719 7.378906 C 11.699219 7.347656 11.765625 7.25 11.835938 7.183594 C 11.730469 7.222656 11.730469 7.253906 11.632812 7.296875 C 11.554688 7.320312 11.503906 7.28125 11.425781 7.28125 L 11.476562 7.308594 C 11.394531 7.386719 11.398438 7.320312 11.34375 7.394531 L 11.3125 7.328125 C 11.304688 7.371094 11.21875 7.378906 11.183594 7.375 L 11.175781 7.433594 C 11.101562 7.433594 11.058594 7.441406 11.019531 7.410156 L 11.042969 7.453125 C 11.007812 7.4375 10.804688 7.566406 10.84375 7.460938 C 10.828125 7.476562 10.824219 7.507812 10.78125 7.519531 L 10.757812 7.476562 C 10.703125 7.515625 10.644531 7.550781 10.613281 7.535156 C 10.636719 7.511719 10.640625 7.484375 10.644531 7.460938 C 10.394531 7.566406 10.652344 7.621094 10.4375 7.722656 L 10.429688 7.695312 L 10.382812 7.746094 L 10.308594 7.738281 C 10.273438 7.867188 10 7.867188 9.886719 7.972656 C 9.835938 8.003906 9.742188 7.976562 9.648438 8.023438 L 9.675781 8.066406 C 9.574219 8.058594 9.265625 8.160156 9.148438 8.09375 C 9.089844 8.160156 9.160156 8.097656 9.175781 8.136719 C 9.046875 8.242188 9.003906 8.183594 8.921875 8.191406 C 8.839844 8.25 8.996094 8.175781 8.964844 8.234375 C 8.808594 8.265625 8.878906 8.332031 8.691406 8.382812 C 8.660156 8.367188 8.726562 8.347656 8.738281 8.324219 C 8.636719 8.421875 8.402344 8.5 8.226562 8.589844 C 8.007812 8.65625 7.707031 8.796875 7.457031 8.867188 L 7.460938 8.886719 C 7.347656 8.890625 7.257812 8.976562 7.136719 9.007812 Z M 7.199219 9.007812 "/>
<path style=" stroke:none;fill-rule:nonzero;fill:rgb(17.254902%,17.254902%,17.254902%);fill-opacity:1;" d="M 5.960938 10.039062 L 5.996094 10.0625 L 6.09375 9.988281 C 6.035156 9.984375 6.023438 10.019531 5.960938 10.039062 Z M 5.960938 10.039062 "/>
<path style=" stroke:none;fill-rule:nonzero;fill:rgb(17.254902%,17.254902%,17.254902%);fill-opacity:1;" d="M 5.933594 9.921875 L 5.886719 9.964844 L 5.976562 9.921875 Z M 5.933594 9.921875 "/>
<path style=" stroke:none;fill-rule:nonzero;fill:rgb(17.254902%,17.254902%,17.254902%);fill-opacity:1;" d="M 7.339844 9.359375 L 7.324219 9.359375 L 7.132812 9.480469 Z M 7.339844 9.359375 "/>
<path style=" stroke:none;fill-rule:nonzero;fill:rgb(17.254902%,17.254902%,17.254902%);fill-opacity:1;" d="M 8.789062 8.847656 C 8.773438 8.878906 8.738281 8.886719 8.71875 8.910156 L 8.804688 8.847656 Z M 8.789062 8.847656 "/>
<path style=" stroke:none;fill-rule:nonzero;fill:rgb(17.254902%,17.254902%,17.254902%);fill-opacity:1;" d="M 9.792969 8.578125 C 9.796875 8.5 9.867188 8.550781 9.792969 8.511719 C 9.738281 8.550781 9.796875 8.550781 9.792969 8.578125 Z M 9.792969 8.578125 "/>
<path style=" stroke:none;fill-rule:nonzero;fill:rgb(17.254902%,17.254902%,17.254902%);fill-opacity:1;" d="M 9.96875 8.390625 C 9.933594 8.402344 9.917969 8.421875 9.90625 8.441406 C 9.960938 8.449219 9.949219 8.414062 9.96875 8.390625 Z M 9.96875 8.390625 "/>
</g>
</svg>
