<?xml version="1.0" encoding="UTF-8"?>
<svg xmlns="http://www.w3.org/2000/svg" xmlns:xlink="http://www.w3.org/1999/xlink" width="16pt" height="16pt" viewBox="0 0 16 16" version="1.1">
<defs>
<filter id="alpha" filterUnits="objectBoundingBox" x="0%" y="0%" width="100%" height="100%">
  <feColorMatrix type="matrix" in="SourceGraphic" values="0 0 0 0 1 0 0 0 0 1 0 0 0 0 1 0 0 0 1 0"/>
</filter>
<mask id="mask0">
  <g filter="url(#alpha)">
<rect x="0" y="0" width="16" height="16" style="fill:rgb(0%,0%,0%);fill-opacity:0.2;stroke:none;"/>
  </g>
</mask>
<clipPath id="clip1">
  <rect width="16" height="16"/>
</clipPath>
<g id="surface6" clip-path="url(#clip1)">
<path style=" stroke:none;fill-rule:nonzero;fill:rgb(0%,0%,0%);fill-opacity:1;" d="M 1.167969 6.144531 L 14.832031 6.144531 C 15.199219 6.144531 15.5 6.441406 15.5 6.8125 L 15.5 14.582031 C 15.5 14.949219 15.199219 15.25 14.832031 15.25 L 1.167969 15.25 C 0.800781 15.25 0.5 14.949219 0.5 14.582031 L 0.5 6.8125 C 0.5 6.441406 0.800781 6.144531 1.167969 6.144531 Z M 1.167969 6.144531 "/>
</g>
<mask id="mask1">
  <g filter="url(#alpha)">
<rect x="0" y="0" width="16" height="16" style="fill:rgb(0%,0%,0%);fill-opacity:0.501961;stroke:none;"/>
  </g>
</mask>
<clipPath id="clip2">
  <rect width="16" height="16"/>
</clipPath>
<g id="surface9" clip-path="url(#clip2)">
<path style=" stroke:none;fill-rule:nonzero;fill:rgb(0%,0%,0%);fill-opacity:1;" d="M 3.714844 3.195312 L 6.394531 3.195312 L 6.394531 4.804688 L 3.714844 4.804688 Z M 3.714844 3.195312 "/>
</g>
<mask id="mask2">
  <g filter="url(#alpha)">
<rect x="0" y="0" width="16" height="16" style="fill:rgb(0%,0%,0%);fill-opacity:0.501961;stroke:none;"/>
  </g>
</mask>
<clipPath id="clip3">
  <rect width="16" height="16"/>
</clipPath>
<g id="surface12" clip-path="url(#clip3)">
<path style=" stroke:none;fill-rule:nonzero;fill:rgb(0%,0%,0%);fill-opacity:1;" d="M 9.605469 3.195312 L 12.285156 3.195312 L 12.285156 4.804688 L 9.605469 4.804688 Z M 9.605469 3.195312 "/>
</g>
<mask id="mask3">
  <g filter="url(#alpha)">
<rect x="0" y="0" width="16" height="16" style="fill:rgb(0%,0%,0%);fill-opacity:0.2;stroke:none;"/>
  </g>
</mask>
<clipPath id="clip4">
  <rect width="16" height="16"/>
</clipPath>
<g id="surface15" clip-path="url(#clip4)">
<path style=" stroke:none;fill-rule:nonzero;fill:rgb(100%,100%,100%);fill-opacity:1;" d="M 2.644531 1.054688 L 2.644531 1.320312 L 13.355469 1.320312 L 13.355469 1.054688 Z M 2.644531 1.054688 "/>
</g>
</defs>
<g id="surface1">
<use xlink:href="#surface6" mask="url(#mask0)"/>
<path style=" stroke:none;fill-rule:nonzero;fill:rgb(71.764706%,71.764706%,71.764706%);fill-opacity:1;" d="M 2.644531 1.054688 L 13.355469 1.054688 L 13.355469 6.410156 L 2.644531 6.410156 Z M 2.644531 1.054688 "/>
<path style=" stroke:none;fill-rule:nonzero;fill:rgb(35.686275%,35.686275%,35.686275%);fill-opacity:1;" d="M 1.167969 5.875 L 14.832031 5.875 C 15.199219 5.875 15.5 6.175781 15.5 6.542969 L 15.5 14.3125 C 15.5 14.683594 15.199219 14.980469 14.832031 14.980469 L 1.167969 14.980469 C 0.800781 14.980469 0.5 14.683594 0.5 14.3125 L 0.5 6.542969 C 0.5 6.175781 0.800781 5.875 1.167969 5.875 Z M 1.167969 5.875 "/>
<use xlink:href="#surface9" mask="url(#mask1)"/>
<use xlink:href="#surface12" mask="url(#mask2)"/>
<use xlink:href="#surface15" mask="url(#mask3)"/>
<path style=" stroke:none;fill-rule:nonzero;fill:rgb(100%,79.607843%,3.137255%);fill-opacity:1;" d="M 6.199219 10.800781 C 6.199219 11.117188 6.089844 11.375 5.875 11.59375 C 5.648438 11.816406 5.390625 11.925781 5.074219 11.925781 C 5.074219 11.925781 4.847656 11.925781 4.847656 11.925781 C 4.695312 11.925781 4.625 11.996094 4.625 12.152344 C 4.625 12.152344 4.625 13.050781 4.625 13.050781 C 4.625 13.175781 4.578125 13.285156 4.5 13.363281 C 4.410156 13.453125 4.300781 13.5 4.175781 13.5 C 4.175781 13.5 3.949219 13.5 3.949219 13.5 C 3.824219 13.5 3.714844 13.453125 3.636719 13.363281 C 3.546875 13.285156 3.5 13.175781 3.5 13.050781 C 3.5 13.050781 3.5 7.878906 3.5 7.878906 C 3.5 7.5625 3.609375 7.300781 3.832031 7.078125 C 4.046875 6.859375 4.308594 6.753906 4.625 6.753906 C 4.625 6.753906 5.074219 6.753906 5.074219 6.753906 C 5.390625 6.753906 5.648438 6.859375 5.875 7.078125 C 6.089844 7.300781 6.199219 7.5625 6.199219 7.878906 C 6.199219 7.878906 6.199219 10.800781 6.199219 10.800781 Z M 5.074219 10.574219 C 5.074219 10.574219 5.074219 8.101562 5.074219 8.101562 C 5.074219 7.949219 5.003906 7.878906 4.847656 7.878906 C 4.695312 7.878906 4.625 7.949219 4.625 8.101562 C 4.625 8.101562 4.625 10.574219 4.625 10.574219 C 4.625 10.730469 4.695312 10.800781 4.847656 10.800781 C 5.003906 10.800781 5.074219 10.730469 5.074219 10.574219 Z M 5.074219 10.574219 "/>
<path style=" stroke:none;fill-rule:nonzero;fill:rgb(100%,79.607843%,3.137255%);fill-opacity:1;" d="M 7.769531 13.050781 C 7.769531 13.175781 7.726562 13.285156 7.644531 13.363281 C 7.554688 13.453125 7.445312 13.5 7.320312 13.5 C 7.320312 13.5 7.09375 13.5 7.09375 13.5 C 6.96875 13.5 6.859375 13.453125 6.78125 13.363281 C 6.691406 13.285156 6.644531 13.175781 6.644531 13.050781 C 6.644531 13.050781 6.644531 7.203125 6.644531 7.203125 C 6.644531 7.078125 6.691406 6.96875 6.78125 6.878906 C 6.859375 6.796875 6.96875 6.753906 7.09375 6.753906 C 7.09375 6.753906 7.320312 6.753906 7.320312 6.753906 C 7.445312 6.753906 7.554688 6.796875 7.644531 6.878906 C 7.726562 6.96875 7.769531 7.078125 7.769531 7.203125 C 7.769531 7.203125 7.769531 13.050781 7.769531 13.050781 Z M 7.769531 13.050781 "/>
<path style=" stroke:none;fill-rule:nonzero;fill:rgb(100%,79.607843%,3.137255%);fill-opacity:1;" d="M 12.5 12.375 C 12.5 12.691406 12.390625 12.953125 12.175781 13.167969 C 11.953125 13.390625 11.691406 13.5 11.375 13.5 C 11.375 13.5 10.925781 13.5 10.925781 13.5 C 10.71875 13.5 10.539062 13.445312 10.367188 13.347656 C 10.195312 13.445312 10.007812 13.5 9.800781 13.5 C 9.800781 13.5 9.351562 13.5 9.351562 13.5 C 9.035156 13.5 8.777344 13.390625 8.558594 13.167969 C 8.335938 12.953125 8.226562 12.691406 8.226562 12.375 C 8.226562 12.375 8.226562 7.203125 8.226562 7.203125 C 8.226562 7.078125 8.273438 6.96875 8.363281 6.878906 C 8.441406 6.796875 8.550781 6.753906 8.675781 6.753906 C 8.675781 6.753906 8.902344 6.753906 8.902344 6.753906 C 9.027344 6.753906 9.136719 6.796875 9.226562 6.878906 C 9.304688 6.96875 9.351562 7.078125 9.351562 7.203125 C 9.351562 7.203125 9.351562 12.152344 9.351562 12.152344 C 9.351562 12.304688 9.421875 12.375 9.574219 12.375 C 9.730469 12.375 9.800781 12.304688 9.800781 12.152344 C 9.800781 12.152344 9.800781 7.203125 9.800781 7.203125 C 9.800781 7.078125 9.847656 6.96875 9.9375 6.878906 C 10.015625 6.796875 10.125 6.753906 10.25 6.753906 C 10.25 6.753906 10.476562 6.753906 10.476562 6.753906 C 10.601562 6.753906 10.710938 6.796875 10.800781 6.878906 C 10.878906 6.96875 10.925781 7.078125 10.925781 7.203125 C 10.925781 7.203125 10.925781 12.152344 10.925781 12.152344 C 10.925781 12.304688 10.996094 12.375 11.152344 12.375 C 11.304688 12.375 11.375 12.304688 11.375 12.152344 C 11.375 12.152344 11.375 7.203125 11.375 7.203125 C 11.375 7.078125 11.421875 6.96875 11.511719 6.878906 C 11.589844 6.796875 11.699219 6.753906 11.824219 6.753906 C 11.824219 6.753906 12.050781 6.753906 12.050781 6.753906 C 12.175781 6.753906 12.285156 6.796875 12.375 6.878906 C 12.453125 6.96875 12.5 7.078125 12.5 7.203125 C 12.5 7.203125 12.5 12.375 12.5 12.375 Z M 12.5 12.375 "/>
</g>
</svg>
