<?xml version="1.0" encoding="UTF-8"?>
<svg xmlns="http://www.w3.org/2000/svg" xmlns:xlink="http://www.w3.org/1999/xlink" width="22pt" height="22pt" viewBox="0 0 22 22" version="1.1">
<defs>
<filter id="alpha" filterUnits="objectBoundingBox" x="0%" y="0%" width="100%" height="100%">
  <feColorMatrix type="matrix" in="SourceGraphic" values="0 0 0 0 1 0 0 0 0 1 0 0 0 0 1 0 0 0 1 0"/>
</filter>
<mask id="mask0">
  <g filter="url(#alpha)">
<rect x="0" y="0" width="22" height="22" style="fill:rgb(0%,0%,0%);fill-opacity:0.2;stroke:none;"/>
  </g>
</mask>
<clipPath id="clip1">
  <rect width="22" height="22"/>
</clipPath>
<g id="surface6" clip-path="url(#clip1)">
<path style=" stroke:none;fill-rule:nonzero;fill:rgb(100%,100%,100%);fill-opacity:1;" d="M 11.011719 0.230469 C 5.207031 0.230469 0.503906 4.933594 0.503906 10.738281 C 0.507812 10.839844 0.511719 10.941406 0.515625 11.042969 C 0.636719 5.328125 5.296875 0.757812 11.011719 0.753906 C 16.695312 0.757812 21.34375 5.277344 21.507812 10.957031 C 21.511719 10.882812 21.515625 10.808594 21.519531 10.738281 C 21.519531 4.933594 16.816406 0.230469 11.011719 0.230469 Z M 11.011719 0.230469 "/>
</g>
<mask id="mask1">
  <g filter="url(#alpha)">
<rect x="0" y="0" width="22" height="22" style="fill:rgb(0%,0%,0%);fill-opacity:0.2;stroke:none;"/>
  </g>
</mask>
<clipPath id="clip2">
  <rect width="22" height="22"/>
</clipPath>
<g id="surface9" clip-path="url(#clip2)">
<path style=" stroke:none;fill-rule:nonzero;fill:rgb(0%,0%,0%);fill-opacity:1;" d="M 21.507812 10.957031 C 21.390625 16.671875 16.726562 21.242188 11.011719 21.246094 C 5.332031 21.242188 0.679688 16.722656 0.515625 11.042969 C 0.511719 11.117188 0.507812 11.191406 0.503906 11.261719 C 0.503906 17.066406 5.207031 21.769531 11.011719 21.769531 C 16.816406 21.769531 21.519531 17.066406 21.519531 11.261719 C 21.519531 11.160156 21.515625 11.058594 21.507812 10.957031 Z M 21.507812 10.957031 "/>
</g>
<mask id="mask2">
  <g filter="url(#alpha)">
<rect x="0" y="0" width="22" height="22" style="fill:rgb(0%,0%,0%);fill-opacity:0.2;stroke:none;"/>
  </g>
</mask>
<clipPath id="clip3">
  <rect width="22" height="22"/>
</clipPath>
<g id="surface12" clip-path="url(#clip3)">
<path style=" stroke:none;fill-rule:nonzero;fill:rgb(0%,0%,0%);fill-opacity:1;" d="M 11.011719 4.433594 C 9.5625 4.433594 8.386719 5.609375 8.386719 7.058594 C 8.386719 8.511719 9.5625 9.6875 11.011719 9.6875 C 12.464844 9.6875 13.640625 8.511719 13.640625 7.058594 C 13.640625 5.609375 12.464844 4.433594 11.011719 4.433594 Z M 11.011719 11.261719 C 5.757812 11.265625 5.757812 14.625 5.757812 14.625 L 5.757812 15.992188 C 5.757812 15.992188 6.726562 18.09375 11.011719 18.09375 C 15.296875 18.09375 16.265625 15.992188 16.265625 15.992188 L 16.265625 14.625 C 16.265625 14.625 16.265625 11.261719 11.011719 11.261719 Z M 11.011719 11.261719 "/>
</g>
</defs>
<g id="surface1">
<path style=" stroke:none;fill-rule:nonzero;fill:rgb(100%,79.607843%,3.137255%);fill-opacity:1;" d="M 21.519531 10.738281 C 21.519531 16.539062 16.816406 21.246094 11.011719 21.246094 C 5.207031 21.246094 0.503906 16.539062 0.503906 10.738281 C 0.503906 4.933594 5.207031 0.230469 11.011719 0.230469 C 16.816406 0.230469 21.519531 4.933594 21.519531 10.738281 Z M 21.519531 10.738281 "/>
<use xlink:href="#surface6" mask="url(#mask0)"/>
<use xlink:href="#surface9" mask="url(#mask1)"/>
<use xlink:href="#surface12" mask="url(#mask2)"/>
<path style=" stroke:none;fill-rule:nonzero;fill:rgb(17.254902%,17.254902%,17.254902%);fill-opacity:1;" d="M 11.011719 3.90625 C 9.5625 3.90625 8.386719 5.082031 8.386719 6.535156 C 8.386719 7.984375 9.5625 9.160156 11.011719 9.160156 C 12.464844 9.160156 13.640625 7.984375 13.640625 6.535156 C 13.640625 5.082031 12.464844 3.90625 11.011719 3.90625 Z M 11.011719 10.738281 C 5.757812 10.742188 5.757812 14.101562 5.757812 14.101562 L 5.757812 15.464844 C 5.757812 15.464844 6.726562 17.566406 11.011719 17.566406 C 15.296875 17.566406 16.265625 15.464844 16.265625 15.464844 L 16.265625 14.101562 C 16.265625 14.101562 16.265625 10.734375 11.011719 10.738281 Z M 11.011719 10.738281 "/>
</g>
</svg>
