<?xml version="1.0" encoding="UTF-8"?>
<svg xmlns="http://www.w3.org/2000/svg" xmlns:xlink="http://www.w3.org/1999/xlink" width="24pt" height="24pt" viewBox="0 0 24 24" version="1.1">
<defs>
<filter id="alpha" filterUnits="objectBoundingBox" x="0%" y="0%" width="100%" height="100%">
  <feColorMatrix type="matrix" in="SourceGraphic" values="0 0 0 0 1 0 0 0 0 1 0 0 0 0 1 0 0 0 1 0"/>
</filter>
<mask id="mask0">
  <g filter="url(#alpha)">
<rect x="0" y="0" width="24" height="24" style="fill:rgb(0%,0%,0%);fill-opacity:0.2;stroke:none;"/>
  </g>
</mask>
<clipPath id="clip1">
  <rect width="24" height="24"/>
</clipPath>
<g id="surface6" clip-path="url(#clip1)">
<path style=" stroke:none;fill-rule:nonzero;fill:rgb(0%,0%,0%);fill-opacity:1;" d="M 1.753906 9.214844 L 22.246094 9.214844 C 22.800781 9.214844 23.25 9.664062 23.25 10.21875 L 23.25 21.871094 C 23.25 22.425781 22.800781 22.875 22.246094 22.875 L 1.753906 22.875 C 1.199219 22.875 0.75 22.425781 0.75 21.871094 L 0.75 10.21875 C 0.75 9.664062 1.199219 9.214844 1.753906 9.214844 Z M 1.753906 9.214844 "/>
</g>
<mask id="mask1">
  <g filter="url(#alpha)">
<rect x="0" y="0" width="24" height="24" style="fill:rgb(0%,0%,0%);fill-opacity:0.501961;stroke:none;"/>
  </g>
</mask>
<clipPath id="clip2">
  <rect width="24" height="24"/>
</clipPath>
<g id="surface9" clip-path="url(#clip2)">
<path style=" stroke:none;fill-rule:nonzero;fill:rgb(0%,0%,0%);fill-opacity:1;" d="M 5.570312 4.792969 L 9.589844 4.792969 L 9.589844 7.207031 L 5.570312 7.207031 Z M 5.570312 4.792969 "/>
</g>
<mask id="mask2">
  <g filter="url(#alpha)">
<rect x="0" y="0" width="24" height="24" style="fill:rgb(0%,0%,0%);fill-opacity:0.501961;stroke:none;"/>
  </g>
</mask>
<clipPath id="clip3">
  <rect width="24" height="24"/>
</clipPath>
<g id="surface12" clip-path="url(#clip3)">
<path style=" stroke:none;fill-rule:nonzero;fill:rgb(0%,0%,0%);fill-opacity:1;" d="M 14.410156 4.792969 L 18.429688 4.792969 L 18.429688 7.207031 L 14.410156 7.207031 Z M 14.410156 4.792969 "/>
</g>
<mask id="mask3">
  <g filter="url(#alpha)">
<rect x="0" y="0" width="24" height="24" style="fill:rgb(0%,0%,0%);fill-opacity:0.2;stroke:none;"/>
  </g>
</mask>
<clipPath id="clip4">
  <rect width="24" height="24"/>
</clipPath>
<g id="surface15" clip-path="url(#clip4)">
<path style=" stroke:none;fill-rule:nonzero;fill:rgb(100%,100%,100%);fill-opacity:1;" d="M 3.964844 1.582031 L 3.964844 1.980469 L 20.035156 1.980469 L 20.035156 1.582031 Z M 3.964844 1.582031 "/>
</g>
</defs>
<g id="surface1">
<use xlink:href="#surface6" mask="url(#mask0)"/>
<path style=" stroke:none;fill-rule:nonzero;fill:rgb(71.764706%,71.764706%,71.764706%);fill-opacity:1;" d="M 3.964844 1.582031 L 20.035156 1.582031 L 20.035156 9.617188 L 3.964844 9.617188 Z M 3.964844 1.582031 "/>
<path style=" stroke:none;fill-rule:nonzero;fill:rgb(35.686275%,35.686275%,35.686275%);fill-opacity:1;" d="M 1.753906 8.8125 L 22.246094 8.8125 C 22.800781 8.8125 23.25 9.261719 23.25 9.816406 L 23.25 21.46875 C 23.25 22.023438 22.800781 22.472656 22.246094 22.472656 L 1.753906 22.472656 C 1.199219 22.472656 0.75 22.023438 0.75 21.46875 L 0.75 9.816406 C 0.75 9.261719 1.199219 8.8125 1.753906 8.8125 Z M 1.753906 8.8125 "/>
<use xlink:href="#surface9" mask="url(#mask1)"/>
<use xlink:href="#surface12" mask="url(#mask2)"/>
<use xlink:href="#surface15" mask="url(#mask3)"/>
<path style=" stroke:none;fill-rule:nonzero;fill:rgb(100%,79.607843%,3.137255%);fill-opacity:1;" d="M 9.296875 16.203125 C 9.296875 16.675781 9.136719 17.066406 8.8125 17.390625 C 8.476562 17.726562 8.082031 17.886719 7.613281 17.886719 C 7.613281 17.886719 7.273438 17.886719 7.273438 17.886719 C 7.042969 17.886719 6.9375 17.996094 6.9375 18.226562 C 6.9375 18.226562 6.9375 19.574219 6.9375 19.574219 C 6.9375 19.765625 6.871094 19.925781 6.746094 20.046875 C 6.613281 20.183594 6.449219 20.25 6.261719 20.25 C 6.261719 20.25 5.925781 20.25 5.925781 20.25 C 5.734375 20.25 5.574219 20.183594 5.453125 20.046875 C 5.316406 19.925781 5.25 19.765625 5.25 19.574219 C 5.25 19.574219 5.25 11.816406 5.25 11.816406 C 5.25 11.34375 5.410156 10.953125 5.75 10.613281 C 6.074219 10.289062 6.464844 10.128906 6.9375 10.128906 C 6.9375 10.128906 7.613281 10.128906 7.613281 10.128906 C 8.082031 10.128906 8.476562 10.289062 8.8125 10.613281 C 9.136719 10.953125 9.296875 11.34375 9.296875 11.816406 C 9.296875 11.816406 9.296875 16.203125 9.296875 16.203125 Z M 7.613281 15.863281 C 7.613281 15.863281 7.613281 12.152344 7.613281 12.152344 C 7.613281 11.921875 7.503906 11.816406 7.273438 11.816406 C 7.042969 11.816406 6.9375 11.921875 6.9375 12.152344 C 6.9375 12.152344 6.9375 15.863281 6.9375 15.863281 C 6.9375 16.09375 7.042969 16.203125 7.273438 16.203125 C 7.503906 16.203125 7.613281 16.09375 7.613281 15.863281 Z M 7.613281 15.863281 "/>
<path style=" stroke:none;fill-rule:nonzero;fill:rgb(100%,79.607843%,3.137255%);fill-opacity:1;" d="M 11.65625 19.574219 C 11.65625 19.765625 11.585938 19.925781 11.464844 20.046875 C 11.332031 20.183594 11.167969 20.25 10.980469 20.25 C 10.980469 20.25 10.644531 20.25 10.644531 20.25 C 10.453125 20.25 10.292969 20.183594 10.171875 20.046875 C 10.035156 19.925781 9.96875 19.765625 9.96875 19.574219 C 9.96875 19.574219 9.96875 10.804688 9.96875 10.804688 C 9.96875 10.613281 10.035156 10.453125 10.171875 10.316406 C 10.292969 10.195312 10.453125 10.128906 10.644531 10.128906 C 10.644531 10.128906 10.980469 10.128906 10.980469 10.128906 C 11.167969 10.128906 11.332031 10.195312 11.464844 10.316406 C 11.585938 10.453125 11.65625 10.613281 11.65625 10.804688 C 11.65625 10.804688 11.65625 19.574219 11.65625 19.574219 Z M 11.65625 19.574219 "/>
<path style=" stroke:none;fill-rule:nonzero;fill:rgb(100%,79.607843%,3.137255%);fill-opacity:1;" d="M 18.75 18.5625 C 18.75 19.035156 18.589844 19.425781 18.265625 19.75 C 17.925781 20.089844 17.535156 20.25 17.0625 20.25 C 17.0625 20.25 16.386719 20.25 16.386719 20.25 C 16.078125 20.25 15.808594 20.167969 15.550781 20.019531 C 15.296875 20.167969 15.011719 20.25 14.703125 20.25 C 14.703125 20.25 14.027344 20.25 14.027344 20.25 C 13.554688 20.25 13.164062 20.089844 12.839844 19.75 C 12.5 19.425781 12.339844 19.035156 12.339844 18.5625 C 12.339844 18.5625 12.339844 10.804688 12.339844 10.804688 C 12.339844 10.613281 12.40625 10.453125 12.542969 10.316406 C 12.664062 10.195312 12.824219 10.128906 13.015625 10.128906 C 13.015625 10.128906 13.351562 10.128906 13.351562 10.128906 C 13.542969 10.128906 13.703125 10.195312 13.839844 10.316406 C 13.960938 10.453125 14.027344 10.613281 14.027344 10.804688 C 14.027344 10.804688 14.027344 18.226562 14.027344 18.226562 C 14.027344 18.457031 14.136719 18.5625 14.363281 18.5625 C 14.59375 18.5625 14.703125 18.457031 14.703125 18.226562 C 14.703125 18.226562 14.703125 10.804688 14.703125 10.804688 C 14.703125 10.613281 14.769531 10.453125 14.902344 10.316406 C 15.027344 10.195312 15.1875 10.128906 15.375 10.128906 C 15.375 10.128906 15.714844 10.128906 15.714844 10.128906 C 15.902344 10.128906 16.066406 10.195312 16.199219 10.316406 C 16.320312 10.453125 16.386719 10.613281 16.386719 10.804688 C 16.386719 10.804688 16.386719 18.226562 16.386719 18.226562 C 16.386719 18.457031 16.496094 18.5625 16.726562 18.5625 C 16.957031 18.5625 17.0625 18.457031 17.0625 18.226562 C 17.0625 18.226562 17.0625 10.804688 17.0625 10.804688 C 17.0625 10.613281 17.128906 10.453125 17.265625 10.316406 C 17.386719 10.195312 17.550781 10.128906 17.738281 10.128906 C 17.738281 10.128906 18.074219 10.128906 18.074219 10.128906 C 18.265625 10.128906 18.425781 10.195312 18.5625 10.316406 C 18.683594 10.453125 18.75 10.613281 18.75 10.804688 C 18.75 10.804688 18.75 18.5625 18.75 18.5625 Z M 18.75 18.5625 "/>
</g>
</svg>
