<?xml version="1.0" encoding="UTF-8"?>
<svg xmlns="http://www.w3.org/2000/svg" xmlns:xlink="http://www.w3.org/1999/xlink" width="24pt" height="24pt" viewBox="0 0 24 24" version="1.1">
<defs>
<filter id="alpha" filterUnits="objectBoundingBox" x="0%" y="0%" width="100%" height="100%">
  <feColorMatrix type="matrix" in="SourceGraphic" values="0 0 0 0 1 0 0 0 0 1 0 0 0 0 1 0 0 0 1 0"/>
</filter>
<mask id="mask0">
  <g filter="url(#alpha)">
<rect x="0" y="0" width="24" height="24" style="fill:rgb(0%,0%,0%);fill-opacity:0.2;stroke:none;"/>
  </g>
</mask>
<clipPath id="clip1">
  <rect width="24" height="24"/>
</clipPath>
<g id="surface6" clip-path="url(#clip1)">
<path style=" stroke:none;fill-rule:nonzero;fill:rgb(0%,0%,0%);fill-opacity:1;" d="M 8.464844 1.9375 L 8.464844 2.753906 L 14.996094 2.753906 L 14.996094 1.9375 Z M 0.300781 19.492188 L 0.300781 20.308594 C 0.300781 20.988281 0.847656 21.535156 1.523438 21.535156 L 21.9375 21.535156 C 22.617188 21.535156 23.164062 20.988281 23.164062 20.308594 L 23.164062 19.492188 C 23.164062 20.171875 22.617188 20.71875 21.9375 20.71875 L 1.523438 20.71875 C 0.847656 20.71875 0.300781 20.171875 0.300781 19.492188 Z M 0.300781 19.492188 "/>
</g>
<mask id="mask1">
  <g filter="url(#alpha)">
<rect x="0" y="0" width="24" height="24" style="fill:rgb(0%,0%,0%);fill-opacity:0.2;stroke:none;"/>
  </g>
</mask>
<linearGradient id="linear0" gradientUnits="userSpaceOnUse" x1="-114.20316" y1="4.069152" x2="-113.81965" y2="-44.637321" gradientTransform="matrix(0.0951891,0,0,0.0951914,30.006866,22.886189)">
<stop offset="0" style="stop-color:rgb(0%,0%,0%);stop-opacity:1;"/>
<stop offset="1" style="stop-color:rgb(0%,0%,0%);stop-opacity:0;"/>
</linearGradient>
<linearGradient id="linear1" gradientUnits="userSpaceOnUse" x1="-114.20316" y1="4.069152" x2="-113.81965" y2="-44.637321" gradientTransform="matrix(0.0951891,0,0,0.0951914,30.006866,22.886189)">
<stop offset="0" style="stop-color:rgb(0%,0%,0%);stop-opacity:1;"/>
<stop offset="1" style="stop-color:rgb(0%,0%,0%);stop-opacity:0;"/>
</linearGradient>
<linearGradient id="linear2" gradientUnits="userSpaceOnUse" x1="-114.20316" y1="4.069152" x2="-113.81965" y2="-44.637321" gradientTransform="matrix(0.0951891,0,0,0.0951914,30.006866,22.886189)">
<stop offset="0" style="stop-color:rgb(0%,0%,0%);stop-opacity:1;"/>
<stop offset="1" style="stop-color:rgb(0%,0%,0%);stop-opacity:0;"/>
</linearGradient>
<linearGradient id="linear3" gradientUnits="userSpaceOnUse" x1="-114.20316" y1="4.069152" x2="-113.81965" y2="-44.637321" gradientTransform="matrix(0.0483319,0,0,0.048333,4.755469,5.599221)">
<stop offset="0" style="stop-color:rgb(0%,0%,0%);stop-opacity:1;"/>
<stop offset="1" style="stop-color:rgb(0%,0%,0%);stop-opacity:0;"/>
</linearGradient>
<linearGradient id="linear4" gradientUnits="userSpaceOnUse" x1="-114.20316" y1="4.069152" x2="-113.81965" y2="-44.637321" gradientTransform="matrix(0.0483319,0,0,0.048333,4.755469,5.599221)">
<stop offset="0" style="stop-color:rgb(0%,0%,0%);stop-opacity:1;"/>
<stop offset="1" style="stop-color:rgb(0%,0%,0%);stop-opacity:0;"/>
</linearGradient>
<linearGradient id="linear5" gradientUnits="userSpaceOnUse" x1="-114.20316" y1="4.069152" x2="-113.81965" y2="-44.637321" gradientTransform="matrix(0.0483319,0,0,0.048333,4.755469,5.599221)">
<stop offset="0" style="stop-color:rgb(0%,0%,0%);stop-opacity:1;"/>
<stop offset="1" style="stop-color:rgb(0%,0%,0%);stop-opacity:0;"/>
</linearGradient>
<linearGradient id="linear6" gradientUnits="userSpaceOnUse" x1="-114.20316" y1="4.069152" x2="-113.81965" y2="-44.637321" gradientTransform="matrix(0.0483319,0,0,0.048333,4.755469,5.599221)">
<stop offset="0" style="stop-color:rgb(0%,0%,0%);stop-opacity:1;"/>
<stop offset="1" style="stop-color:rgb(0%,0%,0%);stop-opacity:0;"/>
</linearGradient>
<linearGradient id="linear7" gradientUnits="userSpaceOnUse" x1="-114.20316" y1="4.069152" x2="-113.81965" y2="-44.637321" gradientTransform="matrix(0.0483319,0,0,0.048333,4.755469,5.599221)">
<stop offset="0" style="stop-color:rgb(0%,0%,0%);stop-opacity:1;"/>
<stop offset="1" style="stop-color:rgb(0%,0%,0%);stop-opacity:0;"/>
</linearGradient>
<linearGradient id="linear8" gradientUnits="userSpaceOnUse" x1="-114.20316" y1="4.069152" x2="-113.81965" y2="-44.637321" gradientTransform="matrix(0.0483319,0,0,0.048333,4.755469,5.599221)">
<stop offset="0" style="stop-color:rgb(0%,0%,0%);stop-opacity:1;"/>
<stop offset="1" style="stop-color:rgb(0%,0%,0%);stop-opacity:0;"/>
</linearGradient>
<linearGradient id="linear9" gradientUnits="userSpaceOnUse" x1="-114.20316" y1="4.069152" x2="-113.81965" y2="-44.637321" gradientTransform="matrix(0.0483319,0,0,0.048333,4.755469,5.599221)">
<stop offset="0" style="stop-color:rgb(0%,0%,0%);stop-opacity:1;"/>
<stop offset="1" style="stop-color:rgb(0%,0%,0%);stop-opacity:0;"/>
</linearGradient>
<linearGradient id="linear10" gradientUnits="userSpaceOnUse" x1="-114.20316" y1="4.069152" x2="-113.81965" y2="-44.637321" gradientTransform="matrix(0.0483319,0,0,0.048333,4.755469,5.599221)">
<stop offset="0" style="stop-color:rgb(0%,0%,0%);stop-opacity:1;"/>
<stop offset="1" style="stop-color:rgb(0%,0%,0%);stop-opacity:0;"/>
</linearGradient>
<linearGradient id="linear11" gradientUnits="userSpaceOnUse" x1="-114.20316" y1="4.069152" x2="-113.81965" y2="-44.637321" gradientTransform="matrix(0.0483319,0,0,0.048333,4.755469,5.599221)">
<stop offset="0" style="stop-color:rgb(0%,0%,0%);stop-opacity:1;"/>
<stop offset="1" style="stop-color:rgb(0%,0%,0%);stop-opacity:0;"/>
</linearGradient>
<linearGradient id="linear12" gradientUnits="userSpaceOnUse" x1="-114.20316" y1="4.069152" x2="-113.81965" y2="-44.637321" gradientTransform="matrix(0.0483319,0,0,0.048333,4.755469,5.599221)">
<stop offset="0" style="stop-color:rgb(0%,0%,0%);stop-opacity:1;"/>
<stop offset="1" style="stop-color:rgb(0%,0%,0%);stop-opacity:0;"/>
</linearGradient>
<linearGradient id="linear13" gradientUnits="userSpaceOnUse" x1="-114.20316" y1="4.069152" x2="-113.81965" y2="-44.637321" gradientTransform="matrix(0.0483319,0,0,0.048333,4.755469,5.599221)">
<stop offset="0" style="stop-color:rgb(0%,0%,0%);stop-opacity:1;"/>
<stop offset="1" style="stop-color:rgb(0%,0%,0%);stop-opacity:0;"/>
</linearGradient>
<linearGradient id="linear14" gradientUnits="userSpaceOnUse" x1="-114.20316" y1="4.069152" x2="-113.81965" y2="-44.637321" gradientTransform="matrix(0.0483319,0,0,0.048333,4.755469,5.599221)">
<stop offset="0" style="stop-color:rgb(0%,0%,0%);stop-opacity:1;"/>
<stop offset="1" style="stop-color:rgb(0%,0%,0%);stop-opacity:0;"/>
</linearGradient>
<clipPath id="clip2">
  <rect width="24" height="24"/>
</clipPath>
<g id="surface10" clip-path="url(#clip2)">
<path style=" stroke:none;fill-rule:nonzero;fill:url(#linear0);" d="M 23.914062 15.035156 C 23.867188 14.898438 23.722656 14.65625 23.597656 14.496094 C 23.46875 14.332031 23.257812 14.140625 23.132812 14.070312 C 23.003906 13.996094 22.425781 14.15625 22.132812 14.289062 L 21.917969 14.386719 C 21.625 14.523438 21.378906 14.632812 21.375 14.636719 C 21.371094 14.640625 21.335938 14.636719 21.308594 14.625 C 21.28125 14.613281 20.957031 14.535156 20.640625 14.460938 L 20.078125 14.328125 C 19.765625 14.253906 19.402344 14.183594 19.273438 14.171875 C 19.144531 14.160156 18.59375 14.253906 18.28125 14.324219 L 17.675781 14.464844 C 17.363281 14.535156 17.082031 14.601562 17.058594 14.609375 C 17.03125 14.617188 16.957031 14.644531 16.949219 14.640625 C 16.945312 14.636719 16.691406 14.523438 16.398438 14.386719 L 16.183594 14.289062 C 15.890625 14.15625 15.527344 14.039062 15.378906 14.027344 C 15.230469 14.015625 14.847656 14.332031 14.71875 14.496094 C 14.59375 14.65625 14.449219 14.898438 14.402344 15.035156 C 14.359375 15.167969 14.605469 15.703125 14.785156 15.96875 L 15.15625 16.519531 C 15.335938 16.785156 15.4375 17.09375 15.375 17.203125 C 15.316406 17.316406 15.238281 17.511719 15.195312 17.640625 C 15.15625 17.773438 15.203125 18.339844 15.257812 18.660156 L 15.371094 19.339844 C 15.425781 19.65625 15.527344 20.023438 15.597656 20.15625 C 15.667969 20.285156 16.21875 20.515625 16.535156 20.59375 L 16.675781 20.628906 C 16.988281 20.703125 17.398438 20.984375 17.585938 21.246094 L 17.839844 21.59375 C 18.027344 21.855469 18.273438 22.144531 18.386719 22.234375 C 18.5 22.324219 18.972656 22.394531 19.160156 22.394531 C 19.34375 22.394531 19.609375 22.363281 19.75 22.324219 C 19.886719 22.289062 20.289062 21.855469 20.476562 21.59375 L 20.726562 21.25 C 20.914062 20.988281 21.324219 20.710938 21.636719 20.632812 L 21.785156 20.59375 C 22.097656 20.515625 22.453125 20.386719 22.578125 20.308594 C 22.703125 20.226562 22.890625 19.65625 22.945312 19.339844 L 23.058594 18.660156 C 23.113281 18.339844 23.15625 17.96875 23.152344 17.835938 C 23.148438 17.699219 23 17.316406 22.941406 17.203125 C 22.882812 17.09375 22.980469 16.785156 23.160156 16.519531 L 23.53125 15.96875 C 23.710938 15.703125 23.957031 15.167969 23.914062 15.035156 Z M 15.136719 15.65625 C 14.976562 15.417969 14.835938 15.207031 14.828125 15.183594 C 14.828125 15.183594 14.828125 15.183594 14.828125 15.160156 C 14.828125 15.128906 14.828125 15.128906 14.828125 15.128906 C 14.839844 15.101562 14.957031 14.945312 15.085938 14.785156 C 15.210938 14.621094 15.339844 14.480469 15.363281 14.46875 C 15.386719 14.457031 15.699219 14.578125 15.992188 14.714844 L 16.039062 14.734375 C 16.332031 14.867188 16.566406 14.984375 16.5625 14.992188 C 16.554688 15 16.417969 15.257812 16.265625 15.542969 L 16.007812 16.023438 C 15.855469 16.308594 15.296875 15.894531 15.136719 15.65625 Z M 22.691406 17.859375 C 22.695312 17.9375 22.65625 18.265625 22.601562 18.582031 L 22.484375 19.261719 C 22.433594 19.578125 22.367188 19.875 22.34375 19.914062 C 22.320312 19.953125 22.050781 20.046875 21.816406 20.105469 C 21.582031 20.167969 21.398438 20.175781 21.410156 20.128906 C 21.417969 20.082031 21.28125 19.753906 21.109375 19.5 C 20.933594 19.246094 20.789062 19.046875 20.789062 19.054688 C 20.792969 19.0625 20.832031 19.273438 20.875 19.5 C 20.921875 19.726562 20.953125 19.964844 20.949219 20.035156 C 20.941406 20.105469 20.863281 20.265625 20.839844 20.300781 C 20.8125 20.335938 20.695312 20.496094 20.578125 20.65625 C 20.464844 20.816406 20.230469 21.140625 20.0625 21.375 C 19.894531 21.609375 19.714844 21.828125 19.667969 21.863281 C 19.617188 21.902344 19.34375 21.929688 19.160156 21.929688 C 18.972656 21.929688 18.773438 21.917969 18.714844 21.898438 C 18.65625 21.878906 18.421875 21.605469 18.25 21.371094 C 18.082031 21.132812 17.847656 20.808594 17.730469 20.648438 C 17.617188 20.488281 17.5 20.332031 17.476562 20.296875 C 17.453125 20.261719 17.410156 20.179688 17.386719 20.117188 C 17.363281 20.050781 17.398438 19.726562 17.441406 19.5 C 17.484375 19.273438 17.523438 19.082031 17.523438 19.070312 C 17.527344 19.0625 17.382812 19.246094 17.210938 19.5 C 17.035156 19.753906 16.894531 20 16.898438 20.046875 C 16.898438 20.089844 16.734375 20.164062 16.5 20.105469 C 16.265625 20.046875 16.046875 19.976562 16.007812 19.953125 C 15.96875 19.925781 15.882812 19.578125 15.832031 19.261719 L 15.714844 18.582031 C 15.660156 18.265625 15.621094 17.9375 15.625 17.859375 C 15.625 17.78125 15.714844 17.558594 15.757812 17.480469 C 15.796875 17.402344 15.957031 17.101562 16.109375 16.816406 L 16.675781 15.761719 C 16.828125 15.476562 16.992188 15.203125 17.039062 15.15625 C 17.085938 15.105469 17.214844 15.046875 17.21875 15.046875 C 17.226562 15.042969 17.488281 14.984375 17.804688 14.910156 L 18.382812 14.777344 C 18.699219 14.707031 19.03125 14.640625 19.121094 14.632812 C 19.210938 14.625 19.65625 14.707031 19.972656 14.78125 L 20.515625 14.90625 C 20.828125 14.980469 21.089844 15.042969 21.097656 15.042969 C 21.101562 15.046875 21.15625 15.074219 21.214844 15.105469 C 21.273438 15.140625 21.488281 15.476562 21.640625 15.761719 L 22.207031 16.816406 C 22.359375 17.101562 22.519531 17.402344 22.558594 17.480469 C 22.601562 17.558594 22.691406 17.78125 22.691406 17.859375 Z M 23.488281 15.183594 C 23.480469 15.207031 23.339844 15.417969 23.179688 15.65625 C 23.019531 15.894531 22.460938 16.308594 22.308594 16.023438 L 22.050781 15.542969 C 21.898438 15.257812 21.769531 15.015625 21.765625 15.007812 C 21.757812 15 21.984375 14.867188 22.277344 14.734375 L 22.324219 14.714844 C 22.617188 14.578125 22.886719 14.46875 22.917969 14.46875 C 22.953125 14.46875 23.105469 14.621094 23.230469 14.785156 C 23.359375 14.945312 23.476562 15.101562 23.488281 15.128906 C 23.488281 15.128906 23.488281 15.128906 23.488281 15.160156 C 23.488281 15.183594 23.488281 15.183594 23.488281 15.183594 Z M 23.488281 15.183594 "/>
<path style=" stroke:none;fill-rule:nonzero;fill:url(#linear1);" d="M 18.339844 19.515625 C 18.269531 19.378906 18.339844 19.261719 18.496094 19.261719 L 19.824219 19.261719 C 19.976562 19.261719 20.046875 19.378906 19.980469 19.515625 L 19.285156 20.304688 C 19.214844 20.445312 19.101562 20.445312 19.03125 20.304688 Z M 18.339844 19.515625 "/>
<path style=" stroke:none;fill-rule:nonzero;fill:url(#linear2);" d="M 19.160156 21.207031 C 19.160156 21.207031 19.253906 21.292969 19.367188 21.398438 L 19.816406 21.8125 C 19.933594 21.914062 20.058594 21.925781 20.097656 21.832031 C 20.132812 21.742188 20.0625 21.59375 19.933594 21.507812 L 19.507812 21.214844 C 19.378906 21.128906 19.273438 21.054688 19.273438 21.050781 C 19.273438 21.046875 19.273438 20.910156 19.273438 20.753906 L 19.273438 19.960938 C 19.273438 19.804688 19.25 19.625 19.222656 19.5625 C 19.222656 19.5625 19.222656 19.5625 19.160156 19.5625 C 19.09375 19.5625 19.09375 19.5625 19.09375 19.5625 C 19.066406 19.625 19.042969 19.804688 19.042969 19.960938 L 19.042969 20.753906 C 19.042969 20.910156 19.042969 21.039062 19.042969 21.042969 C 19.042969 21.046875 18.9375 21.128906 18.8125 21.214844 L 18.382812 21.507812 C 18.253906 21.59375 18.183594 21.742188 18.21875 21.832031 C 18.257812 21.925781 18.382812 21.914062 18.5 21.8125 L 18.949219 21.398438 C 19.066406 21.292969 19.160156 21.207031 19.160156 21.207031 Z M 19.160156 21.207031 "/>
<path style=" stroke:none;fill-rule:nonzero;fill:url(#linear3);" d="M 18.40625 20.070312 C 17.308594 20.363281 16.394531 20.886719 15.5 21.585938 "/>
<path style=" stroke:none;fill-rule:nonzero;fill:url(#linear4);" d="M 18.394531 20.003906 C 17.335938 20.261719 16.273438 20.8125 15.464844 21.542969 C 15.40625 21.589844 15.476562 21.667969 15.539062 21.628906 C 15.980469 21.332031 16.40625 21.019531 16.875 20.761719 C 17.363281 20.492188 17.882812 20.296875 18.417969 20.136719 C 18.5 20.113281 18.480469 19.984375 18.394531 20.003906 Z M 18.394531 20.003906 "/>
<path style=" stroke:none;fill-rule:nonzero;fill:url(#linear5);" d="M 18.433594 20.4375 C 17.625 20.515625 16.808594 21.441406 16.308594 22.042969 "/>
<path style=" stroke:none;fill-rule:nonzero;fill:url(#linear6);" d="M 18.421875 20.382812 C 17.964844 20.417969 17.578125 20.679688 17.238281 20.964844 C 16.875 21.261719 16.53125 21.625 16.269531 22.015625 C 16.238281 22.0625 16.300781 22.121094 16.339844 22.082031 C 16.960938 21.476562 17.523438 20.648438 18.441406 20.492188 C 18.511719 20.480469 18.492188 20.378906 18.421875 20.382812 Z M 18.421875 20.382812 "/>
<path style=" stroke:none;fill-rule:nonzero;fill:url(#linear7);" d="M 18.507812 20.804688 C 17.726562 21.023438 17.082031 22.070312 16.695312 22.753906 "/>
<path style=" stroke:none;fill-rule:nonzero;fill:url(#linear8);" d="M 18.5 20.75 C 18.070312 20.859375 17.75 21.15625 17.464844 21.480469 C 17.136719 21.851562 16.851562 22.285156 16.648438 22.734375 C 16.625 22.789062 16.703125 22.824219 16.734375 22.78125 C 17.238281 22.074219 17.65625 21.167969 18.53125 20.855469 C 18.589844 20.832031 18.558594 20.734375 18.5 20.75 Z M 18.5 20.75 "/>
<path style=" stroke:none;fill-rule:nonzero;fill:url(#linear9);" d="M 19.910156 20.070312 C 21.007812 20.363281 21.921875 20.886719 22.816406 21.585938 "/>
<path style=" stroke:none;fill-rule:nonzero;fill:url(#linear10);" d="M 19.886719 20.136719 C 20.421875 20.296875 20.9375 20.492188 21.429688 20.757812 C 21.90625 21.011719 22.335938 21.332031 22.78125 21.632812 C 22.84375 21.671875 22.902344 21.585938 22.847656 21.539062 C 22.042969 20.816406 20.984375 20.261719 19.933594 20.007812 C 19.851562 19.988281 19.800781 20.109375 19.886719 20.136719 Z M 19.886719 20.136719 "/>
<path style=" stroke:none;fill-rule:nonzero;fill:url(#linear11);" d="M 19.886719 20.4375 C 20.691406 20.515625 21.507812 21.441406 22.007812 22.042969 "/>
<path style=" stroke:none;fill-rule:nonzero;fill:url(#linear12);" d="M 19.878906 20.492188 C 20.792969 20.648438 21.355469 21.472656 21.96875 22.074219 C 22.015625 22.121094 22.078125 22.066406 22.042969 22.011719 C 21.78125 21.617188 21.433594 21.269531 21.074219 20.960938 C 20.738281 20.671875 20.339844 20.417969 19.890625 20.382812 C 19.820312 20.375 19.8125 20.480469 19.878906 20.492188 Z M 19.878906 20.492188 "/>
<path style=" stroke:none;fill-rule:nonzero;fill:url(#linear13);" d="M 19.808594 20.804688 C 20.589844 21.023438 21.234375 22.070312 21.621094 22.753906 "/>
<path style=" stroke:none;fill-rule:nonzero;fill:url(#linear14);" d="M 19.789062 20.855469 C 20.660156 21.167969 21.085938 22.078125 21.582031 22.785156 C 21.617188 22.832031 21.6875 22.78125 21.664062 22.730469 C 21.472656 22.300781 21.195312 21.894531 20.894531 21.53125 C 20.613281 21.1875 20.265625 20.863281 19.828125 20.753906 C 19.757812 20.734375 19.71875 20.832031 19.789062 20.855469 Z M 19.789062 20.855469 "/>
</g>
<mask id="mask2">
  <g filter="url(#alpha)">
<rect x="0" y="0" width="24" height="24" style="fill:rgb(0%,0%,0%);fill-opacity:0.2;stroke:none;"/>
  </g>
</mask>
<clipPath id="clip3">
  <rect width="24" height="24"/>
</clipPath>
<g id="surface14" clip-path="url(#clip3)">
<path style=" stroke:none;fill-rule:evenodd;fill:rgb(23.529412%,23.529412%,23.529412%);fill-opacity:1;" d="M 15.238281 10.980469 C 15.128906 12.839844 13.589844 14.289062 11.730469 14.289062 C 9.890625 14.289062 8.359375 12.867188 8.226562 11.03125 C 8.21875 11.101562 8.214844 11.171875 8.214844 11.242188 C 8.214844 13.183594 9.789062 14.757812 11.730469 14.757812 C 13.671875 14.757812 15.246094 13.183594 15.246094 11.242188 C 15.246094 11.15625 15.246094 11.070312 15.238281 10.980469 Z M 15.238281 10.980469 "/>
</g>
<clipPath id="clip4">
  <rect width="24" height="24"/>
</clipPath>
<g id="surface17" clip-path="url(#clip4)">
<path style=" stroke:none;fill-rule:evenodd;fill:rgb(29.019608%,70.196078%,89.411765%);fill-opacity:1;" d="M 15.246094 11.007812 C 15.246094 12.949219 13.671875 14.523438 11.730469 14.523438 C 9.789062 14.523438 8.214844 12.949219 8.214844 11.007812 C 8.214844 9.066406 9.789062 7.492188 11.730469 7.492188 C 13.671875 7.492188 15.246094 9.066406 15.246094 11.007812 Z M 15.246094 11.007812 "/>
</g>
</defs>
<g id="surface1">
<use xlink:href="#surface6" mask="url(#mask0)"/>
<path style=" stroke:none;fill-rule:nonzero;fill:rgb(80%,80%,80%);fill-opacity:1;" d="M 8.464844 0.714844 L 6.832031 2.347656 L 6.832031 4.796875 L 0.300781 4.796875 L 0.300781 19.902344 C 0.300781 20.582031 0.847656 21.128906 1.523438 21.128906 L 21.9375 21.128906 C 22.617188 21.128906 23.164062 20.582031 23.164062 19.902344 L 23.164062 4.796875 L 16.628906 4.796875 L 16.628906 2.347656 L 14.996094 0.714844 Z M 8.464844 2.347656 L 14.996094 2.347656 L 14.996094 4.796875 L 8.464844 4.796875 Z M 8.464844 2.347656 "/>
<use xlink:href="#surface10" mask="url(#mask1)"/>
<path style=" stroke:none;fill-rule:nonzero;fill:rgb(100%,79.607843%,3.137255%);fill-opacity:1;" d="M 15.320312 13.863281 L 14.570312 14.839844 L 15.679688 16.566406 L 16.785156 14.449219 Z M 15.320312 13.863281 "/>
<path style=" stroke:none;fill-rule:nonzero;fill:rgb(100%,79.607843%,3.137255%);fill-opacity:1;" d="M 23.011719 13.863281 L 23.761719 14.839844 L 22.652344 16.566406 L 21.542969 14.449219 Z M 23.011719 13.863281 "/>
<path style=" stroke:none;fill-rule:nonzero;fill:rgb(100%,79.607843%,3.137255%);fill-opacity:1;" d="M 22.550781 17.078125 L 21.410156 14.910156 C 21.367188 14.828125 21.234375 14.726562 21.148438 14.707031 L 21.128906 14.699219 L 19.414062 14.292969 C 19.292969 14.261719 19.078125 14.261719 18.960938 14.289062 L 17.203125 14.703125 L 17.183594 14.707031 C 17.09375 14.726562 16.964844 14.828125 16.921875 14.910156 L 15.78125 17.078125 L 15.625 17.378906 C 15.574219 17.472656 15.542969 17.664062 15.5625 17.769531 L 15.878906 19.675781 C 15.890625 19.738281 15.964844 19.824219 16.027344 19.839844 L 16.890625 20.058594 C 16.871094 19.972656 17.066406 19.886719 17.066406 19.800781 L 17.503906 18.84375 C 17.503906 18.859375 17.503906 18.878906 17.5 18.894531 L 17.335938 19.746094 C 17.316406 19.839844 17.355469 20.007812 17.40625 20.085938 L 17.5 20.210938 L 17.925781 20.816406 L 18.558594 21.707031 C 18.605469 21.773438 18.738281 21.84375 18.820312 21.84375 L 19.511719 21.84375 C 19.59375 21.84375 19.726562 21.773438 19.773438 21.707031 L 20.398438 20.824219 L 20.828125 20.21875 L 20.921875 20.085938 C 20.976562 20.007812 21.015625 19.839844 20.996094 19.746094 L 20.832031 18.894531 C 20.828125 18.878906 20.828125 18.859375 20.828125 18.84375 L 21.265625 19.800781 C 21.265625 19.886719 21.460938 19.976562 21.4375 20.0625 L 22.300781 19.839844 C 22.363281 19.824219 22.441406 19.738281 22.453125 19.675781 L 22.769531 17.769531 C 22.789062 17.664062 22.757812 17.472656 22.707031 17.378906 Z M 22.550781 17.078125 "/>
<path style=" stroke:none;fill-rule:nonzero;fill:rgb(17.254902%,17.254902%,17.254902%);fill-opacity:1;" d="M 23.917969 14.679688 C 23.875 14.542969 23.730469 14.300781 23.605469 14.136719 C 23.476562 13.976562 23.265625 13.785156 23.140625 13.714844 C 23.011719 13.640625 22.433594 13.800781 22.140625 13.933594 L 21.925781 14.03125 C 21.632812 14.164062 21.386719 14.277344 21.382812 14.28125 C 21.378906 14.28125 21.34375 14.28125 21.316406 14.269531 C 21.289062 14.257812 20.960938 14.175781 20.648438 14.101562 L 20.085938 13.972656 C 19.769531 13.898438 19.410156 13.828125 19.28125 13.816406 C 19.152344 13.804688 18.601562 13.894531 18.285156 13.96875 L 17.683594 14.105469 C 17.371094 14.179688 17.089844 14.246094 17.0625 14.253906 C 17.039062 14.261719 16.964844 14.289062 16.957031 14.285156 C 16.953125 14.28125 16.699219 14.164062 16.40625 14.03125 L 16.191406 13.933594 C 15.898438 13.800781 15.535156 13.679688 15.386719 13.667969 C 15.238281 13.660156 14.855469 13.976562 14.726562 14.136719 C 14.597656 14.300781 14.457031 14.542969 14.410156 14.679688 C 14.367188 14.8125 14.613281 15.347656 14.792969 15.613281 L 15.164062 16.160156 C 15.34375 16.429688 15.441406 16.738281 15.382812 16.847656 C 15.324219 16.957031 15.242188 17.15625 15.203125 17.285156 C 15.164062 17.414062 15.210938 17.984375 15.265625 18.304688 L 15.378906 18.984375 C 15.433594 19.300781 15.535156 19.667969 15.605469 19.796875 C 15.675781 19.929688 16.226562 20.15625 16.542969 20.234375 L 16.679688 20.269531 C 16.996094 20.347656 17.40625 20.625 17.59375 20.886719 L 17.847656 21.238281 C 18.035156 21.5 18.28125 21.789062 18.394531 21.875 C 18.507812 21.964844 18.980469 22.039062 19.164062 22.039062 C 19.351562 22.039062 19.617188 22.007812 19.757812 21.96875 C 19.894531 21.929688 20.296875 21.5 20.484375 21.238281 L 20.734375 20.894531 C 20.921875 20.632812 21.332031 20.351562 21.644531 20.273438 L 21.792969 20.238281 C 22.105469 20.160156 22.460938 20.03125 22.585938 19.949219 C 22.710938 19.871094 22.898438 19.300781 22.953125 18.984375 L 23.066406 18.304688 C 23.121094 17.984375 23.164062 17.613281 23.160156 17.476562 C 23.15625 17.34375 23.007812 16.957031 22.949219 16.847656 C 22.886719 16.738281 22.988281 16.429688 23.167969 16.160156 L 23.539062 15.613281 C 23.71875 15.347656 23.964844 14.8125 23.917969 14.679688 Z M 15.144531 15.300781 C 14.980469 15.0625 14.84375 14.847656 14.835938 14.828125 C 14.835938 14.828125 14.835938 14.828125 14.835938 14.804688 C 14.835938 14.773438 14.835938 14.773438 14.835938 14.773438 C 14.847656 14.746094 14.964844 14.589844 15.089844 14.425781 C 15.21875 14.265625 15.34375 14.125 15.371094 14.113281 C 15.394531 14.101562 15.707031 14.222656 16 14.355469 L 16.042969 14.378906 C 16.339844 14.511719 16.574219 14.628906 16.570312 14.636719 C 16.5625 14.644531 16.425781 14.898438 16.273438 15.183594 L 16.015625 15.667969 C 15.863281 15.953125 15.304688 15.539062 15.144531 15.300781 Z M 22.699219 17.503906 C 22.703125 17.582031 22.664062 17.90625 22.609375 18.226562 L 22.492188 18.90625 C 22.441406 19.222656 22.375 19.515625 22.351562 19.554688 C 22.328125 19.597656 22.054688 19.691406 21.824219 19.75 C 21.589844 19.808594 21.40625 19.820312 21.414062 19.773438 C 21.425781 19.726562 21.289062 19.398438 21.113281 19.144531 C 20.941406 18.890625 20.796875 18.691406 20.796875 18.699219 C 20.796875 18.707031 20.839844 18.914062 20.882812 19.140625 C 20.925781 19.367188 20.960938 19.609375 20.953125 19.679688 C 20.949219 19.746094 20.871094 19.90625 20.84375 19.941406 C 20.820312 19.980469 20.703125 20.140625 20.585938 20.300781 C 20.472656 20.460938 20.238281 20.785156 20.070312 21.019531 C 19.902344 21.25 19.722656 21.472656 19.675781 21.507812 C 19.625 21.542969 19.351562 21.574219 19.164062 21.574219 C 18.980469 21.574219 18.777344 21.558594 18.71875 21.542969 C 18.664062 21.523438 18.429688 21.25 18.257812 21.015625 C 18.089844 20.777344 17.855469 20.453125 17.738281 20.292969 C 17.621094 20.132812 17.507812 19.972656 17.484375 19.941406 C 17.457031 19.90625 17.417969 19.824219 17.394531 19.761719 C 17.371094 19.695312 17.402344 19.367188 17.449219 19.140625 C 17.492188 18.914062 17.53125 18.722656 17.53125 18.714844 C 17.53125 18.707031 17.390625 18.890625 17.214844 19.144531 C 17.042969 19.398438 16.902344 19.644531 16.90625 19.6875 C 16.90625 19.734375 16.742188 19.804688 16.507812 19.75 C 16.273438 19.691406 16.054688 19.621094 16.015625 19.59375 C 15.976562 19.566406 15.890625 19.222656 15.835938 18.90625 L 15.722656 18.226562 C 15.667969 17.90625 15.628906 17.582031 15.628906 17.503906 C 15.632812 17.425781 15.722656 17.203125 15.761719 17.125 C 15.804688 17.042969 15.964844 16.746094 16.117188 16.460938 L 16.683594 15.402344 C 16.835938 15.121094 17 14.847656 17.046875 14.796875 C 17.09375 14.75 17.222656 14.691406 17.226562 14.6875 C 17.234375 14.6875 17.496094 14.628906 17.808594 14.554688 L 18.390625 14.421875 C 18.707031 14.347656 19.035156 14.285156 19.128906 14.277344 C 19.21875 14.269531 19.664062 14.351562 19.980469 14.425781 L 20.523438 14.550781 C 20.835938 14.625 21.097656 14.6875 21.105469 14.6875 C 21.109375 14.6875 21.164062 14.714844 21.222656 14.75 C 21.28125 14.78125 21.496094 15.117188 21.648438 15.402344 L 22.214844 16.460938 C 22.367188 16.746094 22.523438 17.042969 22.566406 17.125 C 22.609375 17.203125 22.699219 17.425781 22.699219 17.503906 Z M 23.496094 14.828125 C 23.488281 14.847656 23.347656 15.0625 23.1875 15.300781 C 23.027344 15.539062 22.46875 15.953125 22.316406 15.667969 L 22.058594 15.183594 C 21.90625 14.898438 21.777344 14.660156 21.769531 14.652344 C 21.765625 14.644531 21.992188 14.511719 22.285156 14.378906 L 22.332031 14.355469 C 22.625 14.222656 22.894531 14.113281 22.925781 14.109375 C 22.960938 14.109375 23.113281 14.265625 23.238281 14.425781 C 23.367188 14.589844 23.484375 14.746094 23.496094 14.773438 C 23.496094 14.773438 23.496094 14.773438 23.496094 14.804688 C 23.496094 14.828125 23.496094 14.828125 23.496094 14.828125 Z M 23.496094 14.828125 "/>
<path style=" stroke:none;fill-rule:nonzero;fill:rgb(17.254902%,17.254902%,17.254902%);fill-opacity:1;" d="M 18.34375 19.160156 C 18.277344 19.019531 18.347656 18.90625 18.5 18.90625 L 19.828125 18.90625 C 19.984375 18.90625 20.054688 19.019531 19.984375 19.160156 L 19.292969 19.949219 C 19.222656 20.085938 19.109375 20.085938 19.039062 19.949219 Z M 18.34375 19.160156 "/>
<path style=" stroke:none;fill-rule:nonzero;fill:rgb(17.254902%,17.254902%,17.254902%);fill-opacity:1;" d="M 19.164062 20.851562 C 19.164062 20.851562 19.257812 20.9375 19.375 21.042969 L 19.824219 21.453125 C 19.941406 21.558594 20.066406 21.570312 20.105469 21.476562 C 20.140625 21.386719 20.070312 21.238281 19.941406 21.152344 L 19.511719 20.859375 C 19.386719 20.773438 19.28125 20.699219 19.28125 20.695312 C 19.28125 20.691406 19.28125 20.554688 19.28125 20.398438 L 19.28125 19.601562 C 19.28125 19.449219 19.257812 19.269531 19.230469 19.203125 C 19.230469 19.203125 19.230469 19.203125 19.164062 19.203125 C 19.101562 19.203125 19.101562 19.203125 19.101562 19.203125 C 19.074219 19.269531 19.050781 19.449219 19.050781 19.601562 L 19.050781 20.398438 C 19.050781 20.554688 19.050781 20.683594 19.050781 20.6875 C 19.050781 20.691406 18.945312 20.773438 18.816406 20.859375 L 18.390625 21.152344 C 18.261719 21.238281 18.1875 21.386719 18.226562 21.476562 C 18.265625 21.570312 18.390625 21.558594 18.507812 21.453125 L 18.957031 21.042969 C 19.070312 20.9375 19.164062 20.851562 19.164062 20.851562 Z M 19.164062 20.851562 "/>
<path style=" stroke:none;fill-rule:nonzero;fill:rgb(17.254902%,17.254902%,17.254902%);fill-opacity:1;" d="M 16.695312 17.070312 C 16.527344 17.078125 16.527344 17.101562 16.691406 17.125 L 18.078125 17.320312 C 18.242188 17.34375 18.363281 17.5 18.347656 17.664062 L 18.171875 18.285156 C 18.15625 18.449219 18.210938 18.589844 18.289062 18.597656 C 18.367188 18.601562 18.433594 18.601562 18.433594 18.59375 C 18.433594 18.589844 18.4375 18.445312 18.445312 18.28125 L 18.589844 17.699219 C 18.597656 17.53125 18.609375 17.3125 18.613281 17.207031 C 18.617188 17.101562 18.574219 17.019531 18.515625 17.019531 C 18.457031 17.023438 18.273438 17.027344 18.105469 17.03125 Z M 16.695312 17.070312 "/>
<path style=" stroke:none;fill-rule:nonzero;fill:rgb(17.254902%,17.254902%,17.254902%);fill-opacity:1;" d="M 20.226562 17.03125 C 20.058594 17.027344 19.875 17.023438 19.816406 17.019531 C 19.757812 17.019531 19.714844 17.101562 19.71875 17.207031 C 19.722656 17.3125 19.734375 17.53125 19.738281 17.699219 L 19.882812 18.28125 C 19.890625 18.445312 19.898438 18.589844 19.898438 18.59375 C 19.898438 18.601562 19.964844 18.601562 20.042969 18.597656 C 20.121094 18.589844 20.175781 18.449219 20.160156 18.285156 L 19.980469 17.667969 C 19.96875 17.5 20.089844 17.34375 20.253906 17.320312 L 21.640625 17.125 C 21.804688 17.101562 21.804688 17.078125 21.636719 17.070312 Z M 20.226562 17.03125 "/>
<path style=" stroke:none;fill-rule:nonzero;fill:rgb(17.254902%,17.254902%,17.254902%);fill-opacity:1;" d="M 17.941406 17.28125 C 17.941406 17.386719 17.855469 17.472656 17.746094 17.472656 C 17.640625 17.472656 17.554688 17.386719 17.554688 17.28125 C 17.554688 17.175781 17.640625 17.089844 17.746094 17.089844 C 17.855469 17.089844 17.941406 17.175781 17.941406 17.28125 Z M 17.941406 17.28125 "/>
<path style=" stroke:none;fill-rule:nonzero;fill:rgb(17.254902%,17.254902%,17.254902%);fill-opacity:1;" d="M 20.777344 17.28125 C 20.777344 17.386719 20.691406 17.472656 20.582031 17.472656 C 20.476562 17.472656 20.390625 17.386719 20.390625 17.28125 C 20.390625 17.175781 20.476562 17.089844 20.582031 17.089844 C 20.691406 17.089844 20.777344 17.175781 20.777344 17.28125 Z M 20.777344 17.28125 "/>
<path style=" stroke:none;fill-rule:nonzero;fill:rgb(17.254902%,17.254902%,17.254902%);fill-opacity:1;" d="M 18.414062 19.714844 C 17.316406 20.003906 16.402344 20.53125 15.507812 21.226562 "/>
<path style=" stroke:none;fill-rule:nonzero;fill:rgb(17.254902%,17.254902%,17.254902%);fill-opacity:1;" d="M 18.402344 19.648438 C 17.34375 19.902344 16.28125 20.457031 15.472656 21.183594 C 15.414062 21.234375 15.484375 21.3125 15.546875 21.273438 C 15.988281 20.976562 16.414062 20.664062 16.882812 20.40625 C 17.371094 20.136719 17.890625 19.941406 18.425781 19.78125 C 18.507812 19.757812 18.488281 19.628906 18.402344 19.648438 Z M 18.402344 19.648438 "/>
<path style=" stroke:none;fill-rule:nonzero;fill:rgb(17.254902%,17.254902%,17.254902%);fill-opacity:1;" d="M 18.4375 20.082031 C 17.632812 20.160156 16.816406 21.082031 16.316406 21.6875 "/>
<path style=" stroke:none;fill-rule:nonzero;fill:rgb(17.254902%,17.254902%,17.254902%);fill-opacity:1;" d="M 18.429688 20.027344 C 17.972656 20.0625 17.585938 20.320312 17.242188 20.605469 C 16.882812 20.90625 16.539062 21.269531 16.277344 21.660156 C 16.246094 21.703125 16.308594 21.765625 16.347656 21.726562 C 16.96875 21.117188 17.53125 20.292969 18.449219 20.132812 C 18.519531 20.121094 18.5 20.019531 18.429688 20.027344 Z M 18.429688 20.027344 "/>
<path style=" stroke:none;fill-rule:nonzero;fill:rgb(17.254902%,17.254902%,17.254902%);fill-opacity:1;" d="M 18.515625 20.449219 C 17.734375 20.664062 17.089844 21.714844 16.703125 22.398438 "/>
<path style=" stroke:none;fill-rule:nonzero;fill:rgb(17.254902%,17.254902%,17.254902%);fill-opacity:1;" d="M 18.507812 20.394531 C 18.078125 20.503906 17.753906 20.800781 17.46875 21.125 C 17.144531 21.496094 16.859375 21.929688 16.65625 22.378906 C 16.632812 22.433594 16.710938 22.46875 16.742188 22.425781 C 17.242188 21.71875 17.664062 20.808594 18.539062 20.496094 C 18.597656 20.476562 18.566406 20.378906 18.507812 20.394531 Z M 18.507812 20.394531 "/>
<path style=" stroke:none;fill-rule:nonzero;fill:rgb(17.254902%,17.254902%,17.254902%);fill-opacity:1;" d="M 19.917969 19.714844 C 21.015625 20.003906 21.929688 20.53125 22.824219 21.226562 "/>
<path style=" stroke:none;fill-rule:nonzero;fill:rgb(17.254902%,17.254902%,17.254902%);fill-opacity:1;" d="M 19.894531 19.777344 C 20.429688 19.9375 20.945312 20.136719 21.4375 20.398438 C 21.914062 20.652344 22.34375 20.976562 22.789062 21.273438 C 22.851562 21.316406 22.910156 21.230469 22.855469 21.179688 C 22.050781 20.460938 20.992188 19.90625 19.941406 19.652344 C 19.859375 19.632812 19.808594 19.753906 19.894531 19.777344 Z M 19.894531 19.777344 "/>
<path style=" stroke:none;fill-rule:nonzero;fill:rgb(17.254902%,17.254902%,17.254902%);fill-opacity:1;" d="M 19.890625 20.082031 C 20.699219 20.160156 21.515625 21.082031 22.015625 21.6875 "/>
<path style=" stroke:none;fill-rule:nonzero;fill:rgb(17.254902%,17.254902%,17.254902%);fill-opacity:1;" d="M 19.886719 20.136719 C 20.796875 20.292969 21.363281 21.117188 21.976562 21.71875 C 22.023438 21.765625 22.085938 21.707031 22.050781 21.65625 C 21.789062 21.261719 21.441406 20.910156 21.082031 20.601562 C 20.746094 20.3125 20.347656 20.058594 19.898438 20.027344 C 19.824219 20.019531 19.816406 20.125 19.886719 20.136719 Z M 19.886719 20.136719 "/>
<path style=" stroke:none;fill-rule:nonzero;fill:rgb(17.254902%,17.254902%,17.254902%);fill-opacity:1;" d="M 19.816406 20.449219 C 20.597656 20.664062 21.242188 21.714844 21.628906 22.398438 "/>
<path style=" stroke:none;fill-rule:nonzero;fill:rgb(17.254902%,17.254902%,17.254902%);fill-opacity:1;" d="M 19.796875 20.5 C 20.667969 20.8125 21.09375 21.722656 21.589844 22.429688 C 21.625 22.476562 21.695312 22.425781 21.671875 22.375 C 21.480469 21.941406 21.203125 21.539062 20.902344 21.171875 C 20.621094 20.832031 20.273438 20.507812 19.835938 20.394531 C 19.765625 20.378906 19.726562 20.476562 19.796875 20.5 Z M 19.796875 20.5 "/>
<path style=" stroke:none;fill-rule:nonzero;fill:rgb(17.254902%,17.254902%,17.254902%);fill-opacity:1;" d="M 17.65625 15.199219 C 17.65625 14.984375 17.519531 14.808594 17.347656 14.808594 C 17.175781 14.808594 17.035156 14.984375 17.035156 15.199219 C 17.035156 15.410156 17.175781 15.585938 17.347656 15.585938 C 17.519531 15.585938 17.65625 15.410156 17.65625 15.199219 Z M 17.65625 15.199219 "/>
<path style=" stroke:none;fill-rule:nonzero;fill:rgb(17.254902%,17.254902%,17.254902%);fill-opacity:1;" d="M 17.238281 15.941406 C 17.238281 16.085938 17.121094 16.203125 16.980469 16.203125 C 16.835938 16.203125 16.722656 16.085938 16.722656 15.941406 C 16.722656 15.800781 16.835938 15.683594 16.980469 15.683594 C 17.121094 15.683594 17.238281 15.800781 17.238281 15.941406 Z M 17.238281 15.941406 "/>
<path style=" stroke:none;fill-rule:nonzero;fill:rgb(17.254902%,17.254902%,17.254902%);fill-opacity:1;" d="M 18.417969 15.101562 C 18.367188 15.261719 18.257812 15.375 18.175781 15.347656 C 18.09375 15.324219 18.070312 15.167969 18.121094 15.003906 C 18.171875 14.84375 18.28125 14.730469 18.363281 14.757812 C 18.445312 14.78125 18.46875 14.9375 18.417969 15.101562 Z M 18.417969 15.101562 "/>
<path style=" stroke:none;fill-rule:nonzero;fill:rgb(17.254902%,17.254902%,17.254902%);fill-opacity:1;" d="M 18.027344 16.023438 C 18.027344 16.109375 17.945312 16.179688 17.84375 16.179688 C 17.746094 16.179688 17.664062 16.109375 17.664062 16.023438 C 17.664062 15.9375 17.746094 15.867188 17.84375 15.867188 C 17.945312 15.867188 18.027344 15.9375 18.027344 16.023438 Z M 18.027344 16.023438 "/>
<path style=" stroke:none;fill-rule:nonzero;fill:rgb(17.254902%,17.254902%,17.254902%);fill-opacity:1;" d="M 21.84375 18.984375 C 21.78125 19.113281 21.832031 19.269531 21.960938 19.332031 C 22.089844 19.398438 22.242188 19.34375 22.308594 19.21875 C 22.371094 19.089844 22.320312 18.933594 22.191406 18.871094 C 22.0625 18.804688 21.90625 18.859375 21.84375 18.984375 Z M 21.84375 18.984375 "/>
<path style=" stroke:none;fill-rule:nonzero;fill:rgb(17.254902%,17.254902%,17.254902%);fill-opacity:1;" d="M 21.90625 18.324219 C 21.878906 18.496094 21.925781 18.640625 22.011719 18.65625 C 22.09375 18.667969 22.183594 18.542969 22.210938 18.371094 C 22.238281 18.203125 22.191406 18.054688 22.105469 18.042969 C 22.019531 18.027344 21.929688 18.15625 21.90625 18.324219 Z M 21.90625 18.324219 "/>
<path style=" stroke:none;fill-rule:nonzero;fill:rgb(17.254902%,17.254902%,17.254902%);fill-opacity:1;" d="M 21.429688 18.71875 C 21.390625 18.796875 21.433594 18.894531 21.519531 18.9375 C 21.609375 18.984375 21.714844 18.957031 21.753906 18.878906 C 21.792969 18.804688 21.75 18.703125 21.660156 18.660156 C 21.570312 18.617188 21.464844 18.640625 21.429688 18.71875 Z M 21.429688 18.71875 "/>
<path style=" stroke:none;fill-rule:nonzero;fill:rgb(17.254902%,17.254902%,17.254902%);fill-opacity:1;" d="M 5.1875 14.425781 C 5.140625 14.480469 5.234375 14.460938 5.316406 14.441406 L 5.328125 14.328125 Z M 5.1875 14.425781 "/>
<path style=" stroke:none;fill-rule:nonzero;fill:rgb(17.254902%,17.254902%,17.254902%);fill-opacity:1;" d="M 5.527344 14.246094 L 5.644531 14.0625 L 5.550781 14.175781 C 5.394531 14.21875 5.515625 14.085938 5.558594 14.035156 C 5.351562 14.195312 5.535156 14.179688 5.527344 14.246094 Z M 5.527344 14.246094 "/>
<path style=" stroke:none;fill-rule:nonzero;fill:rgb(17.254902%,17.254902%,17.254902%);fill-opacity:1;" d="M 5.8125 13.984375 C 5.921875 13.921875 5.859375 13.894531 5.808594 13.902344 C 5.8125 13.929688 5.761719 14 5.8125 13.984375 Z M 5.8125 13.984375 "/>
<path style=" stroke:none;fill-rule:nonzero;fill:rgb(17.254902%,17.254902%,17.254902%);fill-opacity:1;" d="M 12.75 10.699219 C 12.710938 10.699219 12.671875 10.707031 12.671875 10.695312 C 12.640625 10.722656 12.636719 10.742188 12.75 10.699219 Z M 12.75 10.699219 "/>
<path style=" stroke:none;fill-rule:nonzero;fill:rgb(17.254902%,17.254902%,17.254902%);fill-opacity:1;" d="M 12.671875 10.695312 L 12.6875 10.679688 C 12.683594 10.683594 12.679688 10.6875 12.664062 10.691406 C 12.667969 10.691406 12.671875 10.695312 12.671875 10.695312 Z M 12.671875 10.695312 "/>
<path style=" stroke:none;fill-rule:nonzero;fill:rgb(17.254902%,17.254902%,17.254902%);fill-opacity:1;" d="M 10.09375 11.078125 C 9.988281 11.183594 9.902344 11.191406 9.792969 11.261719 L 9.691406 11.230469 C 9.570312 11.3125 9.660156 11.308594 9.582031 11.390625 C 9.445312 11.40625 9.21875 11.574219 9.160156 11.597656 C 9.105469 11.589844 9.1875 11.53125 9.199219 11.507812 C 9.054688 11.605469 9.097656 11.660156 8.917969 11.761719 L 8.90625 11.746094 C 8.507812 12.074219 7.9375 12.347656 7.484375 12.671875 C 7.519531 12.65625 7.519531 12.675781 7.539062 12.679688 C 7.042969 12.988281 6.457031 13.335938 6.152344 13.722656 C 6.414062 13.539062 6.929688 13.371094 7.144531 13.101562 C 7.273438 13.089844 7.398438 12.929688 7.476562 12.96875 C 7.890625 12.777344 7.988281 12.566406 8.382812 12.355469 C 8.445312 12.34375 8.429688 12.382812 8.464844 12.402344 L 8.171875 12.601562 L 8.375 12.523438 C 8.304688 12.597656 8.101562 12.679688 8.109375 12.753906 C 8.335938 12.535156 8.796875 12.363281 8.988281 12.152344 C 8.871094 12.195312 8.742188 12.292969 8.609375 12.351562 C 8.539062 12.359375 8.441406 12.394531 8.429688 12.359375 C 8.757812 12.070312 9.09375 11.949219 9.46875 11.722656 C 9.558594 11.667969 9.695312 11.601562 9.730469 11.621094 C 9.667969 11.664062 9.734375 11.664062 9.6875 11.707031 C 9.808594 11.613281 9.644531 11.585938 9.851562 11.503906 L 9.878906 11.621094 C 9.90625 11.46875 10.136719 11.523438 10.25 11.386719 C 10.324219 11.402344 10.242188 11.476562 10.128906 11.53125 C 10.261719 11.492188 10.246094 11.421875 10.347656 11.375 L 10.296875 11.515625 C 10.359375 11.371094 10.492188 11.4375 10.570312 11.4375 C 10.566406 11.410156 10.476562 11.367188 10.613281 11.308594 C 10.675781 11.292969 10.652344 11.332031 10.675781 11.339844 C 10.671875 11.3125 10.703125 11.25 10.789062 11.210938 C 10.820312 11.234375 10.75 11.28125 10.761719 11.316406 C 10.828125 11.28125 10.878906 11.25 10.941406 11.253906 C 11.050781 11.175781 10.910156 11.214844 10.972656 11.148438 C 11.167969 11.082031 11.042969 11.25 11.140625 11.277344 C 11.023438 11.386719 10.859375 11.480469 10.792969 11.539062 L 11.039062 11.394531 C 11.039062 11.4375 11.242188 11.371094 11.125 11.476562 C 11.398438 11.386719 11.695312 11.203125 11.933594 11.0625 C 11.890625 11.066406 11.84375 11.078125 11.839844 11.050781 C 11.960938 10.972656 11.96875 11.023438 12 11.039062 C 12.085938 10.972656 12.046875 10.914062 12.085938 10.839844 C 12.308594 10.804688 12.320312 10.757812 12.53125 10.765625 L 12.492188 10.714844 C 12.632812 10.714844 12.609375 10.613281 12.757812 10.597656 C 12.769531 10.609375 12.726562 10.644531 12.691406 10.679688 C 12.800781 10.609375 12.820312 10.6875 12.921875 10.617188 L 12.859375 10.722656 C 12.949219 10.6875 13.070312 10.609375 13.050781 10.691406 C 13.171875 10.546875 13.464844 10.46875 13.648438 10.355469 L 13.652344 10.417969 C 13.730469 10.308594 14.03125 10.269531 14.089844 10.15625 L 14.113281 10.171875 L 14.289062 10.023438 C 14.382812 9.996094 14.382812 10.09375 14.382812 10.066406 C 14.578125 9.976562 14.738281 9.914062 14.878906 9.898438 C 14.886719 9.816406 15.097656 9.71875 15.265625 9.652344 C 16.113281 9.421875 16.984375 9.085938 17.761719 8.804688 C 17.878906 8.769531 18.023438 8.648438 18.15625 8.570312 C 17.96875 8.597656 17.964844 8.640625 17.78125 8.683594 C 17.640625 8.695312 17.574219 8.628906 17.445312 8.605469 L 17.515625 8.65625 C 17.351562 8.757812 17.386719 8.652344 17.253906 8.757812 L 17.230469 8.648438 C 17.195312 8.71875 17.054688 8.710938 16.996094 8.695312 L 16.964844 8.777344 C 16.84375 8.769531 16.761719 8.773438 16.707031 8.71875 L 16.738281 8.78125 C 16.683594 8.753906 16.296875 8.910156 16.402344 8.761719 C 16.375 8.785156 16.355469 8.828125 16.28125 8.839844 L 16.25 8.773438 C 16.148438 8.820312 16.042969 8.875 15.996094 8.84375 C 16.046875 8.808594 16.058594 8.773438 16.070312 8.742188 C 15.621094 8.863281 16.039062 8.984375 15.652344 9.109375 L 15.644531 9.066406 L 15.5625 9.144531 L 15.441406 9.121094 C 15.351562 9.316406 14.894531 9.289062 14.6875 9.441406 C 14.601562 9.484375 14.453125 9.441406 14.277344 9.515625 L 14.3125 9.578125 C 14.152344 9.5625 13.617188 9.703125 13.429688 9.609375 C 13.320312 9.710938 13.445312 9.617188 13.464844 9.671875 C 13.238281 9.839844 13.179688 9.746094 13.035156 9.757812 C 12.886719 9.851562 13.160156 9.734375 13.097656 9.820312 C 12.835938 9.863281 12.9375 9.972656 12.628906 10.054688 C 12.585938 10.027344 12.695312 10 12.714844 9.960938 C 12.535156 10.117188 12.132812 10.226562 11.835938 10.378906 C 11.464844 10.480469 10.949219 10.699219 10.523438 10.832031 L 10.527344 10.859375 C 10.332031 10.875 10.179688 11.019531 9.96875 11.089844 Z M 10.09375 11.078125 "/>
<path style=" stroke:none;fill-rule:nonzero;fill:rgb(17.254902%,17.254902%,17.254902%);fill-opacity:1;" d="M 8.0625 12.871094 L 8.125 12.902344 L 8.277344 12.773438 C 8.179688 12.773438 8.160156 12.828125 8.0625 12.871094 Z M 8.0625 12.871094 "/>
<path style=" stroke:none;fill-rule:nonzero;fill:rgb(17.254902%,17.254902%,17.254902%);fill-opacity:1;" d="M 8.078125 12.679688 L 8.015625 12.695312 L 7.929688 12.765625 Z M 8.078125 12.679688 "/>
<path style=" stroke:none;fill-rule:nonzero;fill:rgb(17.254902%,17.254902%,17.254902%);fill-opacity:1;" d="M 9.972656 11.816406 L 10.324219 11.597656 L 10.292969 11.601562 Z M 9.972656 11.816406 "/>
<path style=" stroke:none;fill-rule:nonzero;fill:rgb(17.254902%,17.254902%,17.254902%);fill-opacity:1;" d="M 12.757812 10.761719 C 12.726562 10.808594 12.667969 10.816406 12.632812 10.855469 L 12.789062 10.761719 Z M 12.757812 10.761719 "/>
<path style=" stroke:none;fill-rule:nonzero;fill:rgb(17.254902%,17.254902%,17.254902%);fill-opacity:1;" d="M 14.441406 10.367188 C 14.46875 10.242188 14.5625 10.324219 14.449219 10.261719 C 14.359375 10.3125 14.460938 10.324219 14.441406 10.367188 Z M 14.441406 10.367188 "/>
<path style=" stroke:none;fill-rule:nonzero;fill:rgb(17.254902%,17.254902%,17.254902%);fill-opacity:1;" d="M 14.765625 10.082031 C 14.707031 10.097656 14.683594 10.125 14.65625 10.148438 C 14.746094 10.171875 14.730469 10.117188 14.765625 10.082031 Z M 14.765625 10.082031 "/>
<use xlink:href="#surface14" mask="url(#mask2)"/>
<use xlink:href="#surface17"/>
<path style=" stroke:none;fill-rule:nonzero;fill:rgb(100%,100%,100%);fill-opacity:1;" d="M 12.433594 8.898438 L 12.433594 10.773438 L 13.136719 10.773438 L 11.730469 12.648438 L 10.324219 10.773438 L 11.027344 10.773438 L 11.027344 8.898438 Z M 10.089844 12.648438 L 13.371094 12.648438 L 13.371094 13.117188 L 10.089844 13.117188 Z M 10.089844 12.648438 "/>
<path style=" stroke:none;fill-rule:nonzero;fill:rgb(17.254902%,17.254902%,17.254902%);fill-opacity:1;" d="M 3.878906 12.328125 C 3.835938 12.382812 3.925781 12.363281 4 12.34375 L 4.011719 12.234375 Z M 3.878906 12.328125 "/>
<path style=" stroke:none;fill-rule:nonzero;fill:rgb(17.254902%,17.254902%,17.254902%);fill-opacity:1;" d="M 4.203125 12.152344 L 4.3125 11.984375 L 4.226562 12.09375 C 4.074219 12.128906 4.191406 12.003906 4.230469 11.960938 C 4.03125 12.105469 4.207031 12.09375 4.203125 12.152344 Z M 4.203125 12.152344 "/>
<path style=" stroke:none;fill-rule:nonzero;fill:rgb(17.254902%,17.254902%,17.254902%);fill-opacity:1;" d="M 4.472656 11.902344 C 4.574219 11.847656 4.519531 11.816406 4.46875 11.828125 C 4.472656 11.851562 4.421875 11.917969 4.472656 11.902344 Z M 4.472656 11.902344 "/>
<path style=" stroke:none;fill-rule:nonzero;fill:rgb(17.254902%,17.254902%,17.254902%);fill-opacity:1;" d="M 11.144531 8.855469 C 11.113281 8.859375 11.074219 8.867188 11.070312 8.851562 C 11.042969 8.875 11.039062 8.894531 11.144531 8.855469 Z M 11.144531 8.855469 "/>
<path style=" stroke:none;fill-rule:nonzero;fill:rgb(17.254902%,17.254902%,17.254902%);fill-opacity:1;" d="M 11.070312 8.847656 L 11.085938 8.832031 C 11.082031 8.835938 11.078125 8.839844 11.070312 8.84375 C 11.070312 8.839844 11.070312 8.847656 11.070312 8.847656 Z M 11.070312 8.847656 "/>
<path style=" stroke:none;fill-rule:nonzero;fill:rgb(17.254902%,17.254902%,17.254902%);fill-opacity:1;" d="M 8.597656 9.195312 C 8.492188 9.296875 8.414062 9.300781 8.3125 9.371094 L 8.21875 9.339844 C 8.109375 9.417969 8.1875 9.417969 8.113281 9.496094 C 7.984375 9.507812 7.765625 9.660156 7.707031 9.683594 C 7.65625 9.671875 7.734375 9.621094 7.742188 9.597656 C 7.609375 9.6875 7.648438 9.746094 7.46875 9.835938 L 7.457031 9.820312 C 7.074219 10.125 6.523438 10.371094 6.082031 10.679688 C 6.117188 10.667969 6.117188 10.683594 6.132812 10.6875 C 5.644531 10.96875 5.082031 11.289062 4.792969 11.664062 C 5.046875 11.496094 5.542969 11.34375 5.75 11.085938 C 5.875 11.078125 5.992188 10.929688 6.070312 10.972656 C 6.472656 10.789062 6.570312 10.597656 6.945312 10.402344 C 7.007812 10.386719 6.996094 10.433594 7.023438 10.453125 L 6.742188 10.636719 L 6.9375 10.566406 C 6.871094 10.636719 6.671875 10.714844 6.679688 10.78125 C 6.902344 10.582031 7.34375 10.425781 7.53125 10.230469 C 7.414062 10.269531 7.289062 10.351562 7.160156 10.414062 C 7.09375 10.421875 7.003906 10.449219 6.992188 10.414062 C 7.304688 10.140625 7.632812 10.035156 7.992188 9.828125 C 8.082031 9.777344 8.210938 9.714844 8.246094 9.742188 C 8.191406 9.785156 8.25 9.785156 8.203125 9.824219 C 8.324219 9.734375 8.160156 9.703125 8.363281 9.628906 L 8.386719 9.746094 C 8.410156 9.597656 8.632812 9.652344 8.738281 9.523438 C 8.808594 9.546875 8.730469 9.613281 8.628906 9.664062 C 8.753906 9.628906 8.738281 9.558594 8.832031 9.515625 L 8.785156 9.652344 C 8.847656 9.515625 8.972656 9.585938 9.046875 9.585938 C 9.042969 9.558594 8.957031 9.511719 9.085938 9.460938 C 9.148438 9.449219 9.128906 9.484375 9.152344 9.492188 C 9.148438 9.464844 9.175781 9.402344 9.257812 9.359375 C 9.289062 9.386719 9.222656 9.433594 9.230469 9.46875 C 9.296875 9.4375 9.34375 9.402344 9.402344 9.40625 C 9.503906 9.332031 9.375 9.363281 9.429688 9.300781 C 9.613281 9.246094 9.492188 9.402344 9.585938 9.4375 C 9.472656 9.542969 9.320312 9.628906 9.261719 9.691406 L 9.492188 9.550781 C 9.492188 9.59375 9.691406 9.539062 9.574219 9.628906 C 9.84375 9.554688 10.125 9.371094 10.351562 9.238281 C 10.3125 9.242188 10.269531 9.25 10.265625 9.226562 C 10.378906 9.148438 10.382812 9.199219 10.421875 9.214844 C 10.503906 9.144531 10.464844 9.089844 10.5 9.019531 C 10.714844 8.984375 10.726562 8.941406 10.921875 8.945312 L 10.882812 8.882812 C 11.023438 8.882812 10.996094 8.78125 11.136719 8.761719 C 11.148438 8.769531 11.113281 8.804688 11.078125 8.839844 C 11.175781 8.773438 11.199219 8.847656 11.296875 8.777344 L 11.246094 8.882812 C 11.332031 8.839844 11.441406 8.765625 11.425781 8.84375 C 11.542969 8.703125 11.816406 8.617188 11.984375 8.496094 L 11.996094 8.554688 C 12.0625 8.445312 12.351562 8.40625 12.402344 8.285156 L 12.429688 8.300781 L 12.585938 8.144531 C 12.675781 8.113281 12.679688 8.210938 12.679688 8.183594 C 12.863281 8.082031 13.011719 8.019531 13.144531 7.996094 C 13.144531 7.914062 13.335938 7.808594 13.496094 7.734375 C 14.289062 7.46875 15.105469 7.109375 15.832031 6.816406 C 15.945312 6.785156 16.078125 6.65625 16.210938 6.585938 C 16.03125 6.609375 16.027344 6.652344 15.855469 6.695312 C 15.726562 6.707031 15.65625 6.644531 15.53125 6.621094 L 15.601562 6.671875 C 15.445312 6.777344 15.476562 6.671875 15.355469 6.777344 L 15.328125 6.667969 C 15.292969 6.738281 15.164062 6.730469 15.105469 6.71875 L 15.082031 6.804688 C 14.964844 6.800781 14.886719 6.804688 14.828125 6.75 L 14.859375 6.816406 C 14.804688 6.785156 14.445312 6.960938 14.539062 6.808594 C 14.511719 6.835938 14.496094 6.875 14.425781 6.890625 L 14.390625 6.832031 C 14.296875 6.878906 14.191406 6.933594 14.152344 6.90625 C 14.195312 6.875 14.203125 6.839844 14.214844 6.800781 C 13.796875 6.941406 14.203125 7.042969 13.84375 7.183594 L 13.832031 7.144531 L 13.753906 7.222656 L 13.636719 7.207031 C 13.5625 7.402344 13.125 7.398438 12.941406 7.558594 C 12.859375 7.605469 12.714844 7.566406 12.554688 7.644531 L 12.59375 7.703125 C 12.4375 7.699219 11.941406 7.863281 11.75 7.769531 C 11.652344 7.875 11.765625 7.777344 11.789062 7.832031 C 11.585938 8 11.523438 7.910156 11.382812 7.933594 C 11.25 8.03125 11.5 7.90625 11.445312 7.984375 C 11.203125 8.035156 11.300781 8.144531 11.011719 8.226562 C 10.96875 8.203125 11.074219 8.171875 11.089844 8.132812 C 10.925781 8.28125 10.550781 8.40625 10.273438 8.546875 C 9.890625 8.675781 9.480469 8.8125 9.015625 8.972656 L 9.019531 9 C 8.835938 9.015625 8.6875 9.148438 8.492188 9.214844 Z M 8.597656 9.195312 "/>
<path style=" stroke:none;fill-rule:nonzero;fill:rgb(17.254902%,17.254902%,17.254902%);fill-opacity:1;" d="M 6.640625 10.890625 L 6.695312 10.929688 L 6.84375 10.804688 C 6.757812 10.792969 6.742188 10.851562 6.640625 10.890625 Z M 6.640625 10.890625 "/>
<path style=" stroke:none;fill-rule:nonzero;fill:rgb(17.254902%,17.254902%,17.254902%);fill-opacity:1;" d="M 6.664062 10.703125 L 6.59375 10.710938 L 6.515625 10.78125 Z M 6.664062 10.703125 "/>
<path style=" stroke:none;fill-rule:nonzero;fill:rgb(17.254902%,17.254902%,17.254902%);fill-opacity:1;" d="M 8.484375 9.921875 L 8.820312 9.714844 L 8.792969 9.714844 Z M 8.484375 9.921875 "/>
<path style=" stroke:none;fill-rule:nonzero;fill:rgb(17.254902%,17.254902%,17.254902%);fill-opacity:1;" d="M 11.15625 8.914062 C 11.132812 8.960938 11.074219 8.976562 11.042969 9.007812 L 11.183594 8.90625 Z M 11.15625 8.914062 "/>
<path style=" stroke:none;fill-rule:nonzero;fill:rgb(17.254902%,17.254902%,17.254902%);fill-opacity:1;" d="M 12.757812 8.46875 C 12.773438 8.34375 12.875 8.421875 12.757812 8.363281 C 12.675781 8.417969 12.769531 8.421875 12.757812 8.46875 Z M 12.757812 8.46875 "/>
<path style=" stroke:none;fill-rule:nonzero;fill:rgb(17.254902%,17.254902%,17.254902%);fill-opacity:1;" d="M 13.046875 8.175781 C 12.992188 8.199219 12.96875 8.222656 12.941406 8.25 C 13.035156 8.257812 13.011719 8.210938 13.046875 8.175781 Z M 13.046875 8.175781 "/>
<path style=" stroke:none;fill-rule:nonzero;fill:rgb(17.254902%,17.254902%,17.254902%);fill-opacity:1;" d="M 6.414062 16.449219 C 6.378906 16.5 6.464844 16.480469 6.53125 16.457031 L 6.527344 16.347656 Z M 6.414062 16.449219 "/>
<path style=" stroke:none;fill-rule:nonzero;fill:rgb(17.254902%,17.254902%,17.254902%);fill-opacity:1;" d="M 6.695312 16.253906 L 6.78125 16.078125 L 6.703125 16.1875 C 6.5625 16.230469 6.660156 16.101562 6.695312 16.054688 C 6.519531 16.210938 6.695312 16.191406 6.695312 16.253906 Z M 6.695312 16.253906 "/>
<path style=" stroke:none;fill-rule:nonzero;fill:rgb(17.254902%,17.254902%,17.254902%);fill-opacity:1;" d="M 6.925781 15.996094 C 7.019531 15.9375 6.960938 15.910156 6.914062 15.921875 C 6.921875 15.941406 6.878906 16.007812 6.925781 15.996094 Z M 6.925781 15.996094 "/>
<path style=" stroke:none;fill-rule:nonzero;fill:rgb(17.254902%,17.254902%,17.254902%);fill-opacity:1;" d="M 13.171875 13.210938 C 13.136719 13.210938 13.105469 13.21875 13.101562 13.203125 C 13.078125 13.234375 13.078125 13.25 13.171875 13.210938 Z M 13.171875 13.210938 "/>
<path style=" stroke:none;fill-rule:nonzero;fill:rgb(17.254902%,17.254902%,17.254902%);fill-opacity:1;" d="M 13.101562 13.203125 L 13.113281 13.1875 C 13.113281 13.191406 13.109375 13.191406 13.101562 13.199219 C 13.097656 13.199219 13.101562 13.203125 13.101562 13.203125 Z M 13.101562 13.203125 "/>
<path style=" stroke:none;fill-rule:nonzero;fill:rgb(17.254902%,17.254902%,17.254902%);fill-opacity:1;" d="M 10.800781 13.511719 C 10.707031 13.601562 10.636719 13.605469 10.535156 13.671875 L 10.445312 13.632812 C 10.339844 13.707031 10.417969 13.710938 10.355469 13.78125 C 10.230469 13.785156 10.023438 13.925781 9.972656 13.945312 C 9.925781 13.929688 10 13.882812 10.007812 13.859375 C 9.882812 13.941406 9.917969 14.003906 9.75 14.078125 L 9.738281 14.0625 C 9.371094 14.335938 8.847656 14.546875 8.425781 14.824219 C 8.453125 14.8125 8.453125 14.828125 8.46875 14.835938 C 8.007812 15.089844 7.472656 15.390625 7.214844 15.757812 C 7.445312 15.589844 7.910156 15.449219 8.109375 15.207031 C 8.222656 15.203125 8.339844 15.0625 8.414062 15.109375 C 8.792969 14.953125 8.886719 14.769531 9.25 14.601562 C 9.300781 14.589844 9.292969 14.636719 9.324219 14.65625 L 9.054688 14.820312 L 9.242188 14.769531 C 9.179688 14.835938 8.984375 14.890625 8.996094 14.960938 C 9.214844 14.777344 9.632812 14.652344 9.8125 14.472656 C 9.703125 14.503906 9.582031 14.574219 9.460938 14.625 C 9.394531 14.628906 9.308594 14.652344 9.296875 14.617188 C 9.601562 14.371094 9.910156 14.285156 10.253906 14.105469 C 10.339844 14.058594 10.460938 14.011719 10.488281 14.035156 C 10.4375 14.074219 10.488281 14.078125 10.449219 14.117188 C 10.566406 14.035156 10.410156 14 10.601562 13.929688 L 10.628906 14.046875 C 10.648438 13.902344 10.859375 13.972656 10.957031 13.84375 C 11.023438 13.867188 10.949219 13.929688 10.851562 13.976562 C 10.96875 13.945312 10.953125 13.875 11.042969 13.835938 L 11 13.96875 C 11.054688 13.835938 11.183594 13.90625 11.246094 13.914062 C 11.242188 13.886719 11.164062 13.839844 11.28125 13.789062 C 11.335938 13.777344 11.324219 13.8125 11.34375 13.820312 C 11.339844 13.792969 11.359375 13.734375 11.4375 13.695312 C 11.464844 13.722656 11.40625 13.765625 11.414062 13.796875 C 11.472656 13.765625 11.515625 13.734375 11.570312 13.742188 C 11.660156 13.667969 11.539062 13.703125 11.585938 13.636719 C 11.753906 13.582031 11.65625 13.734375 11.742188 13.773438 C 11.644531 13.878906 11.496094 13.96875 11.441406 14.019531 L 11.664062 13.882812 C 11.667969 13.925781 11.851562 13.871094 11.742188 13.964844 C 11.992188 13.886719 12.25 13.707031 12.457031 13.574219 C 12.417969 13.578125 12.375 13.585938 12.371094 13.5625 C 12.476562 13.484375 12.484375 13.535156 12.523438 13.554688 C 12.59375 13.488281 12.558594 13.433594 12.585938 13.363281 C 12.789062 13.332031 12.796875 13.289062 12.980469 13.296875 L 12.941406 13.234375 C 13.070312 13.234375 13.046875 13.136719 13.171875 13.121094 C 13.183594 13.128906 13.144531 13.167969 13.121094 13.195312 C 13.214844 13.128906 13.238281 13.207031 13.328125 13.136719 L 13.28125 13.242188 C 13.359375 13.203125 13.464844 13.132812 13.449219 13.207031 C 13.558594 13.078125 13.808594 12.992188 13.960938 12.878906 L 13.972656 12.9375 C 14.035156 12.832031 14.304688 12.796875 14.347656 12.683594 L 14.371094 12.699219 L 14.515625 12.550781 C 14.601562 12.519531 14.609375 12.617188 14.605469 12.589844 C 14.773438 12.5 14.914062 12.433594 15.039062 12.410156 C 15.039062 12.328125 15.21875 12.222656 15.359375 12.148438 C 16.097656 11.882812 16.839844 11.472656 17.457031 11.070312 C 17.546875 11.019531 17.648438 10.875 17.753906 10.777344 C 17.59375 10.832031 17.597656 10.878906 17.453125 10.949219 C 17.332031 10.980469 17.253906 10.925781 17.140625 10.925781 L 17.21875 10.964844 C 17.09375 11.082031 17.097656 10.976562 17.011719 11.09375 L 16.96875 10.988281 C 16.957031 11.058594 16.828125 11.066406 16.773438 11.0625 L 16.765625 11.148438 C 16.65625 11.152344 16.585938 11.164062 16.527344 11.117188 L 16.566406 11.179688 C 16.511719 11.15625 16.207031 11.347656 16.265625 11.191406 C 16.242188 11.21875 16.234375 11.261719 16.171875 11.277344 L 16.136719 11.21875 C 16.054688 11.269531 15.964844 11.328125 15.917969 11.300781 C 15.957031 11.265625 15.960938 11.230469 15.964844 11.195312 C 15.589844 11.347656 15.976562 11.433594 15.652344 11.582031 L 15.640625 11.539062 L 15.578125 11.621094 L 15.464844 11.609375 C 15.410156 11.804688 15 11.800781 14.828125 11.957031 C 14.757812 12.003906 14.613281 11.964844 14.476562 12.039062 L 14.511719 12.097656 C 14.363281 12.085938 13.902344 12.242188 13.722656 12.140625 C 13.636719 12.242188 13.738281 12.148438 13.761719 12.203125 C 13.570312 12.363281 13.507812 12.273438 13.382812 12.289062 C 13.261719 12.375 13.496094 12.265625 13.445312 12.351562 C 13.214844 12.394531 13.316406 12.5 13.035156 12.578125 C 12.992188 12.550781 13.089844 12.523438 13.109375 12.488281 C 12.957031 12.632812 12.601562 12.75 12.339844 12.886719 C 12.011719 12.984375 11.558594 13.191406 11.1875 13.300781 L 11.1875 13.328125 C 11.023438 13.335938 10.890625 13.464844 10.703125 13.511719 Z M 10.800781 13.511719 "/>
<path style=" stroke:none;fill-rule:nonzero;fill:rgb(17.254902%,17.254902%,17.254902%);fill-opacity:1;" d="M 8.945312 15.058594 L 8.992188 15.097656 L 9.140625 14.984375 C 9.054688 14.976562 9.035156 15.03125 8.945312 15.058594 Z M 8.945312 15.058594 "/>
<path style=" stroke:none;fill-rule:nonzero;fill:rgb(17.254902%,17.254902%,17.254902%);fill-opacity:1;" d="M 8.902344 14.882812 L 8.828125 14.945312 L 8.964844 14.878906 Z M 8.902344 14.882812 "/>
<path style=" stroke:none;fill-rule:nonzero;fill:rgb(17.254902%,17.254902%,17.254902%);fill-opacity:1;" d="M 11.011719 14.035156 L 10.988281 14.039062 L 10.695312 14.222656 Z M 11.011719 14.035156 "/>
<path style=" stroke:none;fill-rule:nonzero;fill:rgb(17.254902%,17.254902%,17.254902%);fill-opacity:1;" d="M 13.183594 13.273438 C 13.160156 13.316406 13.109375 13.328125 13.078125 13.363281 L 13.207031 13.269531 Z M 13.183594 13.273438 "/>
<path style=" stroke:none;fill-rule:nonzero;fill:rgb(17.254902%,17.254902%,17.254902%);fill-opacity:1;" d="M 14.6875 12.871094 C 14.699219 12.75 14.796875 12.824219 14.6875 12.765625 C 14.605469 12.824219 14.699219 12.828125 14.6875 12.871094 Z M 14.6875 12.871094 "/>
<path style=" stroke:none;fill-rule:nonzero;fill:rgb(17.254902%,17.254902%,17.254902%);fill-opacity:1;" d="M 14.953125 12.589844 C 14.902344 12.605469 14.878906 12.632812 14.859375 12.660156 C 14.941406 12.671875 14.925781 12.625 14.953125 12.589844 Z M 14.953125 12.589844 "/>
</g>
</svg>
