<?xml version="1.0" encoding="UTF-8"?>
<svg xmlns="http://www.w3.org/2000/svg" xmlns:xlink="http://www.w3.org/1999/xlink" width="22pt" height="22pt" viewBox="0 0 22 22" version="1.1">
<defs>
<filter id="alpha" filterUnits="objectBoundingBox" x="0%" y="0%" width="100%" height="100%">
  <feColorMatrix type="matrix" in="SourceGraphic" values="0 0 0 0 1 0 0 0 0 1 0 0 0 0 1 0 0 0 1 0"/>
</filter>
<mask id="mask0">
  <g filter="url(#alpha)">
<rect x="0" y="0" width="22" height="22" style="fill:rgb(0%,0%,0%);fill-opacity:0.2;stroke:none;"/>
  </g>
</mask>
<clipPath id="clip1">
  <rect width="22" height="22"/>
</clipPath>
<g id="surface6" clip-path="url(#clip1)">
<path style=" stroke:none;fill-rule:nonzero;fill:rgb(0%,0%,0%);fill-opacity:1;" d="M 7.761719 1.777344 L 7.761719 2.523438 L 13.746094 2.523438 L 13.746094 1.777344 Z M 0.273438 17.871094 L 0.273438 18.617188 C 0.273438 19.238281 0.777344 19.742188 1.398438 19.742188 L 20.109375 19.742188 C 20.730469 19.742188 21.234375 19.238281 21.234375 18.617188 L 21.234375 17.871094 C 21.234375 18.492188 20.730469 18.992188 20.109375 18.992188 L 1.398438 18.992188 C 0.777344 18.992188 0.273438 18.492188 0.273438 17.871094 Z M 0.273438 17.871094 "/>
</g>
<mask id="mask1">
  <g filter="url(#alpha)">
<rect x="0" y="0" width="22" height="22" style="fill:rgb(0%,0%,0%);fill-opacity:0.2;stroke:none;"/>
  </g>
</mask>
<linearGradient id="linear0" gradientUnits="userSpaceOnUse" x1="-114.20316" y1="4.069152" x2="-113.81965" y2="-44.637321" gradientTransform="matrix(0.0872567,0,0,0.0872588,27.506294,20.979006)">
<stop offset="0" style="stop-color:rgb(0%,0%,0%);stop-opacity:1;"/>
<stop offset="1" style="stop-color:rgb(0%,0%,0%);stop-opacity:0;"/>
</linearGradient>
<linearGradient id="linear1" gradientUnits="userSpaceOnUse" x1="-114.20316" y1="4.069152" x2="-113.81965" y2="-44.637321" gradientTransform="matrix(0.0872567,0,0,0.0872588,27.506294,20.979006)">
<stop offset="0" style="stop-color:rgb(0%,0%,0%);stop-opacity:1;"/>
<stop offset="1" style="stop-color:rgb(0%,0%,0%);stop-opacity:0;"/>
</linearGradient>
<linearGradient id="linear2" gradientUnits="userSpaceOnUse" x1="-114.20316" y1="4.069152" x2="-113.81965" y2="-44.637321" gradientTransform="matrix(0.0872567,0,0,0.0872588,27.506294,20.979006)">
<stop offset="0" style="stop-color:rgb(0%,0%,0%);stop-opacity:1;"/>
<stop offset="1" style="stop-color:rgb(0%,0%,0%);stop-opacity:0;"/>
</linearGradient>
<linearGradient id="linear3" gradientUnits="userSpaceOnUse" x1="-114.20316" y1="4.069152" x2="-113.81965" y2="-44.637321" gradientTransform="matrix(0.0443042,0,0,0.0443053,4.35918,5.132619)">
<stop offset="0" style="stop-color:rgb(0%,0%,0%);stop-opacity:1;"/>
<stop offset="1" style="stop-color:rgb(0%,0%,0%);stop-opacity:0;"/>
</linearGradient>
<linearGradient id="linear4" gradientUnits="userSpaceOnUse" x1="-114.20316" y1="4.069152" x2="-113.81965" y2="-44.637321" gradientTransform="matrix(0.0443042,0,0,0.0443053,4.35918,5.132619)">
<stop offset="0" style="stop-color:rgb(0%,0%,0%);stop-opacity:1;"/>
<stop offset="1" style="stop-color:rgb(0%,0%,0%);stop-opacity:0;"/>
</linearGradient>
<linearGradient id="linear5" gradientUnits="userSpaceOnUse" x1="-114.20316" y1="4.069152" x2="-113.81965" y2="-44.637321" gradientTransform="matrix(0.0443042,0,0,0.0443053,4.35918,5.132619)">
<stop offset="0" style="stop-color:rgb(0%,0%,0%);stop-opacity:1;"/>
<stop offset="1" style="stop-color:rgb(0%,0%,0%);stop-opacity:0;"/>
</linearGradient>
<linearGradient id="linear6" gradientUnits="userSpaceOnUse" x1="-114.20316" y1="4.069152" x2="-113.81965" y2="-44.637321" gradientTransform="matrix(0.0443042,0,0,0.0443053,4.35918,5.132619)">
<stop offset="0" style="stop-color:rgb(0%,0%,0%);stop-opacity:1;"/>
<stop offset="1" style="stop-color:rgb(0%,0%,0%);stop-opacity:0;"/>
</linearGradient>
<linearGradient id="linear7" gradientUnits="userSpaceOnUse" x1="-114.20316" y1="4.069152" x2="-113.81965" y2="-44.637321" gradientTransform="matrix(0.0443042,0,0,0.0443053,4.35918,5.132619)">
<stop offset="0" style="stop-color:rgb(0%,0%,0%);stop-opacity:1;"/>
<stop offset="1" style="stop-color:rgb(0%,0%,0%);stop-opacity:0;"/>
</linearGradient>
<linearGradient id="linear8" gradientUnits="userSpaceOnUse" x1="-114.20316" y1="4.069152" x2="-113.81965" y2="-44.637321" gradientTransform="matrix(0.0443042,0,0,0.0443053,4.35918,5.132619)">
<stop offset="0" style="stop-color:rgb(0%,0%,0%);stop-opacity:1;"/>
<stop offset="1" style="stop-color:rgb(0%,0%,0%);stop-opacity:0;"/>
</linearGradient>
<linearGradient id="linear9" gradientUnits="userSpaceOnUse" x1="-114.20316" y1="4.069152" x2="-113.81965" y2="-44.637321" gradientTransform="matrix(0.0443042,0,0,0.0443053,4.35918,5.132619)">
<stop offset="0" style="stop-color:rgb(0%,0%,0%);stop-opacity:1;"/>
<stop offset="1" style="stop-color:rgb(0%,0%,0%);stop-opacity:0;"/>
</linearGradient>
<linearGradient id="linear10" gradientUnits="userSpaceOnUse" x1="-114.20316" y1="4.069152" x2="-113.81965" y2="-44.637321" gradientTransform="matrix(0.0443042,0,0,0.0443053,4.35918,5.132619)">
<stop offset="0" style="stop-color:rgb(0%,0%,0%);stop-opacity:1;"/>
<stop offset="1" style="stop-color:rgb(0%,0%,0%);stop-opacity:0;"/>
</linearGradient>
<linearGradient id="linear11" gradientUnits="userSpaceOnUse" x1="-114.20316" y1="4.069152" x2="-113.81965" y2="-44.637321" gradientTransform="matrix(0.0443042,0,0,0.0443053,4.35918,5.132619)">
<stop offset="0" style="stop-color:rgb(0%,0%,0%);stop-opacity:1;"/>
<stop offset="1" style="stop-color:rgb(0%,0%,0%);stop-opacity:0;"/>
</linearGradient>
<linearGradient id="linear12" gradientUnits="userSpaceOnUse" x1="-114.20316" y1="4.069152" x2="-113.81965" y2="-44.637321" gradientTransform="matrix(0.0443042,0,0,0.0443053,4.35918,5.132619)">
<stop offset="0" style="stop-color:rgb(0%,0%,0%);stop-opacity:1;"/>
<stop offset="1" style="stop-color:rgb(0%,0%,0%);stop-opacity:0;"/>
</linearGradient>
<linearGradient id="linear13" gradientUnits="userSpaceOnUse" x1="-114.20316" y1="4.069152" x2="-113.81965" y2="-44.637321" gradientTransform="matrix(0.0443042,0,0,0.0443053,4.35918,5.132619)">
<stop offset="0" style="stop-color:rgb(0%,0%,0%);stop-opacity:1;"/>
<stop offset="1" style="stop-color:rgb(0%,0%,0%);stop-opacity:0;"/>
</linearGradient>
<linearGradient id="linear14" gradientUnits="userSpaceOnUse" x1="-114.20316" y1="4.069152" x2="-113.81965" y2="-44.637321" gradientTransform="matrix(0.0443042,0,0,0.0443053,4.35918,5.132619)">
<stop offset="0" style="stop-color:rgb(0%,0%,0%);stop-opacity:1;"/>
<stop offset="1" style="stop-color:rgb(0%,0%,0%);stop-opacity:0;"/>
</linearGradient>
<clipPath id="clip2">
  <rect width="22" height="22"/>
</clipPath>
<g id="surface10" clip-path="url(#clip2)">
<path style=" stroke:none;fill-rule:nonzero;fill:url(#linear0);" d="M 21.917969 13.78125 C 21.878906 13.65625 21.746094 13.433594 21.628906 13.289062 C 21.511719 13.140625 21.320312 12.964844 21.203125 12.898438 C 21.089844 12.832031 20.554688 12.976562 20.289062 13.097656 L 20.089844 13.1875 C 19.820312 13.3125 19.597656 13.414062 19.59375 13.417969 C 19.589844 13.417969 19.558594 13.417969 19.53125 13.40625 C 19.507812 13.394531 19.210938 13.324219 18.921875 13.253906 L 18.40625 13.132812 C 18.117188 13.066406 17.785156 13.003906 17.667969 12.992188 C 17.546875 12.980469 17.042969 13.066406 16.757812 13.132812 L 16.203125 13.257812 C 15.914062 13.324219 15.660156 13.382812 15.636719 13.390625 C 15.609375 13.398438 15.542969 13.421875 15.539062 13.421875 C 15.535156 13.417969 15.300781 13.3125 15.03125 13.1875 L 14.835938 13.097656 C 14.566406 12.976562 14.234375 12.867188 14.097656 12.859375 C 13.960938 12.847656 13.609375 13.140625 13.492188 13.289062 C 13.375 13.433594 13.246094 13.65625 13.203125 13.78125 C 13.164062 13.90625 13.390625 14.394531 13.554688 14.640625 L 13.894531 15.140625 C 14.058594 15.386719 14.148438 15.671875 14.09375 15.769531 C 14.039062 15.871094 13.96875 16.050781 13.929688 16.171875 C 13.894531 16.289062 13.9375 16.8125 13.984375 17.105469 L 14.089844 17.726562 C 14.140625 18.019531 14.234375 18.355469 14.296875 18.476562 C 14.363281 18.59375 14.867188 18.804688 15.15625 18.875 L 15.285156 18.90625 C 15.570312 18.980469 15.949219 19.234375 16.121094 19.472656 L 16.351562 19.796875 C 16.527344 20.035156 16.75 20.296875 16.855469 20.378906 C 16.957031 20.460938 17.390625 20.53125 17.5625 20.53125 C 17.734375 20.53125 17.976562 20.5 18.101562 20.464844 C 18.230469 20.429688 18.597656 20.035156 18.769531 19.796875 L 19 19.480469 C 19.171875 19.238281 19.546875 18.984375 19.835938 18.910156 L 19.96875 18.878906 C 20.253906 18.804688 20.582031 18.6875 20.699219 18.613281 C 20.8125 18.542969 20.984375 18.019531 21.03125 17.726562 L 21.136719 17.105469 C 21.1875 16.8125 21.226562 16.472656 21.222656 16.347656 C 21.21875 16.222656 21.082031 15.871094 21.027344 15.769531 C 20.972656 15.667969 21.066406 15.386719 21.230469 15.140625 L 21.570312 14.640625 C 21.734375 14.394531 21.960938 13.90625 21.917969 13.78125 Z M 13.875 14.351562 C 13.726562 14.132812 13.601562 13.9375 13.59375 13.917969 C 13.59375 13.917969 13.59375 13.917969 13.59375 13.898438 C 13.59375 13.867188 13.59375 13.867188 13.59375 13.867188 C 13.605469 13.84375 13.710938 13.699219 13.828125 13.550781 C 13.945312 13.402344 14.058594 13.273438 14.082031 13.261719 C 14.105469 13.25 14.390625 13.363281 14.660156 13.488281 L 14.699219 13.507812 C 14.96875 13.628906 15.1875 13.734375 15.183594 13.742188 C 15.175781 13.75 15.050781 13.984375 14.910156 14.246094 L 14.675781 14.6875 C 14.535156 14.949219 14.023438 14.570312 13.875 14.351562 Z M 20.800781 16.371094 C 20.804688 16.445312 20.765625 16.742188 20.71875 17.035156 L 20.613281 17.65625 C 20.5625 17.949219 20.503906 18.21875 20.484375 18.253906 C 20.460938 18.289062 20.210938 18.378906 20 18.433594 C 19.785156 18.484375 19.617188 18.496094 19.625 18.453125 C 19.632812 18.410156 19.507812 18.109375 19.347656 17.875 C 19.1875 17.644531 19.058594 17.460938 19.058594 17.46875 C 19.058594 17.476562 19.09375 17.667969 19.136719 17.875 C 19.175781 18.082031 19.207031 18.300781 19.203125 18.367188 C 19.199219 18.429688 19.125 18.574219 19.101562 18.609375 C 19.078125 18.640625 18.972656 18.789062 18.863281 18.9375 C 18.757812 19.082031 18.546875 19.378906 18.390625 19.59375 C 18.238281 19.808594 18.074219 20.007812 18.027344 20.042969 C 17.984375 20.078125 17.734375 20.105469 17.5625 20.105469 C 17.390625 20.105469 17.207031 20.089844 17.152344 20.074219 C 17.101562 20.054688 16.886719 19.804688 16.730469 19.589844 C 16.574219 19.375 16.359375 19.078125 16.253906 18.929688 C 16.148438 18.78125 16.042969 18.636719 16.019531 18.605469 C 15.996094 18.574219 15.960938 18.5 15.9375 18.441406 C 15.914062 18.382812 15.945312 18.082031 15.988281 17.875 C 16.027344 17.667969 16.0625 17.492188 16.0625 17.480469 C 16.066406 17.472656 15.933594 17.644531 15.773438 17.875 C 15.613281 18.109375 15.488281 18.332031 15.488281 18.375 C 15.492188 18.417969 15.339844 18.484375 15.125 18.429688 C 14.910156 18.375 14.707031 18.3125 14.671875 18.289062 C 14.640625 18.265625 14.558594 17.949219 14.511719 17.65625 L 14.40625 17.035156 C 14.355469 16.742188 14.316406 16.445312 14.320312 16.371094 C 14.324219 16.300781 14.402344 16.097656 14.441406 16.023438 C 14.480469 15.949219 14.628906 15.675781 14.769531 15.417969 L 15.289062 14.445312 C 15.425781 14.1875 15.574219 13.9375 15.617188 13.890625 C 15.660156 13.847656 15.78125 13.792969 15.785156 13.792969 C 15.789062 13.789062 16.03125 13.734375 16.320312 13.667969 L 16.851562 13.546875 C 17.140625 13.480469 17.445312 13.421875 17.527344 13.414062 C 17.609375 13.40625 18.019531 13.480469 18.308594 13.550781 L 18.804688 13.664062 C 19.09375 13.734375 19.332031 13.789062 19.339844 13.789062 C 19.34375 13.792969 19.390625 13.816406 19.445312 13.847656 C 19.5 13.878906 19.695312 14.1875 19.835938 14.445312 L 20.355469 15.417969 C 20.496094 15.675781 20.640625 15.949219 20.679688 16.023438 C 20.71875 16.097656 20.800781 16.300781 20.800781 16.371094 Z M 21.53125 13.917969 C 21.523438 13.9375 21.394531 14.132812 21.25 14.351562 C 21.101562 14.570312 20.589844 14.949219 20.449219 14.6875 L 20.210938 14.246094 C 20.074219 13.984375 19.953125 13.765625 19.949219 13.757812 C 19.945312 13.75 20.152344 13.628906 20.421875 13.507812 L 20.464844 13.488281 C 20.734375 13.363281 20.980469 13.261719 21.007812 13.261719 C 21.039062 13.261719 21.179688 13.402344 21.296875 13.550781 C 21.414062 13.699219 21.519531 13.84375 21.53125 13.867188 C 21.53125 13.867188 21.53125 13.867188 21.53125 13.898438 C 21.53125 13.917969 21.53125 13.917969 21.53125 13.917969 Z M 21.53125 13.917969 "/>
<path style=" stroke:none;fill-rule:nonzero;fill:url(#linear1);" d="M 16.808594 17.890625 C 16.746094 17.761719 16.8125 17.660156 16.953125 17.660156 L 18.171875 17.660156 C 18.3125 17.660156 18.378906 17.761719 18.3125 17.890625 L 17.675781 18.613281 C 17.613281 18.742188 17.511719 18.742188 17.445312 18.613281 Z M 16.808594 17.890625 "/>
<path style=" stroke:none;fill-rule:nonzero;fill:url(#linear2);" d="M 17.5625 19.441406 C 17.5625 19.441406 17.648438 19.519531 17.753906 19.617188 L 18.167969 19.992188 C 18.273438 20.089844 18.386719 20.097656 18.421875 20.015625 C 18.457031 19.929688 18.390625 19.796875 18.273438 19.714844 L 17.878906 19.449219 C 17.761719 19.367188 17.667969 19.300781 17.667969 19.296875 C 17.667969 19.292969 17.667969 19.167969 17.667969 19.027344 L 17.667969 18.296875 C 17.667969 18.152344 17.648438 17.988281 17.621094 17.929688 C 17.621094 17.929688 17.621094 17.929688 17.5625 17.929688 C 17.503906 17.929688 17.503906 17.929688 17.503906 17.929688 C 17.476562 17.988281 17.457031 18.152344 17.457031 18.296875 L 17.457031 19.027344 C 17.457031 19.167969 17.457031 19.289062 17.457031 19.289062 C 17.457031 19.292969 17.359375 19.367188 17.242188 19.449219 L 16.851562 19.714844 C 16.734375 19.796875 16.667969 19.929688 16.703125 20.015625 C 16.738281 20.097656 16.851562 20.089844 16.957031 19.992188 L 17.371094 19.617188 C 17.476562 19.519531 17.5625 19.441406 17.5625 19.441406 Z M 17.5625 19.441406 "/>
<path style=" stroke:none;fill-rule:nonzero;fill:url(#linear3);" d="M 16.871094 18.398438 C 15.867188 18.664062 15.027344 19.144531 14.210938 19.785156 "/>
<path style=" stroke:none;fill-rule:nonzero;fill:url(#linear4);" d="M 16.863281 18.339844 C 15.890625 18.574219 14.917969 19.078125 14.175781 19.746094 C 14.125 19.792969 14.1875 19.863281 14.242188 19.824219 C 14.648438 19.554688 15.039062 19.269531 15.46875 19.03125 C 15.917969 18.785156 16.394531 18.605469 16.882812 18.460938 C 16.957031 18.4375 16.941406 18.320312 16.863281 18.339844 Z M 16.863281 18.339844 "/>
<path style=" stroke:none;fill-rule:nonzero;fill:url(#linear5);" d="M 16.894531 18.734375 C 16.15625 18.804688 15.410156 19.652344 14.949219 20.207031 "/>
<path style=" stroke:none;fill-rule:nonzero;fill:url(#linear6);" d="M 16.886719 18.683594 C 16.46875 18.714844 16.113281 18.957031 15.800781 19.214844 C 15.46875 19.492188 15.152344 19.824219 14.914062 20.179688 C 14.886719 20.222656 14.941406 20.277344 14.980469 20.242188 C 15.546875 19.683594 16.0625 18.929688 16.90625 18.785156 C 16.96875 18.773438 16.949219 18.679688 16.886719 18.683594 Z M 16.886719 18.683594 "/>
<path style=" stroke:none;fill-rule:nonzero;fill:url(#linear7);" d="M 16.964844 19.070312 C 16.25 19.269531 15.660156 20.234375 15.304688 20.855469 "/>
<path style=" stroke:none;fill-rule:nonzero;fill:url(#linear8);" d="M 16.957031 19.019531 C 16.566406 19.121094 16.269531 19.394531 16.007812 19.691406 C 15.710938 20.03125 15.449219 20.429688 15.261719 20.839844 C 15.242188 20.890625 15.3125 20.925781 15.339844 20.882812 C 15.800781 20.234375 16.1875 19.402344 16.988281 19.117188 C 17.042969 19.097656 17.011719 19.007812 16.957031 19.019531 Z M 16.957031 19.019531 "/>
<path style=" stroke:none;fill-rule:nonzero;fill:url(#linear9);" d="M 18.25 18.398438 C 19.257812 18.664062 20.09375 19.144531 20.914062 19.785156 "/>
<path style=" stroke:none;fill-rule:nonzero;fill:url(#linear10);" d="M 18.230469 18.457031 C 18.71875 18.605469 19.191406 18.785156 19.644531 19.027344 C 20.082031 19.261719 20.472656 19.554688 20.882812 19.828125 C 20.941406 19.867188 20.992188 19.785156 20.945312 19.742188 C 20.207031 19.082031 19.234375 18.574219 18.273438 18.339844 C 18.195312 18.324219 18.152344 18.433594 18.230469 18.457031 Z M 18.230469 18.457031 "/>
<path style=" stroke:none;fill-rule:nonzero;fill:url(#linear11);" d="M 18.226562 18.734375 C 18.96875 18.804688 19.714844 19.652344 20.171875 20.207031 "/>
<path style=" stroke:none;fill-rule:nonzero;fill:url(#linear12);" d="M 18.222656 18.785156 C 19.058594 18.929688 19.574219 19.683594 20.140625 20.238281 C 20.179688 20.277344 20.238281 20.226562 20.207031 20.179688 C 19.964844 19.816406 19.648438 19.496094 19.320312 19.210938 C 19.011719 18.949219 18.644531 18.714844 18.234375 18.683594 C 18.167969 18.679688 18.160156 18.773438 18.222656 18.785156 Z M 18.222656 18.785156 "/>
<path style=" stroke:none;fill-rule:nonzero;fill:url(#linear13);" d="M 18.15625 19.070312 C 18.875 19.269531 19.464844 20.234375 19.820312 20.855469 "/>
<path style=" stroke:none;fill-rule:nonzero;fill:url(#linear14);" d="M 18.140625 19.117188 C 18.9375 19.402344 19.328125 20.238281 19.785156 20.886719 C 19.816406 20.929688 19.878906 20.882812 19.859375 20.839844 C 19.683594 20.441406 19.429688 20.070312 19.152344 19.734375 C 18.894531 19.421875 18.578125 19.125 18.175781 19.023438 C 18.113281 19.007812 18.078125 19.09375 18.140625 19.117188 Z M 18.140625 19.117188 "/>
</g>
<mask id="mask2">
  <g filter="url(#alpha)">
<rect x="0" y="0" width="22" height="22" style="fill:rgb(0%,0%,0%);fill-opacity:0.2;stroke:none;"/>
  </g>
</mask>
<clipPath id="clip3">
  <rect width="22" height="22"/>
</clipPath>
<g id="surface14" clip-path="url(#clip3)">
<path style=" stroke:none;fill-rule:evenodd;fill:rgb(23.529412%,23.529412%,23.529412%);fill-opacity:1;" d="M 13.96875 10.066406 C 13.867188 11.769531 12.457031 13.097656 10.753906 13.097656 C 9.066406 13.097656 7.664062 11.796875 7.539062 10.113281 C 7.535156 10.175781 7.53125 10.242188 7.53125 10.304688 C 7.53125 12.085938 8.972656 13.527344 10.753906 13.527344 C 12.535156 13.527344 13.976562 12.085938 13.976562 10.304688 C 13.976562 10.226562 13.972656 10.144531 13.96875 10.066406 Z M 13.96875 10.066406 "/>
</g>
<clipPath id="clip4">
  <rect width="22" height="22"/>
</clipPath>
<g id="surface17" clip-path="url(#clip4)">
<path style=" stroke:none;fill-rule:evenodd;fill:rgb(29.019608%,70.196078%,89.411765%);fill-opacity:1;" d="M 13.976562 10.089844 C 13.976562 11.871094 12.535156 13.3125 10.753906 13.3125 C 8.972656 13.3125 7.53125 11.871094 7.53125 10.089844 C 7.53125 8.308594 8.972656 6.867188 10.753906 6.867188 C 12.535156 6.867188 13.976562 8.308594 13.976562 10.089844 Z M 13.976562 10.089844 "/>
</g>
</defs>
<g id="surface1">
<use xlink:href="#surface6" mask="url(#mask0)"/>
<path style=" stroke:none;fill-rule:nonzero;fill:rgb(80%,80%,80%);fill-opacity:1;" d="M 7.761719 0.652344 L 6.261719 2.152344 L 6.261719 4.394531 L 0.273438 4.394531 L 0.273438 18.242188 C 0.273438 18.867188 0.777344 19.367188 1.398438 19.367188 L 20.109375 19.367188 C 20.730469 19.367188 21.234375 18.867188 21.234375 18.242188 L 21.234375 4.394531 L 15.246094 4.394531 L 15.246094 2.152344 L 13.746094 0.652344 Z M 7.761719 2.152344 L 13.746094 2.152344 L 13.746094 4.394531 L 7.761719 4.394531 Z M 7.761719 2.152344 "/>
<use xlink:href="#surface10" mask="url(#mask1)"/>
<path style=" stroke:none;fill-rule:nonzero;fill:rgb(100%,79.607843%,3.137255%);fill-opacity:1;" d="M 14.042969 12.707031 L 13.355469 13.601562 L 14.371094 15.1875 L 15.386719 13.242188 Z M 14.042969 12.707031 "/>
<path style=" stroke:none;fill-rule:nonzero;fill:rgb(100%,79.607843%,3.137255%);fill-opacity:1;" d="M 21.09375 12.707031 L 21.78125 13.601562 L 20.765625 15.1875 L 19.75 13.242188 Z M 21.09375 12.707031 "/>
<path style=" stroke:none;fill-rule:nonzero;fill:rgb(100%,79.607843%,3.137255%);fill-opacity:1;" d="M 20.671875 15.65625 L 19.625 13.667969 C 19.585938 13.59375 19.464844 13.5 19.386719 13.480469 L 19.367188 13.476562 L 17.792969 13.101562 C 17.6875 13.074219 17.488281 13.074219 17.378906 13.101562 L 15.769531 13.476562 L 15.75 13.480469 C 15.671875 13.5 15.550781 13.59375 15.511719 13.667969 L 14.464844 15.65625 L 14.320312 15.929688 C 14.277344 16.015625 14.25 16.191406 14.265625 16.289062 L 14.554688 18.035156 C 14.566406 18.09375 14.636719 18.171875 14.691406 18.1875 L 15.484375 18.386719 C 15.464844 18.308594 15.644531 18.226562 15.644531 18.152344 L 16.046875 17.273438 C 16.046875 17.289062 16.042969 17.304688 16.042969 17.320312 L 15.890625 18.101562 C 15.875 18.1875 15.90625 18.339844 15.957031 18.410156 L 16.039062 18.527344 L 16.433594 19.082031 L 17.011719 19.898438 C 17.054688 19.960938 17.175781 20.023438 17.253906 20.023438 L 17.886719 20.023438 C 17.960938 20.023438 18.082031 19.960938 18.125 19.898438 L 18.699219 19.089844 L 19.09375 18.535156 L 19.179688 18.410156 C 19.230469 18.339844 19.261719 18.1875 19.246094 18.101562 L 19.09375 17.320312 C 19.09375 17.304688 19.089844 17.289062 19.089844 17.273438 L 19.492188 18.152344 C 19.492188 18.230469 19.671875 18.3125 19.652344 18.390625 L 20.445312 18.1875 C 20.5 18.171875 20.574219 18.09375 20.582031 18.035156 L 20.871094 16.289062 C 20.890625 16.191406 20.859375 16.015625 20.816406 15.929688 Z M 20.671875 15.65625 "/>
<path style=" stroke:none;fill-rule:nonzero;fill:rgb(17.254902%,17.254902%,17.254902%);fill-opacity:1;" d="M 21.925781 13.453125 C 21.882812 13.332031 21.753906 13.109375 21.636719 12.960938 C 21.519531 12.8125 21.328125 12.636719 21.210938 12.570312 C 21.09375 12.503906 20.5625 12.648438 20.292969 12.773438 L 20.097656 12.863281 C 19.828125 12.984375 19.605469 13.085938 19.601562 13.089844 C 19.597656 13.09375 19.5625 13.089844 19.539062 13.078125 C 19.515625 13.070312 19.214844 12.996094 18.925781 12.929688 L 18.410156 12.808594 C 18.125 12.742188 17.792969 12.675781 17.671875 12.664062 C 17.554688 12.652344 17.050781 12.738281 16.761719 12.804688 L 16.210938 12.929688 C 15.921875 12.996094 15.667969 13.058594 15.640625 13.066406 C 15.617188 13.070312 15.550781 13.097656 15.546875 13.09375 C 15.539062 13.089844 15.308594 12.984375 15.039062 12.863281 L 14.84375 12.773438 C 14.574219 12.648438 14.242188 12.539062 14.105469 12.53125 C 13.96875 12.519531 13.617188 12.8125 13.5 12.960938 C 13.382812 13.109375 13.253906 13.332031 13.210938 13.453125 C 13.167969 13.578125 13.394531 14.066406 13.5625 14.3125 L 13.898438 14.8125 C 14.066406 15.058594 14.15625 15.34375 14.101562 15.445312 C 14.046875 15.546875 13.972656 15.726562 13.9375 15.84375 C 13.902344 15.964844 13.941406 16.488281 13.992188 16.777344 L 14.097656 17.402344 C 14.148438 17.691406 14.238281 18.027344 14.304688 18.148438 C 14.367188 18.265625 14.875 18.476562 15.164062 18.550781 L 15.292969 18.582031 C 15.578125 18.652344 15.953125 18.90625 16.128906 19.148438 L 16.359375 19.46875 C 16.53125 19.707031 16.757812 19.972656 16.863281 20.054688 C 16.964844 20.136719 17.398438 20.203125 17.570312 20.203125 C 17.738281 20.203125 17.984375 20.175781 18.109375 20.136719 C 18.234375 20.101562 18.605469 19.707031 18.777344 19.46875 L 19.003906 19.152344 C 19.179688 18.914062 19.554688 18.65625 19.839844 18.585938 L 19.976562 18.550781 C 20.261719 18.480469 20.589844 18.359375 20.703125 18.289062 C 20.816406 18.214844 20.988281 17.691406 21.039062 17.402344 L 21.144531 16.777344 C 21.195312 16.484375 21.230469 16.144531 21.230469 16.019531 C 21.226562 15.898438 21.089844 15.546875 21.035156 15.445312 C 20.980469 15.34375 21.070312 15.058594 21.238281 14.8125 L 21.574219 14.3125 C 21.742188 14.066406 21.96875 13.578125 21.925781 13.453125 Z M 13.882812 14.023438 C 13.734375 13.808594 13.605469 13.613281 13.597656 13.59375 C 13.597656 13.59375 13.597656 13.59375 13.597656 13.570312 C 13.597656 13.542969 13.597656 13.542969 13.597656 13.542969 C 13.609375 13.515625 13.714844 13.375 13.835938 13.226562 C 13.953125 13.078125 14.066406 12.945312 14.089844 12.9375 C 14.113281 12.925781 14.398438 13.039062 14.664062 13.160156 L 14.707031 13.179688 C 14.976562 13.300781 15.191406 13.410156 15.1875 13.417969 C 15.183594 13.425781 15.058594 13.65625 14.917969 13.917969 L 14.679688 14.359375 C 14.542969 14.621094 14.027344 14.242188 13.882812 14.023438 Z M 20.808594 16.046875 C 20.8125 16.117188 20.773438 16.414062 20.726562 16.707031 L 20.617188 17.328125 C 20.570312 17.621094 20.511719 17.890625 20.488281 17.925781 C 20.46875 17.964844 20.21875 18.050781 20.003906 18.105469 C 19.789062 18.160156 19.621094 18.167969 19.632812 18.125 C 19.640625 18.082031 19.515625 17.78125 19.355469 17.546875 C 19.195312 17.316406 19.066406 17.132812 19.066406 17.140625 C 19.066406 17.148438 19.101562 17.339844 19.140625 17.546875 C 19.183594 17.753906 19.214844 17.976562 19.207031 18.039062 C 19.203125 18.101562 19.132812 18.25 19.109375 18.28125 C 19.085938 18.3125 18.976562 18.460938 18.871094 18.609375 C 18.765625 18.757812 18.550781 19.050781 18.398438 19.265625 C 18.242188 19.480469 18.082031 19.683594 18.035156 19.714844 C 17.988281 19.75 17.738281 19.777344 17.570312 19.777344 C 17.398438 19.777344 17.214844 19.761719 17.160156 19.746094 C 17.105469 19.730469 16.890625 19.480469 16.738281 19.261719 C 16.582031 19.046875 16.367188 18.75 16.261719 18.601562 C 16.152344 18.457031 16.050781 18.308594 16.027344 18.277344 C 16.003906 18.246094 15.96875 18.171875 15.945312 18.113281 C 15.921875 18.054688 15.953125 17.753906 15.996094 17.546875 C 16.035156 17.339844 16.070312 17.164062 16.070312 17.15625 C 16.070312 17.148438 15.941406 17.316406 15.78125 17.546875 C 15.621094 17.78125 15.492188 18.007812 15.496094 18.046875 C 15.5 18.089844 15.34375 18.15625 15.132812 18.101562 C 14.917969 18.050781 14.714844 17.984375 14.679688 17.960938 C 14.644531 17.9375 14.566406 17.621094 14.519531 17.328125 L 14.414062 16.707031 C 14.363281 16.414062 14.324219 16.117188 14.328125 16.046875 C 14.332031 15.972656 14.410156 15.769531 14.449219 15.695312 C 14.488281 15.625 14.636719 15.351562 14.773438 15.089844 L 15.292969 14.121094 C 15.433594 13.859375 15.582031 13.609375 15.625 13.566406 C 15.667969 13.519531 15.785156 13.464844 15.792969 13.464844 C 15.796875 13.464844 16.039062 13.40625 16.324219 13.34375 L 16.859375 13.21875 C 17.148438 13.152344 17.449219 13.09375 17.535156 13.085938 C 17.617188 13.082031 18.027344 13.15625 18.316406 13.222656 L 18.8125 13.339844 C 19.101562 13.40625 19.339844 13.460938 19.34375 13.464844 C 19.351562 13.464844 19.398438 13.492188 19.453125 13.519531 C 19.507812 13.550781 19.703125 13.859375 19.84375 14.121094 L 20.363281 15.089844 C 20.5 15.351562 20.648438 15.625 20.6875 15.695312 C 20.726562 15.769531 20.804688 15.972656 20.808594 16.046875 Z M 21.539062 13.59375 C 21.53125 13.613281 21.402344 13.808594 21.257812 14.023438 C 21.109375 14.242188 20.59375 14.621094 20.457031 14.359375 L 20.21875 13.917969 C 20.078125 13.65625 19.960938 13.4375 19.957031 13.429688 C 19.953125 13.421875 20.160156 13.300781 20.429688 13.179688 L 20.472656 13.160156 C 20.738281 13.039062 20.984375 12.9375 21.015625 12.933594 C 21.046875 12.933594 21.183594 13.078125 21.304688 13.226562 C 21.421875 13.375 21.527344 13.515625 21.539062 13.542969 C 21.539062 13.542969 21.539062 13.542969 21.539062 13.570312 C 21.539062 13.59375 21.539062 13.59375 21.539062 13.59375 Z M 21.539062 13.59375 "/>
<path style=" stroke:none;fill-rule:nonzero;fill:rgb(17.254902%,17.254902%,17.254902%);fill-opacity:1;" d="M 16.816406 17.5625 C 16.753906 17.4375 16.816406 17.332031 16.960938 17.332031 L 18.175781 17.332031 C 18.320312 17.332031 18.382812 17.4375 18.320312 17.5625 L 17.683594 18.285156 C 17.621094 18.414062 17.515625 18.414062 17.453125 18.285156 Z M 16.816406 17.5625 "/>
<path style=" stroke:none;fill-rule:nonzero;fill:rgb(17.254902%,17.254902%,17.254902%);fill-opacity:1;" d="M 17.570312 19.113281 C 17.570312 19.113281 17.65625 19.191406 17.757812 19.289062 L 18.171875 19.667969 C 18.277344 19.761719 18.394531 19.773438 18.429688 19.6875 C 18.464844 19.601562 18.394531 19.46875 18.277344 19.386719 L 17.886719 19.121094 C 17.769531 19.042969 17.671875 18.972656 17.675781 18.96875 C 17.675781 18.964844 17.675781 18.839844 17.675781 18.699219 L 17.675781 17.96875 C 17.675781 17.828125 17.652344 17.664062 17.628906 17.605469 C 17.628906 17.605469 17.628906 17.605469 17.570312 17.605469 C 17.507812 17.605469 17.507812 17.605469 17.507812 17.605469 C 17.484375 17.664062 17.460938 17.828125 17.460938 17.96875 L 17.460938 18.699219 C 17.460938 18.839844 17.460938 18.960938 17.460938 18.964844 C 17.460938 18.96875 17.367188 19.042969 17.25 19.121094 L 16.859375 19.386719 C 16.742188 19.46875 16.671875 19.601562 16.707031 19.6875 C 16.746094 19.773438 16.859375 19.761719 16.964844 19.667969 L 17.378906 19.289062 C 17.484375 19.191406 17.570312 19.113281 17.570312 19.113281 Z M 17.570312 19.113281 "/>
<path style=" stroke:none;fill-rule:nonzero;fill:rgb(17.254902%,17.254902%,17.254902%);fill-opacity:1;" d="M 15.304688 15.648438 C 15.152344 15.652344 15.148438 15.675781 15.300781 15.695312 L 16.570312 15.878906 C 16.722656 15.898438 16.835938 16.042969 16.820312 16.195312 L 16.65625 16.761719 C 16.644531 16.914062 16.691406 17.042969 16.765625 17.046875 C 16.835938 17.050781 16.894531 17.050781 16.898438 17.046875 C 16.898438 17.039062 16.902344 16.910156 16.910156 16.757812 L 17.042969 16.222656 C 17.046875 16.070312 17.058594 15.867188 17.0625 15.773438 C 17.066406 15.679688 17.023438 15.601562 16.972656 15.601562 C 16.917969 15.605469 16.75 15.609375 16.597656 15.613281 Z M 15.304688 15.648438 "/>
<path style=" stroke:none;fill-rule:nonzero;fill:rgb(17.254902%,17.254902%,17.254902%);fill-opacity:1;" d="M 18.539062 15.613281 C 18.386719 15.609375 18.21875 15.605469 18.164062 15.601562 C 18.113281 15.601562 18.070312 15.679688 18.074219 15.773438 C 18.078125 15.867188 18.089844 16.070312 18.09375 16.226562 L 18.226562 16.757812 C 18.234375 16.910156 18.238281 17.039062 18.242188 17.046875 C 18.242188 17.050781 18.300781 17.050781 18.371094 17.046875 C 18.445312 17.042969 18.492188 16.914062 18.480469 16.761719 L 18.316406 16.195312 C 18.304688 16.042969 18.414062 15.898438 18.566406 15.878906 L 19.835938 15.695312 C 19.988281 15.675781 19.984375 15.652344 19.832031 15.648438 Z M 18.539062 15.613281 "/>
<path style=" stroke:none;fill-rule:nonzero;fill:rgb(17.254902%,17.254902%,17.254902%);fill-opacity:1;" d="M 16.445312 15.839844 C 16.445312 15.9375 16.367188 16.015625 16.269531 16.015625 C 16.171875 16.015625 16.09375 15.9375 16.09375 15.839844 C 16.09375 15.746094 16.171875 15.664062 16.269531 15.664062 C 16.367188 15.664062 16.445312 15.746094 16.445312 15.839844 Z M 16.445312 15.839844 "/>
<path style=" stroke:none;fill-rule:nonzero;fill:rgb(17.254902%,17.254902%,17.254902%);fill-opacity:1;" d="M 19.042969 15.839844 C 19.042969 15.9375 18.964844 16.019531 18.867188 16.019531 C 18.769531 16.019531 18.691406 15.9375 18.691406 15.839844 C 18.691406 15.742188 18.769531 15.664062 18.867188 15.664062 C 18.964844 15.664062 19.042969 15.742188 19.042969 15.839844 Z M 19.042969 15.839844 "/>
<path style=" stroke:none;fill-rule:nonzero;fill:rgb(17.254902%,17.254902%,17.254902%);fill-opacity:1;" d="M 16.878906 18.070312 C 15.871094 18.339844 15.035156 18.820312 14.214844 19.460938 "/>
<path style=" stroke:none;fill-rule:nonzero;fill:rgb(17.254902%,17.254902%,17.254902%);fill-opacity:1;" d="M 16.867188 18.011719 C 15.898438 18.246094 14.925781 18.753906 14.183594 19.417969 C 14.128906 19.464844 14.195312 19.535156 14.25 19.5 C 14.65625 19.226562 15.046875 18.941406 15.476562 18.707031 C 15.925781 18.457031 16.398438 18.28125 16.890625 18.132812 C 16.964844 18.109375 16.949219 17.992188 16.867188 18.011719 Z M 16.867188 18.011719 "/>
<path style=" stroke:none;fill-rule:nonzero;fill:rgb(17.254902%,17.254902%,17.254902%);fill-opacity:1;" d="M 16.902344 18.40625 C 16.164062 18.480469 15.414062 19.328125 14.957031 19.878906 "/>
<path style=" stroke:none;fill-rule:nonzero;fill:rgb(17.254902%,17.254902%,17.254902%);fill-opacity:1;" d="M 16.894531 18.355469 C 16.476562 18.390625 16.121094 18.628906 15.808594 18.890625 C 15.476562 19.164062 15.160156 19.496094 14.921875 19.855469 C 14.890625 19.894531 14.949219 19.953125 14.984375 19.914062 C 15.554688 19.359375 16.070312 18.601562 16.910156 18.457031 C 16.976562 18.445312 16.957031 18.351562 16.894531 18.355469 Z M 16.894531 18.355469 "/>
<path style=" stroke:none;fill-rule:nonzero;fill:rgb(17.254902%,17.254902%,17.254902%);fill-opacity:1;" d="M 16.972656 18.742188 C 16.257812 18.941406 15.667969 19.90625 15.3125 20.53125 "/>
<path style=" stroke:none;fill-rule:nonzero;fill:rgb(17.254902%,17.254902%,17.254902%);fill-opacity:1;" d="M 16.964844 18.695312 C 16.570312 18.792969 16.277344 19.066406 16.015625 19.363281 C 15.714844 19.703125 15.453125 20.101562 15.269531 20.515625 C 15.246094 20.5625 15.320312 20.597656 15.347656 20.554688 C 15.808594 19.910156 16.191406 19.074219 16.996094 18.789062 C 17.046875 18.769531 17.019531 18.679688 16.964844 18.695312 Z M 16.964844 18.695312 "/>
<path style=" stroke:none;fill-rule:nonzero;fill:rgb(17.254902%,17.254902%,17.254902%);fill-opacity:1;" d="M 18.257812 18.070312 C 19.265625 18.339844 20.101562 18.820312 20.921875 19.460938 "/>
<path style=" stroke:none;fill-rule:nonzero;fill:rgb(17.254902%,17.254902%,17.254902%);fill-opacity:1;" d="M 18.238281 18.128906 C 18.726562 18.277344 19.199219 18.457031 19.652344 18.699219 C 20.089844 18.933594 20.480469 19.226562 20.890625 19.503906 C 20.949219 19.539062 21 19.460938 20.949219 19.417969 C 20.210938 18.753906 19.242188 18.246094 18.28125 18.015625 C 18.203125 17.996094 18.160156 18.105469 18.238281 18.128906 Z M 18.238281 18.128906 "/>
<path style=" stroke:none;fill-rule:nonzero;fill:rgb(17.254902%,17.254902%,17.254902%);fill-opacity:1;" d="M 18.234375 18.40625 C 18.972656 18.480469 19.722656 19.328125 20.179688 19.878906 "/>
<path style=" stroke:none;fill-rule:nonzero;fill:rgb(17.254902%,17.254902%,17.254902%);fill-opacity:1;" d="M 18.230469 18.457031 C 19.066406 18.601562 19.582031 19.355469 20.144531 19.910156 C 20.1875 19.949219 20.246094 19.898438 20.214844 19.851562 C 19.972656 19.488281 19.65625 19.167969 19.324219 18.886719 C 19.015625 18.621094 18.652344 18.386719 18.238281 18.355469 C 18.171875 18.351562 18.167969 18.445312 18.230469 18.457031 Z M 18.230469 18.457031 "/>
<path style=" stroke:none;fill-rule:nonzero;fill:rgb(17.254902%,17.254902%,17.254902%);fill-opacity:1;" d="M 18.164062 18.742188 C 18.878906 18.941406 19.46875 19.90625 19.828125 20.53125 "/>
<path style=" stroke:none;fill-rule:nonzero;fill:rgb(17.254902%,17.254902%,17.254902%);fill-opacity:1;" d="M 18.144531 18.789062 C 18.945312 19.078125 19.335938 19.914062 19.792969 20.558594 C 19.824219 20.601562 19.886719 20.554688 19.867188 20.511719 C 19.6875 20.113281 19.4375 19.742188 19.160156 19.410156 C 18.902344 19.09375 18.582031 18.796875 18.179688 18.695312 C 18.121094 18.679688 18.082031 18.769531 18.144531 18.789062 Z M 18.144531 18.789062 "/>
<path style=" stroke:none;fill-rule:nonzero;fill:rgb(17.254902%,17.254902%,17.254902%);fill-opacity:1;" d="M 16.1875 13.929688 C 16.1875 13.734375 16.058594 13.574219 15.902344 13.574219 C 15.746094 13.574219 15.617188 13.734375 15.617188 13.929688 C 15.617188 14.128906 15.746094 14.285156 15.902344 14.285156 C 16.058594 14.285156 16.1875 14.128906 16.1875 13.929688 Z M 16.1875 13.929688 "/>
<path style=" stroke:none;fill-rule:nonzero;fill:rgb(17.254902%,17.254902%,17.254902%);fill-opacity:1;" d="M 15.800781 14.613281 C 15.800781 14.746094 15.695312 14.851562 15.566406 14.851562 C 15.433594 14.851562 15.328125 14.746094 15.328125 14.613281 C 15.328125 14.484375 15.433594 14.378906 15.566406 14.378906 C 15.695312 14.378906 15.800781 14.484375 15.800781 14.613281 Z M 15.800781 14.613281 "/>
<path style=" stroke:none;fill-rule:nonzero;fill:rgb(17.254902%,17.254902%,17.254902%);fill-opacity:1;" d="M 16.882812 13.839844 C 16.835938 13.992188 16.734375 14.09375 16.660156 14.070312 C 16.585938 14.046875 16.5625 13.90625 16.613281 13.753906 C 16.660156 13.605469 16.757812 13.503906 16.832031 13.527344 C 16.90625 13.550781 16.929688 13.691406 16.882812 13.839844 Z M 16.882812 13.839844 "/>
<path style=" stroke:none;fill-rule:nonzero;fill:rgb(17.254902%,17.254902%,17.254902%);fill-opacity:1;" d="M 16.523438 14.6875 C 16.523438 14.765625 16.449219 14.828125 16.359375 14.828125 C 16.265625 14.828125 16.191406 14.765625 16.191406 14.6875 C 16.191406 14.609375 16.265625 14.546875 16.359375 14.546875 C 16.449219 14.546875 16.523438 14.609375 16.523438 14.6875 Z M 16.523438 14.6875 "/>
<path style=" stroke:none;fill-rule:nonzero;fill:rgb(17.254902%,17.254902%,17.254902%);fill-opacity:1;" d="M 20.023438 17.402344 C 19.964844 17.519531 20.011719 17.664062 20.128906 17.722656 C 20.246094 17.78125 20.390625 17.734375 20.449219 17.617188 C 20.507812 17.496094 20.457031 17.355469 20.34375 17.296875 C 20.226562 17.238281 20.082031 17.285156 20.023438 17.402344 Z M 20.023438 17.402344 "/>
<path style=" stroke:none;fill-rule:nonzero;fill:rgb(17.254902%,17.254902%,17.254902%);fill-opacity:1;" d="M 20.078125 16.796875 C 20.054688 16.953125 20.097656 17.089844 20.175781 17.101562 C 20.253906 17.113281 20.335938 16.996094 20.359375 16.839844 C 20.386719 16.6875 20.339844 16.550781 20.265625 16.539062 C 20.1875 16.527344 20.105469 16.640625 20.078125 16.796875 Z M 20.078125 16.796875 "/>
<path style=" stroke:none;fill-rule:nonzero;fill:rgb(17.254902%,17.254902%,17.254902%);fill-opacity:1;" d="M 19.644531 17.160156 C 19.609375 17.230469 19.644531 17.320312 19.726562 17.359375 C 19.808594 17.402344 19.90625 17.378906 19.941406 17.308594 C 19.976562 17.238281 19.9375 17.144531 19.855469 17.105469 C 19.773438 17.0625 19.679688 17.089844 19.644531 17.160156 Z M 19.644531 17.160156 "/>
<path style=" stroke:none;fill-rule:nonzero;fill:rgb(17.254902%,17.254902%,17.254902%);fill-opacity:1;" d="M 4.757812 13.222656 C 4.714844 13.273438 4.796875 13.253906 4.871094 13.238281 L 4.882812 13.136719 Z M 4.757812 13.222656 "/>
<path style=" stroke:none;fill-rule:nonzero;fill:rgb(17.254902%,17.254902%,17.254902%);fill-opacity:1;" d="M 5.066406 13.058594 L 5.171875 12.890625 L 5.089844 12.992188 C 4.945312 13.03125 5.054688 12.914062 5.09375 12.867188 C 4.90625 13.011719 5.074219 12.996094 5.066406 13.058594 Z M 5.066406 13.058594 "/>
<path style=" stroke:none;fill-rule:nonzero;fill:rgb(17.254902%,17.254902%,17.254902%);fill-opacity:1;" d="M 5.328125 12.816406 C 5.425781 12.761719 5.371094 12.734375 5.324219 12.742188 C 5.328125 12.769531 5.28125 12.832031 5.328125 12.816406 Z M 5.328125 12.816406 "/>
<path style=" stroke:none;fill-rule:nonzero;fill:rgb(17.254902%,17.254902%,17.254902%);fill-opacity:1;" d="M 11.6875 9.808594 C 11.652344 9.808594 11.617188 9.816406 11.617188 9.800781 C 11.585938 9.832031 11.585938 9.847656 11.6875 9.808594 Z M 11.6875 9.808594 "/>
<path style=" stroke:none;fill-rule:nonzero;fill:rgb(17.254902%,17.254902%,17.254902%);fill-opacity:1;" d="M 11.617188 9.800781 L 11.628906 9.789062 C 11.625 9.792969 11.625 9.796875 11.609375 9.796875 C 11.613281 9.796875 11.617188 9.800781 11.617188 9.800781 Z M 11.617188 9.800781 "/>
<path style=" stroke:none;fill-rule:nonzero;fill:rgb(17.254902%,17.254902%,17.254902%);fill-opacity:1;" d="M 9.253906 10.15625 C 9.15625 10.25 9.078125 10.257812 8.976562 10.324219 L 8.882812 10.292969 C 8.773438 10.371094 8.855469 10.367188 8.785156 10.441406 C 8.65625 10.457031 8.449219 10.609375 8.394531 10.632812 C 8.347656 10.625 8.421875 10.570312 8.429688 10.546875 C 8.300781 10.640625 8.339844 10.6875 8.171875 10.78125 L 8.164062 10.765625 C 7.800781 11.066406 7.277344 11.316406 6.859375 11.617188 C 6.890625 11.601562 6.890625 11.621094 6.910156 11.625 C 6.453125 11.90625 5.917969 12.222656 5.640625 12.578125 C 5.878906 12.410156 6.351562 12.257812 6.550781 12.007812 C 6.667969 12 6.78125 11.855469 6.851562 11.890625 C 7.234375 11.710938 7.324219 11.519531 7.683594 11.328125 C 7.742188 11.3125 7.730469 11.351562 7.761719 11.371094 L 7.492188 11.550781 L 7.675781 11.480469 C 7.613281 11.546875 7.425781 11.625 7.433594 11.691406 C 7.640625 11.488281 8.0625 11.335938 8.242188 11.140625 C 8.132812 11.179688 8.015625 11.265625 7.890625 11.324219 C 7.828125 11.332031 7.738281 11.363281 7.730469 11.332031 C 8.027344 11.0625 8.335938 10.953125 8.679688 10.746094 C 8.761719 10.695312 8.886719 10.636719 8.917969 10.652344 C 8.863281 10.691406 8.921875 10.691406 8.878906 10.730469 C 8.992188 10.644531 8.839844 10.621094 9.03125 10.542969 L 9.054688 10.652344 C 9.082031 10.511719 9.292969 10.5625 9.394531 10.4375 C 9.460938 10.453125 9.386719 10.519531 9.285156 10.570312 C 9.40625 10.53125 9.390625 10.46875 9.484375 10.425781 L 9.4375 10.554688 C 9.496094 10.421875 9.617188 10.484375 9.6875 10.484375 C 9.683594 10.460938 9.605469 10.421875 9.726562 10.367188 C 9.789062 10.351562 9.765625 10.386719 9.789062 10.394531 C 9.785156 10.371094 9.8125 10.3125 9.890625 10.277344 C 9.917969 10.296875 9.855469 10.34375 9.863281 10.375 C 9.925781 10.34375 9.972656 10.3125 10.03125 10.316406 C 10.128906 10.242188 10.003906 10.277344 10.058594 10.21875 C 10.234375 10.160156 10.121094 10.3125 10.210938 10.339844 C 10.105469 10.4375 9.953125 10.523438 9.894531 10.578125 L 10.117188 10.445312 C 10.117188 10.484375 10.304688 10.421875 10.195312 10.519531 C 10.449219 10.4375 10.71875 10.269531 10.9375 10.140625 C 10.898438 10.144531 10.855469 10.15625 10.851562 10.128906 C 10.964844 10.058594 10.96875 10.105469 11 10.121094 C 11.078125 10.054688 11.042969 10.003906 11.078125 9.9375 C 11.285156 9.90625 11.292969 9.863281 11.484375 9.871094 L 11.449219 9.824219 C 11.582031 9.824219 11.558594 9.726562 11.695312 9.714844 C 11.703125 9.726562 11.664062 9.757812 11.632812 9.789062 C 11.734375 9.726562 11.75 9.796875 11.84375 9.730469 L 11.789062 9.832031 C 11.871094 9.796875 11.980469 9.726562 11.960938 9.796875 C 12.074219 9.667969 12.34375 9.597656 12.507812 9.492188 L 12.515625 9.546875 C 12.585938 9.449219 12.863281 9.414062 12.914062 9.3125 L 12.9375 9.324219 L 13.097656 9.1875 C 13.183594 9.164062 13.183594 9.25 13.183594 9.226562 C 13.363281 9.144531 13.507812 9.089844 13.640625 9.074219 C 13.644531 8.996094 13.839844 8.910156 13.992188 8.847656 C 14.769531 8.636719 15.570312 8.328125 16.28125 8.074219 C 16.390625 8.039062 16.519531 7.925781 16.644531 7.855469 C 16.46875 7.882812 16.46875 7.921875 16.300781 7.960938 C 16.171875 7.96875 16.109375 7.910156 15.992188 7.890625 L 16.058594 7.933594 C 15.90625 8.027344 15.9375 7.929688 15.816406 8.027344 L 15.796875 7.925781 C 15.761719 7.992188 15.632812 7.984375 15.582031 7.96875 L 15.550781 8.046875 C 15.441406 8.039062 15.367188 8.042969 15.316406 7.992188 L 15.34375 8.050781 C 15.296875 8.023438 14.9375 8.167969 15.039062 8.03125 C 15.007812 8.054688 14.992188 8.09375 14.925781 8.105469 L 14.894531 8.042969 C 14.804688 8.085938 14.707031 8.136719 14.664062 8.109375 C 14.707031 8.074219 14.71875 8.042969 14.730469 8.011719 C 14.320312 8.125 14.703125 8.234375 14.347656 8.351562 L 14.339844 8.3125 L 14.265625 8.382812 L 14.15625 8.363281 C 14.074219 8.539062 13.652344 8.511719 13.460938 8.65625 C 13.386719 8.695312 13.246094 8.65625 13.089844 8.722656 L 13.121094 8.777344 C 12.972656 8.765625 12.480469 8.894531 12.3125 8.808594 C 12.210938 8.902344 12.324219 8.816406 12.34375 8.867188 C 12.136719 9.019531 12.082031 8.933594 11.949219 8.945312 C 11.8125 9.027344 12.066406 8.921875 12.007812 9 C 11.769531 9.039062 11.859375 9.140625 11.578125 9.214844 C 11.539062 9.191406 11.636719 9.167969 11.65625 9.132812 C 11.488281 9.273438 11.121094 9.375 10.851562 9.511719 C 10.511719 9.609375 10.039062 9.804688 9.644531 9.929688 L 9.648438 9.953125 C 9.46875 9.96875 9.332031 10.101562 9.136719 10.164062 Z M 9.253906 10.15625 "/>
<path style=" stroke:none;fill-rule:nonzero;fill:rgb(17.254902%,17.254902%,17.254902%);fill-opacity:1;" d="M 7.390625 11.796875 L 7.445312 11.828125 L 7.585938 11.707031 C 7.5 11.707031 7.480469 11.757812 7.390625 11.796875 Z M 7.390625 11.796875 "/>
<path style=" stroke:none;fill-rule:nonzero;fill:rgb(17.254902%,17.254902%,17.254902%);fill-opacity:1;" d="M 7.402344 11.625 L 7.347656 11.636719 L 7.269531 11.703125 Z M 7.402344 11.625 "/>
<path style=" stroke:none;fill-rule:nonzero;fill:rgb(17.254902%,17.254902%,17.254902%);fill-opacity:1;" d="M 9.140625 10.832031 L 9.460938 10.632812 L 9.433594 10.636719 Z M 9.140625 10.832031 "/>
<path style=" stroke:none;fill-rule:nonzero;fill:rgb(17.254902%,17.254902%,17.254902%);fill-opacity:1;" d="M 11.695312 9.867188 C 11.664062 9.910156 11.613281 9.914062 11.582031 9.949219 L 11.722656 9.867188 Z M 11.695312 9.867188 "/>
<path style=" stroke:none;fill-rule:nonzero;fill:rgb(17.254902%,17.254902%,17.254902%);fill-opacity:1;" d="M 13.238281 9.503906 C 13.261719 9.390625 13.347656 9.464844 13.242188 9.40625 C 13.164062 9.453125 13.253906 9.464844 13.238281 9.503906 Z M 13.238281 9.503906 "/>
<path style=" stroke:none;fill-rule:nonzero;fill:rgb(17.254902%,17.254902%,17.254902%);fill-opacity:1;" d="M 13.535156 9.242188 C 13.480469 9.253906 13.460938 9.28125 13.433594 9.304688 C 13.515625 9.324219 13.5 9.273438 13.535156 9.242188 Z M 13.535156 9.242188 "/>
<use xlink:href="#surface14" mask="url(#mask2)"/>
<use xlink:href="#surface17"/>
<path style=" stroke:none;fill-rule:nonzero;fill:rgb(100%,100%,100%);fill-opacity:1;" d="M 11.398438 8.15625 L 11.398438 9.875 L 12.042969 9.875 L 10.753906 11.59375 L 9.464844 9.875 L 10.109375 9.875 L 10.109375 8.15625 Z M 9.25 11.59375 L 12.257812 11.59375 L 12.257812 12.023438 L 9.25 12.023438 Z M 9.25 11.59375 "/>
<path style=" stroke:none;fill-rule:nonzero;fill:rgb(17.254902%,17.254902%,17.254902%);fill-opacity:1;" d="M 3.554688 11.300781 C 3.515625 11.347656 3.597656 11.332031 3.667969 11.3125 L 3.679688 11.214844 Z M 3.554688 11.300781 "/>
<path style=" stroke:none;fill-rule:nonzero;fill:rgb(17.254902%,17.254902%,17.254902%);fill-opacity:1;" d="M 3.851562 11.140625 L 3.953125 10.984375 L 3.871094 11.085938 C 3.734375 11.121094 3.839844 11.003906 3.875 10.964844 C 3.695312 11.09375 3.855469 11.085938 3.851562 11.140625 Z M 3.851562 11.140625 "/>
<path style=" stroke:none;fill-rule:nonzero;fill:rgb(17.254902%,17.254902%,17.254902%);fill-opacity:1;" d="M 4.097656 10.910156 C 4.195312 10.863281 4.140625 10.832031 4.09375 10.839844 C 4.097656 10.867188 4.054688 10.925781 4.097656 10.910156 Z M 4.097656 10.910156 "/>
<path style=" stroke:none;fill-rule:nonzero;fill:rgb(17.254902%,17.254902%,17.254902%);fill-opacity:1;" d="M 10.21875 8.117188 C 10.1875 8.121094 10.148438 8.128906 10.148438 8.113281 C 10.121094 8.136719 10.117188 8.152344 10.21875 8.117188 Z M 10.21875 8.117188 "/>
<path style=" stroke:none;fill-rule:nonzero;fill:rgb(17.254902%,17.254902%,17.254902%);fill-opacity:1;" d="M 10.148438 8.113281 L 10.160156 8.097656 C 10.15625 8.101562 10.152344 8.105469 10.148438 8.109375 C 10.148438 8.105469 10.148438 8.113281 10.148438 8.113281 Z M 10.148438 8.113281 "/>
<path style=" stroke:none;fill-rule:nonzero;fill:rgb(17.254902%,17.254902%,17.254902%);fill-opacity:1;" d="M 7.878906 8.429688 C 7.785156 8.519531 7.714844 8.523438 7.617188 8.589844 L 7.535156 8.558594 C 7.433594 8.632812 7.507812 8.632812 7.4375 8.703125 C 7.320312 8.714844 7.117188 8.855469 7.066406 8.878906 C 7.019531 8.867188 7.089844 8.816406 7.097656 8.796875 C 6.976562 8.882812 7.011719 8.933594 6.847656 9.015625 L 6.835938 9 C 6.484375 9.28125 5.980469 9.507812 5.574219 9.789062 C 5.605469 9.777344 5.605469 9.792969 5.621094 9.796875 C 5.175781 10.054688 4.660156 10.351562 4.390625 10.691406 C 4.625 10.539062 5.082031 10.398438 5.269531 10.164062 C 5.382812 10.15625 5.492188 10.019531 5.5625 10.058594 C 5.933594 9.890625 6.023438 9.714844 6.367188 9.535156 C 6.421875 9.519531 6.410156 9.5625 6.441406 9.582031 L 6.183594 9.75 L 6.359375 9.6875 C 6.296875 9.75 6.113281 9.820312 6.121094 9.882812 C 6.328125 9.699219 6.734375 9.554688 6.902344 9.378906 C 6.796875 9.414062 6.683594 9.488281 6.5625 9.546875 C 6.503906 9.550781 6.417969 9.578125 6.40625 9.546875 C 6.699219 9.292969 6.996094 9.199219 7.324219 9.007812 C 7.40625 8.960938 7.527344 8.90625 7.558594 8.929688 C 7.507812 8.96875 7.5625 8.96875 7.519531 9.003906 C 7.628906 8.921875 7.480469 8.894531 7.664062 8.824219 L 7.691406 8.933594 C 7.710938 8.796875 7.910156 8.847656 8.011719 8.730469 C 8.074219 8.75 8.003906 8.8125 7.910156 8.859375 C 8.023438 8.824219 8.011719 8.761719 8.09375 8.722656 L 8.054688 8.847656 C 8.109375 8.722656 8.226562 8.785156 8.292969 8.785156 C 8.289062 8.761719 8.210938 8.71875 8.328125 8.671875 C 8.386719 8.664062 8.367188 8.695312 8.386719 8.699219 C 8.386719 8.675781 8.410156 8.621094 8.488281 8.582031 C 8.515625 8.605469 8.457031 8.648438 8.460938 8.679688 C 8.523438 8.652344 8.566406 8.621094 8.617188 8.625 C 8.714844 8.554688 8.59375 8.585938 8.644531 8.523438 C 8.8125 8.476562 8.703125 8.621094 8.789062 8.652344 C 8.683594 8.746094 8.542969 8.828125 8.492188 8.882812 L 8.703125 8.753906 C 8.703125 8.792969 8.882812 8.742188 8.777344 8.828125 C 9.023438 8.757812 9.28125 8.589844 9.488281 8.46875 C 9.453125 8.472656 9.414062 8.480469 9.410156 8.457031 C 9.515625 8.386719 9.519531 8.433594 9.554688 8.445312 C 9.628906 8.382812 9.59375 8.332031 9.625 8.265625 C 9.820312 8.234375 9.832031 8.195312 10.011719 8.199219 L 9.976562 8.144531 C 10.105469 8.144531 10.078125 8.046875 10.210938 8.03125 C 10.222656 8.039062 10.1875 8.074219 10.152344 8.105469 C 10.246094 8.039062 10.265625 8.113281 10.355469 8.042969 L 10.308594 8.144531 C 10.386719 8.105469 10.488281 8.035156 10.476562 8.109375 C 10.582031 7.976562 10.832031 7.898438 10.988281 7.785156 L 10.996094 7.84375 C 11.058594 7.742188 11.324219 7.707031 11.367188 7.597656 L 11.394531 7.609375 L 11.539062 7.464844 C 11.617188 7.4375 11.621094 7.527344 11.621094 7.5 C 11.792969 7.410156 11.925781 7.351562 12.050781 7.332031 C 12.050781 7.253906 12.226562 7.160156 12.371094 7.089844 C 13.097656 6.847656 13.847656 6.515625 14.515625 6.246094 C 14.617188 6.21875 14.738281 6.101562 14.859375 6.035156 C 14.695312 6.058594 14.691406 6.097656 14.535156 6.136719 C 14.414062 6.148438 14.351562 6.09375 14.234375 6.070312 L 14.300781 6.117188 C 14.15625 6.210938 14.1875 6.117188 14.078125 6.210938 L 14.050781 6.113281 C 14.019531 6.175781 13.898438 6.167969 13.847656 6.160156 L 13.824219 6.238281 C 13.714844 6.234375 13.644531 6.238281 13.59375 6.1875 L 13.621094 6.246094 C 13.570312 6.21875 13.242188 6.382812 13.328125 6.242188 C 13.304688 6.265625 13.289062 6.304688 13.222656 6.316406 L 13.191406 6.261719 C 13.105469 6.308594 13.011719 6.355469 12.972656 6.332031 C 13.015625 6.300781 13.019531 6.269531 13.03125 6.234375 C 12.648438 6.363281 13.019531 6.457031 12.6875 6.585938 L 12.679688 6.546875 L 12.609375 6.621094 L 12.5 6.609375 C 12.429688 6.785156 12.03125 6.78125 11.863281 6.929688 C 11.789062 6.972656 11.65625 6.9375 11.507812 7.007812 L 11.546875 7.0625 C 11.398438 7.054688 10.945312 7.207031 10.773438 7.121094 C 10.679688 7.21875 10.785156 7.128906 10.808594 7.179688 C 10.621094 7.335938 10.5625 7.25 10.433594 7.269531 C 10.3125 7.363281 10.542969 7.246094 10.492188 7.320312 C 10.269531 7.367188 10.359375 7.464844 10.09375 7.539062 C 10.054688 7.519531 10.148438 7.488281 10.164062 7.453125 C 10.015625 7.59375 9.671875 7.707031 9.414062 7.835938 C 9.066406 7.953125 8.6875 8.078125 8.265625 8.222656 L 8.269531 8.25 C 8.097656 8.261719 7.964844 8.386719 7.785156 8.445312 Z M 7.878906 8.429688 "/>
<path style=" stroke:none;fill-rule:nonzero;fill:rgb(17.254902%,17.254902%,17.254902%);fill-opacity:1;" d="M 6.085938 9.984375 L 6.136719 10.019531 L 6.273438 9.90625 C 6.195312 9.894531 6.183594 9.949219 6.085938 9.984375 Z M 6.085938 9.984375 "/>
<path style=" stroke:none;fill-rule:nonzero;fill:rgb(17.254902%,17.254902%,17.254902%);fill-opacity:1;" d="M 6.109375 9.808594 L 6.042969 9.816406 L 5.972656 9.882812 Z M 6.109375 9.808594 "/>
<path style=" stroke:none;fill-rule:nonzero;fill:rgb(17.254902%,17.254902%,17.254902%);fill-opacity:1;" d="M 7.777344 9.097656 L 8.085938 8.90625 L 8.058594 8.90625 Z M 7.777344 9.097656 "/>
<path style=" stroke:none;fill-rule:nonzero;fill:rgb(17.254902%,17.254902%,17.254902%);fill-opacity:1;" d="M 10.226562 8.171875 C 10.203125 8.214844 10.148438 8.226562 10.121094 8.257812 L 10.253906 8.164062 Z M 10.226562 8.171875 "/>
<path style=" stroke:none;fill-rule:nonzero;fill:rgb(17.254902%,17.254902%,17.254902%);fill-opacity:1;" d="M 11.691406 7.761719 C 11.707031 7.648438 11.800781 7.71875 11.691406 7.667969 C 11.617188 7.714844 11.703125 7.71875 11.691406 7.761719 Z M 11.691406 7.761719 "/>
<path style=" stroke:none;fill-rule:nonzero;fill:rgb(17.254902%,17.254902%,17.254902%);fill-opacity:1;" d="M 11.957031 7.492188 C 11.910156 7.515625 11.886719 7.535156 11.863281 7.5625 C 11.949219 7.570312 11.925781 7.527344 11.957031 7.492188 Z M 11.957031 7.492188 "/>
<path style=" stroke:none;fill-rule:nonzero;fill:rgb(17.254902%,17.254902%,17.254902%);fill-opacity:1;" d="M 5.878906 15.078125 C 5.847656 15.125 5.925781 15.105469 5.988281 15.085938 L 5.984375 14.984375 Z M 5.878906 15.078125 "/>
<path style=" stroke:none;fill-rule:nonzero;fill:rgb(17.254902%,17.254902%,17.254902%);fill-opacity:1;" d="M 6.136719 14.902344 L 6.214844 14.738281 L 6.144531 14.835938 C 6.015625 14.878906 6.105469 14.757812 6.136719 14.71875 C 5.976562 14.859375 6.136719 14.839844 6.136719 14.902344 Z M 6.136719 14.902344 "/>
<path style=" stroke:none;fill-rule:nonzero;fill:rgb(17.254902%,17.254902%,17.254902%);fill-opacity:1;" d="M 6.347656 14.664062 C 6.433594 14.609375 6.378906 14.582031 6.339844 14.59375 C 6.34375 14.613281 6.304688 14.675781 6.347656 14.664062 Z M 6.347656 14.664062 "/>
<path style=" stroke:none;fill-rule:nonzero;fill:rgb(17.254902%,17.254902%,17.254902%);fill-opacity:1;" d="M 12.074219 12.113281 C 12.042969 12.113281 12.011719 12.117188 12.007812 12.105469 C 11.988281 12.132812 11.988281 12.148438 12.074219 12.113281 Z M 12.074219 12.113281 "/>
<path style=" stroke:none;fill-rule:nonzero;fill:rgb(17.254902%,17.254902%,17.254902%);fill-opacity:1;" d="M 12.007812 12.105469 L 12.023438 12.089844 C 12.019531 12.09375 12.015625 12.09375 12.007812 12.101562 C 12.003906 12.101562 12.007812 12.105469 12.007812 12.105469 Z M 12.007812 12.105469 "/>
<path style=" stroke:none;fill-rule:nonzero;fill:rgb(17.254902%,17.254902%,17.254902%);fill-opacity:1;" d="M 9.898438 12.386719 C 9.816406 12.46875 9.75 12.472656 9.65625 12.53125 L 9.574219 12.496094 C 9.476562 12.5625 9.550781 12.566406 9.492188 12.632812 C 9.378906 12.636719 9.1875 12.765625 9.140625 12.78125 C 9.097656 12.769531 9.164062 12.726562 9.171875 12.703125 C 9.058594 12.777344 9.09375 12.835938 8.9375 12.90625 L 8.925781 12.890625 C 8.589844 13.140625 8.109375 13.332031 7.722656 13.585938 C 7.75 13.578125 7.75 13.589844 7.765625 13.597656 C 7.339844 13.832031 6.851562 14.109375 6.613281 14.445312 C 6.824219 14.289062 7.253906 14.164062 7.433594 13.941406 C 7.539062 13.9375 7.644531 13.804688 7.710938 13.847656 C 8.0625 13.707031 8.144531 13.539062 8.476562 13.386719 C 8.527344 13.375 8.519531 13.417969 8.546875 13.433594 L 8.300781 13.582031 L 8.46875 13.539062 C 8.414062 13.597656 8.238281 13.652344 8.25 13.714844 C 8.445312 13.542969 8.832031 13.433594 8.992188 13.265625 C 8.894531 13.292969 8.785156 13.359375 8.671875 13.40625 C 8.613281 13.410156 8.535156 13.433594 8.523438 13.398438 C 8.800781 13.175781 9.085938 13.097656 9.398438 12.929688 C 9.476562 12.886719 9.589844 12.847656 9.613281 12.867188 C 9.570312 12.902344 9.613281 12.90625 9.578125 12.941406 C 9.683594 12.867188 9.542969 12.832031 9.714844 12.769531 L 9.742188 12.878906 C 9.761719 12.742188 9.953125 12.808594 10.046875 12.691406 C 10.105469 12.710938 10.039062 12.769531 9.945312 12.808594 C 10.054688 12.78125 10.042969 12.71875 10.121094 12.683594 L 10.082031 12.804688 C 10.132812 12.683594 10.25 12.746094 10.308594 12.753906 C 10.304688 12.730469 10.230469 12.6875 10.339844 12.640625 C 10.390625 12.628906 10.378906 12.664062 10.398438 12.667969 C 10.394531 12.644531 10.414062 12.589844 10.484375 12.554688 C 10.511719 12.578125 10.453125 12.621094 10.460938 12.648438 C 10.519531 12.621094 10.558594 12.589844 10.605469 12.597656 C 10.6875 12.527344 10.578125 12.558594 10.621094 12.5 C 10.777344 12.449219 10.683594 12.589844 10.765625 12.625 C 10.671875 12.722656 10.539062 12.804688 10.488281 12.851562 L 10.691406 12.726562 C 10.695312 12.765625 10.863281 12.714844 10.765625 12.800781 C 10.992188 12.730469 11.226562 12.5625 11.417969 12.441406 C 11.382812 12.445312 11.34375 12.453125 11.339844 12.433594 C 11.4375 12.363281 11.441406 12.40625 11.480469 12.425781 C 11.546875 12.367188 11.511719 12.3125 11.539062 12.25 C 11.722656 12.222656 11.730469 12.183594 11.898438 12.1875 L 11.863281 12.132812 C 11.980469 12.132812 11.957031 12.039062 12.074219 12.027344 C 12.085938 12.035156 12.050781 12.070312 12.03125 12.097656 C 12.113281 12.035156 12.136719 12.109375 12.214844 12.039062 L 12.175781 12.140625 C 12.246094 12.105469 12.34375 12.039062 12.328125 12.109375 C 12.429688 11.988281 12.65625 11.910156 12.800781 11.804688 L 12.808594 11.859375 C 12.867188 11.761719 13.113281 11.730469 13.152344 11.628906 L 13.171875 11.640625 L 13.308594 11.503906 C 13.386719 11.476562 13.390625 11.5625 13.386719 11.539062 C 13.542969 11.457031 13.671875 11.398438 13.789062 11.378906 C 13.785156 11.300781 13.949219 11.203125 14.082031 11.136719 C 14.753906 10.894531 15.4375 10.515625 16 10.148438 C 16.085938 10.101562 16.179688 9.96875 16.273438 9.878906 C 16.128906 9.929688 16.132812 9.972656 15.996094 10.035156 C 15.886719 10.066406 15.816406 10.015625 15.710938 10.015625 L 15.78125 10.050781 C 15.667969 10.160156 15.671875 10.0625 15.59375 10.167969 L 15.554688 10.074219 C 15.542969 10.136719 15.425781 10.144531 15.375 10.140625 L 15.371094 10.21875 C 15.265625 10.222656 15.203125 10.234375 15.152344 10.191406 L 15.1875 10.246094 C 15.136719 10.226562 14.855469 10.402344 14.910156 10.257812 C 14.890625 10.28125 14.882812 10.324219 14.824219 10.339844 L 14.789062 10.28125 C 14.714844 10.332031 14.636719 10.386719 14.59375 10.359375 C 14.628906 10.328125 14.632812 10.292969 14.636719 10.261719 C 14.292969 10.402344 14.644531 10.480469 14.347656 10.617188 L 14.339844 10.578125 L 14.277344 10.652344 L 14.175781 10.644531 C 14.125 10.820312 13.75 10.816406 13.59375 10.960938 C 13.527344 11.003906 13.394531 10.96875 13.269531 11.035156 L 13.304688 11.089844 C 13.167969 11.082031 12.742188 11.222656 12.582031 11.128906 C 12.5 11.222656 12.59375 11.136719 12.617188 11.1875 C 12.4375 11.335938 12.382812 11.25 12.265625 11.265625 C 12.15625 11.34375 12.371094 11.242188 12.324219 11.320312 C 12.113281 11.363281 12.207031 11.457031 11.949219 11.527344 C 11.910156 11.503906 11.996094 11.480469 12.015625 11.449219 C 11.878906 11.582031 11.550781 11.6875 11.3125 11.8125 C 11.007812 11.902344 10.597656 12.09375 10.253906 12.191406 L 10.257812 12.21875 C 10.105469 12.222656 9.980469 12.34375 9.8125 12.386719 Z M 9.898438 12.386719 "/>
<path style=" stroke:none;fill-rule:nonzero;fill:rgb(17.254902%,17.254902%,17.254902%);fill-opacity:1;" d="M 8.199219 13.800781 L 8.246094 13.839844 L 8.378906 13.734375 C 8.300781 13.726562 8.285156 13.777344 8.199219 13.800781 Z M 8.199219 13.800781 "/>
<path style=" stroke:none;fill-rule:nonzero;fill:rgb(17.254902%,17.254902%,17.254902%);fill-opacity:1;" d="M 8.160156 13.644531 L 8.09375 13.699219 L 8.214844 13.640625 Z M 8.160156 13.644531 "/>
<path style=" stroke:none;fill-rule:nonzero;fill:rgb(17.254902%,17.254902%,17.254902%);fill-opacity:1;" d="M 10.09375 12.867188 L 10.074219 12.871094 L 9.804688 13.035156 Z M 10.09375 12.867188 "/>
<path style=" stroke:none;fill-rule:nonzero;fill:rgb(17.254902%,17.254902%,17.254902%);fill-opacity:1;" d="M 12.085938 12.167969 C 12.066406 12.207031 12.015625 12.21875 11.988281 12.25 L 12.105469 12.164062 Z M 12.085938 12.167969 "/>
<path style=" stroke:none;fill-rule:nonzero;fill:rgb(17.254902%,17.254902%,17.254902%);fill-opacity:1;" d="M 13.460938 11.796875 C 13.472656 11.6875 13.566406 11.753906 13.460938 11.703125 C 13.386719 11.753906 13.472656 11.757812 13.460938 11.796875 Z M 13.460938 11.796875 "/>
<path style=" stroke:none;fill-rule:nonzero;fill:rgb(17.254902%,17.254902%,17.254902%);fill-opacity:1;" d="M 13.707031 11.539062 C 13.660156 11.554688 13.640625 11.582031 13.621094 11.605469 C 13.695312 11.617188 13.683594 11.570312 13.707031 11.539062 Z M 13.707031 11.539062 "/>
</g>
</svg>
