<?xml version="1.0" encoding="UTF-8"?>
<svg xmlns="http://www.w3.org/2000/svg" xmlns:xlink="http://www.w3.org/1999/xlink" width="22pt" height="22pt" viewBox="0 0 22 22" version="1.1">
<defs>
<filter id="alpha" filterUnits="objectBoundingBox" x="0%" y="0%" width="100%" height="100%">
  <feColorMatrix type="matrix" in="SourceGraphic" values="0 0 0 0 1 0 0 0 0 1 0 0 0 0 1 0 0 0 1 0"/>
</filter>
<mask id="mask0">
  <g filter="url(#alpha)">
<rect x="0" y="0" width="22" height="22" style="fill:rgb(0%,0%,0%);fill-opacity:0.2;stroke:none;"/>
  </g>
</mask>
<clipPath id="clip1">
  <rect width="22" height="22"/>
</clipPath>
<g id="surface6" clip-path="url(#clip1)">
<path style=" stroke:none;fill-rule:nonzero;fill:rgb(0%,0%,0%);fill-opacity:1;" d="M 1.609375 8.445312 L 20.390625 8.445312 C 20.898438 8.445312 21.3125 8.859375 21.3125 9.367188 L 21.3125 20.046875 C 21.3125 20.554688 20.898438 20.96875 20.390625 20.96875 L 1.609375 20.96875 C 1.101562 20.96875 0.6875 20.554688 0.6875 20.046875 L 0.6875 9.367188 C 0.6875 8.859375 1.101562 8.445312 1.609375 8.445312 Z M 1.609375 8.445312 "/>
</g>
<mask id="mask1">
  <g filter="url(#alpha)">
<rect x="0" y="0" width="22" height="22" style="fill:rgb(0%,0%,0%);fill-opacity:0.501961;stroke:none;"/>
  </g>
</mask>
<clipPath id="clip2">
  <rect width="22" height="22"/>
</clipPath>
<g id="surface9" clip-path="url(#clip2)">
<path style=" stroke:none;fill-rule:nonzero;fill:rgb(0%,0%,0%);fill-opacity:1;" d="M 5.105469 4.394531 L 8.789062 4.394531 L 8.789062 6.605469 L 5.105469 6.605469 Z M 5.105469 4.394531 "/>
</g>
<mask id="mask2">
  <g filter="url(#alpha)">
<rect x="0" y="0" width="22" height="22" style="fill:rgb(0%,0%,0%);fill-opacity:0.501961;stroke:none;"/>
  </g>
</mask>
<clipPath id="clip3">
  <rect width="22" height="22"/>
</clipPath>
<g id="surface12" clip-path="url(#clip3)">
<path style=" stroke:none;fill-rule:nonzero;fill:rgb(0%,0%,0%);fill-opacity:1;" d="M 13.210938 4.394531 L 16.894531 4.394531 L 16.894531 6.605469 L 13.210938 6.605469 Z M 13.210938 4.394531 "/>
</g>
<mask id="mask3">
  <g filter="url(#alpha)">
<rect x="0" y="0" width="22" height="22" style="fill:rgb(0%,0%,0%);fill-opacity:0.2;stroke:none;"/>
  </g>
</mask>
<clipPath id="clip4">
  <rect width="22" height="22"/>
</clipPath>
<g id="surface15" clip-path="url(#clip4)">
<path style=" stroke:none;fill-rule:nonzero;fill:rgb(100%,100%,100%);fill-opacity:1;" d="M 3.632812 1.449219 L 3.632812 1.816406 L 18.367188 1.816406 L 18.367188 1.449219 Z M 3.632812 1.449219 "/>
</g>
</defs>
<g id="surface1">
<use xlink:href="#surface6" mask="url(#mask0)"/>
<path style=" stroke:none;fill-rule:nonzero;fill:rgb(71.764706%,71.764706%,71.764706%);fill-opacity:1;" d="M 3.632812 1.449219 L 18.367188 1.449219 L 18.367188 8.816406 L 3.632812 8.816406 Z M 3.632812 1.449219 "/>
<path style=" stroke:none;fill-rule:nonzero;fill:rgb(35.686275%,35.686275%,35.686275%);fill-opacity:1;" d="M 1.609375 8.078125 L 20.390625 8.078125 C 20.898438 8.078125 21.3125 8.492188 21.3125 9 L 21.3125 19.679688 C 21.3125 20.1875 20.898438 20.601562 20.390625 20.601562 L 1.609375 20.601562 C 1.101562 20.601562 0.6875 20.1875 0.6875 19.679688 L 0.6875 9 C 0.6875 8.492188 1.101562 8.078125 1.609375 8.078125 Z M 1.609375 8.078125 "/>
<use xlink:href="#surface9" mask="url(#mask1)"/>
<use xlink:href="#surface12" mask="url(#mask2)"/>
<use xlink:href="#surface15" mask="url(#mask3)"/>
<path style=" stroke:none;fill-rule:nonzero;fill:rgb(100%,79.607843%,3.137255%);fill-opacity:1;" d="M 8.523438 14.851562 C 8.523438 15.285156 8.375 15.644531 8.078125 15.941406 C 7.769531 16.25 7.410156 16.398438 6.976562 16.398438 C 6.976562 16.398438 6.667969 16.398438 6.667969 16.398438 C 6.457031 16.398438 6.359375 16.496094 6.359375 16.707031 C 6.359375 16.707031 6.359375 17.945312 6.359375 17.945312 C 6.359375 18.117188 6.296875 18.265625 6.1875 18.375 C 6.0625 18.5 5.914062 18.5625 5.742188 18.5625 C 5.742188 18.5625 5.429688 18.5625 5.429688 18.5625 C 5.257812 18.5625 5.109375 18.5 5 18.375 C 4.875 18.265625 4.8125 18.117188 4.8125 17.945312 C 4.8125 17.945312 4.8125 10.832031 4.8125 10.832031 C 4.8125 10.398438 4.960938 10.039062 5.269531 9.730469 C 5.566406 9.433594 5.925781 9.285156 6.359375 9.285156 C 6.359375 9.285156 6.976562 9.285156 6.976562 9.285156 C 7.410156 9.285156 7.769531 9.433594 8.078125 9.730469 C 8.375 10.039062 8.523438 10.398438 8.523438 10.832031 C 8.523438 10.832031 8.523438 14.851562 8.523438 14.851562 Z M 6.976562 14.542969 C 6.976562 14.542969 6.976562 11.140625 6.976562 11.140625 C 6.976562 10.929688 6.878906 10.832031 6.667969 10.832031 C 6.457031 10.832031 6.359375 10.929688 6.359375 11.140625 C 6.359375 11.140625 6.359375 14.542969 6.359375 14.542969 C 6.359375 14.753906 6.457031 14.851562 6.667969 14.851562 C 6.878906 14.851562 6.976562 14.753906 6.976562 14.542969 Z M 6.976562 14.542969 "/>
<path style=" stroke:none;fill-rule:nonzero;fill:rgb(100%,79.607843%,3.137255%);fill-opacity:1;" d="M 10.683594 17.945312 C 10.683594 18.117188 10.621094 18.265625 10.511719 18.375 C 10.386719 18.5 10.238281 18.5625 10.066406 18.5625 C 10.066406 18.5625 9.753906 18.5625 9.753906 18.5625 C 9.582031 18.5625 9.433594 18.5 9.324219 18.375 C 9.199219 18.265625 9.136719 18.117188 9.136719 17.945312 C 9.136719 17.945312 9.136719 9.902344 9.136719 9.902344 C 9.136719 9.730469 9.199219 9.582031 9.324219 9.457031 C 9.433594 9.347656 9.582031 9.285156 9.753906 9.285156 C 9.753906 9.285156 10.066406 9.285156 10.066406 9.285156 C 10.238281 9.285156 10.386719 9.347656 10.511719 9.457031 C 10.621094 9.582031 10.683594 9.730469 10.683594 9.902344 C 10.683594 9.902344 10.683594 17.945312 10.683594 17.945312 Z M 10.683594 17.945312 "/>
<path style=" stroke:none;fill-rule:nonzero;fill:rgb(100%,79.607843%,3.137255%);fill-opacity:1;" d="M 17.1875 17.015625 C 17.1875 17.449219 17.039062 17.808594 16.742188 18.105469 C 16.433594 18.414062 16.074219 18.5625 15.640625 18.5625 C 15.640625 18.5625 15.023438 18.5625 15.023438 18.5625 C 14.738281 18.5625 14.492188 18.488281 14.253906 18.351562 C 14.019531 18.488281 13.761719 18.5625 13.476562 18.5625 C 13.476562 18.5625 12.859375 18.5625 12.859375 18.5625 C 12.425781 18.5625 12.066406 18.414062 11.769531 18.105469 C 11.460938 17.808594 11.3125 17.449219 11.3125 17.015625 C 11.3125 17.015625 11.3125 9.902344 11.3125 9.902344 C 11.3125 9.730469 11.375 9.582031 11.496094 9.457031 C 11.609375 9.347656 11.757812 9.285156 11.929688 9.285156 C 11.929688 9.285156 12.238281 9.285156 12.238281 9.285156 C 12.414062 9.285156 12.5625 9.347656 12.683594 9.457031 C 12.796875 9.582031 12.859375 9.730469 12.859375 9.902344 C 12.859375 9.902344 12.859375 16.707031 12.859375 16.707031 C 12.859375 16.917969 12.957031 17.015625 13.167969 17.015625 C 13.378906 17.015625 13.476562 16.917969 13.476562 16.707031 C 13.476562 16.707031 13.476562 9.902344 13.476562 9.902344 C 13.476562 9.730469 13.539062 9.582031 13.660156 9.457031 C 13.773438 9.347656 13.921875 9.285156 14.09375 9.285156 C 14.09375 9.285156 14.402344 9.285156 14.402344 9.285156 C 14.578125 9.285156 14.726562 9.347656 14.847656 9.457031 C 14.960938 9.582031 15.023438 9.730469 15.023438 9.902344 C 15.023438 9.902344 15.023438 16.707031 15.023438 16.707031 C 15.023438 16.917969 15.121094 17.015625 15.332031 17.015625 C 15.542969 17.015625 15.640625 16.917969 15.640625 16.707031 C 15.640625 16.707031 15.640625 9.902344 15.640625 9.902344 C 15.640625 9.730469 15.703125 9.582031 15.828125 9.457031 C 15.9375 9.347656 16.085938 9.285156 16.257812 9.285156 C 16.257812 9.285156 16.570312 9.285156 16.570312 9.285156 C 16.742188 9.285156 16.890625 9.347656 17.015625 9.457031 C 17.125 9.582031 17.1875 9.730469 17.1875 9.902344 C 17.1875 9.902344 17.1875 17.015625 17.1875 17.015625 Z M 17.1875 17.015625 "/>
</g>
</svg>
