<?xml version="1.0" encoding="UTF-8"?>
<svg xmlns="http://www.w3.org/2000/svg" xmlns:xlink="http://www.w3.org/1999/xlink" width="32pt" height="32pt" viewBox="0 0 32 32" version="1.1">
<defs>
<filter id="alpha" filterUnits="objectBoundingBox" x="0%" y="0%" width="100%" height="100%">
  <feColorMatrix type="matrix" in="SourceGraphic" values="0 0 0 0 1 0 0 0 0 1 0 0 0 0 1 0 0 0 1 0"/>
</filter>
<mask id="mask0">
  <g filter="url(#alpha)">
<rect x="0" y="0" width="32" height="32" style="fill:rgb(0%,0%,0%);fill-opacity:0.2;stroke:none;"/>
  </g>
</mask>
<clipPath id="clip1">
  <rect width="32" height="32"/>
</clipPath>
<g id="surface6" clip-path="url(#clip1)">
<path style=" stroke:none;fill-rule:nonzero;fill:rgb(0%,0%,0%);fill-opacity:1;" d="M 11.285156 2.585938 L 11.285156 3.671875 L 19.996094 3.671875 L 19.996094 2.585938 Z M 0.398438 25.992188 L 0.398438 27.082031 C 0.398438 27.984375 1.128906 28.714844 2.03125 28.714844 L 29.25 28.714844 C 30.15625 28.714844 30.882812 27.984375 30.882812 27.082031 L 30.882812 25.992188 C 30.882812 26.898438 30.15625 27.625 29.25 27.625 L 2.03125 27.625 C 1.128906 27.625 0.398438 26.898438 0.398438 25.992188 Z M 0.398438 25.992188 "/>
</g>
<mask id="mask1">
  <g filter="url(#alpha)">
<rect x="0" y="0" width="32" height="32" style="fill:rgb(0%,0%,0%);fill-opacity:0.2;stroke:none;"/>
  </g>
</mask>
<linearGradient id="linear0" gradientUnits="userSpaceOnUse" x1="-114.20316" y1="4.069152" x2="-113.81965" y2="-44.637321" gradientTransform="matrix(0.126919,0,0,0.126922,40.009155,30.514918)">
<stop offset="0" style="stop-color:rgb(0%,0%,0%);stop-opacity:1;"/>
<stop offset="1" style="stop-color:rgb(0%,0%,0%);stop-opacity:0;"/>
</linearGradient>
<linearGradient id="linear1" gradientUnits="userSpaceOnUse" x1="-114.20316" y1="4.069152" x2="-113.81965" y2="-44.637321" gradientTransform="matrix(0.126919,0,0,0.126922,40.009155,30.514918)">
<stop offset="0" style="stop-color:rgb(0%,0%,0%);stop-opacity:1;"/>
<stop offset="1" style="stop-color:rgb(0%,0%,0%);stop-opacity:0;"/>
</linearGradient>
<linearGradient id="linear2" gradientUnits="userSpaceOnUse" x1="-114.20316" y1="4.069152" x2="-113.81965" y2="-44.637321" gradientTransform="matrix(0.126919,0,0,0.126922,40.009155,30.514918)">
<stop offset="0" style="stop-color:rgb(0%,0%,0%);stop-opacity:1;"/>
<stop offset="1" style="stop-color:rgb(0%,0%,0%);stop-opacity:0;"/>
</linearGradient>
<linearGradient id="linear3" gradientUnits="userSpaceOnUse" x1="-114.20316" y1="4.069152" x2="-113.81965" y2="-44.637321" gradientTransform="matrix(0.0644425,0,0,0.064444,6.340625,7.465628)">
<stop offset="0" style="stop-color:rgb(0%,0%,0%);stop-opacity:1;"/>
<stop offset="1" style="stop-color:rgb(0%,0%,0%);stop-opacity:0;"/>
</linearGradient>
<linearGradient id="linear4" gradientUnits="userSpaceOnUse" x1="-114.20316" y1="4.069152" x2="-113.81965" y2="-44.637321" gradientTransform="matrix(0.0644425,0,0,0.064444,6.340625,7.465628)">
<stop offset="0" style="stop-color:rgb(0%,0%,0%);stop-opacity:1;"/>
<stop offset="1" style="stop-color:rgb(0%,0%,0%);stop-opacity:0;"/>
</linearGradient>
<linearGradient id="linear5" gradientUnits="userSpaceOnUse" x1="-114.20316" y1="4.069152" x2="-113.81965" y2="-44.637321" gradientTransform="matrix(0.0644425,0,0,0.064444,6.340625,7.465628)">
<stop offset="0" style="stop-color:rgb(0%,0%,0%);stop-opacity:1;"/>
<stop offset="1" style="stop-color:rgb(0%,0%,0%);stop-opacity:0;"/>
</linearGradient>
<linearGradient id="linear6" gradientUnits="userSpaceOnUse" x1="-114.20316" y1="4.069152" x2="-113.81965" y2="-44.637321" gradientTransform="matrix(0.0644425,0,0,0.064444,6.340625,7.465628)">
<stop offset="0" style="stop-color:rgb(0%,0%,0%);stop-opacity:1;"/>
<stop offset="1" style="stop-color:rgb(0%,0%,0%);stop-opacity:0;"/>
</linearGradient>
<linearGradient id="linear7" gradientUnits="userSpaceOnUse" x1="-114.20316" y1="4.069152" x2="-113.81965" y2="-44.637321" gradientTransform="matrix(0.0644425,0,0,0.064444,6.340625,7.465628)">
<stop offset="0" style="stop-color:rgb(0%,0%,0%);stop-opacity:1;"/>
<stop offset="1" style="stop-color:rgb(0%,0%,0%);stop-opacity:0;"/>
</linearGradient>
<linearGradient id="linear8" gradientUnits="userSpaceOnUse" x1="-114.20316" y1="4.069152" x2="-113.81965" y2="-44.637321" gradientTransform="matrix(0.0644425,0,0,0.064444,6.340625,7.465628)">
<stop offset="0" style="stop-color:rgb(0%,0%,0%);stop-opacity:1;"/>
<stop offset="1" style="stop-color:rgb(0%,0%,0%);stop-opacity:0;"/>
</linearGradient>
<linearGradient id="linear9" gradientUnits="userSpaceOnUse" x1="-114.20316" y1="4.069152" x2="-113.81965" y2="-44.637321" gradientTransform="matrix(0.0644425,0,0,0.064444,6.340625,7.465628)">
<stop offset="0" style="stop-color:rgb(0%,0%,0%);stop-opacity:1;"/>
<stop offset="1" style="stop-color:rgb(0%,0%,0%);stop-opacity:0;"/>
</linearGradient>
<linearGradient id="linear10" gradientUnits="userSpaceOnUse" x1="-114.20316" y1="4.069152" x2="-113.81965" y2="-44.637321" gradientTransform="matrix(0.0644425,0,0,0.064444,6.340625,7.465628)">
<stop offset="0" style="stop-color:rgb(0%,0%,0%);stop-opacity:1;"/>
<stop offset="1" style="stop-color:rgb(0%,0%,0%);stop-opacity:0;"/>
</linearGradient>
<linearGradient id="linear11" gradientUnits="userSpaceOnUse" x1="-114.20316" y1="4.069152" x2="-113.81965" y2="-44.637321" gradientTransform="matrix(0.0644425,0,0,0.064444,6.340625,7.465628)">
<stop offset="0" style="stop-color:rgb(0%,0%,0%);stop-opacity:1;"/>
<stop offset="1" style="stop-color:rgb(0%,0%,0%);stop-opacity:0;"/>
</linearGradient>
<linearGradient id="linear12" gradientUnits="userSpaceOnUse" x1="-114.20316" y1="4.069152" x2="-113.81965" y2="-44.637321" gradientTransform="matrix(0.0644425,0,0,0.064444,6.340625,7.465628)">
<stop offset="0" style="stop-color:rgb(0%,0%,0%);stop-opacity:1;"/>
<stop offset="1" style="stop-color:rgb(0%,0%,0%);stop-opacity:0;"/>
</linearGradient>
<linearGradient id="linear13" gradientUnits="userSpaceOnUse" x1="-114.20316" y1="4.069152" x2="-113.81965" y2="-44.637321" gradientTransform="matrix(0.0644425,0,0,0.064444,6.340625,7.465628)">
<stop offset="0" style="stop-color:rgb(0%,0%,0%);stop-opacity:1;"/>
<stop offset="1" style="stop-color:rgb(0%,0%,0%);stop-opacity:0;"/>
</linearGradient>
<linearGradient id="linear14" gradientUnits="userSpaceOnUse" x1="-114.20316" y1="4.069152" x2="-113.81965" y2="-44.637321" gradientTransform="matrix(0.0644425,0,0,0.064444,6.340625,7.465628)">
<stop offset="0" style="stop-color:rgb(0%,0%,0%);stop-opacity:1;"/>
<stop offset="1" style="stop-color:rgb(0%,0%,0%);stop-opacity:0;"/>
</linearGradient>
<clipPath id="clip2">
  <rect width="32" height="32"/>
</clipPath>
<g id="surface10" clip-path="url(#clip2)">
<path style=" stroke:none;fill-rule:nonzero;fill:url(#linear0);" d="M 31.882812 20.046875 C 31.824219 19.867188 31.632812 19.542969 31.460938 19.328125 C 31.289062 19.113281 31.011719 18.855469 30.84375 18.761719 C 30.675781 18.664062 29.898438 18.875 29.507812 19.054688 L 29.222656 19.183594 C 28.832031 19.363281 28.507812 19.511719 28.5 19.515625 C 28.492188 19.519531 28.449219 19.515625 28.410156 19.5 C 28.375 19.484375 27.941406 19.378906 27.519531 19.28125 L 26.769531 19.105469 C 26.351562 19.007812 25.867188 18.914062 25.695312 18.898438 C 25.523438 18.882812 24.792969 19.003906 24.375 19.101562 L 23.570312 19.285156 C 23.148438 19.378906 22.777344 19.46875 22.742188 19.480469 C 22.707031 19.488281 22.609375 19.523438 22.601562 19.523438 C 22.59375 19.519531 22.257812 19.363281 21.867188 19.183594 L 21.582031 19.054688 C 21.1875 18.875 20.707031 18.714844 20.507812 18.703125 C 20.308594 18.6875 19.796875 19.113281 19.628906 19.328125 C 19.457031 19.542969 19.265625 19.867188 19.207031 20.046875 C 19.144531 20.226562 19.472656 20.9375 19.714844 21.292969 L 20.207031 22.023438 C 20.449219 22.378906 20.582031 22.792969 20.5 22.941406 C 20.421875 23.085938 20.316406 23.347656 20.261719 23.523438 C 20.210938 23.695312 20.269531 24.457031 20.34375 24.878906 L 20.496094 25.785156 C 20.566406 26.210938 20.703125 26.699219 20.796875 26.871094 C 20.890625 27.046875 21.628906 27.351562 22.046875 27.457031 L 22.230469 27.503906 C 22.648438 27.605469 23.199219 27.976562 23.449219 28.324219 L 23.785156 28.792969 C 24.039062 29.140625 24.367188 29.523438 24.515625 29.644531 C 24.664062 29.765625 25.296875 29.863281 25.542969 29.863281 C 25.792969 29.863281 26.148438 29.820312 26.332031 29.769531 C 26.515625 29.71875 27.050781 29.140625 27.300781 28.792969 L 27.632812 28.332031 C 27.886719 27.984375 28.433594 27.613281 28.851562 27.507812 L 29.046875 27.460938 C 29.460938 27.355469 29.941406 27.183594 30.105469 27.074219 C 30.269531 26.96875 30.519531 26.210938 30.59375 25.785156 L 30.746094 24.878906 C 30.816406 24.457031 30.875 23.960938 30.867188 23.777344 C 30.863281 23.597656 30.664062 23.085938 30.585938 22.941406 C 30.507812 22.792969 30.640625 22.378906 30.882812 22.023438 L 31.375 21.292969 C 31.613281 20.9375 31.945312 20.226562 31.882812 20.046875 Z M 20.179688 20.875 C 19.964844 20.558594 19.78125 20.273438 19.769531 20.246094 C 19.769531 20.246094 19.769531 20.246094 19.769531 20.214844 C 19.769531 20.171875 19.769531 20.171875 19.769531 20.171875 C 19.789062 20.132812 19.941406 19.929688 20.113281 19.710938 C 20.285156 19.496094 20.449219 19.308594 20.484375 19.292969 C 20.519531 19.273438 20.929688 19.4375 21.324219 19.617188 L 21.382812 19.644531 C 21.773438 19.824219 22.089844 19.980469 22.082031 19.992188 C 22.074219 20.003906 21.890625 20.339844 21.691406 20.722656 L 21.34375 21.363281 C 21.140625 21.742188 20.394531 21.191406 20.179688 20.875 Z M 30.257812 23.8125 C 30.261719 23.917969 30.207031 24.351562 30.136719 24.777344 L 29.980469 25.683594 C 29.910156 26.105469 29.824219 26.496094 29.792969 26.550781 C 29.761719 26.605469 29.398438 26.730469 29.089844 26.808594 C 28.777344 26.886719 28.53125 26.902344 28.542969 26.839844 C 28.558594 26.777344 28.375 26.339844 28.144531 26 C 27.910156 25.664062 27.722656 25.394531 27.722656 25.40625 C 27.722656 25.417969 27.773438 25.695312 27.835938 25.996094 C 27.894531 26.300781 27.9375 26.621094 27.929688 26.714844 C 27.921875 26.804688 27.820312 27.019531 27.785156 27.066406 C 27.75 27.113281 27.59375 27.328125 27.441406 27.542969 C 27.285156 27.757812 26.976562 28.1875 26.75 28.5 C 26.527344 28.808594 26.289062 29.105469 26.222656 29.152344 C 26.15625 29.203125 25.792969 29.242188 25.542969 29.242188 C 25.296875 29.242188 25.027344 29.222656 24.949219 29.195312 C 24.875 29.171875 24.5625 28.808594 24.335938 28.492188 C 24.109375 28.179688 23.796875 27.746094 23.640625 27.535156 C 23.488281 27.320312 23.335938 27.109375 23.300781 27.0625 C 23.269531 27.015625 23.214844 26.910156 23.183594 26.824219 C 23.148438 26.738281 23.195312 26.300781 23.253906 25.996094 C 23.3125 25.695312 23.363281 25.441406 23.367188 25.429688 C 23.367188 25.417969 23.179688 25.664062 22.945312 26 C 22.710938 26.339844 22.527344 26.667969 22.53125 26.726562 C 22.535156 26.789062 22.3125 26.882812 22 26.808594 C 21.691406 26.730469 21.394531 26.636719 21.34375 26.601562 C 21.292969 26.566406 21.179688 26.105469 21.105469 25.683594 L 20.953125 24.777344 C 20.882812 24.351562 20.828125 23.917969 20.832031 23.8125 C 20.835938 23.707031 20.953125 23.414062 21.007812 23.308594 C 21.066406 23.203125 21.277344 22.804688 21.480469 22.425781 L 22.234375 21.015625 C 22.4375 20.632812 22.65625 20.269531 22.71875 20.207031 C 22.78125 20.140625 22.953125 20.0625 22.960938 20.058594 C 22.96875 20.058594 23.316406 19.976562 23.738281 19.882812 L 24.511719 19.703125 C 24.929688 19.609375 25.371094 19.519531 25.492188 19.511719 C 25.613281 19.5 26.210938 19.609375 26.628906 19.707031 L 27.351562 19.878906 C 27.773438 19.976562 28.121094 20.058594 28.128906 20.058594 C 28.136719 20.058594 28.207031 20.097656 28.285156 20.140625 C 28.363281 20.183594 28.648438 20.632812 28.851562 21.011719 L 29.609375 22.425781 C 29.8125 22.804688 30.023438 23.199219 30.082031 23.308594 C 30.136719 23.414062 30.253906 23.707031 30.257812 23.8125 Z M 31.316406 20.246094 C 31.304688 20.273438 31.121094 20.558594 30.90625 20.875 C 30.695312 21.191406 29.945312 21.742188 29.742188 21.363281 L 29.398438 20.722656 C 29.195312 20.339844 29.023438 20.023438 29.019531 20.011719 C 29.011719 20 29.3125 19.824219 29.707031 19.644531 L 29.765625 19.617188 C 30.15625 19.4375 30.515625 19.292969 30.558594 19.289062 C 30.601562 19.289062 30.804688 19.496094 30.976562 19.710938 C 31.148438 19.929688 31.300781 20.132812 31.316406 20.171875 C 31.316406 20.171875 31.316406 20.171875 31.316406 20.214844 C 31.316406 20.246094 31.316406 20.246094 31.316406 20.246094 Z M 31.316406 20.246094 "/>
<path style=" stroke:none;fill-rule:nonzero;fill:url(#linear1);" d="M 24.449219 26.023438 C 24.359375 25.835938 24.453125 25.683594 24.660156 25.683594 L 26.429688 25.683594 C 26.636719 25.683594 26.730469 25.835938 26.636719 26.023438 L 25.710938 27.074219 C 25.621094 27.257812 25.46875 27.257812 25.375 27.074219 Z M 24.449219 26.023438 "/>
<path style=" stroke:none;fill-rule:nonzero;fill:url(#linear2);" d="M 25.542969 28.277344 C 25.542969 28.277344 25.667969 28.390625 25.824219 28.53125 L 26.421875 29.082031 C 26.578125 29.222656 26.742188 29.234375 26.796875 29.113281 C 26.847656 28.988281 26.75 28.792969 26.578125 28.675781 L 26.007812 28.289062 C 25.835938 28.171875 25.699219 28.070312 25.699219 28.066406 C 25.699219 28.0625 25.699219 27.882812 25.699219 27.675781 L 25.699219 26.613281 C 25.699219 26.40625 25.667969 26.167969 25.628906 26.082031 C 25.628906 26.082031 25.628906 26.082031 25.542969 26.082031 C 25.457031 26.082031 25.457031 26.082031 25.457031 26.082031 C 25.421875 26.167969 25.390625 26.40625 25.390625 26.613281 L 25.390625 27.675781 C 25.390625 27.882812 25.390625 28.054688 25.390625 28.058594 C 25.390625 28.0625 25.253906 28.171875 25.082031 28.289062 L 24.511719 28.675781 C 24.339844 28.792969 24.242188 28.988281 24.292969 29.113281 C 24.34375 29.234375 24.511719 29.222656 24.664062 29.082031 L 25.265625 28.53125 C 25.417969 28.390625 25.542969 28.277344 25.542969 28.277344 Z M 25.542969 28.277344 "/>
<path style=" stroke:none;fill-rule:nonzero;fill:url(#linear3);" d="M 24.542969 26.761719 C 23.078125 27.148438 21.859375 27.847656 20.667969 28.78125 "/>
<path style=" stroke:none;fill-rule:nonzero;fill:url(#linear4);" d="M 24.527344 26.671875 C 23.117188 27.015625 21.699219 27.753906 20.617188 28.722656 C 20.542969 28.789062 20.636719 28.890625 20.71875 28.839844 C 21.308594 28.441406 21.875 28.027344 22.5 27.683594 C 23.152344 27.324219 23.84375 27.0625 24.558594 26.851562 C 24.667969 26.820312 24.640625 26.644531 24.527344 26.671875 Z M 24.527344 26.671875 "/>
<path style=" stroke:none;fill-rule:nonzero;fill:url(#linear5);" d="M 24.574219 27.25 C 23.5 27.355469 22.414062 28.585938 21.746094 29.390625 "/>
<path style=" stroke:none;fill-rule:nonzero;fill:url(#linear6);" d="M 24.5625 27.175781 C 23.953125 27.222656 23.441406 27.570312 22.980469 27.953125 C 22.5 28.351562 22.039062 28.832031 21.691406 29.355469 C 21.652344 29.414062 21.734375 29.496094 21.789062 29.441406 C 22.613281 28.632812 23.367188 27.53125 24.589844 27.320312 C 24.683594 27.304688 24.65625 27.167969 24.5625 27.175781 Z M 24.5625 27.175781 "/>
<path style=" stroke:none;fill-rule:nonzero;fill:url(#linear7);" d="M 24.679688 27.738281 C 23.636719 28.027344 22.777344 29.429688 22.261719 30.335938 "/>
<path style=" stroke:none;fill-rule:nonzero;fill:url(#linear8);" d="M 24.664062 27.667969 C 24.09375 27.8125 23.664062 28.210938 23.285156 28.640625 C 22.851562 29.136719 22.46875 29.714844 22.199219 30.316406 C 22.167969 30.382812 22.273438 30.433594 22.3125 30.375 C 22.980469 29.433594 23.542969 28.222656 24.710938 27.804688 C 24.789062 27.777344 24.746094 27.644531 24.664062 27.667969 Z M 24.664062 27.667969 "/>
<path style=" stroke:none;fill-rule:nonzero;fill:url(#linear9);" d="M 26.546875 26.761719 C 28.011719 27.148438 29.230469 27.847656 30.421875 28.78125 "/>
<path style=" stroke:none;fill-rule:nonzero;fill:url(#linear10);" d="M 26.515625 26.847656 C 27.230469 27.0625 27.917969 27.324219 28.574219 27.675781 C 29.210938 28.015625 29.78125 28.445312 30.375 28.84375 C 30.460938 28.898438 30.535156 28.78125 30.464844 28.71875 C 29.390625 27.753906 27.980469 27.015625 26.578125 26.675781 C 26.46875 26.652344 26.402344 26.8125 26.515625 26.847656 Z M 26.515625 26.847656 "/>
<path style=" stroke:none;fill-rule:nonzero;fill:url(#linear11);" d="M 26.511719 27.25 C 27.589844 27.355469 28.675781 28.585938 29.34375 29.390625 "/>
<path style=" stroke:none;fill-rule:nonzero;fill:url(#linear12);" d="M 26.507812 27.320312 C 27.722656 27.53125 28.472656 28.628906 29.292969 29.433594 C 29.355469 29.496094 29.441406 29.421875 29.394531 29.351562 C 29.039062 28.824219 28.582031 28.359375 28.101562 27.945312 C 27.652344 27.5625 27.121094 27.222656 26.519531 27.175781 C 26.425781 27.167969 26.414062 27.304688 26.507812 27.320312 Z M 26.507812 27.320312 "/>
<path style=" stroke:none;fill-rule:nonzero;fill:url(#linear13);" d="M 26.410156 27.738281 C 27.453125 28.027344 28.3125 29.429688 28.828125 30.335938 "/>
<path style=" stroke:none;fill-rule:nonzero;fill:url(#linear14);" d="M 26.386719 27.808594 C 27.546875 28.222656 28.113281 29.441406 28.777344 30.378906 C 28.824219 30.441406 28.917969 30.375 28.886719 30.308594 C 28.628906 29.734375 28.261719 29.195312 27.859375 28.707031 C 27.484375 28.25 27.019531 27.820312 26.4375 27.671875 C 26.347656 27.648438 26.292969 27.773438 26.386719 27.808594 Z M 26.386719 27.808594 "/>
</g>
<mask id="mask2">
  <g filter="url(#alpha)">
<rect x="0" y="0" width="32" height="32" style="fill:rgb(0%,0%,0%);fill-opacity:0.2;stroke:none;"/>
  </g>
</mask>
<clipPath id="clip3">
  <rect width="32" height="32"/>
</clipPath>
<g id="surface14" clip-path="url(#clip3)">
<path style=" stroke:none;fill-rule:evenodd;fill:rgb(23.529412%,23.529412%,23.529412%);fill-opacity:1;" d="M 20.316406 14.644531 C 20.167969 17.117188 18.121094 19.050781 15.640625 19.050781 C 13.1875 19.050781 11.148438 17.15625 10.964844 14.710938 C 10.960938 14.800781 10.953125 14.894531 10.953125 14.988281 C 10.953125 17.578125 13.050781 19.675781 15.640625 19.675781 C 18.230469 19.675781 20.332031 17.578125 20.332031 14.988281 C 20.332031 14.875 20.324219 14.757812 20.316406 14.644531 Z M 20.316406 14.644531 "/>
</g>
<clipPath id="clip4">
  <rect width="32" height="32"/>
</clipPath>
<g id="surface17" clip-path="url(#clip4)">
<path style=" stroke:none;fill-rule:evenodd;fill:rgb(29.019608%,70.196078%,89.411765%);fill-opacity:1;" d="M 20.332031 14.675781 C 20.332031 17.265625 18.230469 19.363281 15.640625 19.363281 C 13.050781 19.363281 10.953125 17.265625 10.953125 14.675781 C 10.953125 12.085938 13.050781 9.988281 15.640625 9.988281 C 18.230469 9.988281 20.332031 12.085938 20.332031 14.675781 Z M 20.332031 14.675781 "/>
</g>
</defs>
<g id="surface1">
<use xlink:href="#surface6" mask="url(#mask0)"/>
<path style=" stroke:none;fill-rule:nonzero;fill:rgb(80%,80%,80%);fill-opacity:1;" d="M 11.285156 0.949219 L 9.109375 3.128906 L 9.109375 6.394531 L 0.398438 6.394531 L 0.398438 26.535156 C 0.398438 27.441406 1.128906 28.167969 2.03125 28.167969 L 29.25 28.167969 C 30.15625 28.167969 30.882812 27.441406 30.882812 26.535156 L 30.882812 6.394531 L 22.175781 6.394531 L 22.175781 3.128906 L 19.996094 0.949219 Z M 11.285156 3.128906 L 19.996094 3.128906 L 19.996094 6.394531 L 11.285156 6.394531 Z M 11.285156 3.128906 "/>
<use xlink:href="#surface10" mask="url(#mask1)"/>
<path style=" stroke:none;fill-rule:nonzero;fill:rgb(100%,79.607843%,3.137255%);fill-opacity:1;" d="M 20.425781 18.480469 L 19.425781 19.785156 L 20.90625 22.089844 L 22.382812 19.265625 Z M 20.425781 18.480469 "/>
<path style=" stroke:none;fill-rule:nonzero;fill:rgb(100%,79.607843%,3.137255%);fill-opacity:1;" d="M 30.679688 18.480469 L 31.679688 19.785156 L 30.203125 22.089844 L 28.726562 19.265625 Z M 30.679688 18.480469 "/>
<path style=" stroke:none;fill-rule:nonzero;fill:rgb(100%,79.607843%,3.137255%);fill-opacity:1;" d="M 30.066406 22.773438 L 28.546875 19.878906 C 28.488281 19.773438 28.3125 19.632812 28.199219 19.605469 L 28.171875 19.601562 L 25.882812 19.054688 C 25.726562 19.019531 25.4375 19.015625 25.28125 19.054688 L 22.9375 19.601562 L 22.910156 19.609375 C 22.792969 19.636719 22.617188 19.773438 22.5625 19.878906 L 21.042969 22.769531 L 20.832031 23.171875 C 20.765625 23.296875 20.722656 23.554688 20.75 23.695312 L 21.171875 26.234375 C 21.183594 26.320312 21.289062 26.433594 21.371094 26.453125 L 22.523438 26.746094 C 22.492188 26.632812 22.753906 26.515625 22.753906 26.402344 L 23.339844 25.125 C 23.339844 25.148438 23.335938 25.171875 23.332031 25.191406 L 23.113281 26.328125 C 23.089844 26.453125 23.136719 26.675781 23.210938 26.777344 L 23.332031 26.949219 L 23.902344 27.757812 L 24.742188 28.941406 C 24.808594 29.03125 24.984375 29.125 25.09375 29.125 L 26.015625 29.125 C 26.125 29.125 26.300781 29.03125 26.367188 28.941406 L 27.195312 27.769531 L 27.769531 26.957031 L 27.898438 26.777344 C 27.96875 26.675781 28.019531 26.453125 27.996094 26.328125 L 27.773438 25.191406 C 27.769531 25.171875 27.769531 25.148438 27.769531 25.125 L 28.355469 26.402344 C 28.355469 26.515625 28.613281 26.636719 28.585938 26.75 L 29.738281 26.457031 C 29.820312 26.433594 29.921875 26.320312 29.9375 26.234375 L 30.359375 23.695312 C 30.382812 23.554688 30.34375 23.296875 30.277344 23.171875 Z M 30.066406 22.773438 "/>
<path style=" stroke:none;fill-rule:nonzero;fill:rgb(17.254902%,17.254902%,17.254902%);fill-opacity:1;" d="M 31.894531 19.570312 C 31.832031 19.390625 31.640625 19.066406 31.472656 18.851562 C 31.300781 18.636719 31.023438 18.378906 30.851562 18.285156 C 30.683594 18.1875 29.910156 18.398438 29.519531 18.578125 L 29.234375 18.707031 C 28.84375 18.886719 28.515625 19.035156 28.507812 19.039062 C 28.503906 19.042969 28.457031 19.039062 28.421875 19.023438 C 28.386719 19.011719 27.949219 18.902344 27.53125 18.804688 L 26.78125 18.628906 C 26.363281 18.53125 25.878906 18.4375 25.707031 18.421875 C 25.535156 18.40625 24.800781 18.527344 24.382812 18.625 L 23.578125 18.808594 C 23.160156 18.90625 22.789062 18.992188 22.753906 19.003906 C 22.71875 19.015625 22.617188 19.050781 22.609375 19.046875 C 22.605469 19.042969 22.265625 18.886719 21.875 18.707031 L 21.589844 18.578125 C 21.199219 18.398438 20.714844 18.242188 20.515625 18.226562 C 20.316406 18.210938 19.808594 18.636719 19.636719 18.851562 C 19.464844 19.066406 19.277344 19.390625 19.214844 19.570312 C 19.15625 19.75 19.484375 20.460938 19.726562 20.816406 L 20.21875 21.546875 C 20.457031 21.90625 20.589844 22.316406 20.511719 22.464844 C 20.433594 22.613281 20.324219 22.875 20.273438 23.046875 C 20.21875 23.21875 20.28125 23.980469 20.351562 24.40625 L 20.503906 25.308594 C 20.578125 25.734375 20.710938 26.222656 20.804688 26.398438 C 20.898438 26.570312 21.636719 26.878906 22.054688 26.980469 L 22.242188 27.027344 C 22.660156 27.128906 23.207031 27.5 23.457031 27.851562 L 23.796875 28.316406 C 24.046875 28.667969 24.375 29.050781 24.527344 29.167969 C 24.675781 29.289062 25.304688 29.386719 25.554688 29.386719 C 25.804688 29.386719 26.15625 29.34375 26.339844 29.292969 C 26.523438 29.242188 27.058594 28.667969 27.3125 28.316406 L 27.644531 27.859375 C 27.894531 27.507812 28.441406 27.136719 28.859375 27.03125 L 29.054688 26.984375 C 29.472656 26.878906 29.949219 26.707031 30.117188 26.601562 C 30.28125 26.492188 30.53125 25.734375 30.601562 25.308594 L 30.757812 24.40625 C 30.828125 23.980469 30.882812 23.484375 30.878906 23.304688 C 30.875 23.121094 30.675781 22.613281 30.597656 22.464844 C 30.519531 22.316406 30.652344 21.90625 30.890625 21.546875 L 31.382812 20.816406 C 31.625 20.460938 31.953125 19.75 31.894531 19.570312 Z M 20.191406 20.398438 C 19.976562 20.082031 19.792969 19.800781 19.78125 19.769531 C 19.78125 19.769531 19.78125 19.769531 19.78125 19.738281 C 19.78125 19.695312 19.78125 19.695312 19.78125 19.695312 C 19.796875 19.660156 19.953125 19.453125 20.121094 19.238281 C 20.292969 19.023438 20.460938 18.832031 20.496094 18.816406 C 20.527344 18.800781 20.941406 18.964844 21.332031 19.140625 L 21.394531 19.167969 C 21.785156 19.347656 22.097656 19.503906 22.09375 19.515625 C 22.085938 19.527344 21.902344 19.867188 21.699219 20.246094 L 21.355469 20.890625 C 21.152344 21.269531 20.40625 20.71875 20.191406 20.398438 Z M 30.265625 23.339844 C 30.273438 23.445312 30.21875 23.875 30.144531 24.300781 L 29.992188 25.207031 C 29.917969 25.632812 29.835938 26.023438 29.804688 26.074219 C 29.769531 26.128906 29.410156 26.257812 29.097656 26.335938 C 28.785156 26.414062 28.542969 26.425781 28.554688 26.363281 C 28.566406 26.300781 28.386719 25.863281 28.152344 25.523438 C 27.921875 25.1875 27.730469 24.917969 27.730469 24.929688 C 27.730469 24.941406 27.785156 25.222656 27.84375 25.523438 C 27.902344 25.824219 27.945312 26.144531 27.941406 26.238281 C 27.933594 26.328125 27.828125 26.542969 27.792969 26.589844 C 27.757812 26.636719 27.605469 26.851562 27.449219 27.066406 C 27.292969 27.28125 26.984375 27.710938 26.761719 28.023438 C 26.535156 28.335938 26.296875 28.628906 26.234375 28.679688 C 26.167969 28.726562 25.804688 28.765625 25.554688 28.765625 C 25.304688 28.765625 25.039062 28.746094 24.960938 28.722656 C 24.882812 28.695312 24.570312 28.332031 24.34375 28.019531 C 24.117188 27.703125 23.804688 27.273438 23.652344 27.058594 C 23.496094 26.84375 23.34375 26.632812 23.3125 26.585938 C 23.277344 26.542969 23.226562 26.433594 23.191406 26.347656 C 23.160156 26.261719 23.207031 25.824219 23.265625 25.523438 C 23.324219 25.222656 23.375 24.964844 23.375 24.953125 C 23.378906 24.941406 23.1875 25.1875 22.953125 25.527344 C 22.722656 25.863281 22.535156 26.191406 22.539062 26.25 C 22.542969 26.3125 22.320312 26.410156 22.007812 26.332031 C 21.699219 26.253906 21.402344 26.160156 21.351562 26.125 C 21.304688 26.089844 21.1875 25.632812 21.117188 25.207031 L 20.964844 24.300781 C 20.890625 23.875 20.835938 23.445312 20.839844 23.339844 C 20.84375 23.234375 20.960938 22.9375 21.019531 22.832031 C 21.074219 22.726562 21.289062 22.328125 21.492188 21.949219 L 22.246094 20.539062 C 22.449219 20.160156 22.664062 19.796875 22.726562 19.730469 C 22.789062 19.667969 22.960938 19.585938 22.96875 19.585938 C 22.976562 19.582031 23.328125 19.503906 23.746094 19.40625 L 24.523438 19.230469 C 24.941406 19.132812 25.382812 19.046875 25.503906 19.035156 C 25.625 19.027344 26.21875 19.136719 26.640625 19.234375 L 27.363281 19.402344 C 27.78125 19.5 28.128906 19.582031 28.136719 19.582031 C 28.144531 19.585938 28.214844 19.621094 28.296875 19.664062 C 28.375 19.710938 28.660156 20.160156 28.863281 20.539062 L 29.617188 21.949219 C 29.820312 22.328125 30.035156 22.726562 30.089844 22.832031 C 30.148438 22.9375 30.261719 23.234375 30.265625 23.339844 Z M 31.328125 19.769531 C 31.316406 19.800781 31.132812 20.082031 30.917969 20.398438 C 30.703125 20.71875 29.957031 21.269531 29.753906 20.890625 L 29.410156 20.246094 C 29.207031 19.867188 29.035156 19.546875 29.027344 19.535156 C 29.023438 19.523438 29.324219 19.347656 29.714844 19.167969 L 29.777344 19.140625 C 30.167969 18.964844 30.523438 18.816406 30.570312 18.816406 C 30.613281 18.8125 30.816406 19.023438 30.984375 19.238281 C 31.15625 19.453125 31.3125 19.660156 31.328125 19.695312 C 31.328125 19.695312 31.328125 19.695312 31.328125 19.738281 C 31.328125 19.769531 31.328125 19.769531 31.328125 19.769531 Z M 31.328125 19.769531 "/>
<path style=" stroke:none;fill-rule:nonzero;fill:rgb(17.254902%,17.254902%,17.254902%);fill-opacity:1;" d="M 24.460938 25.546875 C 24.367188 25.359375 24.460938 25.210938 24.667969 25.210938 L 26.441406 25.210938 C 26.644531 25.210938 26.738281 25.359375 26.648438 25.546875 L 25.722656 26.597656 C 25.628906 26.78125 25.480469 26.78125 25.386719 26.597656 Z M 24.460938 25.546875 "/>
<path style=" stroke:none;fill-rule:nonzero;fill:rgb(17.254902%,17.254902%,17.254902%);fill-opacity:1;" d="M 25.554688 27.800781 C 25.554688 27.800781 25.679688 27.917969 25.832031 28.054688 L 26.433594 28.605469 C 26.585938 28.746094 26.753906 28.757812 26.804688 28.636719 C 26.855469 28.511719 26.757812 28.316406 26.585938 28.203125 L 26.019531 27.8125 C 25.847656 27.695312 25.707031 27.597656 25.707031 27.59375 C 25.707031 27.585938 25.710938 27.40625 25.710938 27.199219 L 25.710938 26.136719 C 25.710938 25.929688 25.679688 25.691406 25.640625 25.605469 C 25.640625 25.605469 25.640625 25.605469 25.554688 25.605469 C 25.46875 25.605469 25.46875 25.605469 25.46875 25.605469 C 25.429688 25.691406 25.398438 25.929688 25.398438 26.136719 L 25.398438 27.199219 C 25.398438 27.40625 25.398438 27.578125 25.398438 27.582031 C 25.402344 27.589844 25.261719 27.695312 25.089844 27.8125 L 24.519531 28.203125 C 24.351562 28.316406 24.253906 28.511719 24.304688 28.636719 C 24.355469 28.757812 24.523438 28.746094 24.675781 28.605469 L 25.277344 28.054688 C 25.429688 27.917969 25.554688 27.800781 25.554688 27.800781 Z M 25.554688 27.800781 "/>
<path style=" stroke:none;fill-rule:nonzero;fill:rgb(17.254902%,17.254902%,17.254902%);fill-opacity:1;" d="M 22.261719 22.761719 C 22.039062 22.769531 22.035156 22.800781 22.257812 22.832031 L 24.101562 23.09375 C 24.324219 23.125 24.484375 23.332031 24.464844 23.554688 L 24.230469 24.378906 C 24.210938 24.601562 24.277344 24.789062 24.382812 24.796875 C 24.488281 24.804688 24.578125 24.800781 24.578125 24.792969 C 24.578125 24.785156 24.585938 24.59375 24.59375 24.371094 L 24.789062 23.597656 C 24.796875 23.378906 24.808594 23.082031 24.816406 22.941406 C 24.824219 22.804688 24.765625 22.691406 24.6875 22.695312 C 24.609375 22.695312 24.363281 22.703125 24.140625 22.710938 Z M 22.261719 22.761719 "/>
<path style=" stroke:none;fill-rule:nonzero;fill:rgb(17.254902%,17.254902%,17.254902%);fill-opacity:1;" d="M 26.96875 22.710938 C 26.746094 22.703125 26.5 22.695312 26.421875 22.695312 C 26.34375 22.691406 26.285156 22.804688 26.292969 22.941406 C 26.296875 23.082031 26.3125 23.378906 26.320312 23.597656 L 26.511719 24.371094 C 26.523438 24.59375 26.53125 24.785156 26.53125 24.792969 C 26.53125 24.800781 26.617188 24.804688 26.722656 24.796875 C 26.828125 24.789062 26.898438 24.601562 26.878906 24.378906 L 26.644531 23.554688 C 26.621094 23.332031 26.785156 23.125 27.003906 23.09375 L 28.851562 22.832031 C 29.070312 22.800781 29.070312 22.769531 28.847656 22.761719 Z M 26.96875 22.710938 "/>
<path style=" stroke:none;fill-rule:nonzero;fill:rgb(17.254902%,17.254902%,17.254902%);fill-opacity:1;" d="M 23.921875 23.042969 C 23.921875 23.183594 23.804688 23.296875 23.664062 23.296875 C 23.523438 23.296875 23.40625 23.183594 23.40625 23.042969 C 23.40625 22.902344 23.523438 22.785156 23.664062 22.785156 C 23.804688 22.785156 23.921875 22.902344 23.921875 23.042969 Z M 23.921875 23.042969 "/>
<path style=" stroke:none;fill-rule:nonzero;fill:rgb(17.254902%,17.254902%,17.254902%);fill-opacity:1;" d="M 27.699219 23.042969 C 27.699219 23.183594 27.585938 23.296875 27.445312 23.296875 C 27.300781 23.296875 27.1875 23.183594 27.1875 23.042969 C 27.1875 22.902344 27.300781 22.785156 27.445312 22.785156 C 27.585938 22.785156 27.699219 22.902344 27.699219 23.042969 Z M 27.699219 23.042969 "/>
<path style=" stroke:none;fill-rule:nonzero;fill:rgb(17.254902%,17.254902%,17.254902%);fill-opacity:1;" d="M 24.550781 26.285156 C 23.085938 26.671875 21.867188 27.375 20.675781 28.304688 "/>
<path style=" stroke:none;fill-rule:nonzero;fill:rgb(17.254902%,17.254902%,17.254902%);fill-opacity:1;" d="M 24.535156 26.199219 C 23.125 26.539062 21.710938 27.277344 20.628906 28.246094 C 20.554688 28.3125 20.648438 28.417969 20.726562 28.363281 C 21.316406 27.96875 21.886719 27.550781 22.507812 27.207031 C 23.164062 26.847656 23.855469 26.589844 24.566406 26.375 C 24.675781 26.34375 24.652344 26.171875 24.535156 26.199219 Z M 24.535156 26.199219 "/>
<path style=" stroke:none;fill-rule:nonzero;fill:rgb(17.254902%,17.254902%,17.254902%);fill-opacity:1;" d="M 24.585938 26.773438 C 23.507812 26.878906 22.421875 28.109375 21.753906 28.917969 "/>
<path style=" stroke:none;fill-rule:nonzero;fill:rgb(17.254902%,17.254902%,17.254902%);fill-opacity:1;" d="M 24.574219 26.703125 C 23.964844 26.75 23.449219 27.097656 22.992188 27.476562 C 22.507812 27.875 22.050781 28.359375 21.703125 28.878906 C 21.660156 28.941406 21.742188 29.019531 21.796875 28.96875 C 22.625 28.15625 23.375 27.058594 24.597656 26.847656 C 24.691406 26.828125 24.664062 26.695312 24.574219 26.703125 Z M 24.574219 26.703125 "/>
<path style=" stroke:none;fill-rule:nonzero;fill:rgb(17.254902%,17.254902%,17.254902%);fill-opacity:1;" d="M 24.6875 27.261719 C 23.644531 27.554688 22.789062 28.953125 22.269531 29.863281 "/>
<path style=" stroke:none;fill-rule:nonzero;fill:rgb(17.254902%,17.254902%,17.254902%);fill-opacity:1;" d="M 24.675781 27.191406 C 24.105469 27.335938 23.675781 27.734375 23.292969 28.167969 C 22.859375 28.660156 22.476562 29.238281 22.207031 29.839844 C 22.175781 29.910156 22.28125 29.960938 22.324219 29.898438 C 22.992188 28.957031 23.554688 27.746094 24.71875 27.328125 C 24.796875 27.300781 24.753906 27.171875 24.675781 27.191406 Z M 24.675781 27.191406 "/>
<path style=" stroke:none;fill-rule:nonzero;fill:rgb(17.254902%,17.254902%,17.254902%);fill-opacity:1;" d="M 26.558594 26.285156 C 28.019531 26.671875 29.238281 27.375 30.429688 28.304688 "/>
<path style=" stroke:none;fill-rule:nonzero;fill:rgb(17.254902%,17.254902%,17.254902%);fill-opacity:1;" d="M 26.527344 26.371094 C 27.238281 26.585938 27.925781 26.847656 28.585938 27.199219 C 29.21875 27.539062 29.789062 27.96875 30.386719 28.367188 C 30.46875 28.421875 30.546875 28.304688 30.472656 28.242188 C 29.398438 27.28125 27.988281 26.542969 26.589844 26.203125 C 26.476562 26.175781 26.414062 26.335938 26.527344 26.371094 Z M 26.527344 26.371094 "/>
<path style=" stroke:none;fill-rule:nonzero;fill:rgb(17.254902%,17.254902%,17.254902%);fill-opacity:1;" d="M 26.523438 26.773438 C 27.597656 26.878906 28.6875 28.109375 29.351562 28.917969 "/>
<path style=" stroke:none;fill-rule:nonzero;fill:rgb(17.254902%,17.254902%,17.254902%);fill-opacity:1;" d="M 26.515625 26.847656 C 27.730469 27.058594 28.480469 28.15625 29.300781 28.960938 C 29.363281 29.019531 29.449219 28.945312 29.402344 28.875 C 29.050781 28.347656 28.589844 27.882812 28.109375 27.46875 C 27.660156 27.085938 27.132812 26.746094 26.53125 26.699219 C 26.433594 26.695312 26.421875 26.832031 26.515625 26.847656 Z M 26.515625 26.847656 "/>
<path style=" stroke:none;fill-rule:nonzero;fill:rgb(17.254902%,17.254902%,17.254902%);fill-opacity:1;" d="M 26.421875 27.261719 C 27.460938 27.554688 28.320312 28.953125 28.839844 29.863281 "/>
<path style=" stroke:none;fill-rule:nonzero;fill:rgb(17.254902%,17.254902%,17.254902%);fill-opacity:1;" d="M 26.394531 27.332031 C 27.558594 27.75 28.121094 28.964844 28.789062 29.90625 C 28.832031 29.96875 28.925781 29.898438 28.898438 29.835938 C 28.636719 29.257812 28.269531 28.71875 27.871094 28.230469 C 27.496094 27.773438 27.03125 27.34375 26.445312 27.195312 C 26.355469 27.171875 26.304688 27.300781 26.394531 27.332031 Z M 26.394531 27.332031 "/>
<path style=" stroke:none;fill-rule:nonzero;fill:rgb(17.254902%,17.254902%,17.254902%);fill-opacity:1;" d="M 23.542969 20.261719 C 23.542969 19.976562 23.359375 19.746094 23.128906 19.746094 C 22.902344 19.746094 22.714844 19.976562 22.714844 20.261719 C 22.714844 20.550781 22.902344 20.78125 23.128906 20.78125 C 23.359375 20.78125 23.542969 20.550781 23.542969 20.261719 Z M 23.542969 20.261719 "/>
<path style=" stroke:none;fill-rule:nonzero;fill:rgb(17.254902%,17.254902%,17.254902%);fill-opacity:1;" d="M 22.984375 21.257812 C 22.984375 21.449219 22.832031 21.601562 22.640625 21.601562 C 22.449219 21.601562 22.296875 21.449219 22.296875 21.257812 C 22.296875 21.066406 22.449219 20.914062 22.640625 20.914062 C 22.832031 20.914062 22.984375 21.066406 22.984375 21.257812 Z M 22.984375 21.257812 "/>
<path style=" stroke:none;fill-rule:nonzero;fill:rgb(17.254902%,17.254902%,17.254902%);fill-opacity:1;" d="M 24.554688 20.132812 C 24.488281 20.351562 24.34375 20.5 24.234375 20.464844 C 24.125 20.429688 24.09375 20.226562 24.160156 20.007812 C 24.230469 19.789062 24.375 19.640625 24.484375 19.675781 C 24.59375 19.710938 24.625 19.914062 24.554688 20.132812 Z M 24.554688 20.132812 "/>
<path style=" stroke:none;fill-rule:nonzero;fill:rgb(17.254902%,17.254902%,17.254902%);fill-opacity:1;" d="M 24.035156 21.363281 C 24.035156 21.476562 23.925781 21.570312 23.792969 21.570312 C 23.660156 21.570312 23.550781 21.476562 23.550781 21.363281 C 23.550781 21.25 23.660156 21.15625 23.792969 21.15625 C 23.925781 21.15625 24.035156 21.25 24.035156 21.363281 Z M 24.035156 21.363281 "/>
<path style=" stroke:none;fill-rule:nonzero;fill:rgb(17.254902%,17.254902%,17.254902%);fill-opacity:1;" d="M 29.125 25.3125 C 29.039062 25.484375 29.109375 25.691406 29.28125 25.777344 C 29.449219 25.863281 29.65625 25.792969 29.742188 25.621094 C 29.828125 25.453125 29.757812 25.246094 29.589844 25.160156 C 29.417969 25.074219 29.210938 25.144531 29.125 25.3125 Z M 29.125 25.3125 "/>
<path style=" stroke:none;fill-rule:nonzero;fill:rgb(17.254902%,17.254902%,17.254902%);fill-opacity:1;" d="M 29.207031 24.433594 C 29.171875 24.660156 29.234375 24.855469 29.347656 24.875 C 29.460938 24.890625 29.578125 24.722656 29.617188 24.496094 C 29.652344 24.269531 29.589844 24.074219 29.472656 24.054688 C 29.363281 24.039062 29.242188 24.207031 29.207031 24.433594 Z M 29.207031 24.433594 "/>
<path style=" stroke:none;fill-rule:nonzero;fill:rgb(17.254902%,17.254902%,17.254902%);fill-opacity:1;" d="M 28.570312 24.957031 C 28.519531 25.058594 28.574219 25.191406 28.695312 25.25 C 28.816406 25.308594 28.953125 25.277344 29.003906 25.171875 C 29.054688 25.070312 29 24.941406 28.878906 24.878906 C 28.761719 24.820312 28.621094 24.855469 28.570312 24.957031 Z M 28.570312 24.957031 "/>
<path style=" stroke:none;fill-rule:nonzero;fill:rgb(17.254902%,17.254902%,17.254902%);fill-opacity:1;" d="M 6.917969 19.234375 C 6.855469 19.304688 6.980469 19.28125 7.085938 19.253906 L 7.101562 19.105469 Z M 6.917969 19.234375 "/>
<path style=" stroke:none;fill-rule:nonzero;fill:rgb(17.254902%,17.254902%,17.254902%);fill-opacity:1;" d="M 7.371094 18.992188 L 7.523438 18.75 L 7.402344 18.902344 C 7.195312 18.957031 7.355469 18.78125 7.410156 18.714844 C 7.132812 18.925781 7.378906 18.90625 7.371094 18.992188 Z M 7.371094 18.992188 "/>
<path style=" stroke:none;fill-rule:nonzero;fill:rgb(17.254902%,17.254902%,17.254902%);fill-opacity:1;" d="M 7.75 18.644531 C 7.894531 18.5625 7.8125 18.527344 7.746094 18.535156 C 7.75 18.570312 7.683594 18.664062 7.75 18.644531 Z M 7.75 18.644531 "/>
<path style=" stroke:none;fill-rule:nonzero;fill:rgb(17.254902%,17.254902%,17.254902%);fill-opacity:1;" d="M 17 14.269531 C 16.949219 14.269531 16.894531 14.277344 16.894531 14.257812 C 16.855469 14.300781 16.851562 14.324219 17 14.269531 Z M 17 14.269531 "/>
<path style=" stroke:none;fill-rule:nonzero;fill:rgb(17.254902%,17.254902%,17.254902%);fill-opacity:1;" d="M 16.894531 14.257812 L 16.917969 14.238281 C 16.910156 14.242188 16.90625 14.246094 16.886719 14.253906 C 16.890625 14.253906 16.894531 14.257812 16.894531 14.257812 Z M 16.894531 14.257812 "/>
<path style=" stroke:none;fill-rule:nonzero;fill:rgb(17.254902%,17.254902%,17.254902%);fill-opacity:1;" d="M 13.460938 14.769531 C 13.316406 14.910156 13.203125 14.921875 13.054688 15.019531 L 12.921875 14.972656 C 12.761719 15.085938 12.878906 15.078125 12.777344 15.1875 C 12.59375 15.207031 12.289062 15.433594 12.210938 15.464844 C 12.140625 15.453125 12.25 15.378906 12.265625 15.339844 C 12.074219 15.476562 12.128906 15.546875 11.890625 15.679688 L 11.875 15.660156 C 11.34375 16.097656 10.585938 16.460938 9.980469 16.898438 C 10.023438 16.878906 10.023438 16.902344 10.050781 16.90625 C 9.386719 17.320312 8.609375 17.78125 8.203125 18.292969 C 8.550781 18.054688 9.238281 17.828125 9.527344 17.46875 C 9.695312 17.453125 9.867188 17.242188 9.96875 17.292969 C 10.523438 17.035156 10.652344 16.753906 11.175781 16.476562 C 11.261719 16.457031 11.242188 16.511719 11.289062 16.539062 L 10.898438 16.800781 L 11.164062 16.699219 C 11.074219 16.792969 10.800781 16.90625 10.8125 17.003906 C 11.113281 16.710938 11.730469 16.488281 11.988281 16.203125 C 11.828125 16.261719 11.65625 16.390625 11.476562 16.472656 C 11.386719 16.480469 11.257812 16.527344 11.242188 16.480469 C 11.679688 16.089844 12.125 15.933594 12.625 15.628906 C 12.746094 15.558594 12.925781 15.46875 12.972656 15.496094 C 12.890625 15.550781 12.976562 15.550781 12.917969 15.609375 C 13.082031 15.484375 12.859375 15.449219 13.136719 15.335938 L 13.171875 15.496094 C 13.207031 15.289062 13.515625 15.363281 13.664062 15.183594 C 13.761719 15.203125 13.65625 15.300781 13.507812 15.378906 C 13.679688 15.320312 13.660156 15.226562 13.792969 15.167969 L 13.726562 15.351562 C 13.816406 15.160156 13.988281 15.25 14.09375 15.25 C 14.085938 15.214844 13.96875 15.15625 14.148438 15.078125 C 14.234375 15.058594 14.207031 15.109375 14.234375 15.121094 C 14.230469 15.085938 14.273438 15.003906 14.386719 14.945312 C 14.425781 14.976562 14.332031 15.042969 14.347656 15.089844 C 14.4375 15.042969 14.503906 15.003906 14.589844 15.007812 C 14.734375 14.898438 14.550781 14.953125 14.632812 14.863281 C 14.886719 14.777344 14.722656 14.996094 14.851562 15.039062 C 14.699219 15.183594 14.476562 15.304688 14.390625 15.386719 L 14.71875 15.191406 C 14.71875 15.25 14.992188 15.160156 14.832031 15.300781 C 15.195312 15.183594 15.589844 14.9375 15.910156 14.75 C 15.855469 14.757812 15.792969 14.769531 15.785156 14.734375 C 15.945312 14.632812 15.957031 14.699219 16.003906 14.71875 C 16.117188 14.628906 16.0625 14.550781 16.117188 14.453125 C 16.414062 14.40625 16.429688 14.34375 16.707031 14.355469 L 16.65625 14.289062 C 16.84375 14.289062 16.8125 14.148438 17.007812 14.128906 C 17.023438 14.144531 16.96875 14.191406 16.921875 14.238281 C 17.066406 14.144531 17.089844 14.246094 17.230469 14.15625 L 17.148438 14.300781 C 17.265625 14.246094 17.425781 14.144531 17.398438 14.253906 C 17.5625 14.0625 17.953125 13.960938 18.195312 13.804688 L 18.207031 13.886719 C 18.308594 13.746094 18.707031 13.691406 18.785156 13.542969 L 18.816406 13.566406 L 19.054688 13.363281 C 19.175781 13.328125 19.175781 13.457031 19.175781 13.421875 C 19.4375 13.300781 19.648438 13.21875 19.839844 13.199219 C 19.847656 13.085938 20.132812 12.957031 20.351562 12.871094 C 21.480469 12.5625 22.648438 12.117188 23.679688 11.742188 C 23.839844 11.695312 24.027344 11.53125 24.207031 11.429688 C 23.957031 11.464844 23.953125 11.519531 23.710938 11.578125 C 23.519531 11.59375 23.433594 11.503906 23.257812 11.472656 L 23.355469 11.542969 C 23.136719 11.675781 23.183594 11.535156 23.007812 11.675781 L 22.976562 11.53125 C 22.925781 11.625 22.738281 11.613281 22.664062 11.59375 L 22.621094 11.707031 C 22.457031 11.695312 22.351562 11.699219 22.277344 11.625 L 22.320312 11.710938 C 22.246094 11.667969 21.730469 11.878906 21.871094 11.679688 C 21.832031 11.714844 21.804688 11.773438 21.707031 11.789062 L 21.667969 11.699219 C 21.535156 11.761719 21.390625 11.832031 21.328125 11.792969 C 21.394531 11.746094 21.410156 11.699219 21.425781 11.652344 C 20.828125 11.820312 21.382812 11.976562 20.871094 12.148438 L 20.859375 12.089844 L 20.746094 12.195312 L 20.589844 12.164062 C 20.46875 12.417969 19.859375 12.382812 19.582031 12.589844 C 19.46875 12.644531 19.269531 12.589844 19.039062 12.6875 L 19.082031 12.769531 C 18.867188 12.75 18.152344 12.9375 17.90625 12.816406 C 17.757812 12.949219 17.929688 12.824219 17.953125 12.898438 C 17.652344 13.117188 17.574219 12.996094 17.378906 13.011719 C 17.183594 13.132812 17.546875 12.980469 17.464844 13.09375 C 17.117188 13.148438 17.25 13.296875 16.839844 13.40625 C 16.78125 13.371094 16.925781 13.332031 16.953125 13.28125 C 16.710938 13.488281 16.175781 13.636719 15.78125 13.835938 C 15.289062 13.976562 14.601562 14.261719 14.03125 14.441406 L 14.035156 14.480469 C 13.773438 14.5 13.574219 14.695312 13.292969 14.785156 Z M 13.460938 14.769531 "/>
<path style=" stroke:none;fill-rule:nonzero;fill:rgb(17.254902%,17.254902%,17.254902%);fill-opacity:1;" d="M 10.75 17.160156 L 10.832031 17.207031 L 11.035156 17.03125 C 10.90625 17.03125 10.882812 17.101562 10.75 17.160156 Z M 10.75 17.160156 "/>
<path style=" stroke:none;fill-rule:nonzero;fill:rgb(17.254902%,17.254902%,17.254902%);fill-opacity:1;" d="M 10.769531 16.90625 L 10.6875 16.929688 L 10.574219 17.019531 Z M 10.769531 16.90625 "/>
<path style=" stroke:none;fill-rule:nonzero;fill:rgb(17.254902%,17.254902%,17.254902%);fill-opacity:1;" d="M 13.296875 15.757812 L 13.761719 15.464844 L 13.722656 15.46875 Z M 13.296875 15.757812 "/>
<path style=" stroke:none;fill-rule:nonzero;fill:rgb(17.254902%,17.254902%,17.254902%);fill-opacity:1;" d="M 17.007812 14.351562 C 16.96875 14.410156 16.890625 14.421875 16.84375 14.472656 L 17.050781 14.351562 Z M 17.007812 14.351562 "/>
<path style=" stroke:none;fill-rule:nonzero;fill:rgb(17.254902%,17.254902%,17.254902%);fill-opacity:1;" d="M 19.253906 13.820312 C 19.289062 13.65625 19.417969 13.765625 19.261719 13.683594 C 19.144531 13.75 19.277344 13.765625 19.253906 13.820312 Z M 19.253906 13.820312 "/>
<path style=" stroke:none;fill-rule:nonzero;fill:rgb(17.254902%,17.254902%,17.254902%);fill-opacity:1;" d="M 19.691406 13.441406 C 19.609375 13.460938 19.578125 13.496094 19.539062 13.535156 C 19.660156 13.566406 19.636719 13.488281 19.691406 13.441406 Z M 19.691406 13.441406 "/>
<use xlink:href="#surface14" mask="url(#mask2)"/>
<use xlink:href="#surface17"/>
<path style=" stroke:none;fill-rule:nonzero;fill:rgb(100%,100%,100%);fill-opacity:1;" d="M 16.578125 11.863281 L 16.578125 14.363281 L 17.515625 14.363281 L 15.640625 16.863281 L 13.765625 14.363281 L 14.703125 14.363281 L 14.703125 11.863281 Z M 13.453125 16.863281 L 17.828125 16.863281 L 17.828125 17.488281 L 13.453125 17.488281 Z M 13.453125 16.863281 "/>
<path style=" stroke:none;fill-rule:nonzero;fill:rgb(17.254902%,17.254902%,17.254902%);fill-opacity:1;" d="M 5.171875 16.4375 C 5.113281 16.507812 5.234375 16.480469 5.335938 16.457031 L 5.351562 16.3125 Z M 5.171875 16.4375 "/>
<path style=" stroke:none;fill-rule:nonzero;fill:rgb(17.254902%,17.254902%,17.254902%);fill-opacity:1;" d="M 5.601562 16.203125 L 5.75 15.980469 L 5.632812 16.121094 C 5.433594 16.175781 5.585938 16.003906 5.636719 15.949219 C 5.375 16.136719 5.609375 16.121094 5.601562 16.203125 Z M 5.601562 16.203125 "/>
<path style=" stroke:none;fill-rule:nonzero;fill:rgb(17.254902%,17.254902%,17.254902%);fill-opacity:1;" d="M 5.960938 15.871094 C 6.101562 15.800781 6.023438 15.753906 5.957031 15.769531 C 5.960938 15.804688 5.894531 15.890625 5.960938 15.871094 Z M 5.960938 15.871094 "/>
<path style=" stroke:none;fill-rule:nonzero;fill:rgb(17.254902%,17.254902%,17.254902%);fill-opacity:1;" d="M 14.863281 11.808594 C 14.816406 11.8125 14.765625 11.824219 14.757812 11.804688 C 14.722656 11.835938 14.71875 11.859375 14.863281 11.808594 Z M 14.863281 11.808594 "/>
<path style=" stroke:none;fill-rule:nonzero;fill:rgb(17.254902%,17.254902%,17.254902%);fill-opacity:1;" d="M 14.757812 11.796875 L 14.78125 11.777344 C 14.773438 11.785156 14.769531 11.789062 14.757812 11.792969 C 14.757812 11.789062 14.757812 11.796875 14.757812 11.796875 Z M 14.757812 11.796875 "/>
<path style=" stroke:none;fill-rule:nonzero;fill:rgb(17.254902%,17.254902%,17.254902%);fill-opacity:1;" d="M 11.460938 12.261719 C 11.324219 12.394531 11.222656 12.398438 11.082031 12.496094 L 10.957031 12.449219 C 10.808594 12.558594 10.917969 12.558594 10.820312 12.660156 C 10.644531 12.675781 10.351562 12.882812 10.277344 12.914062 C 10.210938 12.898438 10.3125 12.824219 10.320312 12.792969 C 10.148438 12.917969 10.199219 12.996094 9.957031 13.113281 L 9.941406 13.09375 C 9.433594 13.5 8.699219 13.828125 8.109375 14.238281 C 8.15625 14.222656 8.15625 14.242188 8.175781 14.25 C 7.527344 14.625 6.777344 15.054688 6.386719 15.550781 C 6.726562 15.328125 7.390625 15.125 7.667969 14.78125 C 7.832031 14.773438 7.992188 14.570312 8.09375 14.628906 C 8.632812 14.386719 8.761719 14.128906 9.257812 13.867188 C 9.339844 13.847656 9.324219 13.910156 9.367188 13.933594 L 8.992188 14.179688 L 9.25 14.089844 C 9.160156 14.179688 8.894531 14.285156 8.90625 14.375 C 9.203125 14.109375 9.792969 13.898438 10.039062 13.640625 C 9.886719 13.695312 9.722656 13.800781 9.546875 13.882812 C 9.460938 13.894531 9.335938 13.929688 9.320312 13.882812 C 9.742188 13.519531 10.179688 13.378906 10.65625 13.101562 C 10.773438 13.035156 10.949219 12.953125 10.996094 12.988281 C 10.921875 13.046875 11 13.046875 10.9375 13.097656 C 11.097656 12.980469 10.882812 12.9375 11.148438 12.835938 L 11.183594 12.996094 C 11.214844 12.792969 11.507812 12.871094 11.652344 12.699219 C 11.746094 12.726562 11.640625 12.816406 11.503906 12.886719 C 11.671875 12.835938 11.652344 12.742188 11.773438 12.6875 L 11.714844 12.871094 C 11.796875 12.6875 11.964844 12.78125 12.0625 12.78125 C 12.058594 12.742188 11.945312 12.683594 12.113281 12.613281 C 12.195312 12.601562 12.171875 12.644531 12.203125 12.65625 C 12.195312 12.621094 12.230469 12.539062 12.34375 12.480469 C 12.386719 12.519531 12.300781 12.578125 12.308594 12.625 C 12.398438 12.585938 12.457031 12.539062 12.535156 12.542969 C 12.675781 12.441406 12.5 12.488281 12.570312 12.398438 C 12.816406 12.328125 12.660156 12.539062 12.78125 12.585938 C 12.628906 12.722656 12.425781 12.839844 12.351562 12.921875 L 12.660156 12.734375 C 12.660156 12.789062 12.921875 12.71875 12.765625 12.839844 C 13.125 12.738281 13.5 12.496094 13.804688 12.316406 C 13.753906 12.324219 13.691406 12.332031 13.6875 12.300781 C 13.839844 12.199219 13.84375 12.265625 13.894531 12.285156 C 14.003906 12.195312 13.953125 12.121094 14 12.023438 C 14.285156 11.976562 14.300781 11.921875 14.5625 11.925781 L 14.511719 11.84375 C 14.699219 11.84375 14.660156 11.707031 14.851562 11.679688 C 14.867188 11.691406 14.816406 11.742188 14.769531 11.789062 C 14.902344 11.695312 14.933594 11.796875 15.0625 11.699219 L 14.996094 11.84375 C 15.109375 11.789062 15.257812 11.6875 15.238281 11.792969 C 15.390625 11.601562 15.753906 11.492188 15.980469 11.324219 L 15.996094 11.410156 C 16.085938 11.257812 16.46875 11.207031 16.535156 11.046875 L 16.570312 11.070312 L 16.78125 10.859375 C 16.902344 10.816406 16.90625 10.945312 16.90625 10.910156 C 17.152344 10.777344 17.347656 10.695312 17.527344 10.664062 C 17.527344 10.550781 17.785156 10.410156 17.996094 10.3125 C 19.050781 9.960938 20.140625 9.476562 21.113281 9.085938 C 21.261719 9.046875 21.433594 8.875 21.613281 8.777344 C 21.375 8.816406 21.367188 8.871094 21.140625 8.929688 C 20.96875 8.941406 20.875 8.859375 20.707031 8.832031 L 20.804688 8.898438 C 20.59375 9.035156 20.632812 8.898438 20.476562 9.035156 L 20.4375 8.890625 C 20.394531 8.984375 20.21875 8.972656 20.140625 8.957031 L 20.109375 9.070312 C 19.949219 9.066406 19.847656 9.070312 19.769531 9 L 19.8125 9.085938 C 19.742188 9.046875 19.261719 9.28125 19.386719 9.078125 C 19.351562 9.113281 19.328125 9.167969 19.230469 9.191406 L 19.1875 9.109375 C 19.0625 9.175781 18.925781 9.246094 18.867188 9.210938 C 18.929688 9.164062 18.9375 9.117188 18.953125 9.066406 C 18.394531 9.257812 18.9375 9.390625 18.457031 9.578125 L 18.441406 9.523438 L 18.339844 9.632812 L 18.183594 9.609375 C 18.082031 9.867188 17.5 9.863281 17.253906 10.078125 C 17.148438 10.140625 16.953125 10.089844 16.742188 10.191406 L 16.792969 10.273438 C 16.582031 10.261719 15.917969 10.484375 15.667969 10.359375 C 15.535156 10.5 15.6875 10.371094 15.71875 10.441406 C 15.445312 10.667969 15.363281 10.546875 15.175781 10.578125 C 15 10.710938 15.335938 10.539062 15.261719 10.648438 C 14.9375 10.714844 15.066406 10.859375 14.683594 10.964844 C 14.625 10.9375 14.765625 10.894531 14.785156 10.84375 C 14.570312 11.042969 14.066406 11.207031 13.695312 11.398438 C 13.1875 11.566406 12.636719 11.753906 12.023438 11.964844 L 12.027344 12 C 11.78125 12.019531 11.585938 12.199219 11.324219 12.285156 Z M 11.460938 12.261719 "/>
<path style=" stroke:none;fill-rule:nonzero;fill:rgb(17.254902%,17.254902%,17.254902%);fill-opacity:1;" d="M 8.851562 14.519531 L 8.925781 14.570312 L 9.125 14.40625 C 9.011719 14.390625 8.992188 14.46875 8.851562 14.519531 Z M 8.851562 14.519531 "/>
<path style=" stroke:none;fill-rule:nonzero;fill:rgb(17.254902%,17.254902%,17.254902%);fill-opacity:1;" d="M 8.882812 14.269531 L 8.792969 14.277344 L 8.6875 14.375 Z M 8.882812 14.269531 "/>
<path style=" stroke:none;fill-rule:nonzero;fill:rgb(17.254902%,17.254902%,17.254902%);fill-opacity:1;" d="M 11.3125 13.230469 L 11.761719 12.953125 L 11.722656 12.953125 Z M 11.3125 13.230469 "/>
<path style=" stroke:none;fill-rule:nonzero;fill:rgb(17.254902%,17.254902%,17.254902%);fill-opacity:1;" d="M 14.878906 11.886719 C 14.839844 11.949219 14.765625 11.96875 14.722656 12.007812 L 14.914062 11.875 Z M 14.878906 11.886719 "/>
<path style=" stroke:none;fill-rule:nonzero;fill:rgb(17.254902%,17.254902%,17.254902%);fill-opacity:1;" d="M 17.007812 11.289062 C 17.027344 11.125 17.167969 11.230469 17.007812 11.152344 C 16.902344 11.222656 17.023438 11.230469 17.007812 11.289062 Z M 17.007812 11.289062 "/>
<path style=" stroke:none;fill-rule:nonzero;fill:rgb(17.254902%,17.254902%,17.254902%);fill-opacity:1;" d="M 17.394531 10.898438 C 17.320312 10.929688 17.289062 10.960938 17.253906 10.996094 C 17.378906 11.011719 17.347656 10.945312 17.394531 10.898438 Z M 17.394531 10.898438 "/>
<path style=" stroke:none;fill-rule:nonzero;fill:rgb(17.254902%,17.254902%,17.254902%);fill-opacity:1;" d="M 8.550781 21.929688 C 8.503906 22.003906 8.617188 21.972656 8.710938 21.941406 L 8.707031 21.796875 Z M 8.550781 21.929688 "/>
<path style=" stroke:none;fill-rule:nonzero;fill:rgb(17.254902%,17.254902%,17.254902%);fill-opacity:1;" d="M 8.925781 21.671875 L 9.039062 21.4375 L 8.9375 21.582031 C 8.75 21.644531 8.878906 21.46875 8.925781 21.40625 C 8.695312 21.613281 8.925781 21.585938 8.925781 21.671875 Z M 8.925781 21.671875 "/>
<path style=" stroke:none;fill-rule:nonzero;fill:rgb(17.254902%,17.254902%,17.254902%);fill-opacity:1;" d="M 9.234375 21.328125 C 9.359375 21.246094 9.28125 21.210938 9.21875 21.226562 C 9.230469 21.257812 9.171875 21.34375 9.234375 21.328125 Z M 9.234375 21.328125 "/>
<path style=" stroke:none;fill-rule:nonzero;fill:rgb(17.254902%,17.254902%,17.254902%);fill-opacity:1;" d="M 17.5625 17.617188 C 17.519531 17.617188 17.472656 17.625 17.464844 17.605469 C 17.4375 17.648438 17.4375 17.667969 17.5625 17.617188 Z M 17.5625 17.617188 "/>
<path style=" stroke:none;fill-rule:nonzero;fill:rgb(17.254902%,17.254902%,17.254902%);fill-opacity:1;" d="M 17.464844 17.605469 L 17.488281 17.585938 C 17.480469 17.589844 17.476562 17.589844 17.464844 17.601562 C 17.460938 17.601562 17.464844 17.605469 17.464844 17.605469 Z M 17.464844 17.605469 "/>
<path style=" stroke:none;fill-rule:nonzero;fill:rgb(17.254902%,17.254902%,17.254902%);fill-opacity:1;" d="M 14.402344 18.015625 C 14.277344 18.136719 14.179688 18.140625 14.046875 18.226562 L 13.929688 18.175781 C 13.785156 18.273438 13.890625 18.277344 13.804688 18.375 C 13.640625 18.382812 13.363281 18.566406 13.296875 18.59375 C 13.234375 18.570312 13.332031 18.511719 13.34375 18.480469 C 13.179688 18.585938 13.222656 18.667969 13 18.773438 L 12.984375 18.75 C 12.496094 19.117188 11.796875 19.394531 11.230469 19.761719 C 11.273438 19.746094 11.273438 19.769531 11.292969 19.777344 C 10.675781 20.117188 9.964844 20.523438 9.621094 21.011719 C 9.925781 20.785156 10.550781 20.601562 10.8125 20.277344 C 10.964844 20.273438 11.117188 20.082031 11.214844 20.144531 C 11.726562 19.9375 11.847656 19.691406 12.332031 19.46875 C 12.402344 19.457031 12.394531 19.515625 12.433594 19.542969 L 12.074219 19.757812 L 12.320312 19.691406 C 12.238281 19.777344 11.980469 19.855469 11.996094 19.949219 C 12.285156 19.703125 12.84375 19.539062 13.082031 19.296875 C 12.9375 19.335938 12.777344 19.433594 12.613281 19.5 C 12.527344 19.507812 12.414062 19.539062 12.398438 19.492188 C 12.804688 19.164062 13.214844 19.050781 13.671875 18.808594 C 13.785156 18.746094 13.949219 18.683594 13.984375 18.714844 C 13.917969 18.765625 13.984375 18.773438 13.933594 18.824219 C 14.085938 18.714844 13.882812 18.664062 14.132812 18.570312 L 14.167969 18.730469 C 14.199219 18.535156 14.476562 18.628906 14.609375 18.457031 C 14.699219 18.488281 14.601562 18.570312 14.46875 18.632812 C 14.625 18.59375 14.605469 18.5 14.722656 18.449219 L 14.667969 18.625 C 14.738281 18.449219 14.910156 18.539062 14.996094 18.550781 C 14.992188 18.515625 14.882812 18.453125 15.042969 18.386719 C 15.113281 18.371094 15.097656 18.417969 15.125 18.429688 C 15.121094 18.390625 15.144531 18.316406 15.246094 18.257812 C 15.289062 18.292969 15.207031 18.355469 15.21875 18.398438 C 15.300781 18.355469 15.355469 18.316406 15.425781 18.324219 C 15.546875 18.222656 15.386719 18.269531 15.449219 18.179688 C 15.675781 18.109375 15.539062 18.316406 15.660156 18.367188 C 15.523438 18.503906 15.328125 18.625 15.253906 18.695312 L 15.550781 18.511719 C 15.554688 18.566406 15.800781 18.496094 15.660156 18.617188 C 15.988281 18.515625 16.332031 18.273438 16.609375 18.097656 C 16.558594 18.105469 16.5 18.113281 16.496094 18.082031 C 16.632812 17.980469 16.644531 18.046875 16.695312 18.074219 C 16.792969 17.988281 16.742188 17.910156 16.785156 17.816406 C 17.050781 17.777344 17.0625 17.71875 17.308594 17.730469 L 17.253906 17.648438 C 17.425781 17.648438 17.394531 17.515625 17.5625 17.492188 C 17.578125 17.503906 17.527344 17.554688 17.496094 17.597656 C 17.621094 17.503906 17.652344 17.613281 17.769531 17.515625 L 17.707031 17.65625 C 17.808594 17.605469 17.953125 17.507812 17.933594 17.613281 C 18.078125 17.4375 18.410156 17.324219 18.617188 17.167969 L 18.632812 17.253906 C 18.714844 17.109375 19.074219 17.0625 19.128906 16.914062 L 19.160156 16.933594 L 19.355469 16.734375 C 19.46875 16.691406 19.480469 16.820312 19.472656 16.785156 C 19.699219 16.667969 19.886719 16.578125 20.054688 16.546875 C 20.050781 16.433594 20.289062 16.296875 20.480469 16.199219 C 21.460938 15.84375 22.453125 15.296875 23.273438 14.761719 C 23.398438 14.695312 23.53125 14.5 23.671875 14.371094 C 23.460938 14.441406 23.464844 14.503906 23.269531 14.597656 C 23.109375 14.644531 23.007812 14.566406 22.851562 14.566406 L 22.957031 14.617188 C 22.792969 14.777344 22.796875 14.636719 22.683594 14.792969 L 22.628906 14.652344 C 22.605469 14.746094 22.4375 14.757812 22.367188 14.75 L 22.355469 14.863281 C 22.207031 14.867188 22.113281 14.882812 22.035156 14.824219 L 22.089844 14.90625 C 22.015625 14.875 21.609375 15.132812 21.6875 14.921875 C 21.65625 14.957031 21.648438 15.019531 21.566406 15.039062 L 21.511719 14.957031 C 21.40625 15.027344 21.289062 15.105469 21.226562 15.070312 C 21.277344 15.023438 21.28125 14.972656 21.289062 14.925781 C 20.789062 15.132812 21.300781 15.242188 20.871094 15.445312 L 20.855469 15.386719 L 20.769531 15.496094 L 20.621094 15.480469 C 20.546875 15.738281 20 15.730469 19.773438 15.941406 C 19.675781 16.003906 19.484375 15.953125 19.300781 16.050781 L 19.351562 16.132812 C 19.152344 16.117188 18.535156 16.324219 18.296875 16.1875 C 18.179688 16.324219 18.320312 16.199219 18.351562 16.269531 C 18.09375 16.488281 18.011719 16.363281 17.839844 16.382812 C 17.683594 16.503906 17.996094 16.351562 17.929688 16.464844 C 17.621094 16.527344 17.753906 16.667969 17.378906 16.769531 C 17.324219 16.734375 17.449219 16.699219 17.476562 16.652344 C 17.277344 16.847656 16.804688 17 16.453125 17.179688 C 16.011719 17.3125 15.414062 17.589844 14.914062 17.734375 L 14.917969 17.769531 C 14.699219 17.78125 14.519531 17.957031 14.273438 18.015625 Z M 14.402344 18.015625 "/>
<path style=" stroke:none;fill-rule:nonzero;fill:rgb(17.254902%,17.254902%,17.254902%);fill-opacity:1;" d="M 11.925781 20.078125 L 11.992188 20.128906 L 12.1875 19.980469 C 12.074219 19.96875 12.046875 20.039062 11.925781 20.078125 Z M 11.925781 20.078125 "/>
<path style=" stroke:none;fill-rule:nonzero;fill:rgb(17.254902%,17.254902%,17.254902%);fill-opacity:1;" d="M 11.867188 19.84375 L 11.769531 19.925781 L 11.949219 19.839844 Z M 11.867188 19.84375 "/>
<path style=" stroke:none;fill-rule:nonzero;fill:rgb(17.254902%,17.254902%,17.254902%);fill-opacity:1;" d="M 14.683594 18.714844 L 14.652344 18.722656 L 14.261719 18.960938 Z M 14.683594 18.714844 "/>
<path style=" stroke:none;fill-rule:nonzero;fill:rgb(17.254902%,17.254902%,17.254902%);fill-opacity:1;" d="M 17.578125 17.699219 C 17.546875 17.753906 17.476562 17.769531 17.4375 17.816406 L 17.609375 17.695312 Z M 17.578125 17.699219 "/>
<path style=" stroke:none;fill-rule:nonzero;fill:rgb(17.254902%,17.254902%,17.254902%);fill-opacity:1;" d="M 19.582031 17.160156 C 19.597656 17 19.730469 17.097656 19.582031 17.019531 C 19.472656 17.097656 19.597656 17.101562 19.582031 17.160156 Z M 19.582031 17.160156 "/>
<path style=" stroke:none;fill-rule:nonzero;fill:rgb(17.254902%,17.254902%,17.254902%);fill-opacity:1;" d="M 19.9375 16.785156 C 19.871094 16.804688 19.839844 16.847656 19.8125 16.882812 C 19.921875 16.898438 19.902344 16.832031 19.9375 16.785156 Z M 19.9375 16.785156 "/>
</g>
</svg>
