<?xml version="1.0" encoding="UTF-8"?>
<svg xmlns="http://www.w3.org/2000/svg" xmlns:xlink="http://www.w3.org/1999/xlink" width="32pt" height="32pt" viewBox="0 0 32 32" version="1.1">
<defs>
<filter id="alpha" filterUnits="objectBoundingBox" x="0%" y="0%" width="100%" height="100%">
  <feColorMatrix type="matrix" in="SourceGraphic" values="0 0 0 0 1 0 0 0 0 1 0 0 0 0 1 0 0 0 1 0"/>
</filter>
<mask id="mask0">
  <g filter="url(#alpha)">
<rect x="0" y="0" width="32" height="32" style="fill:rgb(0%,0%,0%);fill-opacity:0.2;stroke:none;"/>
  </g>
</mask>
<clipPath id="clip1">
  <rect width="32" height="32"/>
</clipPath>
<g id="surface6" clip-path="url(#clip1)">
<path style=" stroke:none;fill-rule:nonzero;fill:rgb(0%,0%,0%);fill-opacity:1;" d="M 2.339844 12.285156 L 29.660156 12.285156 C 30.398438 12.285156 31 12.886719 31 13.625 L 31 29.160156 C 31 29.898438 30.398438 30.5 29.660156 30.5 L 2.339844 30.5 C 1.601562 30.5 1 29.898438 1 29.160156 L 1 13.625 C 1 12.886719 1.601562 12.285156 2.339844 12.285156 Z M 2.339844 12.285156 "/>
</g>
<mask id="mask1">
  <g filter="url(#alpha)">
<rect x="0" y="0" width="32" height="32" style="fill:rgb(0%,0%,0%);fill-opacity:0.501961;stroke:none;"/>
  </g>
</mask>
<clipPath id="clip2">
  <rect width="32" height="32"/>
</clipPath>
<g id="surface9" clip-path="url(#clip2)">
<path style=" stroke:none;fill-rule:nonzero;fill:rgb(0%,0%,0%);fill-opacity:1;" d="M 7.429688 6.394531 L 12.785156 6.394531 L 12.785156 9.605469 L 7.429688 9.605469 Z M 7.429688 6.394531 "/>
</g>
<mask id="mask2">
  <g filter="url(#alpha)">
<rect x="0" y="0" width="32" height="32" style="fill:rgb(0%,0%,0%);fill-opacity:0.501961;stroke:none;"/>
  </g>
</mask>
<clipPath id="clip3">
  <rect width="32" height="32"/>
</clipPath>
<g id="surface12" clip-path="url(#clip3)">
<path style=" stroke:none;fill-rule:nonzero;fill:rgb(0%,0%,0%);fill-opacity:1;" d="M 19.214844 6.394531 L 24.570312 6.394531 L 24.570312 9.605469 L 19.214844 9.605469 Z M 19.214844 6.394531 "/>
</g>
<mask id="mask3">
  <g filter="url(#alpha)">
<rect x="0" y="0" width="32" height="32" style="fill:rgb(0%,0%,0%);fill-opacity:0.2;stroke:none;"/>
  </g>
</mask>
<clipPath id="clip4">
  <rect width="32" height="32"/>
</clipPath>
<g id="surface15" clip-path="url(#clip4)">
<path style=" stroke:none;fill-rule:nonzero;fill:rgb(100%,100%,100%);fill-opacity:1;" d="M 5.285156 2.105469 L 5.285156 2.644531 L 26.714844 2.644531 L 26.714844 2.105469 Z M 5.285156 2.105469 "/>
</g>
</defs>
<g id="surface1">
<use xlink:href="#surface6" mask="url(#mask0)"/>
<path style=" stroke:none;fill-rule:nonzero;fill:rgb(71.764706%,71.764706%,71.764706%);fill-opacity:1;" d="M 5.285156 2.105469 L 26.714844 2.105469 L 26.714844 12.820312 L 5.285156 12.820312 Z M 5.285156 2.105469 "/>
<path style=" stroke:none;fill-rule:nonzero;fill:rgb(35.686275%,35.686275%,35.686275%);fill-opacity:1;" d="M 2.339844 11.75 L 29.660156 11.75 C 30.398438 11.75 31 12.351562 31 13.089844 L 31 28.625 C 31 29.363281 30.398438 29.964844 29.660156 29.964844 L 2.339844 29.964844 C 1.601562 29.964844 1 29.363281 1 28.625 L 1 13.089844 C 1 12.351562 1.601562 11.75 2.339844 11.75 Z M 2.339844 11.75 "/>
<use xlink:href="#surface9" mask="url(#mask1)"/>
<use xlink:href="#surface12" mask="url(#mask2)"/>
<use xlink:href="#surface15" mask="url(#mask3)"/>
<path style=" stroke:none;fill-rule:nonzero;fill:rgb(100%,79.607843%,3.137255%);fill-opacity:1;" d="M 12.398438 21.601562 C 12.398438 22.230469 12.183594 22.753906 11.75 23.183594 C 11.300781 23.636719 10.777344 23.851562 10.148438 23.851562 C 10.148438 23.851562 9.699219 23.851562 9.699219 23.851562 C 9.394531 23.851562 9.25 23.996094 9.25 24.300781 C 9.25 24.300781 9.25 26.101562 9.25 26.101562 C 9.25 26.351562 9.160156 26.566406 8.996094 26.730469 C 8.816406 26.910156 8.601562 27 8.347656 27 C 8.347656 27 7.898438 27 7.898438 27 C 7.648438 27 7.433594 26.910156 7.269531 26.730469 C 7.089844 26.566406 7 26.351562 7 26.101562 C 7 26.101562 7 15.753906 7 15.753906 C 7 15.125 7.214844 14.601562 7.664062 14.152344 C 8.097656 13.722656 8.621094 13.503906 9.25 13.503906 C 9.25 13.503906 10.148438 13.503906 10.148438 13.503906 C 10.777344 13.503906 11.300781 13.722656 11.75 14.152344 C 12.183594 14.601562 12.398438 15.125 12.398438 15.753906 C 12.398438 15.753906 12.398438 21.601562 12.398438 21.601562 Z M 10.148438 21.152344 C 10.148438 21.152344 10.148438 16.203125 10.148438 16.203125 C 10.148438 15.898438 10.003906 15.753906 9.699219 15.753906 C 9.394531 15.753906 9.25 15.898438 9.25 16.203125 C 9.25 16.203125 9.25 21.152344 9.25 21.152344 C 9.25 21.457031 9.394531 21.601562 9.699219 21.601562 C 10.003906 21.601562 10.148438 21.457031 10.148438 21.152344 Z M 10.148438 21.152344 "/>
<path style=" stroke:none;fill-rule:nonzero;fill:rgb(100%,79.607843%,3.137255%);fill-opacity:1;" d="M 15.539062 26.101562 C 15.539062 26.351562 15.449219 26.566406 15.289062 26.730469 C 15.109375 26.910156 14.890625 27 14.640625 27 C 14.640625 27 14.191406 27 14.191406 27 C 13.9375 27 13.722656 26.910156 13.558594 26.730469 C 13.378906 26.566406 13.289062 26.351562 13.289062 26.101562 C 13.289062 26.101562 13.289062 14.40625 13.289062 14.40625 C 13.289062 14.152344 13.378906 13.9375 13.558594 13.757812 C 13.722656 13.59375 13.9375 13.503906 14.191406 13.503906 C 14.191406 13.503906 14.640625 13.503906 14.640625 13.503906 C 14.890625 13.503906 15.109375 13.59375 15.289062 13.757812 C 15.449219 13.9375 15.539062 14.152344 15.539062 14.40625 C 15.539062 14.40625 15.539062 26.101562 15.539062 26.101562 Z M 15.539062 26.101562 "/>
<path style=" stroke:none;fill-rule:nonzero;fill:rgb(100%,79.607843%,3.137255%);fill-opacity:1;" d="M 25 24.75 C 25 25.378906 24.785156 25.902344 24.351562 26.335938 C 23.902344 26.785156 23.378906 27 22.75 27 C 22.75 27 21.851562 27 21.851562 27 C 21.4375 27 21.078125 26.890625 20.734375 26.695312 C 20.394531 26.890625 20.015625 27 19.601562 27 C 19.601562 27 18.703125 27 18.703125 27 C 18.074219 27 17.550781 26.785156 17.117188 26.335938 C 16.667969 25.902344 16.453125 25.378906 16.453125 24.75 C 16.453125 24.75 16.453125 14.40625 16.453125 14.40625 C 16.453125 14.152344 16.542969 13.9375 16.722656 13.757812 C 16.886719 13.59375 17.101562 13.503906 17.351562 13.503906 C 17.351562 13.503906 17.804688 13.503906 17.804688 13.503906 C 18.054688 13.503906 18.269531 13.59375 18.449219 13.757812 C 18.613281 13.9375 18.703125 14.152344 18.703125 14.40625 C 18.703125 14.40625 18.703125 24.300781 18.703125 24.300781 C 18.703125 24.605469 18.847656 24.75 19.152344 24.75 C 19.457031 24.75 19.601562 24.605469 19.601562 24.300781 C 19.601562 24.300781 19.601562 14.40625 19.601562 14.40625 C 19.601562 14.152344 19.691406 13.9375 19.871094 13.757812 C 20.035156 13.59375 20.25 13.503906 20.5 13.503906 C 20.5 13.503906 20.953125 13.503906 20.953125 13.503906 C 21.203125 13.503906 21.417969 13.59375 21.597656 13.757812 C 21.761719 13.9375 21.851562 14.152344 21.851562 14.40625 C 21.851562 14.40625 21.851562 24.300781 21.851562 24.300781 C 21.851562 24.605469 21.996094 24.75 22.300781 24.75 C 22.605469 24.75 22.75 24.605469 22.75 24.300781 C 22.75 24.300781 22.75 14.40625 22.75 14.40625 C 22.75 14.152344 22.839844 13.9375 23.019531 13.757812 C 23.183594 13.59375 23.398438 13.503906 23.652344 13.503906 C 23.652344 13.503906 24.101562 13.503906 24.101562 13.503906 C 24.351562 13.503906 24.566406 13.59375 24.75 13.757812 C 24.910156 13.9375 25 14.152344 25 14.40625 C 25 14.40625 25 24.75 25 24.75 Z M 25 24.75 "/>
</g>
</svg>
